<?xml version="1.0" encoding="utf-8" standalone="no"?>
<!DOCTYPE svg PUBLIC "-//W3C//DTD SVG 1.1//EN"
  "http://www.w3.org/Graphics/SVG/1.1/DTD/svg11.dtd">
<svg xmlns:xlink="http://www.w3.org/1999/xlink" width="851.43pt" height="575.646957pt" viewBox="0 0 851.43 575.646957" xmlns="http://www.w3.org/2000/svg" version="1.1">
 <metadata>
  <rdf:RDF xmlns:dc="http://purl.org/dc/elements/1.1/" xmlns:cc="http://creativecommons.org/ns#" xmlns:rdf="http://www.w3.org/1999/02/22-rdf-syntax-ns#">
   <cc:Work>
    <dc:type rdf:resource="http://purl.org/dc/dcmitype/StillImage"/>
    <dc:date>2023-10-05T12:27:28.606173</dc:date>
    <dc:format>image/svg+xml</dc:format>
    <dc:creator>
     <cc:Agent>
      <dc:title>Matplotlib v3.7.0, https://matplotlib.org/</dc:title>
     </cc:Agent>
    </dc:creator>
   </cc:Work>
  </rdf:RDF>
 </metadata>
 <defs>
  <style type="text/css">*{stroke-linejoin: round; stroke-linecap: butt}</style>
 </defs>
 <g id="figure_1">
  <g id="axes_1">
   <g id="patch_1">
    <path d="M 63.03 489.286957 
L 844.23 489.286957 
L 844.23 7.2 
L 63.03 7.2 
z
" style="fill: #ffffff"/>
   </g>
   <g id="matplotlib.axis_1">
    <g id="xtick_1">
     <g id="line2d_1">
      <path d="M 63.03 489.286957 
L 63.03 7.2 
" clip-path="url(#p1cffb97777)" style="fill: none; stroke: #dedede; stroke-linecap: square"/>
     </g>
     <g id="text_1">
      <!-- 0 -->
      <g transform="translate(60.485 502.365707) scale(0.08 -0.08)">
       <defs>
        <path id="DejaVuSans-30" d="M 2034 4250 
Q 1547 4250 1301 3770 
Q 1056 3291 1056 2328 
Q 1056 1369 1301 889 
Q 1547 409 2034 409 
Q 2525 409 2770 889 
Q 3016 1369 3016 2328 
Q 3016 3291 2770 3770 
Q 2525 4250 2034 4250 
z
M 2034 4750 
Q 2819 4750 3233 4129 
Q 3647 3509 3647 2328 
Q 3647 1150 3233 529 
Q 2819 -91 2034 -91 
Q 1250 -91 836 529 
Q 422 1150 422 2328 
Q 422 3509 836 4129 
Q 1250 4750 2034 4750 
z
" transform="scale(0.015625)"/>
       </defs>
       <use xlink:href="#DejaVuSans-30"/>
      </g>
     </g>
    </g>
    <g id="xtick_2">
     <g id="line2d_2">
      <path d="M 214.117639 489.286957 
L 214.117639 7.2 
" clip-path="url(#p1cffb97777)" style="fill: none; stroke: #dedede; stroke-linecap: square"/>
     </g>
     <g id="text_2">
      <!-- 1 -->
      <g transform="translate(211.572639 502.365707) scale(0.08 -0.08)">
       <defs>
        <path id="DejaVuSans-31" d="M 794 531 
L 1825 531 
L 1825 4091 
L 703 3866 
L 703 4441 
L 1819 4666 
L 2450 4666 
L 2450 531 
L 3481 531 
L 3481 0 
L 794 0 
L 794 531 
z
" transform="scale(0.015625)"/>
       </defs>
       <use xlink:href="#DejaVuSans-31"/>
      </g>
     </g>
    </g>
    <g id="xtick_3">
     <g id="line2d_3">
      <path d="M 365.205278 489.286957 
L 365.205278 7.2 
" clip-path="url(#p1cffb97777)" style="fill: none; stroke: #dedede; stroke-linecap: square"/>
     </g>
     <g id="text_3">
      <!-- 2 -->
      <g transform="translate(362.660278 502.365707) scale(0.08 -0.08)">
       <defs>
        <path id="DejaVuSans-32" d="M 1228 531 
L 3431 531 
L 3431 0 
L 469 0 
L 469 531 
Q 828 903 1448 1529 
Q 2069 2156 2228 2338 
Q 2531 2678 2651 2914 
Q 2772 3150 2772 3378 
Q 2772 3750 2511 3984 
Q 2250 4219 1831 4219 
Q 1534 4219 1204 4116 
Q 875 4013 500 3803 
L 500 4441 
Q 881 4594 1212 4672 
Q 1544 4750 1819 4750 
Q 2544 4750 2975 4387 
Q 3406 4025 3406 3419 
Q 3406 3131 3298 2873 
Q 3191 2616 2906 2266 
Q 2828 2175 2409 1742 
Q 1991 1309 1228 531 
z
" transform="scale(0.015625)"/>
       </defs>
       <use xlink:href="#DejaVuSans-32"/>
      </g>
     </g>
    </g>
    <g id="xtick_4">
     <g id="line2d_4">
      <path d="M 516.292917 489.286957 
L 516.292917 7.2 
" clip-path="url(#p1cffb97777)" style="fill: none; stroke: #dedede; stroke-linecap: square"/>
     </g>
     <g id="text_4">
      <!-- 3 -->
      <g transform="translate(513.747917 502.365707) scale(0.08 -0.08)">
       <defs>
        <path id="DejaVuSans-33" d="M 2597 2516 
Q 3050 2419 3304 2112 
Q 3559 1806 3559 1356 
Q 3559 666 3084 287 
Q 2609 -91 1734 -91 
Q 1441 -91 1130 -33 
Q 819 25 488 141 
L 488 750 
Q 750 597 1062 519 
Q 1375 441 1716 441 
Q 2309 441 2620 675 
Q 2931 909 2931 1356 
Q 2931 1769 2642 2001 
Q 2353 2234 1838 2234 
L 1294 2234 
L 1294 2753 
L 1863 2753 
Q 2328 2753 2575 2939 
Q 2822 3125 2822 3475 
Q 2822 3834 2567 4026 
Q 2313 4219 1838 4219 
Q 1578 4219 1281 4162 
Q 984 4106 628 3988 
L 628 4550 
Q 988 4650 1302 4700 
Q 1616 4750 1894 4750 
Q 2613 4750 3031 4423 
Q 3450 4097 3450 3541 
Q 3450 3153 3228 2886 
Q 3006 2619 2597 2516 
z
" transform="scale(0.015625)"/>
       </defs>
       <use xlink:href="#DejaVuSans-33"/>
      </g>
     </g>
    </g>
    <g id="xtick_5">
     <g id="line2d_5">
      <path d="M 667.380556 489.286957 
L 667.380556 7.2 
" clip-path="url(#p1cffb97777)" style="fill: none; stroke: #dedede; stroke-linecap: square"/>
     </g>
     <g id="text_5">
      <!-- 4 -->
      <g transform="translate(664.835556 502.365707) scale(0.08 -0.08)">
       <defs>
        <path id="DejaVuSans-34" d="M 2419 4116 
L 825 1625 
L 2419 1625 
L 2419 4116 
z
M 2253 4666 
L 3047 4666 
L 3047 1625 
L 3713 1625 
L 3713 1100 
L 3047 1100 
L 3047 0 
L 2419 0 
L 2419 1100 
L 313 1100 
L 313 1709 
L 2253 4666 
z
" transform="scale(0.015625)"/>
       </defs>
       <use xlink:href="#DejaVuSans-34"/>
      </g>
     </g>
    </g>
    <g id="xtick_6">
     <g id="line2d_6">
      <path d="M 818.468195 489.286957 
L 818.468195 7.2 
" clip-path="url(#p1cffb97777)" style="fill: none; stroke: #dedede; stroke-linecap: square"/>
     </g>
     <g id="text_6">
      <!-- 5 -->
      <g transform="translate(815.923195 502.365707) scale(0.08 -0.08)">
       <defs>
        <path id="DejaVuSans-35" d="M 691 4666 
L 3169 4666 
L 3169 4134 
L 1269 4134 
L 1269 2991 
Q 1406 3038 1543 3061 
Q 1681 3084 1819 3084 
Q 2600 3084 3056 2656 
Q 3513 2228 3513 1497 
Q 3513 744 3044 326 
Q 2575 -91 1722 -91 
Q 1428 -91 1123 -41 
Q 819 9 494 109 
L 494 744 
Q 775 591 1075 516 
Q 1375 441 1709 441 
Q 2250 441 2565 725 
Q 2881 1009 2881 1497 
Q 2881 1984 2565 2268 
Q 2250 2553 1709 2553 
Q 1456 2553 1204 2497 
Q 953 2441 691 2322 
L 691 4666 
z
" transform="scale(0.015625)"/>
       </defs>
       <use xlink:href="#DejaVuSans-35"/>
      </g>
     </g>
    </g>
    <g id="text_7">
     <!-- # Reads -->
     <g transform="translate(432.682344 515.627894) scale(0.1 -0.1)">
      <defs>
       <path id="DejaVuSans-23" d="M 3272 2816 
L 2363 2816 
L 2100 1772 
L 3016 1772 
L 3272 2816 
z
M 2803 4594 
L 2478 3297 
L 3391 3297 
L 3719 4594 
L 4219 4594 
L 3897 3297 
L 4872 3297 
L 4872 2816 
L 3775 2816 
L 3519 1772 
L 4513 1772 
L 4513 1294 
L 3397 1294 
L 3072 0 
L 2572 0 
L 2894 1294 
L 1978 1294 
L 1656 0 
L 1153 0 
L 1478 1294 
L 494 1294 
L 494 1772 
L 1594 1772 
L 1856 2816 
L 850 2816 
L 850 3297 
L 1978 3297 
L 2297 4594 
L 2803 4594 
z
" transform="scale(0.015625)"/>
       <path id="DejaVuSans-20" transform="scale(0.015625)"/>
       <path id="DejaVuSans-52" d="M 2841 2188 
Q 3044 2119 3236 1894 
Q 3428 1669 3622 1275 
L 4263 0 
L 3584 0 
L 2988 1197 
Q 2756 1666 2539 1819 
Q 2322 1972 1947 1972 
L 1259 1972 
L 1259 0 
L 628 0 
L 628 4666 
L 2053 4666 
Q 2853 4666 3247 4331 
Q 3641 3997 3641 3322 
Q 3641 2881 3436 2590 
Q 3231 2300 2841 2188 
z
M 1259 4147 
L 1259 2491 
L 2053 2491 
Q 2509 2491 2742 2702 
Q 2975 2913 2975 3322 
Q 2975 3731 2742 3939 
Q 2509 4147 2053 4147 
L 1259 4147 
z
" transform="scale(0.015625)"/>
       <path id="DejaVuSans-65" d="M 3597 1894 
L 3597 1613 
L 953 1613 
Q 991 1019 1311 708 
Q 1631 397 2203 397 
Q 2534 397 2845 478 
Q 3156 559 3463 722 
L 3463 178 
Q 3153 47 2828 -22 
Q 2503 -91 2169 -91 
Q 1331 -91 842 396 
Q 353 884 353 1716 
Q 353 2575 817 3079 
Q 1281 3584 2069 3584 
Q 2775 3584 3186 3129 
Q 3597 2675 3597 1894 
z
M 3022 2063 
Q 3016 2534 2758 2815 
Q 2500 3097 2075 3097 
Q 1594 3097 1305 2825 
Q 1016 2553 972 2059 
L 3022 2063 
z
" transform="scale(0.015625)"/>
       <path id="DejaVuSans-61" d="M 2194 1759 
Q 1497 1759 1228 1600 
Q 959 1441 959 1056 
Q 959 750 1161 570 
Q 1363 391 1709 391 
Q 2188 391 2477 730 
Q 2766 1069 2766 1631 
L 2766 1759 
L 2194 1759 
z
M 3341 1997 
L 3341 0 
L 2766 0 
L 2766 531 
Q 2569 213 2275 61 
Q 1981 -91 1556 -91 
Q 1019 -91 701 211 
Q 384 513 384 1019 
Q 384 1609 779 1909 
Q 1175 2209 1959 2209 
L 2766 2209 
L 2766 2266 
Q 2766 2663 2505 2880 
Q 2244 3097 1772 3097 
Q 1472 3097 1187 3025 
Q 903 2953 641 2809 
L 641 3341 
Q 956 3463 1253 3523 
Q 1550 3584 1831 3584 
Q 2591 3584 2966 3190 
Q 3341 2797 3341 1997 
z
" transform="scale(0.015625)"/>
       <path id="DejaVuSans-64" d="M 2906 2969 
L 2906 4863 
L 3481 4863 
L 3481 0 
L 2906 0 
L 2906 525 
Q 2725 213 2448 61 
Q 2172 -91 1784 -91 
Q 1150 -91 751 415 
Q 353 922 353 1747 
Q 353 2572 751 3078 
Q 1150 3584 1784 3584 
Q 2172 3584 2448 3432 
Q 2725 3281 2906 2969 
z
M 947 1747 
Q 947 1113 1208 752 
Q 1469 391 1925 391 
Q 2381 391 2643 752 
Q 2906 1113 2906 1747 
Q 2906 2381 2643 2742 
Q 2381 3103 1925 3103 
Q 1469 3103 1208 2742 
Q 947 2381 947 1747 
z
" transform="scale(0.015625)"/>
       <path id="DejaVuSans-73" d="M 2834 3397 
L 2834 2853 
Q 2591 2978 2328 3040 
Q 2066 3103 1784 3103 
Q 1356 3103 1142 2972 
Q 928 2841 928 2578 
Q 928 2378 1081 2264 
Q 1234 2150 1697 2047 
L 1894 2003 
Q 2506 1872 2764 1633 
Q 3022 1394 3022 966 
Q 3022 478 2636 193 
Q 2250 -91 1575 -91 
Q 1294 -91 989 -36 
Q 684 19 347 128 
L 347 722 
Q 666 556 975 473 
Q 1284 391 1588 391 
Q 1994 391 2212 530 
Q 2431 669 2431 922 
Q 2431 1156 2273 1281 
Q 2116 1406 1581 1522 
L 1381 1569 
Q 847 1681 609 1914 
Q 372 2147 372 2553 
Q 372 3047 722 3315 
Q 1072 3584 1716 3584 
Q 2034 3584 2315 3537 
Q 2597 3491 2834 3397 
z
" transform="scale(0.015625)"/>
      </defs>
      <use xlink:href="#DejaVuSans-23"/>
      <use xlink:href="#DejaVuSans-20" x="83.789062"/>
      <use xlink:href="#DejaVuSans-52" x="115.576172"/>
      <use xlink:href="#DejaVuSans-65" x="180.558594"/>
      <use xlink:href="#DejaVuSans-61" x="242.082031"/>
      <use xlink:href="#DejaVuSans-64" x="303.361328"/>
      <use xlink:href="#DejaVuSans-73" x="366.837891"/>
     </g>
    </g>
    <g id="text_8">
     <!-- 1e7 -->
     <g transform="translate(825.351875 514.627894) scale(0.1 -0.1)">
      <defs>
       <path id="DejaVuSans-37" d="M 525 4666 
L 3525 4666 
L 3525 4397 
L 1831 0 
L 1172 0 
L 2766 4134 
L 525 4134 
L 525 4666 
z
" transform="scale(0.015625)"/>
      </defs>
      <use xlink:href="#DejaVuSans-31"/>
      <use xlink:href="#DejaVuSans-65" x="63.623047"/>
      <use xlink:href="#DejaVuSans-37" x="125.146484"/>
     </g>
    </g>
   </g>
   <g id="matplotlib.axis_2">
    <g id="ytick_1">
     <g id="text_9">
      <!-- Ctrl_1 -->
      <g transform="translate(32.70625 22.291549) scale(0.08 -0.08)">
       <defs>
        <path id="DejaVuSans-43" d="M 4122 4306 
L 4122 3641 
Q 3803 3938 3442 4084 
Q 3081 4231 2675 4231 
Q 1875 4231 1450 3742 
Q 1025 3253 1025 2328 
Q 1025 1406 1450 917 
Q 1875 428 2675 428 
Q 3081 428 3442 575 
Q 3803 722 4122 1019 
L 4122 359 
Q 3791 134 3420 21 
Q 3050 -91 2638 -91 
Q 1578 -91 968 557 
Q 359 1206 359 2328 
Q 359 3453 968 4101 
Q 1578 4750 2638 4750 
Q 3056 4750 3426 4639 
Q 3797 4528 4122 4306 
z
" transform="scale(0.015625)"/>
        <path id="DejaVuSans-74" d="M 1172 4494 
L 1172 3500 
L 2356 3500 
L 2356 3053 
L 1172 3053 
L 1172 1153 
Q 1172 725 1289 603 
Q 1406 481 1766 481 
L 2356 481 
L 2356 0 
L 1766 0 
Q 1100 0 847 248 
Q 594 497 594 1153 
L 594 3053 
L 172 3053 
L 172 3500 
L 594 3500 
L 594 4494 
L 1172 4494 
z
" transform="scale(0.015625)"/>
        <path id="DejaVuSans-72" d="M 2631 2963 
Q 2534 3019 2420 3045 
Q 2306 3072 2169 3072 
Q 1681 3072 1420 2755 
Q 1159 2438 1159 1844 
L 1159 0 
L 581 0 
L 581 3500 
L 1159 3500 
L 1159 2956 
Q 1341 3275 1631 3429 
Q 1922 3584 2338 3584 
Q 2397 3584 2469 3576 
Q 2541 3569 2628 3553 
L 2631 2963 
z
" transform="scale(0.015625)"/>
        <path id="DejaVuSans-6c" d="M 603 4863 
L 1178 4863 
L 1178 0 
L 603 0 
L 603 4863 
z
" transform="scale(0.015625)"/>
        <path id="DejaVuSans-5f" d="M 3263 -1063 
L 3263 -1509 
L -63 -1509 
L -63 -1063 
L 3263 -1063 
z
" transform="scale(0.015625)"/>
       </defs>
       <use xlink:href="#DejaVuSans-43"/>
       <use xlink:href="#DejaVuSans-74" x="69.824219"/>
       <use xlink:href="#DejaVuSans-72" x="109.033203"/>
       <use xlink:href="#DejaVuSans-6c" x="150.146484"/>
       <use xlink:href="#DejaVuSans-5f" x="177.929688"/>
       <use xlink:href="#DejaVuSans-31" x="227.929688"/>
      </g>
     </g>
    </g>
    <g id="ytick_2">
     <g id="text_10">
      <!-- Ctrl_2 -->
      <g transform="translate(32.70625 46.395897) scale(0.08 -0.08)">
       <use xlink:href="#DejaVuSans-43"/>
       <use xlink:href="#DejaVuSans-74" x="69.824219"/>
       <use xlink:href="#DejaVuSans-72" x="109.033203"/>
       <use xlink:href="#DejaVuSans-6c" x="150.146484"/>
       <use xlink:href="#DejaVuSans-5f" x="177.929688"/>
       <use xlink:href="#DejaVuSans-32" x="227.929688"/>
      </g>
     </g>
    </g>
    <g id="ytick_3">
     <g id="text_11">
      <!-- O1O2_KO_1 -->
      <g transform="translate(9.06125 70.42962) scale(0.08 -0.08)">
       <defs>
        <path id="DejaVuSans-4f" d="M 2522 4238 
Q 1834 4238 1429 3725 
Q 1025 3213 1025 2328 
Q 1025 1447 1429 934 
Q 1834 422 2522 422 
Q 3209 422 3611 934 
Q 4013 1447 4013 2328 
Q 4013 3213 3611 3725 
Q 3209 4238 2522 4238 
z
M 2522 4750 
Q 3503 4750 4090 4092 
Q 4678 3434 4678 2328 
Q 4678 1225 4090 567 
Q 3503 -91 2522 -91 
Q 1538 -91 948 565 
Q 359 1222 359 2328 
Q 359 3434 948 4092 
Q 1538 4750 2522 4750 
z
" transform="scale(0.015625)"/>
        <path id="DejaVuSans-4b" d="M 628 4666 
L 1259 4666 
L 1259 2694 
L 3353 4666 
L 4166 4666 
L 1850 2491 
L 4331 0 
L 3500 0 
L 1259 2247 
L 1259 0 
L 628 0 
L 628 4666 
z
" transform="scale(0.015625)"/>
       </defs>
       <use xlink:href="#DejaVuSans-4f"/>
       <use xlink:href="#DejaVuSans-31" x="78.710938"/>
       <use xlink:href="#DejaVuSans-4f" x="142.333984"/>
       <use xlink:href="#DejaVuSans-32" x="221.044922"/>
       <use xlink:href="#DejaVuSans-5f" x="284.667969"/>
       <use xlink:href="#DejaVuSans-4b" x="334.667969"/>
       <use xlink:href="#DejaVuSans-4f" x="394.744141"/>
       <use xlink:href="#DejaVuSans-5f" x="473.455078"/>
       <use xlink:href="#DejaVuSans-31" x="523.455078"/>
      </g>
     </g>
    </g>
    <g id="ytick_4">
     <g id="text_12">
      <!-- O1O2_KO_2 -->
      <g transform="translate(9.06125 94.533967) scale(0.08 -0.08)">
       <use xlink:href="#DejaVuSans-4f"/>
       <use xlink:href="#DejaVuSans-31" x="78.710938"/>
       <use xlink:href="#DejaVuSans-4f" x="142.333984"/>
       <use xlink:href="#DejaVuSans-32" x="221.044922"/>
       <use xlink:href="#DejaVuSans-5f" x="284.667969"/>
       <use xlink:href="#DejaVuSans-4b" x="334.667969"/>
       <use xlink:href="#DejaVuSans-4f" x="394.744141"/>
       <use xlink:href="#DejaVuSans-5f" x="473.455078"/>
       <use xlink:href="#DejaVuSans-32" x="523.455078"/>
      </g>
     </g>
    </g>
    <g id="ytick_5">
     <g id="text_13">
      <!-- O1W4_KO_1 -->
      <g transform="translate(7.44875 118.638315) scale(0.08 -0.08)">
       <defs>
        <path id="DejaVuSans-57" d="M 213 4666 
L 850 4666 
L 1831 722 
L 2809 4666 
L 3519 4666 
L 4500 722 
L 5478 4666 
L 6119 4666 
L 4947 0 
L 4153 0 
L 3169 4050 
L 2175 0 
L 1381 0 
L 213 4666 
z
" transform="scale(0.015625)"/>
       </defs>
       <use xlink:href="#DejaVuSans-4f"/>
       <use xlink:href="#DejaVuSans-31" x="78.710938"/>
       <use xlink:href="#DejaVuSans-57" x="142.333984"/>
       <use xlink:href="#DejaVuSans-34" x="241.210938"/>
       <use xlink:href="#DejaVuSans-5f" x="304.833984"/>
       <use xlink:href="#DejaVuSans-4b" x="354.833984"/>
       <use xlink:href="#DejaVuSans-4f" x="414.910156"/>
       <use xlink:href="#DejaVuSans-5f" x="493.621094"/>
       <use xlink:href="#DejaVuSans-31" x="543.621094"/>
      </g>
     </g>
    </g>
    <g id="ytick_6">
     <g id="text_14">
      <!-- O1W4_KO_2 -->
      <g transform="translate(7.44875 142.742663) scale(0.08 -0.08)">
       <use xlink:href="#DejaVuSans-4f"/>
       <use xlink:href="#DejaVuSans-31" x="78.710938"/>
       <use xlink:href="#DejaVuSans-57" x="142.333984"/>
       <use xlink:href="#DejaVuSans-34" x="241.210938"/>
       <use xlink:href="#DejaVuSans-5f" x="304.833984"/>
       <use xlink:href="#DejaVuSans-4b" x="354.833984"/>
       <use xlink:href="#DejaVuSans-4f" x="414.910156"/>
       <use xlink:href="#DejaVuSans-5f" x="493.621094"/>
       <use xlink:href="#DejaVuSans-32" x="543.621094"/>
      </g>
     </g>
    </g>
    <g id="ytick_7">
     <g id="text_15">
      <!-- O1W4_OE_1 -->
      <g transform="translate(7.2 166.847011) scale(0.08 -0.08)">
       <defs>
        <path id="DejaVuSans-45" d="M 628 4666 
L 3578 4666 
L 3578 4134 
L 1259 4134 
L 1259 2753 
L 3481 2753 
L 3481 2222 
L 1259 2222 
L 1259 531 
L 3634 531 
L 3634 0 
L 628 0 
L 628 4666 
z
" transform="scale(0.015625)"/>
       </defs>
       <use xlink:href="#DejaVuSans-4f"/>
       <use xlink:href="#DejaVuSans-31" x="78.710938"/>
       <use xlink:href="#DejaVuSans-57" x="142.333984"/>
       <use xlink:href="#DejaVuSans-34" x="241.210938"/>
       <use xlink:href="#DejaVuSans-5f" x="304.833984"/>
       <use xlink:href="#DejaVuSans-4f" x="354.833984"/>
       <use xlink:href="#DejaVuSans-45" x="433.544922"/>
       <use xlink:href="#DejaVuSans-5f" x="496.728516"/>
       <use xlink:href="#DejaVuSans-31" x="546.728516"/>
      </g>
     </g>
    </g>
    <g id="ytick_8">
     <g id="text_16">
      <!-- O1W4_OE_2 -->
      <g transform="translate(7.2 190.951359) scale(0.08 -0.08)">
       <use xlink:href="#DejaVuSans-4f"/>
       <use xlink:href="#DejaVuSans-31" x="78.710938"/>
       <use xlink:href="#DejaVuSans-57" x="142.333984"/>
       <use xlink:href="#DejaVuSans-34" x="241.210938"/>
       <use xlink:href="#DejaVuSans-5f" x="304.833984"/>
       <use xlink:href="#DejaVuSans-4f" x="354.833984"/>
       <use xlink:href="#DejaVuSans-45" x="433.544922"/>
       <use xlink:href="#DejaVuSans-5f" x="496.728516"/>
       <use xlink:href="#DejaVuSans-32" x="546.728516"/>
      </g>
     </g>
    </g>
    <g id="ytick_9">
     <g id="text_17">
      <!-- O1_KO_1 -->
      <g transform="translate(20.44875 215.055707) scale(0.08 -0.08)">
       <use xlink:href="#DejaVuSans-4f"/>
       <use xlink:href="#DejaVuSans-31" x="78.710938"/>
       <use xlink:href="#DejaVuSans-5f" x="142.333984"/>
       <use xlink:href="#DejaVuSans-4b" x="192.333984"/>
       <use xlink:href="#DejaVuSans-4f" x="252.410156"/>
       <use xlink:href="#DejaVuSans-5f" x="331.121094"/>
       <use xlink:href="#DejaVuSans-31" x="381.121094"/>
      </g>
     </g>
    </g>
    <g id="ytick_10">
     <g id="text_18">
      <!-- O1_KO_2 -->
      <g transform="translate(20.44875 239.160054) scale(0.08 -0.08)">
       <use xlink:href="#DejaVuSans-4f"/>
       <use xlink:href="#DejaVuSans-31" x="78.710938"/>
       <use xlink:href="#DejaVuSans-5f" x="142.333984"/>
       <use xlink:href="#DejaVuSans-4b" x="192.333984"/>
       <use xlink:href="#DejaVuSans-4f" x="252.410156"/>
       <use xlink:href="#DejaVuSans-5f" x="331.121094"/>
       <use xlink:href="#DejaVuSans-32" x="381.121094"/>
      </g>
     </g>
    </g>
    <g id="ytick_11">
     <g id="text_19">
      <!-- O1_OE_1 -->
      <g transform="translate(20.2 263.264402) scale(0.08 -0.08)">
       <use xlink:href="#DejaVuSans-4f"/>
       <use xlink:href="#DejaVuSans-31" x="78.710938"/>
       <use xlink:href="#DejaVuSans-5f" x="142.333984"/>
       <use xlink:href="#DejaVuSans-4f" x="192.333984"/>
       <use xlink:href="#DejaVuSans-45" x="271.044922"/>
       <use xlink:href="#DejaVuSans-5f" x="334.228516"/>
       <use xlink:href="#DejaVuSans-31" x="384.228516"/>
      </g>
     </g>
    </g>
    <g id="ytick_12">
     <g id="text_20">
      <!-- O1_OE_2 -->
      <g transform="translate(20.2 287.36875) scale(0.08 -0.08)">
       <use xlink:href="#DejaVuSans-4f"/>
       <use xlink:href="#DejaVuSans-31" x="78.710938"/>
       <use xlink:href="#DejaVuSans-5f" x="142.333984"/>
       <use xlink:href="#DejaVuSans-4f" x="192.333984"/>
       <use xlink:href="#DejaVuSans-45" x="271.044922"/>
       <use xlink:href="#DejaVuSans-5f" x="334.228516"/>
       <use xlink:href="#DejaVuSans-32" x="384.228516"/>
      </g>
     </g>
    </g>
    <g id="ytick_13">
     <g id="text_21">
      <!-- O2W4_KO_1 -->
      <g transform="translate(7.44875 311.473098) scale(0.08 -0.08)">
       <use xlink:href="#DejaVuSans-4f"/>
       <use xlink:href="#DejaVuSans-32" x="78.710938"/>
       <use xlink:href="#DejaVuSans-57" x="142.333984"/>
       <use xlink:href="#DejaVuSans-34" x="241.210938"/>
       <use xlink:href="#DejaVuSans-5f" x="304.833984"/>
       <use xlink:href="#DejaVuSans-4b" x="354.833984"/>
       <use xlink:href="#DejaVuSans-4f" x="414.910156"/>
       <use xlink:href="#DejaVuSans-5f" x="493.621094"/>
       <use xlink:href="#DejaVuSans-31" x="543.621094"/>
      </g>
     </g>
    </g>
    <g id="ytick_14">
     <g id="text_22">
      <!-- O2W4_KO_2 -->
      <g transform="translate(7.44875 335.577446) scale(0.08 -0.08)">
       <use xlink:href="#DejaVuSans-4f"/>
       <use xlink:href="#DejaVuSans-32" x="78.710938"/>
       <use xlink:href="#DejaVuSans-57" x="142.333984"/>
       <use xlink:href="#DejaVuSans-34" x="241.210938"/>
       <use xlink:href="#DejaVuSans-5f" x="304.833984"/>
       <use xlink:href="#DejaVuSans-4b" x="354.833984"/>
       <use xlink:href="#DejaVuSans-4f" x="414.910156"/>
       <use xlink:href="#DejaVuSans-5f" x="493.621094"/>
       <use xlink:href="#DejaVuSans-32" x="543.621094"/>
      </g>
     </g>
    </g>
    <g id="ytick_15">
     <g id="text_23">
      <!-- O2_KO_1 -->
      <g transform="translate(20.44875 359.681793) scale(0.08 -0.08)">
       <use xlink:href="#DejaVuSans-4f"/>
       <use xlink:href="#DejaVuSans-32" x="78.710938"/>
       <use xlink:href="#DejaVuSans-5f" x="142.333984"/>
       <use xlink:href="#DejaVuSans-4b" x="192.333984"/>
       <use xlink:href="#DejaVuSans-4f" x="252.410156"/>
       <use xlink:href="#DejaVuSans-5f" x="331.121094"/>
       <use xlink:href="#DejaVuSans-31" x="381.121094"/>
      </g>
     </g>
    </g>
    <g id="ytick_16">
     <g id="text_24">
      <!-- O2_KO_2 -->
      <g transform="translate(20.44875 383.786141) scale(0.08 -0.08)">
       <use xlink:href="#DejaVuSans-4f"/>
       <use xlink:href="#DejaVuSans-32" x="78.710938"/>
       <use xlink:href="#DejaVuSans-5f" x="142.333984"/>
       <use xlink:href="#DejaVuSans-4b" x="192.333984"/>
       <use xlink:href="#DejaVuSans-4f" x="252.410156"/>
       <use xlink:href="#DejaVuSans-5f" x="331.121094"/>
       <use xlink:href="#DejaVuSans-32" x="381.121094"/>
      </g>
     </g>
    </g>
    <g id="ytick_17">
     <g id="text_25">
      <!-- W4_KO_1 -->
      <g transform="translate(18.83625 407.890489) scale(0.08 -0.08)">
       <use xlink:href="#DejaVuSans-57"/>
       <use xlink:href="#DejaVuSans-34" x="98.876953"/>
       <use xlink:href="#DejaVuSans-5f" x="162.5"/>
       <use xlink:href="#DejaVuSans-4b" x="212.5"/>
       <use xlink:href="#DejaVuSans-4f" x="272.576172"/>
       <use xlink:href="#DejaVuSans-5f" x="351.287109"/>
       <use xlink:href="#DejaVuSans-31" x="401.287109"/>
      </g>
     </g>
    </g>
    <g id="ytick_18">
     <g id="text_26">
      <!-- W4_KO_2 -->
      <g transform="translate(18.83625 431.994837) scale(0.08 -0.08)">
       <use xlink:href="#DejaVuSans-57"/>
       <use xlink:href="#DejaVuSans-34" x="98.876953"/>
       <use xlink:href="#DejaVuSans-5f" x="162.5"/>
       <use xlink:href="#DejaVuSans-4b" x="212.5"/>
       <use xlink:href="#DejaVuSans-4f" x="272.576172"/>
       <use xlink:href="#DejaVuSans-5f" x="351.287109"/>
       <use xlink:href="#DejaVuSans-32" x="401.287109"/>
      </g>
     </g>
    </g>
    <g id="ytick_19">
     <g id="text_27">
      <!-- W4_OE_1 -->
      <g transform="translate(18.5875 456.099185) scale(0.08 -0.08)">
       <use xlink:href="#DejaVuSans-57"/>
       <use xlink:href="#DejaVuSans-34" x="98.876953"/>
       <use xlink:href="#DejaVuSans-5f" x="162.5"/>
       <use xlink:href="#DejaVuSans-4f" x="212.5"/>
       <use xlink:href="#DejaVuSans-45" x="291.210938"/>
       <use xlink:href="#DejaVuSans-5f" x="354.394531"/>
       <use xlink:href="#DejaVuSans-31" x="404.394531"/>
      </g>
     </g>
    </g>
    <g id="ytick_20">
     <g id="text_28">
      <!-- W4_OE_2 -->
      <g transform="translate(18.5875 480.203533) scale(0.08 -0.08)">
       <use xlink:href="#DejaVuSans-57"/>
       <use xlink:href="#DejaVuSans-34" x="98.876953"/>
       <use xlink:href="#DejaVuSans-5f" x="162.5"/>
       <use xlink:href="#DejaVuSans-4f" x="212.5"/>
       <use xlink:href="#DejaVuSans-45" x="291.210938"/>
       <use xlink:href="#DejaVuSans-5f" x="354.394531"/>
       <use xlink:href="#DejaVuSans-32" x="404.394531"/>
      </g>
     </g>
    </g>
   </g>
   <g id="patch_2">
    <path d="M 63.03 9.610435 
L 675.829181 9.610435 
L 675.829181 28.893913 
L 63.03 28.893913 
z
" clip-path="url(#p1cffb97777)" style="fill: #437bb1"/>
   </g>
   <g id="patch_3">
    <path d="M 63.03 33.714783 
L 682.252626 33.714783 
L 682.252626 52.998261 
L 63.03 52.998261 
z
" clip-path="url(#p1cffb97777)" style="fill: #437bb1"/>
   </g>
   <g id="patch_4">
    <path d="M 63.03 57.81913 
L 646.331434 57.81913 
L 646.331434 77.102609 
L 63.03 77.102609 
z
" clip-path="url(#p1cffb97777)" style="fill: #437bb1"/>
   </g>
   <g id="patch_5">
    <path d="M 63.03 81.923478 
L 748.117213 81.923478 
L 748.117213 101.206957 
L 63.03 101.206957 
z
" clip-path="url(#p1cffb97777)" style="fill: #437bb1"/>
   </g>
   <g id="patch_6">
    <path d="M 63.03 106.027826 
L 651.964072 106.027826 
L 651.964072 125.311304 
L 63.03 125.311304 
z
" clip-path="url(#p1cffb97777)" style="fill: #437bb1"/>
   </g>
   <g id="patch_7">
    <path d="M 63.03 130.132174 
L 686.517604 130.132174 
L 686.517604 149.415652 
L 63.03 149.415652 
z
" clip-path="url(#p1cffb97777)" style="fill: #437bb1"/>
   </g>
   <g id="patch_8">
    <path d="M 63.03 154.236522 
L 677.347491 154.236522 
L 677.347491 173.52 
L 63.03 173.52 
z
" clip-path="url(#p1cffb97777)" style="fill: #437bb1"/>
   </g>
   <g id="patch_9">
    <path d="M 63.03 178.34087 
L 728.69112 178.34087 
L 728.69112 197.624348 
L 63.03 197.624348 
z
" clip-path="url(#p1cffb97777)" style="fill: #437bb1"/>
   </g>
   <g id="patch_10">
    <path d="M 63.03 202.445217 
L 644.838885 202.445217 
L 644.838885 221.728696 
L 63.03 221.728696 
z
" clip-path="url(#p1cffb97777)" style="fill: #437bb1"/>
   </g>
   <g id="patch_11">
    <path d="M 63.03 226.549565 
L 674.369538 226.549565 
L 674.369538 245.833043 
L 63.03 245.833043 
z
" clip-path="url(#p1cffb97777)" style="fill: #437bb1"/>
   </g>
   <g id="patch_12">
    <path d="M 63.03 250.653913 
L 663.732545 250.653913 
L 663.732545 269.937391 
L 63.03 269.937391 
z
" clip-path="url(#p1cffb97777)" style="fill: #437bb1"/>
   </g>
   <g id="patch_13">
    <path d="M 63.03 274.758261 
L 655.180471 274.758261 
L 655.180471 294.041739 
L 63.03 294.041739 
z
" clip-path="url(#p1cffb97777)" style="fill: #437bb1"/>
   </g>
   <g id="patch_14">
    <path d="M 63.03 298.862609 
L 775.999983 298.862609 
L 775.999983 318.146087 
L 63.03 318.146087 
z
" clip-path="url(#p1cffb97777)" style="fill: #437bb1"/>
   </g>
   <g id="patch_15">
    <path d="M 63.03 322.966957 
L 768.081042 322.966957 
L 768.081042 342.250435 
L 63.03 342.250435 
z
" clip-path="url(#p1cffb97777)" style="fill: #437bb1"/>
   </g>
   <g id="patch_16">
    <path d="M 63.03 347.071304 
L 666.54764 347.071304 
L 666.54764 366.354783 
L 63.03 366.354783 
z
" clip-path="url(#p1cffb97777)" style="fill: #437bb1"/>
   </g>
   <g id="patch_17">
    <path d="M 63.03 371.175652 
L 666.477249 371.175652 
L 666.477249 390.45913 
L 63.03 390.45913 
z
" clip-path="url(#p1cffb97777)" style="fill: #437bb1"/>
   </g>
   <g id="patch_18">
    <path d="M 63.03 395.28 
L 675.496365 395.28 
L 675.496365 414.563478 
L 63.03 414.563478 
z
" clip-path="url(#p1cffb97777)" style="fill: #437bb1"/>
   </g>
   <g id="patch_19">
    <path d="M 63.03 419.384348 
L 679.588558 419.384348 
L 679.588558 438.667826 
L 63.03 438.667826 
z
" clip-path="url(#p1cffb97777)" style="fill: #437bb1"/>
   </g>
   <g id="patch_20">
    <path d="M 63.03 443.488696 
L 669.914387 443.488696 
L 669.914387 462.772174 
L 63.03 462.772174 
z
" clip-path="url(#p1cffb97777)" style="fill: #437bb1"/>
   </g>
   <g id="patch_21">
    <path d="M 63.03 467.593043 
L 653.542455 467.593043 
L 653.542455 486.876522 
L 63.03 486.876522 
z
" clip-path="url(#p1cffb97777)" style="fill: #437bb1"/>
   </g>
   <g id="patch_22">
    <path d="M 675.829181 9.610435 
L 687.6638 9.610435 
L 687.6638 28.893913 
L 675.829181 28.893913 
z
" clip-path="url(#p1cffb97777)" style="fill: #7cb5ec"/>
   </g>
   <g id="patch_23">
    <path d="M 682.252626 33.714783 
L 693.781988 33.714783 
L 693.781988 52.998261 
L 682.252626 52.998261 
z
" clip-path="url(#p1cffb97777)" style="fill: #7cb5ec"/>
   </g>
   <g id="patch_24">
    <path d="M 646.331434 57.81913 
L 656.961643 57.81913 
L 656.961643 77.102609 
L 646.331434 77.102609 
z
" clip-path="url(#p1cffb97777)" style="fill: #7cb5ec"/>
   </g>
   <g id="patch_25">
    <path d="M 748.117213 81.923478 
L 760.011859 81.923478 
L 760.011859 101.206957 
L 748.117213 101.206957 
z
" clip-path="url(#p1cffb97777)" style="fill: #7cb5ec"/>
   </g>
   <g id="patch_26">
    <path d="M 651.964072 106.027826 
L 661.896407 106.027826 
L 661.896407 125.311304 
L 651.964072 125.311304 
z
" clip-path="url(#p1cffb97777)" style="fill: #7cb5ec"/>
   </g>
   <g id="patch_27">
    <path d="M 686.517604 130.132174 
L 697.318753 130.132174 
L 697.318753 149.415652 
L 686.517604 149.415652 
z
" clip-path="url(#p1cffb97777)" style="fill: #7cb5ec"/>
   </g>
   <g id="patch_28">
    <path d="M 677.347491 154.236522 
L 688.942666 154.236522 
L 688.942666 173.52 
L 677.347491 173.52 
z
" clip-path="url(#p1cffb97777)" style="fill: #7cb5ec"/>
   </g>
   <g id="patch_29">
    <path d="M 728.69112 178.34087 
L 741.282643 178.34087 
L 741.282643 197.624348 
L 728.69112 197.624348 
z
" clip-path="url(#p1cffb97777)" style="fill: #7cb5ec"/>
   </g>
   <g id="patch_30">
    <path d="M 644.838885 202.445217 
L 655.603789 202.445217 
L 655.603789 221.728696 
L 644.838885 221.728696 
z
" clip-path="url(#p1cffb97777)" style="fill: #7cb5ec"/>
   </g>
   <g id="patch_31">
    <path d="M 674.369538 226.549565 
L 684.56324 226.549565 
L 684.56324 245.833043 
L 674.369538 245.833043 
z
" clip-path="url(#p1cffb97777)" style="fill: #7cb5ec"/>
   </g>
   <g id="patch_32">
    <path d="M 663.732545 250.653913 
L 674.287996 250.653913 
L 674.287996 269.937391 
L 663.732545 269.937391 
z
" clip-path="url(#p1cffb97777)" style="fill: #7cb5ec"/>
   </g>
   <g id="patch_33">
    <path d="M 655.180471 274.758261 
L 666.069327 274.758261 
L 666.069327 294.041739 
L 655.180471 294.041739 
z
" clip-path="url(#p1cffb97777)" style="fill: #7cb5ec"/>
   </g>
   <g id="patch_34">
    <path d="M 775.999983 298.862609 
L 788.509526 298.862609 
L 788.509526 318.146087 
L 775.999983 318.146087 
z
" clip-path="url(#p1cffb97777)" style="fill: #7cb5ec"/>
   </g>
   <g id="patch_35">
    <path d="M 768.081042 322.966957 
L 780.921391 322.966957 
L 780.921391 342.250435 
L 768.081042 342.250435 
z
" clip-path="url(#p1cffb97777)" style="fill: #7cb5ec"/>
   </g>
   <g id="patch_36">
    <path d="M 666.54764 347.071304 
L 678.33095 347.071304 
L 678.33095 366.354783 
L 666.54764 366.354783 
z
" clip-path="url(#p1cffb97777)" style="fill: #7cb5ec"/>
   </g>
   <g id="patch_37">
    <path d="M 666.477249 371.175652 
L 677.286829 371.175652 
L 677.286829 390.45913 
L 666.477249 390.45913 
z
" clip-path="url(#p1cffb97777)" style="fill: #7cb5ec"/>
   </g>
   <g id="patch_38">
    <path d="M 675.496365 395.28 
L 685.866446 395.28 
L 685.866446 414.563478 
L 675.496365 414.563478 
z
" clip-path="url(#p1cffb97777)" style="fill: #7cb5ec"/>
   </g>
   <g id="patch_39">
    <path d="M 679.588558 419.384348 
L 689.558847 419.384348 
L 689.558847 438.667826 
L 679.588558 438.667826 
z
" clip-path="url(#p1cffb97777)" style="fill: #7cb5ec"/>
   </g>
   <g id="patch_40">
    <path d="M 669.914387 443.488696 
L 681.533389 443.488696 
L 681.533389 462.772174 
L 669.914387 462.772174 
z
" clip-path="url(#p1cffb97777)" style="fill: #7cb5ec"/>
   </g>
   <g id="patch_41">
    <path d="M 653.542455 467.593043 
L 663.99846 467.593043 
L 663.99846 486.876522 
L 653.542455 486.876522 
z
" clip-path="url(#p1cffb97777)" style="fill: #7cb5ec"/>
   </g>
   <g id="patch_42">
    <path d="M 687.6638 9.610435 
L 689.882446 9.610435 
L 689.882446 28.893913 
L 687.6638 28.893913 
z
" clip-path="url(#p1cffb97777)" style="fill: #f7a35c"/>
   </g>
   <g id="patch_43">
    <path d="M 693.781988 33.714783 
L 695.787435 33.714783 
L 695.787435 52.998261 
L 693.781988 52.998261 
z
" clip-path="url(#p1cffb97777)" style="fill: #f7a35c"/>
   </g>
   <g id="patch_44">
    <path d="M 656.961643 57.81913 
L 658.808221 57.81913 
L 658.808221 77.102609 
L 656.961643 77.102609 
z
" clip-path="url(#p1cffb97777)" style="fill: #f7a35c"/>
   </g>
   <g id="patch_45">
    <path d="M 760.011859 81.923478 
L 761.77623 81.923478 
L 761.77623 101.206957 
L 760.011859 101.206957 
z
" clip-path="url(#p1cffb97777)" style="fill: #f7a35c"/>
   </g>
   <g id="patch_46">
    <path d="M 661.896407 106.027826 
L 663.051986 106.027826 
L 663.051986 125.311304 
L 661.896407 125.311304 
z
" clip-path="url(#p1cffb97777)" style="fill: #f7a35c"/>
   </g>
   <g id="patch_47">
    <path d="M 697.318753 130.132174 
L 698.66499 130.132174 
L 698.66499 149.415652 
L 697.318753 149.415652 
z
" clip-path="url(#p1cffb97777)" style="fill: #f7a35c"/>
   </g>
   <g id="patch_48">
    <path d="M 688.942666 154.236522 
L 690.777384 154.236522 
L 690.777384 173.52 
L 688.942666 173.52 
z
" clip-path="url(#p1cffb97777)" style="fill: #f7a35c"/>
   </g>
   <g id="patch_49">
    <path d="M 741.282643 178.34087 
L 743.187843 178.34087 
L 743.187843 197.624348 
L 741.282643 197.624348 
z
" clip-path="url(#p1cffb97777)" style="fill: #f7a35c"/>
   </g>
   <g id="patch_50">
    <path d="M 655.603789 202.445217 
L 657.452844 202.445217 
L 657.452844 221.728696 
L 655.603789 221.728696 
z
" clip-path="url(#p1cffb97777)" style="fill: #f7a35c"/>
   </g>
   <g id="patch_51">
    <path d="M 684.56324 226.549565 
L 686.096024 226.549565 
L 686.096024 245.833043 
L 684.56324 245.833043 
z
" clip-path="url(#p1cffb97777)" style="fill: #f7a35c"/>
   </g>
   <g id="patch_52">
    <path d="M 674.287996 250.653913 
L 676.057489 250.653913 
L 676.057489 269.937391 
L 674.287996 269.937391 
z
" clip-path="url(#p1cffb97777)" style="fill: #f7a35c"/>
   </g>
   <g id="patch_53">
    <path d="M 666.069327 274.758261 
L 667.515538 274.758261 
L 667.515538 294.041739 
L 666.069327 294.041739 
z
" clip-path="url(#p1cffb97777)" style="fill: #f7a35c"/>
   </g>
   <g id="patch_54">
    <path d="M 788.509526 298.862609 
L 790.157983 298.862609 
L 790.157983 318.146087 
L 788.509526 318.146087 
z
" clip-path="url(#p1cffb97777)" style="fill: #f7a35c"/>
   </g>
   <g id="patch_55">
    <path d="M 780.921391 322.966957 
L 782.585062 322.966957 
L 782.585062 342.250435 
L 780.921391 342.250435 
z
" clip-path="url(#p1cffb97777)" style="fill: #f7a35c"/>
   </g>
   <g id="patch_56">
    <path d="M 678.33095 347.071304 
L 680.295226 347.071304 
L 680.295226 366.354783 
L 678.33095 366.354783 
z
" clip-path="url(#p1cffb97777)" style="fill: #f7a35c"/>
   </g>
   <g id="patch_57">
    <path d="M 677.286829 371.175652 
L 679.045776 371.175652 
L 679.045776 390.45913 
L 677.286829 390.45913 
z
" clip-path="url(#p1cffb97777)" style="fill: #f7a35c"/>
   </g>
   <g id="patch_58">
    <path d="M 685.866446 395.28 
L 687.32284 395.28 
L 687.32284 414.563478 
L 685.866446 414.563478 
z
" clip-path="url(#p1cffb97777)" style="fill: #f7a35c"/>
   </g>
   <g id="patch_59">
    <path d="M 689.558847 419.384348 
L 691.026905 419.384348 
L 691.026905 438.667826 
L 689.558847 438.667826 
z
" clip-path="url(#p1cffb97777)" style="fill: #f7a35c"/>
   </g>
   <g id="patch_60">
    <path d="M 681.533389 443.488696 
L 683.784836 443.488696 
L 683.784836 462.772174 
L 681.533389 462.772174 
z
" clip-path="url(#p1cffb97777)" style="fill: #f7a35c"/>
   </g>
   <g id="patch_61">
    <path d="M 663.99846 467.593043 
L 665.726932 467.593043 
L 665.726932 486.876522 
L 663.99846 486.876522 
z
" clip-path="url(#p1cffb97777)" style="fill: #f7a35c"/>
   </g>
   <g id="patch_62">
    <path d="M 689.882446 9.610435 
L 707.201849 9.610435 
L 707.201849 28.893913 
L 689.882446 28.893913 
z
" clip-path="url(#p1cffb97777)" style="fill: #b1084c"/>
   </g>
   <g id="patch_63">
    <path d="M 695.787435 33.714783 
L 711.208875 33.714783 
L 711.208875 52.998261 
L 695.787435 52.998261 
z
" clip-path="url(#p1cffb97777)" style="fill: #b1084c"/>
   </g>
   <g id="patch_64">
    <path d="M 658.808221 57.81913 
L 672.772013 57.81913 
L 672.772013 77.102609 
L 658.808221 77.102609 
z
" clip-path="url(#p1cffb97777)" style="fill: #b1084c"/>
   </g>
   <g id="patch_65">
    <path d="M 761.77623 81.923478 
L 776.959843 81.923478 
L 776.959843 101.206957 
L 761.77623 101.206957 
z
" clip-path="url(#p1cffb97777)" style="fill: #b1084c"/>
   </g>
   <g id="patch_66">
    <path d="M 663.051986 106.027826 
L 676.982402 106.027826 
L 676.982402 125.311304 
L 663.051986 125.311304 
z
" clip-path="url(#p1cffb97777)" style="fill: #b1084c"/>
   </g>
   <g id="patch_67">
    <path d="M 698.66499 130.132174 
L 710.530642 130.132174 
L 710.530642 149.415652 
L 698.66499 149.415652 
z
" clip-path="url(#p1cffb97777)" style="fill: #b1084c"/>
   </g>
   <g id="patch_68">
    <path d="M 690.777384 154.236522 
L 703.47834 154.236522 
L 703.47834 173.52 
L 690.777384 173.52 
z
" clip-path="url(#p1cffb97777)" style="fill: #b1084c"/>
   </g>
   <g id="patch_69">
    <path d="M 743.187843 178.34087 
L 758.018212 178.34087 
L 758.018212 197.624348 
L 743.187843 197.624348 
z
" clip-path="url(#p1cffb97777)" style="fill: #b1084c"/>
   </g>
   <g id="patch_70">
    <path d="M 657.452844 202.445217 
L 671.450918 202.445217 
L 671.450918 221.728696 
L 657.452844 221.728696 
z
" clip-path="url(#p1cffb97777)" style="fill: #b1084c"/>
   </g>
   <g id="patch_71">
    <path d="M 686.096024 226.549565 
L 700.273061 226.549565 
L 700.273061 245.833043 
L 686.096024 245.833043 
z
" clip-path="url(#p1cffb97777)" style="fill: #b1084c"/>
   </g>
   <g id="patch_72">
    <path d="M 676.057489 250.653913 
L 692.511492 250.653913 
L 692.511492 269.937391 
L 676.057489 269.937391 
z
" clip-path="url(#p1cffb97777)" style="fill: #b1084c"/>
   </g>
   <g id="patch_73">
    <path d="M 667.515538 274.758261 
L 678.16909 274.758261 
L 678.16909 294.041739 
L 667.515538 294.041739 
z
" clip-path="url(#p1cffb97777)" style="fill: #b1084c"/>
   </g>
   <g id="patch_74">
    <path d="M 790.157983 298.862609 
L 804.800218 298.862609 
L 804.800218 318.146087 
L 790.157983 318.146087 
z
" clip-path="url(#p1cffb97777)" style="fill: #b1084c"/>
   </g>
   <g id="patch_75">
    <path d="M 782.585062 322.966957 
L 797.038967 322.966957 
L 797.038967 342.250435 
L 782.585062 342.250435 
z
" clip-path="url(#p1cffb97777)" style="fill: #b1084c"/>
   </g>
   <g id="patch_76">
    <path d="M 680.295226 347.071304 
L 695.92846 347.071304 
L 695.92846 366.354783 
L 680.295226 366.354783 
z
" clip-path="url(#p1cffb97777)" style="fill: #b1084c"/>
   </g>
   <g id="patch_77">
    <path d="M 679.045776 371.175652 
L 691.962168 371.175652 
L 691.962168 390.45913 
L 679.045776 390.45913 
z
" clip-path="url(#p1cffb97777)" style="fill: #b1084c"/>
   </g>
   <g id="patch_78">
    <path d="M 687.32284 395.28 
L 700.650855 395.28 
L 700.650855 414.563478 
L 687.32284 414.563478 
z
" clip-path="url(#p1cffb97777)" style="fill: #b1084c"/>
   </g>
   <g id="patch_79">
    <path d="M 691.026905 419.384348 
L 704.254341 419.384348 
L 704.254341 438.667826 
L 691.026905 438.667826 
z
" clip-path="url(#p1cffb97777)" style="fill: #b1084c"/>
   </g>
   <g id="patch_80">
    <path d="M 683.784836 443.488696 
L 698.691067 443.488696 
L 698.691067 462.772174 
L 683.784836 462.772174 
z
" clip-path="url(#p1cffb97777)" style="fill: #b1084c"/>
   </g>
   <g id="patch_81">
    <path d="M 665.726932 467.593043 
L 678.902877 467.593043 
L 678.902877 486.876522 
L 665.726932 486.876522 
z
" clip-path="url(#p1cffb97777)" style="fill: #b1084c"/>
   </g>
   <g id="patch_82">
    <path d="M 707.201849 9.610435 
L 709.334466 9.610435 
L 709.334466 28.893913 
L 707.201849 28.893913 
z
" clip-path="url(#p1cffb97777)" style="fill: #7f0000"/>
   </g>
   <g id="patch_83">
    <path d="M 711.208875 33.714783 
L 713.486294 33.714783 
L 713.486294 52.998261 
L 711.208875 52.998261 
z
" clip-path="url(#p1cffb97777)" style="fill: #7f0000"/>
   </g>
   <g id="patch_84">
    <path d="M 672.772013 57.81913 
L 675.099307 57.81913 
L 675.099307 77.102609 
L 672.772013 77.102609 
z
" clip-path="url(#p1cffb97777)" style="fill: #7f0000"/>
   </g>
   <g id="patch_85">
    <path d="M 776.959843 81.923478 
L 779.323322 81.923478 
L 779.323322 101.206957 
L 776.959843 101.206957 
z
" clip-path="url(#p1cffb97777)" style="fill: #7f0000"/>
   </g>
   <g id="patch_86">
    <path d="M 676.982402 106.027826 
L 678.400103 106.027826 
L 678.400103 125.311304 
L 676.982402 125.311304 
z
" clip-path="url(#p1cffb97777)" style="fill: #7f0000"/>
   </g>
   <g id="patch_87">
    <path d="M 710.530642 130.132174 
L 712.216478 130.132174 
L 712.216478 149.415652 
L 710.530642 149.415652 
z
" clip-path="url(#p1cffb97777)" style="fill: #7f0000"/>
   </g>
   <g id="patch_88">
    <path d="M 703.47834 154.236522 
L 705.60591 154.236522 
L 705.60591 173.52 
L 703.47834 173.52 
z
" clip-path="url(#p1cffb97777)" style="fill: #7f0000"/>
   </g>
   <g id="patch_89">
    <path d="M 758.018212 178.34087 
L 760.663999 178.34087 
L 760.663999 197.624348 
L 758.018212 197.624348 
z
" clip-path="url(#p1cffb97777)" style="fill: #7f0000"/>
   </g>
   <g id="patch_90">
    <path d="M 671.450918 202.445217 
L 673.957129 202.445217 
L 673.957129 221.728696 
L 671.450918 221.728696 
z
" clip-path="url(#p1cffb97777)" style="fill: #7f0000"/>
   </g>
   <g id="patch_91">
    <path d="M 700.273061 226.549565 
L 702.444326 226.549565 
L 702.444326 245.833043 
L 700.273061 245.833043 
z
" clip-path="url(#p1cffb97777)" style="fill: #7f0000"/>
   </g>
   <g id="patch_92">
    <path d="M 692.511492 250.653913 
L 694.789743 250.653913 
L 694.789743 269.937391 
L 692.511492 269.937391 
z
" clip-path="url(#p1cffb97777)" style="fill: #7f0000"/>
   </g>
   <g id="patch_93">
    <path d="M 678.16909 274.758261 
L 680.016529 274.758261 
L 680.016529 294.041739 
L 678.16909 294.041739 
z
" clip-path="url(#p1cffb97777)" style="fill: #7f0000"/>
   </g>
   <g id="patch_94">
    <path d="M 804.800218 298.862609 
L 807.03 298.862609 
L 807.03 318.146087 
L 804.800218 318.146087 
z
" clip-path="url(#p1cffb97777)" style="fill: #7f0000"/>
   </g>
   <g id="patch_95">
    <path d="M 797.038967 322.966957 
L 799.093321 322.966957 
L 799.093321 342.250435 
L 797.038967 342.250435 
z
" clip-path="url(#p1cffb97777)" style="fill: #7f0000"/>
   </g>
   <g id="patch_96">
    <path d="M 695.92846 347.071304 
L 698.470449 347.071304 
L 698.470449 366.354783 
L 695.92846 366.354783 
z
" clip-path="url(#p1cffb97777)" style="fill: #7f0000"/>
   </g>
   <g id="patch_97">
    <path d="M 691.962168 371.175652 
L 694.241536 371.175652 
L 694.241536 390.45913 
L 691.962168 390.45913 
z
" clip-path="url(#p1cffb97777)" style="fill: #7f0000"/>
   </g>
   <g id="patch_98">
    <path d="M 700.650855 395.28 
L 702.627746 395.28 
L 702.627746 414.563478 
L 700.650855 414.563478 
z
" clip-path="url(#p1cffb97777)" style="fill: #7f0000"/>
   </g>
   <g id="patch_99">
    <path d="M 704.254341 419.384348 
L 706.052238 419.384348 
L 706.052238 438.667826 
L 704.254341 438.667826 
z
" clip-path="url(#p1cffb97777)" style="fill: #7f0000"/>
   </g>
   <g id="patch_100">
    <path d="M 698.691067 443.488696 
L 700.729527 443.488696 
L 700.729527 462.772174 
L 698.691067 462.772174 
z
" clip-path="url(#p1cffb97777)" style="fill: #7f0000"/>
   </g>
   <g id="patch_101">
    <path d="M 678.902877 467.593043 
L 680.573061 467.593043 
L 680.573061 486.876522 
L 678.902877 486.876522 
z
" clip-path="url(#p1cffb97777)" style="fill: #7f0000"/>
   </g>
   <g id="text_29">
    <!-- STAR: Alignment Scores -->
    <g transform="translate(358.165 -20.52) scale(0.16 -0.16)">
     <defs>
      <path id="DejaVuSans-53" d="M 3425 4513 
L 3425 3897 
Q 3066 4069 2747 4153 
Q 2428 4238 2131 4238 
Q 1616 4238 1336 4038 
Q 1056 3838 1056 3469 
Q 1056 3159 1242 3001 
Q 1428 2844 1947 2747 
L 2328 2669 
Q 3034 2534 3370 2195 
Q 3706 1856 3706 1288 
Q 3706 609 3251 259 
Q 2797 -91 1919 -91 
Q 1588 -91 1214 -16 
Q 841 59 441 206 
L 441 856 
Q 825 641 1194 531 
Q 1563 422 1919 422 
Q 2459 422 2753 634 
Q 3047 847 3047 1241 
Q 3047 1584 2836 1778 
Q 2625 1972 2144 2069 
L 1759 2144 
Q 1053 2284 737 2584 
Q 422 2884 422 3419 
Q 422 4038 858 4394 
Q 1294 4750 2059 4750 
Q 2388 4750 2728 4690 
Q 3069 4631 3425 4513 
z
" transform="scale(0.015625)"/>
      <path id="DejaVuSans-54" d="M -19 4666 
L 3928 4666 
L 3928 4134 
L 2272 4134 
L 2272 0 
L 1638 0 
L 1638 4134 
L -19 4134 
L -19 4666 
z
" transform="scale(0.015625)"/>
      <path id="DejaVuSans-41" d="M 2188 4044 
L 1331 1722 
L 3047 1722 
L 2188 4044 
z
M 1831 4666 
L 2547 4666 
L 4325 0 
L 3669 0 
L 3244 1197 
L 1141 1197 
L 716 0 
L 50 0 
L 1831 4666 
z
" transform="scale(0.015625)"/>
      <path id="DejaVuSans-3a" d="M 750 794 
L 1409 794 
L 1409 0 
L 750 0 
L 750 794 
z
M 750 3309 
L 1409 3309 
L 1409 2516 
L 750 2516 
L 750 3309 
z
" transform="scale(0.015625)"/>
      <path id="DejaVuSans-69" d="M 603 3500 
L 1178 3500 
L 1178 0 
L 603 0 
L 603 3500 
z
M 603 4863 
L 1178 4863 
L 1178 4134 
L 603 4134 
L 603 4863 
z
" transform="scale(0.015625)"/>
      <path id="DejaVuSans-67" d="M 2906 1791 
Q 2906 2416 2648 2759 
Q 2391 3103 1925 3103 
Q 1463 3103 1205 2759 
Q 947 2416 947 1791 
Q 947 1169 1205 825 
Q 1463 481 1925 481 
Q 2391 481 2648 825 
Q 2906 1169 2906 1791 
z
M 3481 434 
Q 3481 -459 3084 -895 
Q 2688 -1331 1869 -1331 
Q 1566 -1331 1297 -1286 
Q 1028 -1241 775 -1147 
L 775 -588 
Q 1028 -725 1275 -790 
Q 1522 -856 1778 -856 
Q 2344 -856 2625 -561 
Q 2906 -266 2906 331 
L 2906 616 
Q 2728 306 2450 153 
Q 2172 0 1784 0 
Q 1141 0 747 490 
Q 353 981 353 1791 
Q 353 2603 747 3093 
Q 1141 3584 1784 3584 
Q 2172 3584 2450 3431 
Q 2728 3278 2906 2969 
L 2906 3500 
L 3481 3500 
L 3481 434 
z
" transform="scale(0.015625)"/>
      <path id="DejaVuSans-6e" d="M 3513 2113 
L 3513 0 
L 2938 0 
L 2938 2094 
Q 2938 2591 2744 2837 
Q 2550 3084 2163 3084 
Q 1697 3084 1428 2787 
Q 1159 2491 1159 1978 
L 1159 0 
L 581 0 
L 581 3500 
L 1159 3500 
L 1159 2956 
Q 1366 3272 1645 3428 
Q 1925 3584 2291 3584 
Q 2894 3584 3203 3211 
Q 3513 2838 3513 2113 
z
" transform="scale(0.015625)"/>
      <path id="DejaVuSans-6d" d="M 3328 2828 
Q 3544 3216 3844 3400 
Q 4144 3584 4550 3584 
Q 5097 3584 5394 3201 
Q 5691 2819 5691 2113 
L 5691 0 
L 5113 0 
L 5113 2094 
Q 5113 2597 4934 2840 
Q 4756 3084 4391 3084 
Q 3944 3084 3684 2787 
Q 3425 2491 3425 1978 
L 3425 0 
L 2847 0 
L 2847 2094 
Q 2847 2600 2669 2842 
Q 2491 3084 2119 3084 
Q 1678 3084 1418 2786 
Q 1159 2488 1159 1978 
L 1159 0 
L 581 0 
L 581 3500 
L 1159 3500 
L 1159 2956 
Q 1356 3278 1631 3431 
Q 1906 3584 2284 3584 
Q 2666 3584 2933 3390 
Q 3200 3197 3328 2828 
z
" transform="scale(0.015625)"/>
      <path id="DejaVuSans-63" d="M 3122 3366 
L 3122 2828 
Q 2878 2963 2633 3030 
Q 2388 3097 2138 3097 
Q 1578 3097 1268 2742 
Q 959 2388 959 1747 
Q 959 1106 1268 751 
Q 1578 397 2138 397 
Q 2388 397 2633 464 
Q 2878 531 3122 666 
L 3122 134 
Q 2881 22 2623 -34 
Q 2366 -91 2075 -91 
Q 1284 -91 818 406 
Q 353 903 353 1747 
Q 353 2603 823 3093 
Q 1294 3584 2113 3584 
Q 2378 3584 2631 3529 
Q 2884 3475 3122 3366 
z
" transform="scale(0.015625)"/>
      <path id="DejaVuSans-6f" d="M 1959 3097 
Q 1497 3097 1228 2736 
Q 959 2375 959 1747 
Q 959 1119 1226 758 
Q 1494 397 1959 397 
Q 2419 397 2687 759 
Q 2956 1122 2956 1747 
Q 2956 2369 2687 2733 
Q 2419 3097 1959 3097 
z
M 1959 3584 
Q 2709 3584 3137 3096 
Q 3566 2609 3566 1747 
Q 3566 888 3137 398 
Q 2709 -91 1959 -91 
Q 1206 -91 779 398 
Q 353 888 353 1747 
Q 353 2609 779 3096 
Q 1206 3584 1959 3584 
z
" transform="scale(0.015625)"/>
     </defs>
     <use xlink:href="#DejaVuSans-53"/>
     <use xlink:href="#DejaVuSans-54" x="63.476562"/>
     <use xlink:href="#DejaVuSans-41" x="116.810547"/>
     <use xlink:href="#DejaVuSans-52" x="185.21875"/>
     <use xlink:href="#DejaVuSans-3a" x="251.576172"/>
     <use xlink:href="#DejaVuSans-20" x="285.267578"/>
     <use xlink:href="#DejaVuSans-41" x="317.054688"/>
     <use xlink:href="#DejaVuSans-6c" x="385.462891"/>
     <use xlink:href="#DejaVuSans-69" x="413.246094"/>
     <use xlink:href="#DejaVuSans-67" x="441.029297"/>
     <use xlink:href="#DejaVuSans-6e" x="504.505859"/>
     <use xlink:href="#DejaVuSans-6d" x="567.884766"/>
     <use xlink:href="#DejaVuSans-65" x="665.296875"/>
     <use xlink:href="#DejaVuSans-6e" x="726.820312"/>
     <use xlink:href="#DejaVuSans-74" x="790.199219"/>
     <use xlink:href="#DejaVuSans-20" x="829.408203"/>
     <use xlink:href="#DejaVuSans-53" x="861.195312"/>
     <use xlink:href="#DejaVuSans-63" x="924.671875"/>
     <use xlink:href="#DejaVuSans-6f" x="979.652344"/>
     <use xlink:href="#DejaVuSans-72" x="1040.833984"/>
     <use xlink:href="#DejaVuSans-65" x="1079.697266"/>
     <use xlink:href="#DejaVuSans-73" x="1141.220703"/>
    </g>
   </g>
   <g id="legend_1">
    <g id="patch_102">
     <path d="M 70.23 563.583207 
L 86.23 563.583207 
L 86.23 557.983207 
L 70.23 557.983207 
z
" style="fill: #437bb1"/>
    </g>
    <g id="text_30">
     <!-- Uniquely mapped -->
     <g transform="translate(92.63 563.583207) scale(0.08 -0.08)">
      <defs>
       <path id="DejaVuSans-55" d="M 556 4666 
L 1191 4666 
L 1191 1831 
Q 1191 1081 1462 751 
Q 1734 422 2344 422 
Q 2950 422 3222 751 
Q 3494 1081 3494 1831 
L 3494 4666 
L 4128 4666 
L 4128 1753 
Q 4128 841 3676 375 
Q 3225 -91 2344 -91 
Q 1459 -91 1007 375 
Q 556 841 556 1753 
L 556 4666 
z
" transform="scale(0.015625)"/>
       <path id="DejaVuSans-71" d="M 947 1747 
Q 947 1113 1208 752 
Q 1469 391 1925 391 
Q 2381 391 2643 752 
Q 2906 1113 2906 1747 
Q 2906 2381 2643 2742 
Q 2381 3103 1925 3103 
Q 1469 3103 1208 2742 
Q 947 2381 947 1747 
z
M 2906 525 
Q 2725 213 2448 61 
Q 2172 -91 1784 -91 
Q 1150 -91 751 415 
Q 353 922 353 1747 
Q 353 2572 751 3078 
Q 1150 3584 1784 3584 
Q 2172 3584 2448 3432 
Q 2725 3281 2906 2969 
L 2906 3500 
L 3481 3500 
L 3481 -1331 
L 2906 -1331 
L 2906 525 
z
" transform="scale(0.015625)"/>
       <path id="DejaVuSans-75" d="M 544 1381 
L 544 3500 
L 1119 3500 
L 1119 1403 
Q 1119 906 1312 657 
Q 1506 409 1894 409 
Q 2359 409 2629 706 
Q 2900 1003 2900 1516 
L 2900 3500 
L 3475 3500 
L 3475 0 
L 2900 0 
L 2900 538 
Q 2691 219 2414 64 
Q 2138 -91 1772 -91 
Q 1169 -91 856 284 
Q 544 659 544 1381 
z
M 1991 3584 
L 1991 3584 
z
" transform="scale(0.015625)"/>
       <path id="DejaVuSans-79" d="M 2059 -325 
Q 1816 -950 1584 -1140 
Q 1353 -1331 966 -1331 
L 506 -1331 
L 506 -850 
L 844 -850 
Q 1081 -850 1212 -737 
Q 1344 -625 1503 -206 
L 1606 56 
L 191 3500 
L 800 3500 
L 1894 763 
L 2988 3500 
L 3597 3500 
L 2059 -325 
z
" transform="scale(0.015625)"/>
       <path id="DejaVuSans-70" d="M 1159 525 
L 1159 -1331 
L 581 -1331 
L 581 3500 
L 1159 3500 
L 1159 2969 
Q 1341 3281 1617 3432 
Q 1894 3584 2278 3584 
Q 2916 3584 3314 3078 
Q 3713 2572 3713 1747 
Q 3713 922 3314 415 
Q 2916 -91 2278 -91 
Q 1894 -91 1617 61 
Q 1341 213 1159 525 
z
M 3116 1747 
Q 3116 2381 2855 2742 
Q 2594 3103 2138 3103 
Q 1681 3103 1420 2742 
Q 1159 2381 1159 1747 
Q 1159 1113 1420 752 
Q 1681 391 2138 391 
Q 2594 391 2855 752 
Q 3116 1113 3116 1747 
z
" transform="scale(0.015625)"/>
      </defs>
      <use xlink:href="#DejaVuSans-55"/>
      <use xlink:href="#DejaVuSans-6e" x="73.193359"/>
      <use xlink:href="#DejaVuSans-69" x="136.572266"/>
      <use xlink:href="#DejaVuSans-71" x="164.355469"/>
      <use xlink:href="#DejaVuSans-75" x="227.832031"/>
      <use xlink:href="#DejaVuSans-65" x="291.210938"/>
      <use xlink:href="#DejaVuSans-6c" x="352.734375"/>
      <use xlink:href="#DejaVuSans-79" x="380.517578"/>
      <use xlink:href="#DejaVuSans-20" x="439.697266"/>
      <use xlink:href="#DejaVuSans-6d" x="471.484375"/>
      <use xlink:href="#DejaVuSans-61" x="568.896484"/>
      <use xlink:href="#DejaVuSans-70" x="630.175781"/>
      <use xlink:href="#DejaVuSans-70" x="693.652344"/>
      <use xlink:href="#DejaVuSans-65" x="757.128906"/>
      <use xlink:href="#DejaVuSans-64" x="818.652344"/>
     </g>
    </g>
    <g id="patch_103">
     <path d="M 222.076875 563.583207 
L 238.076875 563.583207 
L 238.076875 557.983207 
L 222.076875 557.983207 
z
" style="fill: #7cb5ec"/>
    </g>
    <g id="text_31">
     <!-- Mapped to multiple loci -->
     <g transform="translate(244.476875 563.583207) scale(0.08 -0.08)">
      <defs>
       <path id="DejaVuSans-4d" d="M 628 4666 
L 1569 4666 
L 2759 1491 
L 3956 4666 
L 4897 4666 
L 4897 0 
L 4281 0 
L 4281 4097 
L 3078 897 
L 2444 897 
L 1241 4097 
L 1241 0 
L 628 0 
L 628 4666 
z
" transform="scale(0.015625)"/>
      </defs>
      <use xlink:href="#DejaVuSans-4d"/>
      <use xlink:href="#DejaVuSans-61" x="86.279297"/>
      <use xlink:href="#DejaVuSans-70" x="147.558594"/>
      <use xlink:href="#DejaVuSans-70" x="211.035156"/>
      <use xlink:href="#DejaVuSans-65" x="274.511719"/>
      <use xlink:href="#DejaVuSans-64" x="336.035156"/>
      <use xlink:href="#DejaVuSans-20" x="399.511719"/>
      <use xlink:href="#DejaVuSans-74" x="431.298828"/>
      <use xlink:href="#DejaVuSans-6f" x="470.507812"/>
      <use xlink:href="#DejaVuSans-20" x="531.689453"/>
      <use xlink:href="#DejaVuSans-6d" x="563.476562"/>
      <use xlink:href="#DejaVuSans-75" x="660.888672"/>
      <use xlink:href="#DejaVuSans-6c" x="724.267578"/>
      <use xlink:href="#DejaVuSans-74" x="752.050781"/>
      <use xlink:href="#DejaVuSans-69" x="791.259766"/>
      <use xlink:href="#DejaVuSans-70" x="819.042969"/>
      <use xlink:href="#DejaVuSans-6c" x="882.519531"/>
      <use xlink:href="#DejaVuSans-65" x="910.302734"/>
      <use xlink:href="#DejaVuSans-20" x="971.826172"/>
      <use xlink:href="#DejaVuSans-6c" x="1003.613281"/>
      <use xlink:href="#DejaVuSans-6f" x="1031.396484"/>
      <use xlink:href="#DejaVuSans-63" x="1092.578125"/>
      <use xlink:href="#DejaVuSans-69" x="1147.558594"/>
     </g>
    </g>
    <g id="patch_104">
     <path d="M 397.38 563.583207 
L 413.38 563.583207 
L 413.38 557.983207 
L 397.38 557.983207 
z
" style="fill: #f7a35c"/>
    </g>
    <g id="text_32">
     <!-- Mapped to too many loci -->
     <g transform="translate(419.78 563.583207) scale(0.08 -0.08)">
      <use xlink:href="#DejaVuSans-4d"/>
      <use xlink:href="#DejaVuSans-61" x="86.279297"/>
      <use xlink:href="#DejaVuSans-70" x="147.558594"/>
      <use xlink:href="#DejaVuSans-70" x="211.035156"/>
      <use xlink:href="#DejaVuSans-65" x="274.511719"/>
      <use xlink:href="#DejaVuSans-64" x="336.035156"/>
      <use xlink:href="#DejaVuSans-20" x="399.511719"/>
      <use xlink:href="#DejaVuSans-74" x="431.298828"/>
      <use xlink:href="#DejaVuSans-6f" x="470.507812"/>
      <use xlink:href="#DejaVuSans-20" x="531.689453"/>
      <use xlink:href="#DejaVuSans-74" x="563.476562"/>
      <use xlink:href="#DejaVuSans-6f" x="602.685547"/>
      <use xlink:href="#DejaVuSans-6f" x="663.867188"/>
      <use xlink:href="#DejaVuSans-20" x="725.048828"/>
      <use xlink:href="#DejaVuSans-6d" x="756.835938"/>
      <use xlink:href="#DejaVuSans-61" x="854.248047"/>
      <use xlink:href="#DejaVuSans-6e" x="915.527344"/>
      <use xlink:href="#DejaVuSans-79" x="978.90625"/>
      <use xlink:href="#DejaVuSans-20" x="1038.085938"/>
      <use xlink:href="#DejaVuSans-6c" x="1069.873047"/>
      <use xlink:href="#DejaVuSans-6f" x="1097.65625"/>
      <use xlink:href="#DejaVuSans-63" x="1158.837891"/>
      <use xlink:href="#DejaVuSans-69" x="1213.818359"/>
     </g>
    </g>
    <g id="patch_105">
     <path d="M 577.984375 563.583207 
L 593.984375 563.583207 
L 593.984375 557.983207 
L 577.984375 557.983207 
z
" style="fill: #b1084c"/>
    </g>
    <g id="text_33">
     <!-- Unmapped: too short -->
     <g transform="translate(600.384375 563.583207) scale(0.08 -0.08)">
      <defs>
       <path id="DejaVuSans-68" d="M 3513 2113 
L 3513 0 
L 2938 0 
L 2938 2094 
Q 2938 2591 2744 2837 
Q 2550 3084 2163 3084 
Q 1697 3084 1428 2787 
Q 1159 2491 1159 1978 
L 1159 0 
L 581 0 
L 581 4863 
L 1159 4863 
L 1159 2956 
Q 1366 3272 1645 3428 
Q 1925 3584 2291 3584 
Q 2894 3584 3203 3211 
Q 3513 2838 3513 2113 
z
" transform="scale(0.015625)"/>
      </defs>
      <use xlink:href="#DejaVuSans-55"/>
      <use xlink:href="#DejaVuSans-6e" x="73.193359"/>
      <use xlink:href="#DejaVuSans-6d" x="136.572266"/>
      <use xlink:href="#DejaVuSans-61" x="233.984375"/>
      <use xlink:href="#DejaVuSans-70" x="295.263672"/>
      <use xlink:href="#DejaVuSans-70" x="358.740234"/>
      <use xlink:href="#DejaVuSans-65" x="422.216797"/>
      <use xlink:href="#DejaVuSans-64" x="483.740234"/>
      <use xlink:href="#DejaVuSans-3a" x="547.216797"/>
      <use xlink:href="#DejaVuSans-20" x="580.908203"/>
      <use xlink:href="#DejaVuSans-74" x="612.695312"/>
      <use xlink:href="#DejaVuSans-6f" x="651.904297"/>
      <use xlink:href="#DejaVuSans-6f" x="713.085938"/>
      <use xlink:href="#DejaVuSans-20" x="774.267578"/>
      <use xlink:href="#DejaVuSans-73" x="806.054688"/>
      <use xlink:href="#DejaVuSans-68" x="858.154297"/>
      <use xlink:href="#DejaVuSans-6f" x="921.533203"/>
      <use xlink:href="#DejaVuSans-72" x="982.714844"/>
      <use xlink:href="#DejaVuSans-74" x="1023.828125"/>
     </g>
    </g>
    <g id="patch_106">
     <path d="M 744.30125 563.583207 
L 760.30125 563.583207 
L 760.30125 557.983207 
L 744.30125 557.983207 
z
" style="fill: #7f0000"/>
    </g>
    <g id="text_34">
     <!-- Unmapped: other -->
     <g transform="translate(766.70125 563.583207) scale(0.08 -0.08)">
      <use xlink:href="#DejaVuSans-55"/>
      <use xlink:href="#DejaVuSans-6e" x="73.193359"/>
      <use xlink:href="#DejaVuSans-6d" x="136.572266"/>
      <use xlink:href="#DejaVuSans-61" x="233.984375"/>
      <use xlink:href="#DejaVuSans-70" x="295.263672"/>
      <use xlink:href="#DejaVuSans-70" x="358.740234"/>
      <use xlink:href="#DejaVuSans-65" x="422.216797"/>
      <use xlink:href="#DejaVuSans-64" x="483.740234"/>
      <use xlink:href="#DejaVuSans-3a" x="547.216797"/>
      <use xlink:href="#DejaVuSans-20" x="580.908203"/>
      <use xlink:href="#DejaVuSans-6f" x="612.695312"/>
      <use xlink:href="#DejaVuSans-74" x="673.876953"/>
      <use xlink:href="#DejaVuSans-68" x="713.085938"/>
      <use xlink:href="#DejaVuSans-65" x="776.464844"/>
      <use xlink:href="#DejaVuSans-72" x="837.988281"/>
     </g>
    </g>
   </g>
  </g>
 </g>
 <defs>
  <clipPath id="p1cffb97777">
   <rect x="63.03" y="7.2" width="781.2" height="482.086957"/>
  </clipPath>
 </defs>
</svg>
