<?xml version="1.0" encoding="utf-8" standalone="no"?>
<!DOCTYPE svg PUBLIC "-//W3C//DTD SVG 1.1//EN"
  "http://www.w3.org/Graphics/SVG/1.1/DTD/svg11.dtd">
<svg xmlns:xlink="http://www.w3.org/1999/xlink" width="1000.340625pt" height="388.844525pt" viewBox="0 0 1000.340625 388.844525" xmlns="http://www.w3.org/2000/svg" version="1.1">
 <metadata>
  <rdf:RDF xmlns:dc="http://purl.org/dc/elements/1.1/" xmlns:cc="http://creativecommons.org/ns#" xmlns:rdf="http://www.w3.org/1999/02/22-rdf-syntax-ns#">
   <cc:Work>
    <dc:type rdf:resource="http://purl.org/dc/dcmitype/StillImage"/>
    <dc:date>2023-10-05T12:27:32.711446</dc:date>
    <dc:format>image/svg+xml</dc:format>
    <dc:creator>
     <cc:Agent>
      <dc:title>Matplotlib v3.7.0, https://matplotlib.org/</dc:title>
     </cc:Agent>
    </dc:creator>
   </cc:Work>
  </rdf:RDF>
 </metadata>
 <defs>
  <style type="text/css">*{stroke-linejoin: round; stroke-linecap: butt}</style>
 </defs>
 <g id="figure_1">
  <g id="axes_1">
   <g id="patch_1">
    <path d="M 40.600625 353.2239 
L 993.140625 353.2239 
L 993.140625 35.2559 
L 40.600625 35.2559 
z
" style="fill: #ffffff"/>
   </g>
   <g id="patch_2">
    <path d="M 731.562283 353.2239 
L 2508.320832 353.2239 
L 2508.320832 35.2559 
L 731.562283 35.2559 
z
" clip-path="url(#p4f9a8753aa)" style="fill: #c3e6c3"/>
   </g>
   <g id="patch_3">
    <path d="M 534.144666 353.2239 
L 731.562283 353.2239 
L 731.562283 35.2559 
L 534.144666 35.2559 
z
" clip-path="url(#p4f9a8753aa)" style="fill: #e6dcc3"/>
   </g>
   <g id="patch_4">
    <path d="M 40.600625 353.2239 
L 534.144666 353.2239 
L 534.144666 35.2559 
L 40.600625 35.2559 
z
" clip-path="url(#p4f9a8753aa)" style="fill: #e6c3c3"/>
   </g>
   <g id="matplotlib.axis_1">
    <g id="xtick_1">
     <g id="text_1">
      <!-- 0 -->
      <g transform="translate(38.055625 366.30265) scale(0.08 -0.08)">
       <defs>
        <path id="DejaVuSans-30" d="M 2034 4250 
Q 1547 4250 1301 3770 
Q 1056 3291 1056 2328 
Q 1056 1369 1301 889 
Q 1547 409 2034 409 
Q 2525 409 2770 889 
Q 3016 1369 3016 2328 
Q 3016 3291 2770 3770 
Q 2525 4250 2034 4250 
z
M 2034 4750 
Q 2819 4750 3233 4129 
Q 3647 3509 3647 2328 
Q 3647 1150 3233 529 
Q 2819 -91 2034 -91 
Q 1250 -91 836 529 
Q 422 1150 422 2328 
Q 422 3509 836 4129 
Q 1250 4750 2034 4750 
z
" transform="scale(0.015625)"/>
       </defs>
       <use xlink:href="#DejaVuSans-30"/>
      </g>
     </g>
    </g>
    <g id="xtick_2">
     <g id="text_2">
      <!-- 5 -->
      <g transform="translate(161.441635 366.30265) scale(0.08 -0.08)">
       <defs>
        <path id="DejaVuSans-35" d="M 691 4666 
L 3169 4666 
L 3169 4134 
L 1269 4134 
L 1269 2991 
Q 1406 3038 1543 3061 
Q 1681 3084 1819 3084 
Q 2600 3084 3056 2656 
Q 3513 2228 3513 1497 
Q 3513 744 3044 326 
Q 2575 -91 1722 -91 
Q 1428 -91 1123 -41 
Q 819 9 494 109 
L 494 744 
Q 775 591 1075 516 
Q 1375 441 1709 441 
Q 2250 441 2565 725 
Q 2881 1009 2881 1497 
Q 2881 1984 2565 2268 
Q 2250 2553 1709 2553 
Q 1456 2553 1204 2497 
Q 953 2441 691 2322 
L 691 4666 
z
" transform="scale(0.015625)"/>
       </defs>
       <use xlink:href="#DejaVuSans-35"/>
      </g>
     </g>
    </g>
    <g id="xtick_3">
     <g id="text_3">
      <!-- 10 -->
      <g transform="translate(282.282646 366.30265) scale(0.08 -0.08)">
       <defs>
        <path id="DejaVuSans-31" d="M 794 531 
L 1825 531 
L 1825 4091 
L 703 3866 
L 703 4441 
L 1819 4666 
L 2450 4666 
L 2450 531 
L 3481 531 
L 3481 0 
L 794 0 
L 794 531 
z
" transform="scale(0.015625)"/>
       </defs>
       <use xlink:href="#DejaVuSans-31"/>
       <use xlink:href="#DejaVuSans-30" x="63.623047"/>
      </g>
     </g>
    </g>
    <g id="xtick_4">
     <g id="text_4">
      <!-- 15 -->
      <g transform="translate(405.668656 366.30265) scale(0.08 -0.08)">
       <use xlink:href="#DejaVuSans-31"/>
       <use xlink:href="#DejaVuSans-35" x="63.623047"/>
      </g>
     </g>
    </g>
    <g id="xtick_5">
     <g id="text_5">
      <!-- 20 -->
      <g transform="translate(529.054666 366.30265) scale(0.08 -0.08)">
       <defs>
        <path id="DejaVuSans-32" d="M 1228 531 
L 3431 531 
L 3431 0 
L 469 0 
L 469 531 
Q 828 903 1448 1529 
Q 2069 2156 2228 2338 
Q 2531 2678 2651 2914 
Q 2772 3150 2772 3378 
Q 2772 3750 2511 3984 
Q 2250 4219 1831 4219 
Q 1534 4219 1204 4116 
Q 875 4013 500 3803 
L 500 4441 
Q 881 4594 1212 4672 
Q 1544 4750 1819 4750 
Q 2544 4750 2975 4387 
Q 3406 4025 3406 3419 
Q 3406 3131 3298 2873 
Q 3191 2616 2906 2266 
Q 2828 2175 2409 1742 
Q 1991 1309 1228 531 
z
" transform="scale(0.015625)"/>
       </defs>
       <use xlink:href="#DejaVuSans-32"/>
       <use xlink:href="#DejaVuSans-30" x="63.623047"/>
      </g>
     </g>
    </g>
    <g id="xtick_6">
     <g id="text_6">
      <!-- 25 -->
      <g transform="translate(652.440677 366.30265) scale(0.08 -0.08)">
       <use xlink:href="#DejaVuSans-32"/>
       <use xlink:href="#DejaVuSans-35" x="63.623047"/>
      </g>
     </g>
    </g>
    <g id="xtick_7">
     <g id="text_7">
      <!-- 30 -->
      <g transform="translate(775.826687 366.30265) scale(0.08 -0.08)">
       <defs>
        <path id="DejaVuSans-33" d="M 2597 2516 
Q 3050 2419 3304 2112 
Q 3559 1806 3559 1356 
Q 3559 666 3084 287 
Q 2609 -91 1734 -91 
Q 1441 -91 1130 -33 
Q 819 25 488 141 
L 488 750 
Q 750 597 1062 519 
Q 1375 441 1716 441 
Q 2309 441 2620 675 
Q 2931 909 2931 1356 
Q 2931 1769 2642 2001 
Q 2353 2234 1838 2234 
L 1294 2234 
L 1294 2753 
L 1863 2753 
Q 2328 2753 2575 2939 
Q 2822 3125 2822 3475 
Q 2822 3834 2567 4026 
Q 2313 4219 1838 4219 
Q 1578 4219 1281 4162 
Q 984 4106 628 3988 
L 628 4550 
Q 988 4650 1302 4700 
Q 1616 4750 1894 4750 
Q 2613 4750 3031 4423 
Q 3450 4097 3450 3541 
Q 3450 3153 3228 2886 
Q 3006 2619 2597 2516 
z
" transform="scale(0.015625)"/>
       </defs>
       <use xlink:href="#DejaVuSans-33"/>
       <use xlink:href="#DejaVuSans-30" x="63.623047"/>
      </g>
     </g>
    </g>
    <g id="xtick_8">
     <g id="text_8">
      <!-- 35 -->
      <g transform="translate(899.212698 366.30265) scale(0.08 -0.08)">
       <use xlink:href="#DejaVuSans-33"/>
       <use xlink:href="#DejaVuSans-35" x="63.623047"/>
      </g>
     </g>
    </g>
    <g id="text_9">
     <!-- Mean Sequence Quality (Phred Score) -->
     <g transform="translate(422.078438 379.564837) scale(0.1 -0.1)">
      <defs>
       <path id="DejaVuSans-4d" d="M 628 4666 
L 1569 4666 
L 2759 1491 
L 3956 4666 
L 4897 4666 
L 4897 0 
L 4281 0 
L 4281 4097 
L 3078 897 
L 2444 897 
L 1241 4097 
L 1241 0 
L 628 0 
L 628 4666 
z
" transform="scale(0.015625)"/>
       <path id="DejaVuSans-65" d="M 3597 1894 
L 3597 1613 
L 953 1613 
Q 991 1019 1311 708 
Q 1631 397 2203 397 
Q 2534 397 2845 478 
Q 3156 559 3463 722 
L 3463 178 
Q 3153 47 2828 -22 
Q 2503 -91 2169 -91 
Q 1331 -91 842 396 
Q 353 884 353 1716 
Q 353 2575 817 3079 
Q 1281 3584 2069 3584 
Q 2775 3584 3186 3129 
Q 3597 2675 3597 1894 
z
M 3022 2063 
Q 3016 2534 2758 2815 
Q 2500 3097 2075 3097 
Q 1594 3097 1305 2825 
Q 1016 2553 972 2059 
L 3022 2063 
z
" transform="scale(0.015625)"/>
       <path id="DejaVuSans-61" d="M 2194 1759 
Q 1497 1759 1228 1600 
Q 959 1441 959 1056 
Q 959 750 1161 570 
Q 1363 391 1709 391 
Q 2188 391 2477 730 
Q 2766 1069 2766 1631 
L 2766 1759 
L 2194 1759 
z
M 3341 1997 
L 3341 0 
L 2766 0 
L 2766 531 
Q 2569 213 2275 61 
Q 1981 -91 1556 -91 
Q 1019 -91 701 211 
Q 384 513 384 1019 
Q 384 1609 779 1909 
Q 1175 2209 1959 2209 
L 2766 2209 
L 2766 2266 
Q 2766 2663 2505 2880 
Q 2244 3097 1772 3097 
Q 1472 3097 1187 3025 
Q 903 2953 641 2809 
L 641 3341 
Q 956 3463 1253 3523 
Q 1550 3584 1831 3584 
Q 2591 3584 2966 3190 
Q 3341 2797 3341 1997 
z
" transform="scale(0.015625)"/>
       <path id="DejaVuSans-6e" d="M 3513 2113 
L 3513 0 
L 2938 0 
L 2938 2094 
Q 2938 2591 2744 2837 
Q 2550 3084 2163 3084 
Q 1697 3084 1428 2787 
Q 1159 2491 1159 1978 
L 1159 0 
L 581 0 
L 581 3500 
L 1159 3500 
L 1159 2956 
Q 1366 3272 1645 3428 
Q 1925 3584 2291 3584 
Q 2894 3584 3203 3211 
Q 3513 2838 3513 2113 
z
" transform="scale(0.015625)"/>
       <path id="DejaVuSans-20" transform="scale(0.015625)"/>
       <path id="DejaVuSans-53" d="M 3425 4513 
L 3425 3897 
Q 3066 4069 2747 4153 
Q 2428 4238 2131 4238 
Q 1616 4238 1336 4038 
Q 1056 3838 1056 3469 
Q 1056 3159 1242 3001 
Q 1428 2844 1947 2747 
L 2328 2669 
Q 3034 2534 3370 2195 
Q 3706 1856 3706 1288 
Q 3706 609 3251 259 
Q 2797 -91 1919 -91 
Q 1588 -91 1214 -16 
Q 841 59 441 206 
L 441 856 
Q 825 641 1194 531 
Q 1563 422 1919 422 
Q 2459 422 2753 634 
Q 3047 847 3047 1241 
Q 3047 1584 2836 1778 
Q 2625 1972 2144 2069 
L 1759 2144 
Q 1053 2284 737 2584 
Q 422 2884 422 3419 
Q 422 4038 858 4394 
Q 1294 4750 2059 4750 
Q 2388 4750 2728 4690 
Q 3069 4631 3425 4513 
z
" transform="scale(0.015625)"/>
       <path id="DejaVuSans-71" d="M 947 1747 
Q 947 1113 1208 752 
Q 1469 391 1925 391 
Q 2381 391 2643 752 
Q 2906 1113 2906 1747 
Q 2906 2381 2643 2742 
Q 2381 3103 1925 3103 
Q 1469 3103 1208 2742 
Q 947 2381 947 1747 
z
M 2906 525 
Q 2725 213 2448 61 
Q 2172 -91 1784 -91 
Q 1150 -91 751 415 
Q 353 922 353 1747 
Q 353 2572 751 3078 
Q 1150 3584 1784 3584 
Q 2172 3584 2448 3432 
Q 2725 3281 2906 2969 
L 2906 3500 
L 3481 3500 
L 3481 -1331 
L 2906 -1331 
L 2906 525 
z
" transform="scale(0.015625)"/>
       <path id="DejaVuSans-75" d="M 544 1381 
L 544 3500 
L 1119 3500 
L 1119 1403 
Q 1119 906 1312 657 
Q 1506 409 1894 409 
Q 2359 409 2629 706 
Q 2900 1003 2900 1516 
L 2900 3500 
L 3475 3500 
L 3475 0 
L 2900 0 
L 2900 538 
Q 2691 219 2414 64 
Q 2138 -91 1772 -91 
Q 1169 -91 856 284 
Q 544 659 544 1381 
z
M 1991 3584 
L 1991 3584 
z
" transform="scale(0.015625)"/>
       <path id="DejaVuSans-63" d="M 3122 3366 
L 3122 2828 
Q 2878 2963 2633 3030 
Q 2388 3097 2138 3097 
Q 1578 3097 1268 2742 
Q 959 2388 959 1747 
Q 959 1106 1268 751 
Q 1578 397 2138 397 
Q 2388 397 2633 464 
Q 2878 531 3122 666 
L 3122 134 
Q 2881 22 2623 -34 
Q 2366 -91 2075 -91 
Q 1284 -91 818 406 
Q 353 903 353 1747 
Q 353 2603 823 3093 
Q 1294 3584 2113 3584 
Q 2378 3584 2631 3529 
Q 2884 3475 3122 3366 
z
" transform="scale(0.015625)"/>
       <path id="DejaVuSans-51" d="M 2522 4238 
Q 1834 4238 1429 3725 
Q 1025 3213 1025 2328 
Q 1025 1447 1429 934 
Q 1834 422 2522 422 
Q 3209 422 3611 934 
Q 4013 1447 4013 2328 
Q 4013 3213 3611 3725 
Q 3209 4238 2522 4238 
z
M 3406 84 
L 4238 -825 
L 3475 -825 
L 2784 -78 
Q 2681 -84 2626 -87 
Q 2572 -91 2522 -91 
Q 1538 -91 948 567 
Q 359 1225 359 2328 
Q 359 3434 948 4092 
Q 1538 4750 2522 4750 
Q 3503 4750 4090 4092 
Q 4678 3434 4678 2328 
Q 4678 1516 4351 937 
Q 4025 359 3406 84 
z
" transform="scale(0.015625)"/>
       <path id="DejaVuSans-6c" d="M 603 4863 
L 1178 4863 
L 1178 0 
L 603 0 
L 603 4863 
z
" transform="scale(0.015625)"/>
       <path id="DejaVuSans-69" d="M 603 3500 
L 1178 3500 
L 1178 0 
L 603 0 
L 603 3500 
z
M 603 4863 
L 1178 4863 
L 1178 4134 
L 603 4134 
L 603 4863 
z
" transform="scale(0.015625)"/>
       <path id="DejaVuSans-74" d="M 1172 4494 
L 1172 3500 
L 2356 3500 
L 2356 3053 
L 1172 3053 
L 1172 1153 
Q 1172 725 1289 603 
Q 1406 481 1766 481 
L 2356 481 
L 2356 0 
L 1766 0 
Q 1100 0 847 248 
Q 594 497 594 1153 
L 594 3053 
L 172 3053 
L 172 3500 
L 594 3500 
L 594 4494 
L 1172 4494 
z
" transform="scale(0.015625)"/>
       <path id="DejaVuSans-79" d="M 2059 -325 
Q 1816 -950 1584 -1140 
Q 1353 -1331 966 -1331 
L 506 -1331 
L 506 -850 
L 844 -850 
Q 1081 -850 1212 -737 
Q 1344 -625 1503 -206 
L 1606 56 
L 191 3500 
L 800 3500 
L 1894 763 
L 2988 3500 
L 3597 3500 
L 2059 -325 
z
" transform="scale(0.015625)"/>
       <path id="DejaVuSans-28" d="M 1984 4856 
Q 1566 4138 1362 3434 
Q 1159 2731 1159 2009 
Q 1159 1288 1364 580 
Q 1569 -128 1984 -844 
L 1484 -844 
Q 1016 -109 783 600 
Q 550 1309 550 2009 
Q 550 2706 781 3412 
Q 1013 4119 1484 4856 
L 1984 4856 
z
" transform="scale(0.015625)"/>
       <path id="DejaVuSans-50" d="M 1259 4147 
L 1259 2394 
L 2053 2394 
Q 2494 2394 2734 2622 
Q 2975 2850 2975 3272 
Q 2975 3691 2734 3919 
Q 2494 4147 2053 4147 
L 1259 4147 
z
M 628 4666 
L 2053 4666 
Q 2838 4666 3239 4311 
Q 3641 3956 3641 3272 
Q 3641 2581 3239 2228 
Q 2838 1875 2053 1875 
L 1259 1875 
L 1259 0 
L 628 0 
L 628 4666 
z
" transform="scale(0.015625)"/>
       <path id="DejaVuSans-68" d="M 3513 2113 
L 3513 0 
L 2938 0 
L 2938 2094 
Q 2938 2591 2744 2837 
Q 2550 3084 2163 3084 
Q 1697 3084 1428 2787 
Q 1159 2491 1159 1978 
L 1159 0 
L 581 0 
L 581 4863 
L 1159 4863 
L 1159 2956 
Q 1366 3272 1645 3428 
Q 1925 3584 2291 3584 
Q 2894 3584 3203 3211 
Q 3513 2838 3513 2113 
z
" transform="scale(0.015625)"/>
       <path id="DejaVuSans-72" d="M 2631 2963 
Q 2534 3019 2420 3045 
Q 2306 3072 2169 3072 
Q 1681 3072 1420 2755 
Q 1159 2438 1159 1844 
L 1159 0 
L 581 0 
L 581 3500 
L 1159 3500 
L 1159 2956 
Q 1341 3275 1631 3429 
Q 1922 3584 2338 3584 
Q 2397 3584 2469 3576 
Q 2541 3569 2628 3553 
L 2631 2963 
z
" transform="scale(0.015625)"/>
       <path id="DejaVuSans-64" d="M 2906 2969 
L 2906 4863 
L 3481 4863 
L 3481 0 
L 2906 0 
L 2906 525 
Q 2725 213 2448 61 
Q 2172 -91 1784 -91 
Q 1150 -91 751 415 
Q 353 922 353 1747 
Q 353 2572 751 3078 
Q 1150 3584 1784 3584 
Q 2172 3584 2448 3432 
Q 2725 3281 2906 2969 
z
M 947 1747 
Q 947 1113 1208 752 
Q 1469 391 1925 391 
Q 2381 391 2643 752 
Q 2906 1113 2906 1747 
Q 2906 2381 2643 2742 
Q 2381 3103 1925 3103 
Q 1469 3103 1208 2742 
Q 947 2381 947 1747 
z
" transform="scale(0.015625)"/>
       <path id="DejaVuSans-6f" d="M 1959 3097 
Q 1497 3097 1228 2736 
Q 959 2375 959 1747 
Q 959 1119 1226 758 
Q 1494 397 1959 397 
Q 2419 397 2687 759 
Q 2956 1122 2956 1747 
Q 2956 2369 2687 2733 
Q 2419 3097 1959 3097 
z
M 1959 3584 
Q 2709 3584 3137 3096 
Q 3566 2609 3566 1747 
Q 3566 888 3137 398 
Q 2709 -91 1959 -91 
Q 1206 -91 779 398 
Q 353 888 353 1747 
Q 353 2609 779 3096 
Q 1206 3584 1959 3584 
z
" transform="scale(0.015625)"/>
       <path id="DejaVuSans-29" d="M 513 4856 
L 1013 4856 
Q 1481 4119 1714 3412 
Q 1947 2706 1947 2009 
Q 1947 1309 1714 600 
Q 1481 -109 1013 -844 
L 513 -844 
Q 928 -128 1133 580 
Q 1338 1288 1338 2009 
Q 1338 2731 1133 3434 
Q 928 4138 513 4856 
z
" transform="scale(0.015625)"/>
      </defs>
      <use xlink:href="#DejaVuSans-4d"/>
      <use xlink:href="#DejaVuSans-65" x="86.279297"/>
      <use xlink:href="#DejaVuSans-61" x="147.802734"/>
      <use xlink:href="#DejaVuSans-6e" x="209.082031"/>
      <use xlink:href="#DejaVuSans-20" x="272.460938"/>
      <use xlink:href="#DejaVuSans-53" x="304.248047"/>
      <use xlink:href="#DejaVuSans-65" x="367.724609"/>
      <use xlink:href="#DejaVuSans-71" x="429.248047"/>
      <use xlink:href="#DejaVuSans-75" x="492.724609"/>
      <use xlink:href="#DejaVuSans-65" x="556.103516"/>
      <use xlink:href="#DejaVuSans-6e" x="617.626953"/>
      <use xlink:href="#DejaVuSans-63" x="681.005859"/>
      <use xlink:href="#DejaVuSans-65" x="735.986328"/>
      <use xlink:href="#DejaVuSans-20" x="797.509766"/>
      <use xlink:href="#DejaVuSans-51" x="829.296875"/>
      <use xlink:href="#DejaVuSans-75" x="908.007812"/>
      <use xlink:href="#DejaVuSans-61" x="971.386719"/>
      <use xlink:href="#DejaVuSans-6c" x="1032.666016"/>
      <use xlink:href="#DejaVuSans-69" x="1060.449219"/>
      <use xlink:href="#DejaVuSans-74" x="1088.232422"/>
      <use xlink:href="#DejaVuSans-79" x="1127.441406"/>
      <use xlink:href="#DejaVuSans-20" x="1186.621094"/>
      <use xlink:href="#DejaVuSans-28" x="1218.408203"/>
      <use xlink:href="#DejaVuSans-50" x="1257.421875"/>
      <use xlink:href="#DejaVuSans-68" x="1317.724609"/>
      <use xlink:href="#DejaVuSans-72" x="1381.103516"/>
      <use xlink:href="#DejaVuSans-65" x="1419.966797"/>
      <use xlink:href="#DejaVuSans-64" x="1481.490234"/>
      <use xlink:href="#DejaVuSans-20" x="1544.966797"/>
      <use xlink:href="#DejaVuSans-53" x="1576.753906"/>
      <use xlink:href="#DejaVuSans-63" x="1640.230469"/>
      <use xlink:href="#DejaVuSans-6f" x="1695.210938"/>
      <use xlink:href="#DejaVuSans-72" x="1756.392578"/>
      <use xlink:href="#DejaVuSans-65" x="1795.255859"/>
      <use xlink:href="#DejaVuSans-29" x="1856.779297"/>
     </g>
    </g>
   </g>
   <g id="matplotlib.axis_2">
    <g id="ytick_1">
     <g id="line2d_1">
      <path d="M 40.600625 353.2239 
L 993.140625 353.2239 
" clip-path="url(#p4f9a8753aa)" style="fill: none; stroke: #dedede; stroke-linecap: square"/>
     </g>
     <g id="text_10">
      <!-- 0.0 -->
      <g transform="translate(20.878125 356.263275) scale(0.08 -0.08)">
       <defs>
        <path id="DejaVuSans-2e" d="M 684 794 
L 1344 794 
L 1344 0 
L 684 0 
L 684 794 
z
" transform="scale(0.015625)"/>
       </defs>
       <use xlink:href="#DejaVuSans-30"/>
       <use xlink:href="#DejaVuSans-2e" x="63.623047"/>
       <use xlink:href="#DejaVuSans-30" x="95.410156"/>
      </g>
     </g>
    </g>
    <g id="ytick_2">
     <g id="line2d_2">
      <path d="M 40.600625 307.938595 
L 993.140625 307.938595 
" clip-path="url(#p4f9a8753aa)" style="fill: none; stroke: #dedede; stroke-linecap: square"/>
     </g>
     <g id="text_11">
      <!-- 0.5 -->
      <g transform="translate(20.878125 310.97797) scale(0.08 -0.08)">
       <use xlink:href="#DejaVuSans-30"/>
       <use xlink:href="#DejaVuSans-2e" x="63.623047"/>
       <use xlink:href="#DejaVuSans-35" x="95.410156"/>
      </g>
     </g>
    </g>
    <g id="ytick_3">
     <g id="line2d_3">
      <path d="M 40.600625 262.65329 
L 993.140625 262.65329 
" clip-path="url(#p4f9a8753aa)" style="fill: none; stroke: #dedede; stroke-linecap: square"/>
     </g>
     <g id="text_12">
      <!-- 1.0 -->
      <g transform="translate(20.878125 265.692665) scale(0.08 -0.08)">
       <use xlink:href="#DejaVuSans-31"/>
       <use xlink:href="#DejaVuSans-2e" x="63.623047"/>
       <use xlink:href="#DejaVuSans-30" x="95.410156"/>
      </g>
     </g>
    </g>
    <g id="ytick_4">
     <g id="line2d_4">
      <path d="M 40.600625 217.367985 
L 993.140625 217.367985 
" clip-path="url(#p4f9a8753aa)" style="fill: none; stroke: #dedede; stroke-linecap: square"/>
     </g>
     <g id="text_13">
      <!-- 1.5 -->
      <g transform="translate(20.878125 220.40736) scale(0.08 -0.08)">
       <use xlink:href="#DejaVuSans-31"/>
       <use xlink:href="#DejaVuSans-2e" x="63.623047"/>
       <use xlink:href="#DejaVuSans-35" x="95.410156"/>
      </g>
     </g>
    </g>
    <g id="ytick_5">
     <g id="line2d_5">
      <path d="M 40.600625 172.082679 
L 993.140625 172.082679 
" clip-path="url(#p4f9a8753aa)" style="fill: none; stroke: #dedede; stroke-linecap: square"/>
     </g>
     <g id="text_14">
      <!-- 2.0 -->
      <g transform="translate(20.878125 175.122054) scale(0.08 -0.08)">
       <use xlink:href="#DejaVuSans-32"/>
       <use xlink:href="#DejaVuSans-2e" x="63.623047"/>
       <use xlink:href="#DejaVuSans-30" x="95.410156"/>
      </g>
     </g>
    </g>
    <g id="ytick_6">
     <g id="line2d_6">
      <path d="M 40.600625 126.797374 
L 993.140625 126.797374 
" clip-path="url(#p4f9a8753aa)" style="fill: none; stroke: #dedede; stroke-linecap: square"/>
     </g>
     <g id="text_15">
      <!-- 2.5 -->
      <g transform="translate(20.878125 129.836749) scale(0.08 -0.08)">
       <use xlink:href="#DejaVuSans-32"/>
       <use xlink:href="#DejaVuSans-2e" x="63.623047"/>
       <use xlink:href="#DejaVuSans-35" x="95.410156"/>
      </g>
     </g>
    </g>
    <g id="ytick_7">
     <g id="line2d_7">
      <path d="M 40.600625 81.512069 
L 993.140625 81.512069 
" clip-path="url(#p4f9a8753aa)" style="fill: none; stroke: #dedede; stroke-linecap: square"/>
     </g>
     <g id="text_16">
      <!-- 3.0 -->
      <g transform="translate(20.878125 84.551444) scale(0.08 -0.08)">
       <use xlink:href="#DejaVuSans-33"/>
       <use xlink:href="#DejaVuSans-2e" x="63.623047"/>
       <use xlink:href="#DejaVuSans-30" x="95.410156"/>
      </g>
     </g>
    </g>
    <g id="ytick_8">
     <g id="line2d_8">
      <path d="M 40.600625 36.226764 
L 993.140625 36.226764 
" clip-path="url(#p4f9a8753aa)" style="fill: none; stroke: #dedede; stroke-linecap: square"/>
     </g>
     <g id="text_17">
      <!-- 3.5 -->
      <g transform="translate(20.878125 39.266139) scale(0.08 -0.08)">
       <use xlink:href="#DejaVuSans-33"/>
       <use xlink:href="#DejaVuSans-2e" x="63.623047"/>
       <use xlink:href="#DejaVuSans-35" x="95.410156"/>
      </g>
     </g>
    </g>
    <g id="text_18">
     <!-- Count -->
     <g transform="translate(14.798438 209.088338) rotate(-90) scale(0.1 -0.1)">
      <defs>
       <path id="DejaVuSans-43" d="M 4122 4306 
L 4122 3641 
Q 3803 3938 3442 4084 
Q 3081 4231 2675 4231 
Q 1875 4231 1450 3742 
Q 1025 3253 1025 2328 
Q 1025 1406 1450 917 
Q 1875 428 2675 428 
Q 3081 428 3442 575 
Q 3803 722 4122 1019 
L 4122 359 
Q 3791 134 3420 21 
Q 3050 -91 2638 -91 
Q 1578 -91 968 557 
Q 359 1206 359 2328 
Q 359 3453 968 4101 
Q 1578 4750 2638 4750 
Q 3056 4750 3426 4639 
Q 3797 4528 4122 4306 
z
" transform="scale(0.015625)"/>
      </defs>
      <use xlink:href="#DejaVuSans-43"/>
      <use xlink:href="#DejaVuSans-6f" x="69.824219"/>
      <use xlink:href="#DejaVuSans-75" x="131.005859"/>
      <use xlink:href="#DejaVuSans-6e" x="194.384766"/>
      <use xlink:href="#DejaVuSans-74" x="257.763672"/>
     </g>
    </g>
    <g id="text_19">
     <!-- 1e7 -->
     <g transform="translate(40.600625 32.2559) scale(0.1 -0.1)">
      <defs>
       <path id="DejaVuSans-37" d="M 525 4666 
L 3525 4666 
L 3525 4397 
L 1831 0 
L 1172 0 
L 2766 4134 
L 525 4134 
L 525 4666 
z
" transform="scale(0.015625)"/>
      </defs>
      <use xlink:href="#DejaVuSans-31"/>
      <use xlink:href="#DejaVuSans-65" x="63.623047"/>
      <use xlink:href="#DejaVuSans-37" x="125.146484"/>
     </g>
    </g>
   </g>
   <g id="line2d_9">
    <path d="M 386.081454 353.223864 
L 410.758656 353.223538 
L 435.435858 353.22304 
L 460.11306 353.222125 
L 484.790262 353.219987 
L 509.467464 353.216066 
L 534.144666 353.207869 
L 558.821869 353.190027 
L 583.499071 353.151063 
L 608.176273 353.072466 
L 632.853475 352.91702 
L 657.530677 352.631188 
L 682.207879 352.174386 
L 706.885081 351.454033 
L 731.562283 350.437821 
L 756.239485 349.067588 
L 780.916687 347.409457 
L 805.593889 345.346358 
L 830.271091 342.717102 
L 854.948293 338.943695 
L 879.625495 331.423002 
L 904.302698 305.872036 
L 928.9799 103.530246 
L 953.657102 334.0676 
" clip-path="url(#p4f9a8753aa)" style="fill: none; stroke: #5cb85c; stroke-linecap: square"/>
   </g>
   <g id="line2d_10">
    <path d="M 213.34104 353.223882 
L 238.018242 353.223873 
L 262.695444 353.223891 
L 287.372646 353.223882 
L 312.049848 353.223837 
L 336.72705 353.222279 
L 361.404252 353.216808 
L 386.081454 353.213068 
L 410.758656 353.212597 
L 435.435858 353.210758 
L 460.11306 353.207824 
L 484.790262 353.200732 
L 509.467464 353.189112 
L 534.144666 353.159667 
L 558.821869 353.093324 
L 583.499071 352.967975 
L 608.176273 352.794577 
L 632.853475 352.594878 
L 657.530677 352.35704 
L 682.207879 352.056744 
L 706.885081 351.612187 
L 731.562283 351.004132 
L 756.239485 350.136819 
L 780.916687 348.954483 
L 805.593889 347.091926 
L 830.271091 344.212885 
L 854.948293 338.944972 
L 879.625495 326.240895 
L 904.302698 277.391465 
L 928.9799 123.313875 
L 953.657102 342.78849 
" clip-path="url(#p4f9a8753aa)" style="fill: none; stroke: #5cb85c; stroke-linecap: square"/>
   </g>
   <g id="line2d_11">
    <path d="M 386.081454 353.223782 
L 410.758656 353.223501 
L 435.435858 353.222777 
L 460.11306 353.221989 
L 484.790262 353.220332 
L 509.467464 353.216682 
L 534.144666 353.209291 
L 558.821869 353.194673 
L 583.499071 353.165609 
L 608.176273 353.112245 
L 632.853475 353.014084 
L 657.530677 352.825181 
L 682.207879 352.500431 
L 706.885081 351.961527 
L 731.562283 351.172322 
L 756.239485 350.024973 
L 780.916687 348.584529 
L 805.593889 346.767991 
L 830.271091 344.384861 
L 854.948293 340.987403 
L 879.625495 333.983623 
L 904.302698 309.246969 
L 928.9799 88.951168 
L 953.657102 331.03679 
" clip-path="url(#p4f9a8753aa)" style="fill: none; stroke: #5cb85c; stroke-linecap: square"/>
   </g>
   <g id="line2d_12">
    <path d="M 163.986635 353.223891 
L 188.663837 353.223882 
L 213.34104 353.223891 
L 238.018242 353.223891 
L 262.695444 353.223873 
L 287.372646 353.223882 
L 312.049848 353.223755 
L 336.72705 353.221491 
L 361.404252 353.214109 
L 386.081454 353.210595 
L 410.758656 353.210169 
L 435.435858 353.208095 
L 460.11306 353.204382 
L 484.790262 353.197752 
L 509.467464 353.18298 
L 534.144666 353.149632 
L 558.821869 353.070827 
L 583.499071 352.914293 
L 608.176273 352.689325 
L 632.853475 352.433065 
L 657.530677 352.126972 
L 682.207879 351.720709 
L 706.885081 351.152722 
L 731.562283 350.393958 
L 756.239485 349.318115 
L 780.916687 347.863198 
L 805.593889 345.589921 
L 830.271091 341.82173 
L 854.948293 334.317937 
L 879.625495 314.487837 
L 904.302698 247.916528 
L 928.9799 168.201747 
L 953.657102 349.082677 
" clip-path="url(#p4f9a8753aa)" style="fill: none; stroke: #5cb85c; stroke-linecap: square"/>
   </g>
   <g id="line2d_13">
    <path d="M 386.081454 353.223818 
L 410.758656 353.223556 
L 435.435858 353.223058 
L 460.11306 353.221898 
L 484.790262 353.219698 
L 509.467464 353.215486 
L 534.144666 353.208421 
L 558.821869 353.194573 
L 583.499071 353.165446 
L 608.176273 353.116809 
L 632.853475 353.022426 
L 657.530677 352.85333 
L 682.207879 352.565017 
L 706.885081 352.086487 
L 731.562283 351.35484 
L 756.239485 350.306566 
L 780.916687 348.973874 
L 805.593889 347.28254 
L 830.271091 345.113338 
L 854.948293 341.92922 
L 879.625495 335.37303 
L 904.302698 312.4497 
L 928.9799 103.712003 
L 953.657102 331.428961 
" clip-path="url(#p4f9a8753aa)" style="fill: none; stroke: #5cb85c; stroke-linecap: square"/>
   </g>
   <g id="line2d_14">
    <path d="M 188.663837 353.223891 
L 213.34104 353.223882 
L 238.018242 353.223882 
L 262.695444 353.223882 
L 287.372646 353.223882 
L 312.049848 353.223837 
L 336.72705 353.22255 
L 361.404252 353.218013 
L 386.081454 353.215432 
L 410.758656 353.215042 
L 435.435858 353.213557 
L 460.11306 353.209834 
L 484.790262 353.203965 
L 509.467464 353.194247 
L 534.144666 353.169358 
L 558.821869 353.114282 
L 583.499071 353.006666 
L 608.176273 352.859172 
L 632.853475 352.687749 
L 657.530677 352.475397 
L 682.207879 352.192699 
L 706.885081 351.786318 
L 731.562283 351.23122 
L 756.239485 350.431608 
L 780.916687 349.316177 
L 805.593889 347.587464 
L 830.271091 344.822652 
L 854.948293 339.573786 
L 879.625495 326.173466 
L 904.302698 273.788149 
L 928.9799 141.516022 
L 953.657102 345.487214 
" clip-path="url(#p4f9a8753aa)" style="fill: none; stroke: #5cb85c; stroke-linecap: square"/>
   </g>
   <g id="line2d_15">
    <path d="M 361.404252 353.223882 
L 386.081454 353.223755 
L 410.758656 353.223357 
L 435.435858 353.222813 
L 460.11306 353.221174 
L 484.790262 353.218402 
L 509.467464 353.213774 
L 534.144666 353.20469 
L 558.821869 353.184982 
L 583.499071 353.147775 
L 608.176273 353.074187 
L 632.853475 352.93584 
L 657.530677 352.679109 
L 682.207879 352.243745 
L 706.885081 351.575125 
L 731.562283 350.598711 
L 756.239485 349.279378 
L 780.916687 347.714843 
L 805.593889 345.781423 
L 830.271091 343.324976 
L 854.948293 339.730636 
L 879.625495 332.232549 
L 904.302698 305.696791 
L 928.9799 64.455459 
L 953.657102 327.802758 
" clip-path="url(#p4f9a8753aa)" style="fill: none; stroke: #5cb85c; stroke-linecap: square"/>
   </g>
   <g id="line2d_16">
    <path d="M 163.986635 353.223891 
L 188.663837 353.2239 
L 213.34104 353.2239 
L 238.018242 353.223864 
L 262.695444 353.223864 
L 287.372646 353.2239 
L 312.049848 353.223828 
L 336.72705 353.222234 
L 361.404252 353.216772 
L 386.081454 353.213738 
L 410.758656 353.212262 
L 435.435858 353.21026 
L 460.11306 353.206221 
L 484.790262 353.199709 
L 509.467464 353.185824 
L 534.144666 353.156271 
L 558.821869 353.087899 
L 583.499071 352.958809 
L 608.176273 352.768058 
L 632.853475 352.556467 
L 657.530677 352.310169 
L 682.207879 351.982684 
L 706.885081 351.517595 
L 731.562283 350.874127 
L 756.239485 349.954591 
L 780.916687 348.699364 
L 805.593889 346.820187 
L 830.271091 343.78791 
L 854.948293 338.187965 
L 879.625495 323.935158 
L 904.302698 266.031474 
L 928.9799 97.031515 
L 953.657102 343.106927 
" clip-path="url(#p4f9a8753aa)" style="fill: none; stroke: #5cb85c; stroke-linecap: square"/>
   </g>
   <g id="line2d_17">
    <path d="M 386.081454 353.223791 
L 410.758656 353.223511 
L 435.435858 353.223012 
L 460.11306 353.222188 
L 484.790262 353.22073 
L 509.467464 353.217669 
L 534.144666 353.211338 
L 558.821869 353.199509 
L 583.499071 353.174077 
L 608.176273 353.125567 
L 632.853475 353.031111 
L 657.530677 352.851881 
L 682.207879 352.539295 
L 706.885081 352.024111 
L 731.562283 351.269241 
L 756.239485 350.19396 
L 780.916687 348.848977 
L 805.593889 347.145589 
L 830.271091 344.952086 
L 854.948293 341.682985 
L 879.625495 334.949857 
L 904.302698 310.948682 
L 928.9799 101.721932 
L 953.657102 334.284308 
" clip-path="url(#p4f9a8753aa)" style="fill: none; stroke: #5cb85c; stroke-linecap: square"/>
   </g>
   <g id="line2d_18">
    <path d="M 188.663837 353.223882 
L 213.34104 353.223873 
L 238.018242 353.2239 
L 262.695444 353.223882 
L 287.372646 353.223882 
L 312.049848 353.223828 
L 336.72705 353.222759 
L 361.404252 353.217805 
L 386.081454 353.215332 
L 410.758656 353.214091 
L 435.435858 353.213122 
L 460.11306 353.20863 
L 484.790262 353.204291 
L 509.467464 353.194193 
L 534.144666 353.173606 
L 558.821869 353.12679 
L 583.499071 353.039534 
L 608.176273 352.911703 
L 632.853475 352.766002 
L 657.530677 352.586392 
L 682.207879 352.34685 
L 706.885081 352.013723 
L 731.562283 351.540238 
L 756.239485 350.851376 
L 780.916687 349.884625 
L 805.593889 348.395572 
L 830.271091 345.977001 
L 854.948293 341.564899 
L 879.625495 330.385479 
L 904.302698 284.262858 
L 928.9799 122.00234 
L 953.657102 342.414153 
" clip-path="url(#p4f9a8753aa)" style="fill: none; stroke: #5cb85c; stroke-linecap: square"/>
   </g>
   <g id="line2d_19">
    <path d="M 361.404252 353.223882 
L 386.081454 353.2238 
L 410.758656 353.223492 
L 435.435858 353.222795 
L 460.11306 353.221572 
L 484.790262 353.220024 
L 509.467464 353.21708 
L 534.144666 353.209653 
L 558.821869 353.198078 
L 583.499071 353.172085 
L 608.176273 353.12708 
L 632.853475 353.042913 
L 657.530677 352.879668 
L 682.207879 352.602839 
L 706.885081 352.118812 
L 731.562283 351.378044 
L 756.239485 350.260276 
L 780.916687 348.837602 
L 805.593889 346.999281 
L 830.271091 344.636266 
L 854.948293 341.156064 
L 879.625495 334.035284 
L 904.302698 309.282128 
L 928.9799 88.238667 
L 953.657102 330.710446 
" clip-path="url(#p4f9a8753aa)" style="fill: none; stroke: #5cb85c; stroke-linecap: square"/>
   </g>
   <g id="line2d_20">
    <path d="M 188.663837 353.223891 
L 213.34104 353.223873 
L 238.018242 353.223864 
L 262.695444 353.223882 
L 287.372646 353.223882 
L 312.049848 353.2238 
L 336.72705 353.220123 
L 361.404252 353.204264 
L 386.081454 353.194872 
L 410.758656 353.194818 
L 435.435858 353.195253 
L 460.11306 353.192599 
L 484.790262 353.18721 
L 509.467464 353.173787 
L 534.144666 353.147667 
L 558.821869 353.089919 
L 583.499071 352.992945 
L 608.176273 352.854263 
L 632.853475 352.697359 
L 657.530677 352.500893 
L 682.207879 352.218965 
L 706.885081 351.806307 
L 731.562283 351.236482 
L 756.239485 350.387102 
L 780.916687 349.192466 
L 805.593889 347.328116 
L 830.271091 344.282434 
L 854.948293 338.515523 
L 879.625495 323.492367 
L 904.302698 264.94046 
L 928.9799 132.149509 
L 953.657102 346.266239 
" clip-path="url(#p4f9a8753aa)" style="fill: none; stroke: #5cb85c; stroke-linecap: square"/>
   </g>
   <g id="line2d_21">
    <path d="M 386.081454 353.223746 
L 410.758656 353.223375 
L 435.435858 353.22294 
L 460.11306 353.221871 
L 484.790262 353.220232 
L 509.467464 353.21593 
L 534.144666 353.208177 
L 558.821869 353.191947 
L 583.499071 353.15897 
L 608.176273 353.101403 
L 632.853475 352.986216 
L 657.530677 352.768891 
L 682.207879 352.399291 
L 706.885081 351.800981 
L 731.562283 350.947888 
L 756.239485 349.774709 
L 780.916687 348.349562 
L 805.593889 346.601332 
L 830.271091 344.348324 
L 854.948293 341.00184 
L 879.625495 334.113193 
L 904.302698 309.354087 
L 928.9799 92.472671 
L 953.657102 333.269111 
" clip-path="url(#p4f9a8753aa)" style="fill: none; stroke: #5cb85c; stroke-linecap: square"/>
   </g>
   <g id="line2d_22">
    <path d="M 188.663837 353.223864 
L 213.34104 353.223891 
L 238.018242 353.223882 
L 262.695444 353.223846 
L 287.372646 353.223891 
L 312.049848 353.2238 
L 336.72705 353.221889 
L 361.404252 353.21545 
L 386.081454 353.212751 
L 410.758656 353.211727 
L 435.435858 353.20988 
L 460.11306 353.204989 
L 484.790262 353.199537 
L 509.467464 353.185589 
L 534.144666 353.156334 
L 558.821869 353.087193 
L 583.499071 352.954126 
L 608.176273 352.771002 
L 632.853475 352.553777 
L 657.530677 352.281151 
L 682.207879 351.94373 
L 706.885081 351.459566 
L 731.562283 350.804741 
L 756.239485 349.909985 
L 780.916687 348.682454 
L 805.593889 346.810215 
L 830.271091 343.823866 
L 854.948293 338.143377 
L 879.625495 323.329766 
L 904.302698 266.968689 
L 928.9799 138.780545 
L 953.657102 345.502384 
" clip-path="url(#p4f9a8753aa)" style="fill: none; stroke: #5cb85c; stroke-linecap: square"/>
   </g>
   <g id="line2d_23">
    <path d="M 361.404252 353.223891 
L 386.081454 353.223674 
L 410.758656 353.223311 
L 435.435858 353.222415 
L 460.11306 353.221292 
L 484.790262 353.218819 
L 509.467464 353.214191 
L 534.144666 353.205396 
L 558.821869 353.186422 
L 583.499071 353.150674 
L 608.176273 353.076415 
L 632.853475 352.932743 
L 657.530677 352.672089 
L 682.207879 352.228112 
L 706.885081 351.543553 
L 731.562283 350.577762 
L 756.239485 349.256228 
L 780.916687 347.717143 
L 805.593889 345.830757 
L 830.271091 343.408645 
L 854.948293 339.898699 
L 879.625495 332.477542 
L 904.302698 306.470436 
L 928.9799 73.294534 
L 953.657102 328.920862 
" clip-path="url(#p4f9a8753aa)" style="fill: none; stroke: #5cb85c; stroke-linecap: square"/>
   </g>
   <g id="line2d_24">
    <path d="M 188.663837 353.223891 
L 213.34104 353.223891 
L 238.018242 353.223873 
L 262.695444 353.223855 
L 287.372646 353.223873 
L 312.049848 353.223864 
L 336.72705 353.22217 
L 361.404252 353.21689 
L 386.081454 353.212923 
L 410.758656 353.211365 
L 435.435858 353.208566 
L 460.11306 353.204165 
L 484.790262 353.19662 
L 509.467464 353.183995 
L 534.144666 353.15388 
L 558.821869 353.081441 
L 583.499071 352.952342 
L 608.176273 352.770585 
L 632.853475 352.563894 
L 657.530677 352.326228 
L 682.207879 352.001124 
L 706.885081 351.55309 
L 731.562283 350.936666 
L 756.239485 350.058792 
L 780.916687 348.871683 
L 805.593889 347.068431 
L 830.271091 344.179048 
L 854.948293 338.939982 
L 879.625495 325.522978 
L 904.302698 270.637488 
L 928.9799 100.697696 
L 953.657102 342.647617 
" clip-path="url(#p4f9a8753aa)" style="fill: none; stroke: #5cb85c; stroke-linecap: square"/>
   </g>
   <g id="line2d_25">
    <path d="M 386.081454 353.223864 
L 410.758656 353.223655 
L 435.435858 353.223094 
L 460.11306 353.222224 
L 484.790262 353.220522 
L 509.467464 353.216355 
L 534.144666 353.209291 
L 558.821869 353.192852 
L 583.499071 353.158617 
L 608.176273 353.093415 
L 632.853475 352.974269 
L 657.530677 352.75344 
L 682.207879 352.382961 
L 706.885081 351.776047 
L 731.562283 350.853531 
L 756.239485 349.560835 
L 780.916687 347.918582 
L 805.593889 345.848717 
L 830.271091 343.189202 
L 854.948293 339.384176 
L 879.625495 331.885202 
L 904.302698 307.214447 
L 928.9799 119.104026 
L 953.657102 334.319459 
" clip-path="url(#p4f9a8753aa)" style="fill: none; stroke: #5cb85c; stroke-linecap: square"/>
   </g>
   <g id="line2d_26">
    <path d="M 188.663837 353.223891 
L 213.34104 353.2239 
L 238.018242 353.223864 
L 262.695444 353.223837 
L 287.372646 353.223864 
L 312.049848 353.223828 
L 336.72705 353.223157 
L 361.404252 353.219254 
L 386.081454 353.216636 
L 410.758656 353.215622 
L 435.435858 353.214363 
L 460.11306 353.210785 
L 484.790262 353.205578 
L 509.467464 353.194247 
L 534.144666 353.166261 
L 558.821869 353.104646 
L 583.499071 352.985763 
L 608.176273 352.812728 
L 632.853475 352.623326 
L 657.530677 352.385642 
L 682.207879 352.079568 
L 706.885081 351.63386 
L 731.562283 350.988645 
L 756.239485 350.070095 
L 780.916687 348.763343 
L 805.593889 346.761424 
L 830.271091 343.547526 
L 854.948293 337.645411 
L 879.625495 323.254465 
L 904.302698 271.347063 
L 928.9799 152.211388 
L 953.657102 346.516005 
" clip-path="url(#p4f9a8753aa)" style="fill: none; stroke: #5cb85c; stroke-linecap: square"/>
   </g>
   <g id="line2d_27">
    <path d="M 386.081454 353.223855 
L 410.758656 353.223637 
L 435.435858 353.223275 
L 460.11306 353.222614 
L 484.790262 353.221219 
L 509.467464 353.219009 
L 534.144666 353.213439 
L 558.821869 353.201538 
L 583.499071 353.175064 
L 608.176273 353.120948 
L 632.853475 353.010715 
L 657.530677 352.806868 
L 682.207879 352.448516 
L 706.885081 351.873112 
L 731.562283 351.04372 
L 756.239485 349.888049 
L 780.916687 348.461589 
L 805.593889 346.703649 
L 830.271091 344.447626 
L 854.948293 341.155439 
L 879.625495 334.414332 
L 904.302698 310.224525 
L 928.9799 92.920923 
L 953.657102 332.628261 
" clip-path="url(#p4f9a8753aa)" style="fill: none; stroke: #5cb85c; stroke-linecap: square"/>
   </g>
   <g id="line2d_28">
    <path d="M 188.663837 353.223873 
L 213.34104 353.223882 
L 238.018242 353.223882 
L 262.695444 353.223864 
L 287.372646 353.223882 
L 312.049848 353.223818 
L 336.72705 353.222777 
L 361.404252 353.217623 
L 386.081454 353.215296 
L 410.758656 353.215685 
L 435.435858 353.21353 
L 460.11306 353.210722 
L 484.790262 353.204862 
L 509.467464 353.193622 
L 534.144666 353.16886 
L 558.821869 353.104646 
L 583.499071 352.993416 
L 608.176273 352.833133 
L 632.853475 352.642636 
L 657.530677 352.421544 
L 682.207879 352.130894 
L 706.885081 351.705185 
L 731.562283 351.127861 
L 756.239485 350.312019 
L 780.916687 349.1981 
L 805.593889 347.449317 
L 830.271091 344.669225 
L 854.948293 339.465627 
L 879.625495 326.006761 
L 904.302698 272.721535 
L 928.9799 128.762132 
L 953.657102 344.112913 
" clip-path="url(#p4f9a8753aa)" style="fill: none; stroke: #5cb85c; stroke-linecap: square"/>
   </g>
   <g id="line2d_29">
    <path d="M 386.081454 353.223837 
L 410.758656 353.223619 
L 435.435858 353.223257 
L 460.11306 353.222206 
L 484.790262 353.220395 
L 509.467464 353.217306 
L 534.144666 353.208539 
L 558.821869 353.19163 
L 583.499071 353.152712 
L 608.176273 353.079268 
L 632.853475 352.926937 
L 657.530677 352.648297 
L 682.207879 352.172846 
L 706.885081 351.445926 
L 731.562283 350.406266 
L 756.239485 349.024476 
L 780.916687 347.351075 
L 805.593889 345.305348 
L 830.271091 342.721993 
L 854.948293 339.031494 
L 879.625495 331.637745 
L 904.302698 306.781809 
L 928.9799 110.98332 
L 953.657102 334.260217 
" clip-path="url(#p4f9a8753aa)" style="fill: none; stroke: #5cb85c; stroke-linecap: square"/>
   </g>
   <g id="line2d_30">
    <path d="M 213.34104 353.223855 
L 238.018242 353.223891 
L 262.695444 353.223855 
L 287.372646 353.223846 
L 312.049848 353.223809 
L 336.72705 353.221264 
L 361.404252 353.213575 
L 386.081454 353.208711 
L 410.758656 353.209101 
L 435.435858 353.208123 
L 460.11306 353.203839 
L 484.790262 353.195778 
L 509.467464 353.182192 
L 534.144666 353.148201 
L 558.821869 353.075147 
L 583.499071 352.938059 
L 608.176273 352.751946 
L 632.853475 352.545273 
L 657.530677 352.300904 
L 682.207879 351.978128 
L 706.885081 351.525828 
L 731.562283 350.889606 
L 756.239485 349.963856 
L 780.916687 348.706881 
L 805.593889 346.812234 
L 830.271091 343.719158 
L 854.948293 338.178999 
L 879.625495 324.651816 
L 904.302698 274.088192 
L 928.9799 137.578003 
L 953.657102 344.613751 
" clip-path="url(#p4f9a8753aa)" style="fill: none; stroke: #5cb85c; stroke-linecap: square"/>
   </g>
   <g id="line2d_31">
    <path d="M 386.081454 353.223873 
L 410.758656 353.223583 
L 435.435858 353.223058 
L 460.11306 353.222397 
L 484.790262 353.221119 
L 509.467464 353.21881 
L 534.144666 353.2143 
L 558.821869 353.203368 
L 583.499071 353.180553 
L 608.176273 353.135105 
L 632.853475 353.047677 
L 657.530677 352.874796 
L 682.207879 352.585613 
L 706.885081 352.090807 
L 731.562283 351.362121 
L 756.239485 350.312481 
L 780.916687 349.018516 
L 805.593889 347.366191 
L 830.271091 345.192135 
L 854.948293 341.967232 
L 879.625495 335.258033 
L 904.302698 311.058444 
L 928.9799 99.591992 
L 953.657102 333.724229 
" clip-path="url(#p4f9a8753aa)" style="fill: none; stroke: #5cb85c; stroke-linecap: square"/>
   </g>
   <g id="line2d_32">
    <path d="M 213.34104 353.223873 
L 238.018242 353.223864 
L 262.695444 353.223873 
L 287.372646 353.223882 
L 312.049848 353.223891 
L 336.72705 353.222831 
L 361.404252 353.21862 
L 386.081454 353.215504 
L 410.758656 353.214834 
L 435.435858 353.212868 
L 460.11306 353.208702 
L 484.790262 353.202661 
L 509.467464 353.193378 
L 534.144666 353.170246 
L 558.821869 353.117905 
L 583.499071 353.021882 
L 608.176273 352.879279 
L 632.853475 352.72251 
L 657.530677 352.52926 
L 682.207879 352.268688 
L 706.885081 351.894559 
L 731.562283 351.382953 
L 756.239485 350.652166 
L 780.916687 349.638916 
L 805.593889 348.084851 
L 830.271091 345.61356 
L 854.948293 341.004385 
L 879.625495 329.187302 
L 904.302698 280.55727 
L 928.9799 125.135829 
L 953.657102 345.413389 
" clip-path="url(#p4f9a8753aa)" style="fill: none; stroke: #5cb85c; stroke-linecap: square"/>
   </g>
   <g id="line2d_33">
    <path d="M 361.404252 353.223891 
L 386.081454 353.223846 
L 410.758656 353.223438 
L 435.435858 353.22255 
L 460.11306 353.221337 
L 484.790262 353.220042 
L 509.467464 353.216473 
L 534.144666 353.209889 
L 558.821869 353.194519 
L 583.499071 353.16368 
L 608.176273 353.099248 
L 632.853475 352.976633 
L 657.530677 352.744129 
L 682.207879 352.343961 
L 706.885081 351.706643 
L 731.562283 350.777361 
L 756.239485 349.459188 
L 780.916687 347.84079 
L 805.593889 345.81507 
L 830.271091 343.169512 
L 854.948293 339.336627 
L 879.625495 331.364946 
L 904.302698 302.75571 
L 928.9799 50.397233 
L 953.657102 328.694444 
" clip-path="url(#p4f9a8753aa)" style="fill: none; stroke: #5cb85c; stroke-linecap: square"/>
   </g>
   <g id="line2d_34">
    <path d="M 188.663837 353.223882 
L 213.34104 353.223873 
L 238.018242 353.223864 
L 262.695444 353.223882 
L 287.372646 353.223873 
L 312.049848 353.2238 
L 336.72705 353.222469 
L 361.404252 353.216546 
L 386.081454 353.212715 
L 410.758656 353.211601 
L 435.435858 353.209771 
L 460.11306 353.204382 
L 484.790262 353.198422 
L 509.467464 353.185824 
L 534.144666 353.159667 
L 558.821869 353.098242 
L 583.499071 352.978191 
L 608.176273 352.81837 
L 632.853475 352.629712 
L 657.530677 352.403711 
L 682.207879 352.107173 
L 706.885081 351.671003 
L 731.562283 351.070928 
L 756.239485 350.188571 
L 780.916687 348.983121 
L 805.593889 347.109732 
L 830.271091 344.076694 
L 854.948293 338.440467 
L 879.625495 323.965825 
L 904.302698 264.07312 
L 928.9799 80.940125 
L 953.657102 342.448905 
" clip-path="url(#p4f9a8753aa)" style="fill: none; stroke: #5cb85c; stroke-linecap: square"/>
   </g>
   <g id="line2d_35">
    <path d="M 386.081454 353.223683 
L 410.758656 353.223293 
L 435.435858 353.222487 
L 460.11306 353.220966 
L 484.790262 353.219236 
L 509.467464 353.215531 
L 534.144666 353.208032 
L 558.821869 353.189755 
L 583.499071 353.157213 
L 608.176273 353.088696 
L 632.853475 352.967159 
L 657.530677 352.735009 
L 682.207879 352.334977 
L 706.885081 351.695222 
L 731.562283 350.752563 
L 756.239485 349.456389 
L 780.916687 347.862582 
L 805.593889 345.853345 
L 830.271091 343.279763 
L 854.948293 339.535257 
L 879.625495 331.746773 
L 904.302698 304.141567 
L 928.9799 54.379496 
L 953.657102 327.425967 
" clip-path="url(#p4f9a8753aa)" style="fill: none; stroke: #5cb85c; stroke-linecap: square"/>
   </g>
   <g id="line2d_36">
    <path d="M 213.34104 353.223873 
L 238.018242 353.223891 
L 262.695444 353.223864 
L 287.372646 353.223882 
L 312.049848 353.2238 
L 336.72705 353.222043 
L 361.404252 353.21554 
L 386.081454 353.2117 
L 410.758656 353.210668 
L 435.435858 353.208385 
L 460.11306 353.203522 
L 484.790262 353.194999 
L 509.467464 353.181296 
L 534.144666 353.150963 
L 558.821869 353.079023 
L 583.499071 352.939028 
L 608.176273 352.738541 
L 632.853475 352.506635 
L 657.530677 352.243138 
L 682.207879 351.882232 
L 706.885081 351.375363 
L 731.562283 350.674736 
L 756.239485 349.695414 
L 780.916687 348.345124 
L 805.593889 346.285476 
L 830.271091 342.954234 
L 854.948293 336.620233 
L 879.625495 320.169603 
L 904.302698 255.447664 
L 928.9799 102.077575 
L 953.657102 344.749815 
" clip-path="url(#p4f9a8753aa)" style="fill: none; stroke: #5cb85c; stroke-linecap: square"/>
   </g>
   <g id="line2d_37">
    <path d="M 361.404252 353.223891 
L 386.081454 353.223837 
L 410.758656 353.223501 
L 435.435858 353.222967 
L 460.11306 353.222197 
L 484.790262 353.219824 
L 509.467464 353.215622 
L 534.144666 353.207489 
L 558.821869 353.189981 
L 583.499071 353.156153 
L 608.176273 353.086667 
L 632.853475 352.947723 
L 657.530677 352.699605 
L 682.207879 352.284538 
L 706.885081 351.620257 
L 731.562283 350.694091 
L 756.239485 349.412245 
L 780.916687 347.856903 
L 805.593889 345.889718 
L 830.271091 343.360172 
L 854.948293 339.703882 
L 879.625495 332.357899 
L 904.302698 306.747745 
L 928.9799 102.746303 
L 953.657102 336.164781 
" clip-path="url(#p4f9a8753aa)" style="fill: none; stroke: #5cb85c; stroke-linecap: square"/>
   </g>
   <g id="line2d_38">
    <path d="M 213.34104 353.223891 
L 238.018242 353.223855 
L 262.695444 353.223882 
L 287.372646 353.223837 
L 312.049848 353.223828 
L 336.72705 353.222333 
L 361.404252 353.216582 
L 386.081454 353.212896 
L 410.758656 353.211628 
L 435.435858 353.210215 
L 460.11306 353.206284 
L 484.790262 353.199084 
L 509.467464 353.188351 
L 534.144666 353.162493 
L 558.821869 353.097645 
L 583.499071 352.984151 
L 608.176273 352.814267 
L 632.853475 352.615836 
L 657.530677 352.388096 
L 682.207879 352.077711 
L 706.885081 351.645417 
L 731.562283 351.051772 
L 756.239485 350.20597 
L 780.916687 349.009822 
L 805.593889 347.203065 
L 830.271091 344.293294 
L 854.948293 339.070395 
L 879.625495 326.279053 
L 904.302698 277.862966 
L 928.9799 128.541492 
L 953.657102 342.931284 
" clip-path="url(#p4f9a8753aa)" style="fill: none; stroke: #5cb85c; stroke-linecap: square"/>
   </g>
   <g id="line2d_39">
    <path d="M 361.404252 353.223891 
L 386.081454 353.223782 
L 410.758656 353.223601 
L 435.435858 353.223021 
L 460.11306 353.222406 
L 484.790262 353.220621 
L 509.467464 353.216256 
L 534.144666 353.210278 
L 558.821869 353.195225 
L 583.499071 353.167837 
L 608.176273 353.116193 
L 632.853475 353.020714 
L 657.530677 352.843105 
L 682.207879 352.539367 
L 706.885081 352.020235 
L 731.562283 351.248646 
L 756.239485 350.136683 
L 780.916687 348.734795 
L 805.593889 346.994236 
L 830.271091 344.735423 
L 854.948293 341.461585 
L 879.625495 334.767675 
L 904.302698 311.328055 
L 928.9799 95.912796 
L 953.657102 331.226617 
" clip-path="url(#p4f9a8753aa)" style="fill: none; stroke: #5cb85c; stroke-linecap: square"/>
   </g>
   <g id="line2d_40">
    <path d="M 188.663837 353.223882 
L 213.34104 353.223855 
L 238.018242 353.223891 
L 262.695444 353.223882 
L 287.372646 353.223855 
L 312.049848 353.223791 
L 336.72705 353.222514 
L 361.404252 353.217732 
L 386.081454 353.215015 
L 410.758656 353.214852 
L 435.435858 353.212724 
L 460.11306 353.209418 
L 484.790262 353.204074 
L 509.467464 353.192173 
L 534.144666 353.166904 
L 558.821869 353.106439 
L 583.499071 352.991288 
L 608.176273 352.822799 
L 632.853475 352.636368 
L 657.530677 352.40285 
L 682.207879 352.095499 
L 706.885081 351.648325 
L 731.562283 351.032698 
L 756.239485 350.145016 
L 780.916687 348.931641 
L 805.593889 347.055281 
L 830.271091 344.021265 
L 854.948293 338.220498 
L 879.625495 323.168188 
L 904.302698 266.673665 
L 928.9799 143.234663 
L 953.657102 346.395302 
" clip-path="url(#p4f9a8753aa)" style="fill: none; stroke: #5cb85c; stroke-linecap: square"/>
   </g>
   <g id="line2d_41">
    <path d="M 361.404252 353.223891 
L 386.081454 353.223828 
L 410.758656 353.223556 
L 435.435858 353.222922 
L 460.11306 353.221699 
L 484.790262 353.219344 
L 509.467464 353.216727 
L 534.144666 353.210025 
L 558.821869 353.196638 
L 583.499071 353.171161 
L 608.176273 353.121311 
L 632.853475 353.025505 
L 657.530677 352.84431 
L 682.207879 352.521308 
L 706.885081 351.999032 
L 731.562283 351.21124 
L 756.239485 350.122174 
L 780.916687 348.759312 
L 805.593889 347.011653 
L 830.271091 344.798741 
L 854.948293 341.495223 
L 879.625495 334.752495 
L 904.302698 310.409687 
L 928.9799 89.00426 
L 953.657102 333.979828 
" clip-path="url(#p4f9a8753aa)" style="fill: none; stroke: #5cb85c; stroke-linecap: square"/>
   </g>
   <g id="line2d_42">
    <path d="M 188.663837 353.223891 
L 213.34104 353.223873 
L 238.018242 353.223891 
L 262.695444 353.223882 
L 287.372646 353.223882 
L 312.049848 353.223846 
L 336.72705 353.222125 
L 361.404252 353.216745 
L 386.081454 353.212751 
L 410.758656 353.211021 
L 435.435858 353.209363 
L 460.11306 353.205523 
L 484.790262 353.199546 
L 509.467464 353.188342 
L 534.144666 353.165989 
L 558.821869 353.112978 
L 583.499071 353.012028 
L 608.176273 352.866807 
L 632.853475 352.695103 
L 657.530677 352.485478 
L 682.207879 352.206846 
L 706.885081 351.804006 
L 731.562283 351.259976 
L 756.239485 350.467311 
L 780.916687 349.38357 
L 805.593889 347.700515 
L 830.271091 344.998676 
L 854.948293 339.896398 
L 879.625495 326.907314 
L 904.302698 275.033124 
L 928.9799 124.15293 
L 953.657102 343.595438 
" clip-path="url(#p4f9a8753aa)" style="fill: none; stroke: #5cb85c; stroke-linecap: square"/>
   </g>
   <g id="line2d_43">
    <path d="M 386.081454 353.223764 
L 410.758656 353.22352 
L 435.435858 353.22294 
L 460.11306 353.221871 
L 484.790262 353.220784 
L 509.467464 353.218783 
L 534.144666 353.213548 
L 558.821869 353.202063 
L 583.499071 353.178216 
L 608.176273 353.133076 
L 632.853475 353.039444 
L 657.530677 352.858837 
L 682.207879 352.532747 
L 706.885081 351.99559 
L 731.562283 351.172802 
L 756.239485 350.032228 
L 780.916687 348.605469 
L 805.593889 346.832522 
L 830.271091 344.547118 
L 854.948293 341.225631 
L 879.625495 334.398771 
L 904.302698 309.821042 
L 928.9799 89.738987 
L 953.657102 333.049378 
" clip-path="url(#p4f9a8753aa)" style="fill: none; stroke: #5cb85c; stroke-linecap: square"/>
   </g>
   <g id="line2d_44">
    <path d="M 188.663837 353.223864 
L 213.34104 353.2239 
L 238.018242 353.223873 
L 262.695444 353.2239 
L 287.372646 353.223864 
L 312.049848 353.223864 
L 336.72705 353.222089 
L 361.404252 353.215278 
L 386.081454 353.211157 
L 410.758656 353.211247 
L 435.435858 353.210088 
L 460.11306 353.205632 
L 484.790262 353.200804 
L 509.467464 353.190407 
L 534.144666 353.162656 
L 558.821869 353.104428 
L 583.499071 352.99357 
L 608.176273 352.839645 
L 632.853475 352.654972 
L 657.530677 352.432947 
L 682.207879 352.143755 
L 706.885081 351.717041 
L 731.562283 351.138702 
L 756.239485 350.323748 
L 780.916687 349.198136 
L 805.593889 347.466462 
L 830.271091 344.736275 
L 854.948293 339.633979 
L 879.625495 326.607335 
L 904.302698 274.174107 
L 928.9799 124.435646 
L 953.657102 343.926963 
" clip-path="url(#p4f9a8753aa)" style="fill: none; stroke: #5cb85c; stroke-linecap: square"/>
   </g>
   <g id="line2d_45">
    <path d="M 361.404252 353.223891 
L 386.081454 353.2238 
L 410.758656 353.223556 
L 435.435858 353.223067 
L 460.11306 353.222197 
L 484.790262 353.220612 
L 509.467464 353.217823 
L 534.144666 353.211628 
L 558.821869 353.20008 
L 583.499071 353.175898 
L 608.176273 353.127008 
L 632.853475 353.034463 
L 657.530677 352.848621 
L 682.207879 352.521923 
L 706.885081 351.987584 
L 731.562283 351.198542 
L 756.239485 350.094033 
L 780.916687 348.719407 
L 805.593889 346.978531 
L 830.271091 344.718903 
L 854.948293 341.350365 
L 879.625495 334.532861 
L 904.302698 309.689814 
L 928.9799 90.430068 
L 953.657102 334.949097 
" clip-path="url(#p4f9a8753aa)" style="fill: none; stroke: #5cb85c; stroke-linecap: square"/>
   </g>
   <g id="line2d_46">
    <path d="M 188.663837 353.223891 
L 213.34104 353.223891 
L 238.018242 353.223873 
L 262.695444 353.223873 
L 287.372646 353.223882 
L 312.049848 353.223809 
L 336.72705 353.222261 
L 361.404252 353.21622 
L 386.081454 353.212696 
L 410.758656 353.212443 
L 435.435858 353.210523 
L 460.11306 353.205958 
L 484.790262 353.199817 
L 509.467464 353.189021 
L 534.144666 353.164576 
L 558.821869 353.113422 
L 583.499071 353.024092 
L 608.176273 352.900391 
L 632.853475 352.75584 
L 657.530677 352.568712 
L 682.207879 352.324307 
L 706.885081 351.968926 
L 731.562283 351.465463 
L 756.239485 350.758459 
L 780.916687 349.743824 
L 805.593889 348.18706 
L 830.271091 345.669034 
L 854.948293 340.976299 
L 879.625495 329.149236 
L 904.302698 281.83859 
L 928.9799 114.304617 
L 953.657102 341.966064 
" clip-path="url(#p4f9a8753aa)" style="fill: none; stroke: #5cb85c; stroke-linecap: square"/>
   </g>
   <g id="line2d_47">
    <path d="M 386.081454 353.223818 
L 410.758656 353.223501 
L 435.435858 353.22275 
L 460.11306 353.222007 
L 484.790262 353.220087 
L 509.467464 353.21535 
L 534.144666 353.208385 
L 558.821869 353.194691 
L 583.499071 353.166424 
L 608.176273 353.11719 
L 632.853475 353.024654 
L 657.530677 352.850206 
L 682.207879 352.542764 
L 706.885081 352.042832 
L 731.562283 351.291395 
L 756.239485 350.22614 
L 780.916687 348.895784 
L 805.593889 347.199967 
L 830.271091 344.986748 
L 854.948293 341.768756 
L 879.625495 335.189806 
L 904.302698 311.875382 
L 928.9799 100.341645 
L 953.657102 332.932533 
" clip-path="url(#p4f9a8753aa)" style="fill: none; stroke: #5cb85c; stroke-linecap: square"/>
   </g>
   <g id="line2d_48">
    <path d="M 188.663837 353.223873 
L 213.34104 353.223882 
L 238.018242 353.223873 
L 262.695444 353.223882 
L 287.372646 353.223855 
L 312.049848 353.223846 
L 336.72705 353.222714 
L 361.404252 353.217415 
L 386.081454 353.214635 
L 410.758656 353.213774 
L 435.435858 353.211782 
L 460.11306 353.207987 
L 484.790262 353.203005 
L 509.467464 353.191521 
L 534.144666 353.166161 
L 558.821869 353.112806 
L 583.499071 353.013486 
L 608.176273 352.873899 
L 632.853475 352.713824 
L 657.530677 352.515556 
L 682.207879 352.242893 
L 706.885081 351.856528 
L 731.562283 351.315695 
L 756.239485 350.53004 
L 780.916687 349.467765 
L 805.593889 347.797181 
L 830.271091 345.085424 
L 854.948293 340.013814 
L 879.625495 326.811047 
L 904.302698 274.267793 
L 928.9799 136.038321 
L 953.657102 345.125737 
" clip-path="url(#p4f9a8753aa)" style="fill: none; stroke: #5cb85c; stroke-linecap: square"/>
   </g>
   <g id="line2d_49">
    <path d="M 40.600625 353.2239 
L 993.140625 353.2239 
" clip-path="url(#p4f9a8753aa)" style="fill: none; stroke: #dedede; stroke-width: 2; stroke-linecap: square"/>
   </g>
   <g id="text_20">
    <!-- FastQC: Per Sequence Quality Scores -->
    <g transform="translate(368.678125 19.3575) scale(0.16 -0.16)">
     <defs>
      <path id="DejaVuSans-46" d="M 628 4666 
L 3309 4666 
L 3309 4134 
L 1259 4134 
L 1259 2759 
L 3109 2759 
L 3109 2228 
L 1259 2228 
L 1259 0 
L 628 0 
L 628 4666 
z
" transform="scale(0.015625)"/>
      <path id="DejaVuSans-73" d="M 2834 3397 
L 2834 2853 
Q 2591 2978 2328 3040 
Q 2066 3103 1784 3103 
Q 1356 3103 1142 2972 
Q 928 2841 928 2578 
Q 928 2378 1081 2264 
Q 1234 2150 1697 2047 
L 1894 2003 
Q 2506 1872 2764 1633 
Q 3022 1394 3022 966 
Q 3022 478 2636 193 
Q 2250 -91 1575 -91 
Q 1294 -91 989 -36 
Q 684 19 347 128 
L 347 722 
Q 666 556 975 473 
Q 1284 391 1588 391 
Q 1994 391 2212 530 
Q 2431 669 2431 922 
Q 2431 1156 2273 1281 
Q 2116 1406 1581 1522 
L 1381 1569 
Q 847 1681 609 1914 
Q 372 2147 372 2553 
Q 372 3047 722 3315 
Q 1072 3584 1716 3584 
Q 2034 3584 2315 3537 
Q 2597 3491 2834 3397 
z
" transform="scale(0.015625)"/>
      <path id="DejaVuSans-3a" d="M 750 794 
L 1409 794 
L 1409 0 
L 750 0 
L 750 794 
z
M 750 3309 
L 1409 3309 
L 1409 2516 
L 750 2516 
L 750 3309 
z
" transform="scale(0.015625)"/>
     </defs>
     <use xlink:href="#DejaVuSans-46"/>
     <use xlink:href="#DejaVuSans-61" x="48.394531"/>
     <use xlink:href="#DejaVuSans-73" x="109.673828"/>
     <use xlink:href="#DejaVuSans-74" x="161.773438"/>
     <use xlink:href="#DejaVuSans-51" x="200.982422"/>
     <use xlink:href="#DejaVuSans-43" x="279.693359"/>
     <use xlink:href="#DejaVuSans-3a" x="349.517578"/>
     <use xlink:href="#DejaVuSans-20" x="383.208984"/>
     <use xlink:href="#DejaVuSans-50" x="414.996094"/>
     <use xlink:href="#DejaVuSans-65" x="471.673828"/>
     <use xlink:href="#DejaVuSans-72" x="533.197266"/>
     <use xlink:href="#DejaVuSans-20" x="574.310547"/>
     <use xlink:href="#DejaVuSans-53" x="606.097656"/>
     <use xlink:href="#DejaVuSans-65" x="669.574219"/>
     <use xlink:href="#DejaVuSans-71" x="731.097656"/>
     <use xlink:href="#DejaVuSans-75" x="794.574219"/>
     <use xlink:href="#DejaVuSans-65" x="857.953125"/>
     <use xlink:href="#DejaVuSans-6e" x="919.476562"/>
     <use xlink:href="#DejaVuSans-63" x="982.855469"/>
     <use xlink:href="#DejaVuSans-65" x="1037.835938"/>
     <use xlink:href="#DejaVuSans-20" x="1099.359375"/>
     <use xlink:href="#DejaVuSans-51" x="1131.146484"/>
     <use xlink:href="#DejaVuSans-75" x="1209.857422"/>
     <use xlink:href="#DejaVuSans-61" x="1273.236328"/>
     <use xlink:href="#DejaVuSans-6c" x="1334.515625"/>
     <use xlink:href="#DejaVuSans-69" x="1362.298828"/>
     <use xlink:href="#DejaVuSans-74" x="1390.082031"/>
     <use xlink:href="#DejaVuSans-79" x="1429.291016"/>
     <use xlink:href="#DejaVuSans-20" x="1488.470703"/>
     <use xlink:href="#DejaVuSans-53" x="1520.257812"/>
     <use xlink:href="#DejaVuSans-63" x="1583.734375"/>
     <use xlink:href="#DejaVuSans-6f" x="1638.714844"/>
     <use xlink:href="#DejaVuSans-72" x="1699.896484"/>
     <use xlink:href="#DejaVuSans-65" x="1738.759766"/>
     <use xlink:href="#DejaVuSans-73" x="1800.283203"/>
    </g>
   </g>
  </g>
 </g>
 <defs>
  <clipPath id="p4f9a8753aa">
   <rect x="40.600625" y="35.2559" width="952.54" height="317.968"/>
  </clipPath>
 </defs>
</svg>
