<?xml version="1.0" encoding="utf-8" standalone="no"?>
<!DOCTYPE svg PUBLIC "-//W3C//DTD SVG 1.1//EN"
  "http://www.w3.org/Graphics/SVG/1.1/DTD/svg11.dtd">
<svg xmlns:xlink="http://www.w3.org/1999/xlink" width="1000.340625pt" height="388.844525pt" viewBox="0 0 1000.340625 388.844525" xmlns="http://www.w3.org/2000/svg" version="1.1">
 <metadata>
  <rdf:RDF xmlns:dc="http://purl.org/dc/elements/1.1/" xmlns:cc="http://creativecommons.org/ns#" xmlns:rdf="http://www.w3.org/1999/02/22-rdf-syntax-ns#">
   <cc:Work>
    <dc:type rdf:resource="http://purl.org/dc/dcmitype/StillImage"/>
    <dc:date>2023-10-05T12:27:28.289186</dc:date>
    <dc:format>image/svg+xml</dc:format>
    <dc:creator>
     <cc:Agent>
      <dc:title>Matplotlib v3.7.0, https://matplotlib.org/</dc:title>
     </cc:Agent>
    </dc:creator>
   </cc:Work>
  </rdf:RDF>
 </metadata>
 <defs>
  <style type="text/css">*{stroke-linejoin: round; stroke-linecap: butt}</style>
 </defs>
 <g id="figure_1">
  <g id="axes_1">
   <g id="patch_1">
    <path d="M 40.600625 353.2239 
L 993.140625 353.2239 
L 993.140625 35.2559 
L 40.600625 35.2559 
z
" style="fill: #ffffff"/>
   </g>
   <g id="matplotlib.axis_1">
    <g id="xtick_1">
     <g id="text_1">
      <!-- 0 -->
      <g transform="translate(81.352898 366.30265) scale(0.08 -0.08)">
       <defs>
        <path id="DejaVuSans-30" d="M 2034 4250 
Q 1547 4250 1301 3770 
Q 1056 3291 1056 2328 
Q 1056 1369 1301 889 
Q 1547 409 2034 409 
Q 2525 409 2770 889 
Q 3016 1369 3016 2328 
Q 3016 3291 2770 3770 
Q 2525 4250 2034 4250 
z
M 2034 4750 
Q 2819 4750 3233 4129 
Q 3647 3509 3647 2328 
Q 3647 1150 3233 529 
Q 2819 -91 2034 -91 
Q 1250 -91 836 529 
Q 422 1150 422 2328 
Q 422 3509 836 4129 
Q 1250 4750 2034 4750 
z
" transform="scale(0.015625)"/>
       </defs>
       <use xlink:href="#DejaVuSans-30"/>
      </g>
     </g>
    </g>
    <g id="xtick_2">
     <g id="text_2">
      <!-- 20 -->
      <g transform="translate(284.985387 366.30265) scale(0.08 -0.08)">
       <defs>
        <path id="DejaVuSans-32" d="M 1228 531 
L 3431 531 
L 3431 0 
L 469 0 
L 469 531 
Q 828 903 1448 1529 
Q 2069 2156 2228 2338 
Q 2531 2678 2651 2914 
Q 2772 3150 2772 3378 
Q 2772 3750 2511 3984 
Q 2250 4219 1831 4219 
Q 1534 4219 1204 4116 
Q 875 4013 500 3803 
L 500 4441 
Q 881 4594 1212 4672 
Q 1544 4750 1819 4750 
Q 2544 4750 2975 4387 
Q 3406 4025 3406 3419 
Q 3406 3131 3298 2873 
Q 3191 2616 2906 2266 
Q 2828 2175 2409 1742 
Q 1991 1309 1228 531 
z
" transform="scale(0.015625)"/>
       </defs>
       <use xlink:href="#DejaVuSans-32"/>
       <use xlink:href="#DejaVuSans-30" x="63.623047"/>
      </g>
     </g>
    </g>
    <g id="xtick_3">
     <g id="text_3">
      <!-- 40 -->
      <g transform="translate(491.162876 366.30265) scale(0.08 -0.08)">
       <defs>
        <path id="DejaVuSans-34" d="M 2419 4116 
L 825 1625 
L 2419 1625 
L 2419 4116 
z
M 2253 4666 
L 3047 4666 
L 3047 1625 
L 3713 1625 
L 3713 1100 
L 3047 1100 
L 3047 0 
L 2419 0 
L 2419 1100 
L 313 1100 
L 313 1709 
L 2253 4666 
z
" transform="scale(0.015625)"/>
       </defs>
       <use xlink:href="#DejaVuSans-34"/>
       <use xlink:href="#DejaVuSans-30" x="63.623047"/>
      </g>
     </g>
    </g>
    <g id="xtick_4">
     <g id="text_4">
      <!-- 60 -->
      <g transform="translate(697.340365 366.30265) scale(0.08 -0.08)">
       <defs>
        <path id="DejaVuSans-36" d="M 2113 2584 
Q 1688 2584 1439 2293 
Q 1191 2003 1191 1497 
Q 1191 994 1439 701 
Q 1688 409 2113 409 
Q 2538 409 2786 701 
Q 3034 994 3034 1497 
Q 3034 2003 2786 2293 
Q 2538 2584 2113 2584 
z
M 3366 4563 
L 3366 3988 
Q 3128 4100 2886 4159 
Q 2644 4219 2406 4219 
Q 1781 4219 1451 3797 
Q 1122 3375 1075 2522 
Q 1259 2794 1537 2939 
Q 1816 3084 2150 3084 
Q 2853 3084 3261 2657 
Q 3669 2231 3669 1497 
Q 3669 778 3244 343 
Q 2819 -91 2113 -91 
Q 1303 -91 875 529 
Q 447 1150 447 2328 
Q 447 3434 972 4092 
Q 1497 4750 2381 4750 
Q 2619 4750 2861 4703 
Q 3103 4656 3366 4563 
z
" transform="scale(0.015625)"/>
       </defs>
       <use xlink:href="#DejaVuSans-36"/>
       <use xlink:href="#DejaVuSans-30" x="63.623047"/>
      </g>
     </g>
    </g>
    <g id="xtick_5">
     <g id="text_5">
      <!-- 80 -->
      <g transform="translate(903.517854 366.30265) scale(0.08 -0.08)">
       <defs>
        <path id="DejaVuSans-38" d="M 2034 2216 
Q 1584 2216 1326 1975 
Q 1069 1734 1069 1313 
Q 1069 891 1326 650 
Q 1584 409 2034 409 
Q 2484 409 2743 651 
Q 3003 894 3003 1313 
Q 3003 1734 2745 1975 
Q 2488 2216 2034 2216 
z
M 1403 2484 
Q 997 2584 770 2862 
Q 544 3141 544 3541 
Q 544 4100 942 4425 
Q 1341 4750 2034 4750 
Q 2731 4750 3128 4425 
Q 3525 4100 3525 3541 
Q 3525 3141 3298 2862 
Q 3072 2584 2669 2484 
Q 3125 2378 3379 2068 
Q 3634 1759 3634 1313 
Q 3634 634 3220 271 
Q 2806 -91 2034 -91 
Q 1263 -91 848 271 
Q 434 634 434 1313 
Q 434 1759 690 2068 
Q 947 2378 1403 2484 
z
M 1172 3481 
Q 1172 3119 1398 2916 
Q 1625 2713 2034 2713 
Q 2441 2713 2670 2916 
Q 2900 3119 2900 3481 
Q 2900 3844 2670 4047 
Q 2441 4250 2034 4250 
Q 1625 4250 1398 4047 
Q 1172 3844 1172 3481 
z
" transform="scale(0.015625)"/>
       </defs>
       <use xlink:href="#DejaVuSans-38"/>
       <use xlink:href="#DejaVuSans-30" x="63.623047"/>
      </g>
     </g>
    </g>
    <g id="text_6">
     <!-- Number of alignments -->
     <g transform="translate(460.921406 379.564837) scale(0.1 -0.1)">
      <defs>
       <path id="DejaVuSans-4e" d="M 628 4666 
L 1478 4666 
L 3547 763 
L 3547 4666 
L 4159 4666 
L 4159 0 
L 3309 0 
L 1241 3903 
L 1241 0 
L 628 0 
L 628 4666 
z
" transform="scale(0.015625)"/>
       <path id="DejaVuSans-75" d="M 544 1381 
L 544 3500 
L 1119 3500 
L 1119 1403 
Q 1119 906 1312 657 
Q 1506 409 1894 409 
Q 2359 409 2629 706 
Q 2900 1003 2900 1516 
L 2900 3500 
L 3475 3500 
L 3475 0 
L 2900 0 
L 2900 538 
Q 2691 219 2414 64 
Q 2138 -91 1772 -91 
Q 1169 -91 856 284 
Q 544 659 544 1381 
z
M 1991 3584 
L 1991 3584 
z
" transform="scale(0.015625)"/>
       <path id="DejaVuSans-6d" d="M 3328 2828 
Q 3544 3216 3844 3400 
Q 4144 3584 4550 3584 
Q 5097 3584 5394 3201 
Q 5691 2819 5691 2113 
L 5691 0 
L 5113 0 
L 5113 2094 
Q 5113 2597 4934 2840 
Q 4756 3084 4391 3084 
Q 3944 3084 3684 2787 
Q 3425 2491 3425 1978 
L 3425 0 
L 2847 0 
L 2847 2094 
Q 2847 2600 2669 2842 
Q 2491 3084 2119 3084 
Q 1678 3084 1418 2786 
Q 1159 2488 1159 1978 
L 1159 0 
L 581 0 
L 581 3500 
L 1159 3500 
L 1159 2956 
Q 1356 3278 1631 3431 
Q 1906 3584 2284 3584 
Q 2666 3584 2933 3390 
Q 3200 3197 3328 2828 
z
" transform="scale(0.015625)"/>
       <path id="DejaVuSans-62" d="M 3116 1747 
Q 3116 2381 2855 2742 
Q 2594 3103 2138 3103 
Q 1681 3103 1420 2742 
Q 1159 2381 1159 1747 
Q 1159 1113 1420 752 
Q 1681 391 2138 391 
Q 2594 391 2855 752 
Q 3116 1113 3116 1747 
z
M 1159 2969 
Q 1341 3281 1617 3432 
Q 1894 3584 2278 3584 
Q 2916 3584 3314 3078 
Q 3713 2572 3713 1747 
Q 3713 922 3314 415 
Q 2916 -91 2278 -91 
Q 1894 -91 1617 61 
Q 1341 213 1159 525 
L 1159 0 
L 581 0 
L 581 4863 
L 1159 4863 
L 1159 2969 
z
" transform="scale(0.015625)"/>
       <path id="DejaVuSans-65" d="M 3597 1894 
L 3597 1613 
L 953 1613 
Q 991 1019 1311 708 
Q 1631 397 2203 397 
Q 2534 397 2845 478 
Q 3156 559 3463 722 
L 3463 178 
Q 3153 47 2828 -22 
Q 2503 -91 2169 -91 
Q 1331 -91 842 396 
Q 353 884 353 1716 
Q 353 2575 817 3079 
Q 1281 3584 2069 3584 
Q 2775 3584 3186 3129 
Q 3597 2675 3597 1894 
z
M 3022 2063 
Q 3016 2534 2758 2815 
Q 2500 3097 2075 3097 
Q 1594 3097 1305 2825 
Q 1016 2553 972 2059 
L 3022 2063 
z
" transform="scale(0.015625)"/>
       <path id="DejaVuSans-72" d="M 2631 2963 
Q 2534 3019 2420 3045 
Q 2306 3072 2169 3072 
Q 1681 3072 1420 2755 
Q 1159 2438 1159 1844 
L 1159 0 
L 581 0 
L 581 3500 
L 1159 3500 
L 1159 2956 
Q 1341 3275 1631 3429 
Q 1922 3584 2338 3584 
Q 2397 3584 2469 3576 
Q 2541 3569 2628 3553 
L 2631 2963 
z
" transform="scale(0.015625)"/>
       <path id="DejaVuSans-20" transform="scale(0.015625)"/>
       <path id="DejaVuSans-6f" d="M 1959 3097 
Q 1497 3097 1228 2736 
Q 959 2375 959 1747 
Q 959 1119 1226 758 
Q 1494 397 1959 397 
Q 2419 397 2687 759 
Q 2956 1122 2956 1747 
Q 2956 2369 2687 2733 
Q 2419 3097 1959 3097 
z
M 1959 3584 
Q 2709 3584 3137 3096 
Q 3566 2609 3566 1747 
Q 3566 888 3137 398 
Q 2709 -91 1959 -91 
Q 1206 -91 779 398 
Q 353 888 353 1747 
Q 353 2609 779 3096 
Q 1206 3584 1959 3584 
z
" transform="scale(0.015625)"/>
       <path id="DejaVuSans-66" d="M 2375 4863 
L 2375 4384 
L 1825 4384 
Q 1516 4384 1395 4259 
Q 1275 4134 1275 3809 
L 1275 3500 
L 2222 3500 
L 2222 3053 
L 1275 3053 
L 1275 0 
L 697 0 
L 697 3053 
L 147 3053 
L 147 3500 
L 697 3500 
L 697 3744 
Q 697 4328 969 4595 
Q 1241 4863 1831 4863 
L 2375 4863 
z
" transform="scale(0.015625)"/>
       <path id="DejaVuSans-61" d="M 2194 1759 
Q 1497 1759 1228 1600 
Q 959 1441 959 1056 
Q 959 750 1161 570 
Q 1363 391 1709 391 
Q 2188 391 2477 730 
Q 2766 1069 2766 1631 
L 2766 1759 
L 2194 1759 
z
M 3341 1997 
L 3341 0 
L 2766 0 
L 2766 531 
Q 2569 213 2275 61 
Q 1981 -91 1556 -91 
Q 1019 -91 701 211 
Q 384 513 384 1019 
Q 384 1609 779 1909 
Q 1175 2209 1959 2209 
L 2766 2209 
L 2766 2266 
Q 2766 2663 2505 2880 
Q 2244 3097 1772 3097 
Q 1472 3097 1187 3025 
Q 903 2953 641 2809 
L 641 3341 
Q 956 3463 1253 3523 
Q 1550 3584 1831 3584 
Q 2591 3584 2966 3190 
Q 3341 2797 3341 1997 
z
" transform="scale(0.015625)"/>
       <path id="DejaVuSans-6c" d="M 603 4863 
L 1178 4863 
L 1178 0 
L 603 0 
L 603 4863 
z
" transform="scale(0.015625)"/>
       <path id="DejaVuSans-69" d="M 603 3500 
L 1178 3500 
L 1178 0 
L 603 0 
L 603 3500 
z
M 603 4863 
L 1178 4863 
L 1178 4134 
L 603 4134 
L 603 4863 
z
" transform="scale(0.015625)"/>
       <path id="DejaVuSans-67" d="M 2906 1791 
Q 2906 2416 2648 2759 
Q 2391 3103 1925 3103 
Q 1463 3103 1205 2759 
Q 947 2416 947 1791 
Q 947 1169 1205 825 
Q 1463 481 1925 481 
Q 2391 481 2648 825 
Q 2906 1169 2906 1791 
z
M 3481 434 
Q 3481 -459 3084 -895 
Q 2688 -1331 1869 -1331 
Q 1566 -1331 1297 -1286 
Q 1028 -1241 775 -1147 
L 775 -588 
Q 1028 -725 1275 -790 
Q 1522 -856 1778 -856 
Q 2344 -856 2625 -561 
Q 2906 -266 2906 331 
L 2906 616 
Q 2728 306 2450 153 
Q 2172 0 1784 0 
Q 1141 0 747 490 
Q 353 981 353 1791 
Q 353 2603 747 3093 
Q 1141 3584 1784 3584 
Q 2172 3584 2450 3431 
Q 2728 3278 2906 2969 
L 2906 3500 
L 3481 3500 
L 3481 434 
z
" transform="scale(0.015625)"/>
       <path id="DejaVuSans-6e" d="M 3513 2113 
L 3513 0 
L 2938 0 
L 2938 2094 
Q 2938 2591 2744 2837 
Q 2550 3084 2163 3084 
Q 1697 3084 1428 2787 
Q 1159 2491 1159 1978 
L 1159 0 
L 581 0 
L 581 3500 
L 1159 3500 
L 1159 2956 
Q 1366 3272 1645 3428 
Q 1925 3584 2291 3584 
Q 2894 3584 3203 3211 
Q 3513 2838 3513 2113 
z
" transform="scale(0.015625)"/>
       <path id="DejaVuSans-74" d="M 1172 4494 
L 1172 3500 
L 2356 3500 
L 2356 3053 
L 1172 3053 
L 1172 1153 
Q 1172 725 1289 603 
Q 1406 481 1766 481 
L 2356 481 
L 2356 0 
L 1766 0 
Q 1100 0 847 248 
Q 594 497 594 1153 
L 594 3053 
L 172 3053 
L 172 3500 
L 594 3500 
L 594 4494 
L 1172 4494 
z
" transform="scale(0.015625)"/>
       <path id="DejaVuSans-73" d="M 2834 3397 
L 2834 2853 
Q 2591 2978 2328 3040 
Q 2066 3103 1784 3103 
Q 1356 3103 1142 2972 
Q 928 2841 928 2578 
Q 928 2378 1081 2264 
Q 1234 2150 1697 2047 
L 1894 2003 
Q 2506 1872 2764 1633 
Q 3022 1394 3022 966 
Q 3022 478 2636 193 
Q 2250 -91 1575 -91 
Q 1294 -91 989 -36 
Q 684 19 347 128 
L 347 722 
Q 666 556 975 473 
Q 1284 391 1588 391 
Q 1994 391 2212 530 
Q 2431 669 2431 922 
Q 2431 1156 2273 1281 
Q 2116 1406 1581 1522 
L 1381 1569 
Q 847 1681 609 1914 
Q 372 2147 372 2553 
Q 372 3047 722 3315 
Q 1072 3584 1716 3584 
Q 2034 3584 2315 3537 
Q 2597 3491 2834 3397 
z
" transform="scale(0.015625)"/>
      </defs>
      <use xlink:href="#DejaVuSans-4e"/>
      <use xlink:href="#DejaVuSans-75" x="74.804688"/>
      <use xlink:href="#DejaVuSans-6d" x="138.183594"/>
      <use xlink:href="#DejaVuSans-62" x="235.595703"/>
      <use xlink:href="#DejaVuSans-65" x="299.072266"/>
      <use xlink:href="#DejaVuSans-72" x="360.595703"/>
      <use xlink:href="#DejaVuSans-20" x="401.708984"/>
      <use xlink:href="#DejaVuSans-6f" x="433.496094"/>
      <use xlink:href="#DejaVuSans-66" x="494.677734"/>
      <use xlink:href="#DejaVuSans-20" x="529.882812"/>
      <use xlink:href="#DejaVuSans-61" x="561.669922"/>
      <use xlink:href="#DejaVuSans-6c" x="622.949219"/>
      <use xlink:href="#DejaVuSans-69" x="650.732422"/>
      <use xlink:href="#DejaVuSans-67" x="678.515625"/>
      <use xlink:href="#DejaVuSans-6e" x="741.992188"/>
      <use xlink:href="#DejaVuSans-6d" x="805.371094"/>
      <use xlink:href="#DejaVuSans-65" x="902.783203"/>
      <use xlink:href="#DejaVuSans-6e" x="964.306641"/>
      <use xlink:href="#DejaVuSans-74" x="1027.685547"/>
      <use xlink:href="#DejaVuSans-73" x="1066.894531"/>
     </g>
    </g>
   </g>
   <g id="matplotlib.axis_2">
    <g id="ytick_1">
     <g id="line2d_1">
      <path d="M 40.600625 353.2239 
L 993.140625 353.2239 
" clip-path="url(#p92046608be)" style="fill: none; stroke: #dedede; stroke-linecap: square"/>
     </g>
     <g id="text_7">
      <!-- 0.0 -->
      <g transform="translate(20.878125 356.263275) scale(0.08 -0.08)">
       <defs>
        <path id="DejaVuSans-2e" d="M 684 794 
L 1344 794 
L 1344 0 
L 684 0 
L 684 794 
z
" transform="scale(0.015625)"/>
       </defs>
       <use xlink:href="#DejaVuSans-30"/>
       <use xlink:href="#DejaVuSans-2e" x="63.623047"/>
       <use xlink:href="#DejaVuSans-30" x="95.410156"/>
      </g>
     </g>
    </g>
    <g id="ytick_2">
     <g id="line2d_2">
      <path d="M 40.600625 309.05095 
L 993.140625 309.05095 
" clip-path="url(#p92046608be)" style="fill: none; stroke: #dedede; stroke-linecap: square"/>
     </g>
     <g id="text_8">
      <!-- 0.2 -->
      <g transform="translate(20.878125 312.090325) scale(0.08 -0.08)">
       <use xlink:href="#DejaVuSans-30"/>
       <use xlink:href="#DejaVuSans-2e" x="63.623047"/>
       <use xlink:href="#DejaVuSans-32" x="95.410156"/>
      </g>
     </g>
    </g>
    <g id="ytick_3">
     <g id="line2d_3">
      <path d="M 40.600625 264.877999 
L 993.140625 264.877999 
" clip-path="url(#p92046608be)" style="fill: none; stroke: #dedede; stroke-linecap: square"/>
     </g>
     <g id="text_9">
      <!-- 0.4 -->
      <g transform="translate(20.878125 267.917374) scale(0.08 -0.08)">
       <use xlink:href="#DejaVuSans-30"/>
       <use xlink:href="#DejaVuSans-2e" x="63.623047"/>
       <use xlink:href="#DejaVuSans-34" x="95.410156"/>
      </g>
     </g>
    </g>
    <g id="ytick_4">
     <g id="line2d_4">
      <path d="M 40.600625 220.705049 
L 993.140625 220.705049 
" clip-path="url(#p92046608be)" style="fill: none; stroke: #dedede; stroke-linecap: square"/>
     </g>
     <g id="text_10">
      <!-- 0.6 -->
      <g transform="translate(20.878125 223.744424) scale(0.08 -0.08)">
       <use xlink:href="#DejaVuSans-30"/>
       <use xlink:href="#DejaVuSans-2e" x="63.623047"/>
       <use xlink:href="#DejaVuSans-36" x="95.410156"/>
      </g>
     </g>
    </g>
    <g id="ytick_5">
     <g id="line2d_5">
      <path d="M 40.600625 176.532099 
L 993.140625 176.532099 
" clip-path="url(#p92046608be)" style="fill: none; stroke: #dedede; stroke-linecap: square"/>
     </g>
     <g id="text_11">
      <!-- 0.8 -->
      <g transform="translate(20.878125 179.571474) scale(0.08 -0.08)">
       <use xlink:href="#DejaVuSans-30"/>
       <use xlink:href="#DejaVuSans-2e" x="63.623047"/>
       <use xlink:href="#DejaVuSans-38" x="95.410156"/>
      </g>
     </g>
    </g>
    <g id="ytick_6">
     <g id="line2d_6">
      <path d="M 40.600625 132.359149 
L 993.140625 132.359149 
" clip-path="url(#p92046608be)" style="fill: none; stroke: #dedede; stroke-linecap: square"/>
     </g>
     <g id="text_12">
      <!-- 1.0 -->
      <g transform="translate(20.878125 135.398524) scale(0.08 -0.08)">
       <defs>
        <path id="DejaVuSans-31" d="M 794 531 
L 1825 531 
L 1825 4091 
L 703 3866 
L 703 4441 
L 1819 4666 
L 2450 4666 
L 2450 531 
L 3481 531 
L 3481 0 
L 794 0 
L 794 531 
z
" transform="scale(0.015625)"/>
       </defs>
       <use xlink:href="#DejaVuSans-31"/>
       <use xlink:href="#DejaVuSans-2e" x="63.623047"/>
       <use xlink:href="#DejaVuSans-30" x="95.410156"/>
      </g>
     </g>
    </g>
    <g id="ytick_7">
     <g id="line2d_7">
      <path d="M 40.600625 88.186198 
L 993.140625 88.186198 
" clip-path="url(#p92046608be)" style="fill: none; stroke: #dedede; stroke-linecap: square"/>
     </g>
     <g id="text_13">
      <!-- 1.2 -->
      <g transform="translate(20.878125 91.225573) scale(0.08 -0.08)">
       <use xlink:href="#DejaVuSans-31"/>
       <use xlink:href="#DejaVuSans-2e" x="63.623047"/>
       <use xlink:href="#DejaVuSans-32" x="95.410156"/>
      </g>
     </g>
    </g>
    <g id="ytick_8">
     <g id="line2d_8">
      <path d="M 40.600625 44.013248 
L 993.140625 44.013248 
" clip-path="url(#p92046608be)" style="fill: none; stroke: #dedede; stroke-linecap: square"/>
     </g>
     <g id="text_14">
      <!-- 1.4 -->
      <g transform="translate(20.878125 47.052623) scale(0.08 -0.08)">
       <use xlink:href="#DejaVuSans-31"/>
       <use xlink:href="#DejaVuSans-2e" x="63.623047"/>
       <use xlink:href="#DejaVuSans-34" x="95.410156"/>
      </g>
     </g>
    </g>
    <g id="text_15">
     <!-- Counts -->
     <g transform="translate(14.798438 211.693025) rotate(-90) scale(0.1 -0.1)">
      <defs>
       <path id="DejaVuSans-43" d="M 4122 4306 
L 4122 3641 
Q 3803 3938 3442 4084 
Q 3081 4231 2675 4231 
Q 1875 4231 1450 3742 
Q 1025 3253 1025 2328 
Q 1025 1406 1450 917 
Q 1875 428 2675 428 
Q 3081 428 3442 575 
Q 3803 722 4122 1019 
L 4122 359 
Q 3791 134 3420 21 
Q 3050 -91 2638 -91 
Q 1578 -91 968 557 
Q 359 1206 359 2328 
Q 359 3453 968 4101 
Q 1578 4750 2638 4750 
Q 3056 4750 3426 4639 
Q 3797 4528 4122 4306 
z
" transform="scale(0.015625)"/>
      </defs>
      <use xlink:href="#DejaVuSans-43"/>
      <use xlink:href="#DejaVuSans-6f" x="69.824219"/>
      <use xlink:href="#DejaVuSans-75" x="131.005859"/>
      <use xlink:href="#DejaVuSans-6e" x="194.384766"/>
      <use xlink:href="#DejaVuSans-74" x="257.763672"/>
      <use xlink:href="#DejaVuSans-73" x="296.972656"/>
     </g>
    </g>
    <g id="text_16">
     <!-- 1e7 -->
     <g transform="translate(40.600625 32.2559) scale(0.1 -0.1)">
      <defs>
       <path id="DejaVuSans-37" d="M 525 4666 
L 3525 4666 
L 3525 4397 
L 1831 0 
L 1172 0 
L 2766 4134 
L 525 4134 
L 525 4666 
z
" transform="scale(0.015625)"/>
      </defs>
      <use xlink:href="#DejaVuSans-31"/>
      <use xlink:href="#DejaVuSans-65" x="63.623047"/>
      <use xlink:href="#DejaVuSans-37" x="125.146484"/>
     </g>
    </g>
   </g>
   <g id="line2d_9">
    <path d="M 83.897898 353.2239 
L 94.206772 103.254166 
L 104.515647 157.311653 
L 114.824521 238.822496 
L 125.133396 263.545611 
L 135.44227 311.271944 
L 145.751144 325.95077 
L 156.060019 333.481617 
L 166.368893 340.253573 
L 176.677768 343.803312 
L 186.986642 348.22138 
L 197.295517 347.58593 
L 207.604391 348.471376 
L 217.913266 351.576227 
L 228.22214 352.114452 
L 238.531015 352.456881 
L 248.839889 352.163352 
L 259.148764 352.652655 
L 269.457638 352.493611 
L 279.766512 353.071194 
L 290.075387 353.012069 
L 300.384261 351.639195 
L 310.693136 352.231753 
L 321.00201 353.125593 
L 331.310885 353.203095 
L 341.619759 352.593022 
L 351.928634 353.223834 
L 362.237508 353.223812 
L 372.546383 353.222111 
L 393.164131 353.222111 
L 403.473006 353.223745 
L 413.78188 353.223745 
L 424.090755 353.223878 
L 434.399629 353.22094 
L 444.708504 353.221603 
L 455.017378 353.221758 
L 475.635127 353.223856 
L 496.252876 353.21575 
L 547.797248 353.223834 
L 558.106123 353.223745 
L 578.723872 353.223834 
L 609.650495 353.223767 
L 671.503742 353.22379 
L 681.812616 353.223878 
L 702.430365 353.221382 
L 826.136859 353.223834 
L 846.754608 353.210759 
L 857.063482 353.100724 
" clip-path="url(#p92046608be)" style="fill: none; stroke: #7cb5ec; stroke-linecap: square"/>
   </g>
   <g id="line2d_10">
    <path d="M 83.897898 353.2239 
L 94.206772 97.977729 
L 104.515647 156.051465 
L 114.824521 236.203813 
L 125.133396 261.097347 
L 135.44227 310.463534 
L 145.751144 324.864402 
L 156.060019 333.375094 
L 166.368893 340.494139 
L 176.677768 343.791032 
L 186.986642 348.450637 
L 197.295517 347.856401 
L 207.604391 348.396768 
L 217.913266 351.901516 
L 228.22214 352.323015 
L 238.531015 352.565657 
L 248.839889 352.215365 
L 259.148764 352.710036 
L 269.457638 352.68795 
L 279.766512 353.085882 
L 290.075387 353.073469 
L 300.384261 352.163263 
L 310.693136 352.216006 
L 321.00201 353.133125 
L 331.310885 353.205237 
L 341.619759 352.480226 
L 351.928634 353.223856 
L 362.237508 353.22379 
L 372.546383 353.222752 
L 382.855257 353.223878 
L 393.164131 353.221272 
L 413.78188 353.223812 
L 434.399629 353.22125 
L 444.708504 353.221758 
L 455.017378 353.222707 
L 496.252876 353.217296 
L 547.797248 353.223812 
L 558.106123 353.223878 
L 578.723872 353.223878 
L 650.885993 353.223834 
L 671.503742 353.223812 
L 702.430365 353.222641 
L 846.754608 353.209588 
L 857.063482 353.117841 
" clip-path="url(#p92046608be)" style="fill: none; stroke: #434348; stroke-linecap: square"/>
   </g>
   <g id="line2d_11">
    <path d="M 83.897898 353.2239 
L 94.206772 100.95947 
L 104.515647 168.387844 
L 114.824521 245.723151 
L 125.133396 266.870045 
L 135.44227 314.123219 
L 145.751144 328.078073 
L 156.060019 335.149389 
L 166.368893 341.656042 
L 176.677768 344.585791 
L 186.986642 349.161225 
L 197.295517 348.528868 
L 207.604391 348.626181 
L 217.913266 352.126533 
L 228.22214 352.543548 
L 238.531015 352.712178 
L 248.839889 352.41008 
L 259.148764 352.786985 
L 269.457638 352.782413 
L 279.766512 353.118724 
L 290.075387 353.155255 
L 300.384261 352.684129 
L 310.693136 352.413856 
L 321.00201 353.14927 
L 331.310885 353.20707 
L 341.619759 352.460812 
L 351.928634 353.223878 
L 372.546383 353.222994 
L 382.855257 353.223878 
L 393.164131 353.221228 
L 403.473006 353.223856 
L 413.78188 353.223613 
L 424.090755 353.223878 
L 434.399629 353.222663 
L 444.708504 353.222619 
L 455.017378 353.222906 
L 496.252876 353.219151 
L 578.723872 353.223878 
L 671.503742 353.223856 
L 692.121491 353.223856 
L 702.430365 353.223591 
L 846.754608 353.214116 
L 857.063482 353.144102 
" clip-path="url(#p92046608be)" style="fill: none; stroke: #90ed7d; stroke-linecap: square"/>
   </g>
   <g id="line2d_12">
    <path d="M 83.897898 353.2239 
L 94.206772 50.397233 
L 104.515647 127.568681 
L 114.824521 227.816364 
L 125.133396 255.160304 
L 135.44227 307.862719 
L 145.751144 325.137921 
L 156.060019 332.947124 
L 166.368893 339.972236 
L 176.677768 343.578405 
L 186.986642 348.640338 
L 197.295517 348.183148 
L 207.604391 348.302106 
L 217.913266 351.989178 
L 228.22214 352.433491 
L 238.531015 352.670833 
L 248.839889 352.332534 
L 259.148764 352.723774 
L 269.457638 352.704537 
L 279.766512 353.10735 
L 290.075387 353.138182 
L 300.384261 352.586021 
L 310.693136 352.302563 
L 321.00201 353.135598 
L 331.310885 353.202896 
L 341.619759 352.376817 
L 351.928634 353.223878 
L 362.237508 353.223834 
L 372.546383 353.222774 
L 382.855257 353.223834 
L 393.164131 353.221448 
L 413.78188 353.223569 
L 434.399629 353.222685 
L 444.708504 353.222928 
L 455.017378 353.221426 
L 496.252876 353.218886 
L 547.797248 353.223878 
L 558.106123 353.223878 
L 609.650495 353.223878 
L 650.885993 353.223856 
L 671.503742 353.22379 
L 692.121491 353.223856 
L 702.430365 353.223326 
L 846.754608 353.213961 
L 857.063482 353.155012 
" clip-path="url(#p92046608be)" style="fill: none; stroke: #f7a35c; stroke-linecap: square"/>
   </g>
   <g id="line2d_13">
    <path d="M 83.897898 353.2239 
L 94.206772 93.852837 
L 104.515647 161.667504 
L 114.824521 243.521769 
L 125.133396 268.139796 
L 135.44227 313.526376 
L 145.751144 329.233924 
L 156.060019 336.978988 
L 166.368893 341.752869 
L 176.677768 345.010647 
L 186.986642 349.325946 
L 197.295517 348.984556 
L 207.604391 348.976715 
L 217.913266 352.117942 
L 228.22214 352.539087 
L 238.531015 352.758383 
L 248.839889 352.424082 
L 259.148764 352.79275 
L 269.457638 352.792264 
L 279.766512 353.129812 
L 290.075387 353.151832 
L 300.384261 352.643357 
L 310.693136 352.320894 
L 321.00201 353.159717 
L 331.310885 353.209257 
L 341.619759 352.446478 
L 362.237508 353.223856 
L 372.546383 353.222884 
L 382.855257 353.223878 
L 393.164131 353.222155 
L 403.473006 353.223856 
L 413.78188 353.22379 
L 434.399629 353.222796 
L 444.708504 353.222707 
L 455.017378 353.222685 
L 496.252876 353.219571 
L 547.797248 353.223856 
L 558.106123 353.223878 
L 578.723872 353.22379 
L 650.885993 353.223878 
L 671.503742 353.223834 
L 702.430365 353.223613 
L 846.754608 353.21522 
L 857.063482 353.153201 
" clip-path="url(#p92046608be)" style="fill: none; stroke: #8085e9; stroke-linecap: square"/>
   </g>
   <g id="line2d_14">
    <path d="M 83.897898 353.2239 
L 94.206772 66.573743 
L 104.515647 153.442103 
L 114.824521 240.092955 
L 125.133396 265.441668 
L 135.44227 312.432985 
L 145.751144 328.4171 
L 156.060019 336.314804 
L 166.368893 340.663741 
L 176.677768 344.940102 
L 186.986642 349.254828 
L 197.295517 348.83863 
L 207.604391 348.48496 
L 217.913266 352.196062 
L 228.22214 352.602298 
L 238.531015 352.792352 
L 248.839889 352.428721 
L 259.148764 352.768565 
L 269.457638 352.833146 
L 279.766512 353.142533 
L 290.075387 353.173675 
L 300.384261 352.8678 
L 310.693136 352.247015 
L 321.00201 353.173145 
L 331.310885 353.206496 
L 341.619759 352.248252 
L 372.546383 353.22284 
L 382.855257 353.223878 
L 393.164131 353.222442 
L 413.78188 353.223502 
L 434.399629 353.223259 
L 444.708504 353.223259 
L 455.017378 353.22231 
L 496.252876 353.219858 
L 558.106123 353.223878 
L 578.723872 353.223878 
L 650.885993 353.223878 
L 671.503742 353.223856 
L 702.430365 353.223591 
L 846.754608 353.217694 
L 857.063482 353.175884 
" clip-path="url(#p92046608be)" style="fill: none; stroke: #f15c80; stroke-linecap: square"/>
   </g>
   <g id="line2d_15">
    <path d="M 83.897898 353.2239 
L 94.206772 86.498725 
L 104.515647 156.862525 
L 114.824521 242.676608 
L 125.133396 265.821467 
L 135.44227 312.808455 
L 145.751144 327.19563 
L 156.060019 334.599612 
L 166.368893 341.29537 
L 176.677768 344.460583 
L 186.986642 348.903852 
L 197.295517 348.261511 
L 207.604391 348.795054 
L 217.913266 351.964927 
L 228.22214 352.425386 
L 238.531015 352.615926 
L 248.839889 352.352699 
L 259.148764 352.766246 
L 269.457638 352.723951 
L 279.766512 353.104103 
L 290.075387 353.106047 
L 300.384261 352.416882 
L 310.693136 352.410985 
L 321.00201 353.140767 
L 331.310885 353.199163 
L 341.619759 352.581382 
L 362.237508 353.223767 
L 372.546383 353.222442 
L 382.855257 353.22379 
L 393.164131 353.221978 
L 403.473006 353.223834 
L 413.78188 353.223856 
L 424.090755 353.223856 
L 434.399629 353.221802 
L 444.708504 353.222663 
L 455.017378 353.222619 
L 496.252876 353.21871 
L 547.797248 353.223878 
L 558.106123 353.223878 
L 578.723872 353.223878 
L 650.885993 353.223856 
L 671.503742 353.223856 
L 702.430365 353.223083 
L 846.754608 353.213122 
L 857.063482 353.123362 
" clip-path="url(#p92046608be)" style="fill: none; stroke: #e4d354; stroke-linecap: square"/>
   </g>
   <g id="line2d_16">
    <path d="M 83.897898 353.2239 
L 94.206772 57.685505 
L 104.515647 136.910155 
L 114.824521 232.39637 
L 125.133396 259.523156 
L 135.44227 309.989581 
L 145.751144 326.03726 
L 156.060019 333.80631 
L 166.368893 340.437156 
L 176.677768 344.199565 
L 186.986642 348.675787 
L 197.295517 348.177891 
L 207.604391 348.611118 
L 217.913266 351.987919 
L 228.22214 352.421145 
L 238.531015 352.632535 
L 248.839889 352.351617 
L 259.148764 352.733801 
L 269.457638 352.718296 
L 279.766512 353.103308 
L 290.075387 353.11667 
L 300.384261 352.534824 
L 310.693136 352.376133 
L 321.00201 353.137939 
L 331.310885 353.196181 
L 341.619759 352.480602 
L 362.237508 353.223767 
L 372.546383 353.221956 
L 393.164131 353.221868 
L 403.473006 353.223856 
L 413.78188 353.223767 
L 434.399629 353.222023 
L 444.708504 353.222067 
L 455.017378 353.221183 
L 496.252876 353.218798 
L 547.797248 353.223878 
L 650.885993 353.223856 
L 671.503742 353.223878 
L 692.121491 353.223856 
L 702.430365 353.223392 
L 846.754608 353.213122 
L 857.063482 353.135797 
" clip-path="url(#p92046608be)" style="fill: none; stroke: #2b908f; stroke-linecap: square"/>
   </g>
   <g id="line2d_17">
    <path d="M 83.897898 353.2239 
L 94.206772 101.787955 
L 104.515647 170.263273 
L 114.824521 247.292483 
L 125.133396 268.362185 
L 135.44227 314.719112 
L 145.751144 328.092164 
L 156.060019 335.685383 
L 166.368893 341.716604 
L 176.677768 344.846677 
L 186.986642 349.355918 
L 197.295517 348.623751 
L 207.604391 348.825997 
L 217.913266 352.149327 
L 228.22214 352.5424 
L 238.531015 352.73559 
L 248.839889 352.445396 
L 259.148764 352.783054 
L 269.457638 352.792463 
L 279.766512 353.120359 
L 290.075387 353.15097 
L 300.384261 352.675868 
L 310.693136 352.445285 
L 321.00201 353.148718 
L 331.310885 353.204088 
L 341.619759 352.480116 
L 372.546383 353.222553 
L 382.855257 353.223834 
L 393.164131 353.221228 
L 403.473006 353.223878 
L 413.78188 353.222752 
L 434.399629 353.222045 
L 444.708504 353.221956 
L 455.017378 353.221205 
L 496.252876 353.21818 
L 558.106123 353.223856 
L 578.723872 353.223878 
L 650.885993 353.223834 
L 671.503742 353.223856 
L 692.121491 353.223856 
L 702.430365 353.223304 
L 846.754608 353.210449 
L 857.063482 353.120889 
" clip-path="url(#p92046608be)" style="fill: none; stroke: #f45b5b; stroke-linecap: square"/>
   </g>
   <g id="line2d_18">
    <path d="M 83.897898 353.2239 
L 94.206772 88.273285 
L 104.515647 155.698236 
L 114.824521 239.890598 
L 125.133396 263.870945 
L 135.44227 311.830246 
L 145.751144 326.619747 
L 156.060019 335.10981 
L 166.368893 341.278054 
L 176.677768 344.341692 
L 186.986642 349.048054 
L 197.295517 348.511662 
L 207.604391 348.556564 
L 217.913266 352.072112 
L 228.22214 352.500988 
L 238.531015 352.693736 
L 248.839889 352.404403 
L 259.148764 352.75792 
L 269.457638 352.768057 
L 279.766512 353.110729 
L 290.075387 353.152914 
L 300.384261 352.650248 
L 310.693136 352.378562 
L 321.00201 353.142644 
L 331.310885 353.206827 
L 341.619759 352.452596 
L 351.928634 353.223856 
L 362.237508 353.223878 
L 372.546383 353.223171 
L 382.855257 353.223767 
L 393.164131 353.22136 
L 403.473006 353.223856 
L 413.78188 353.223436 
L 434.399629 353.222288 
L 444.708504 353.22242 
L 455.017378 353.221382 
L 496.252876 353.219107 
L 547.797248 353.223834 
L 558.106123 353.223856 
L 578.723872 353.223812 
L 692.121491 353.223878 
L 702.430365 353.223547 
L 846.754608 353.211598 
L 857.063482 353.133544 
" clip-path="url(#p92046608be)" style="fill: none; stroke: #91e8e1; stroke-linecap: square"/>
   </g>
   <g id="line2d_19">
    <path d="M 83.897898 353.2239 
L 94.206772 96.691788 
L 104.515647 161.162143 
L 114.824521 243.02277 
L 125.133396 265.831517 
L 135.44227 312.419424 
L 145.751144 326.916545 
L 156.060019 334.56222 
L 166.368893 341.127579 
L 176.677768 344.403975 
L 186.986642 348.911781 
L 197.295517 348.333292 
L 207.604391 348.73531 
L 217.913266 352.064426 
L 228.22214 352.45158 
L 238.531015 352.709661 
L 248.839889 352.375338 
L 259.148764 352.752067 
L 269.457638 352.751183 
L 279.766512 353.104721 
L 290.075387 353.127316 
L 300.384261 352.530429 
L 310.693136 352.338718 
L 321.00201 353.144941 
L 331.310885 353.204552 
L 341.619759 352.453855 
L 362.237508 353.22379 
L 372.546383 353.222531 
L 382.855257 353.223856 
L 393.164131 353.221493 
L 403.473006 353.223856 
L 413.78188 353.22379 
L 434.399629 353.221824 
L 444.708504 353.222464 
L 455.017378 353.22189 
L 496.252876 353.218599 
L 547.797248 353.223834 
L 578.723872 353.22379 
L 650.885993 353.223856 
L 671.503742 353.223767 
L 702.430365 353.222972 
L 846.754608 353.212238 
L 857.063482 353.127956 
" clip-path="url(#p92046608be)" style="fill: none; stroke: #7cb5ec; stroke-linecap: square"/>
   </g>
   <g id="line2d_20">
    <path d="M 83.897898 353.2239 
L 94.206772 107.848374 
L 104.515647 160.910026 
L 114.824521 241.572837 
L 125.133396 265.555237 
L 135.44227 311.825232 
L 145.751144 326.198668 
L 156.060019 334.04639 
L 166.368893 341.031525 
L 176.677768 343.972428 
L 186.986642 348.65158 
L 197.295517 348.138003 
L 207.604391 348.701562 
L 217.913266 351.91616 
L 228.22214 352.336178 
L 238.531015 352.631165 
L 248.839889 352.254547 
L 259.148764 352.70087 
L 269.457638 352.687552 
L 279.766512 353.080934 
L 290.075387 353.091182 
L 300.384261 352.14566 
L 310.693136 352.268991 
L 321.00201 353.130872 
L 331.310885 353.203735 
L 341.619759 352.482766 
L 351.928634 353.223878 
L 362.237508 353.223767 
L 372.546383 353.222818 
L 393.164131 353.221912 
L 403.473006 353.223834 
L 413.78188 353.223812 
L 424.090755 353.223878 
L 434.399629 353.222111 
L 444.708504 353.222464 
L 455.017378 353.222796 
L 496.252876 353.218666 
L 547.797248 353.223856 
L 558.106123 353.223878 
L 578.723872 353.22379 
L 609.650495 353.223878 
L 650.885993 353.223878 
L 671.503742 353.223767 
L 692.121491 353.223878 
L 702.430365 353.222774 
L 846.754608 353.211068 
L 857.063482 353.143174 
L 949.843352 353.223878 
" clip-path="url(#p92046608be)" style="fill: none; stroke: #434348; stroke-linecap: square"/>
   </g>
   <g id="line2d_21">
    <path d="M 83.897898 353.2239 
L 94.206772 55.007211 
L 104.515647 121.111545 
L 114.824521 220.081813 
L 125.133396 247.662873 
L 135.44227 303.450836 
L 145.751144 320.944252 
L 156.060019 331.224158 
L 166.368893 338.042651 
L 176.677768 342.093951 
L 186.986642 347.985408 
L 197.295517 347.241602 
L 207.604391 347.371249 
L 217.913266 351.842082 
L 228.22214 352.372643 
L 238.531015 352.617891 
L 248.839889 352.166333 
L 259.148764 352.639359 
L 269.457638 352.686426 
L 279.766512 353.092596 
L 290.075387 353.143461 
L 300.384261 352.640088 
L 310.693136 352.042671 
L 321.00201 353.139706 
L 331.310885 353.204817 
L 341.619759 352.118825 
L 351.928634 353.223878 
L 362.237508 353.223812 
L 372.546383 353.223282 
L 382.855257 353.22379 
L 393.164131 353.221912 
L 403.473006 353.223812 
L 413.78188 353.223856 
L 434.399629 353.222354 
L 444.708504 353.222464 
L 455.017378 353.223083 
L 496.252876 353.219991 
L 547.797248 353.223856 
L 558.106123 353.223856 
L 578.723872 353.223878 
L 609.650495 353.223878 
L 650.885993 353.223856 
L 671.503742 353.223878 
L 692.121491 353.223856 
L 702.430365 353.222862 
L 846.754608 353.214955 
L 857.063482 353.150286 
" clip-path="url(#p92046608be)" style="fill: none; stroke: #90ed7d; stroke-linecap: square"/>
   </g>
   <g id="line2d_22">
    <path d="M 83.897898 353.2239 
L 94.206772 58.219887 
L 104.515647 124.861939 
L 114.824521 220.844128 
L 125.133396 249.12449 
L 135.44227 304.512488 
L 145.751144 321.841691 
L 156.060019 331.535401 
L 166.368893 338.576128 
L 176.677768 342.477946 
L 186.986642 347.97379 
L 197.295517 347.322018 
L 207.604391 347.557129 
L 217.913266 351.848288 
L 228.22214 352.328161 
L 238.531015 352.604971 
L 248.839889 352.147869 
L 259.148764 352.639536 
L 269.457638 352.663809 
L 279.766512 353.096108 
L 290.075387 353.128509 
L 300.384261 352.433005 
L 310.693136 352.115247 
L 321.00201 353.124886 
L 331.310885 353.209146 
L 341.619759 352.178326 
L 351.928634 353.223878 
L 362.237508 353.223856 
L 372.546383 353.223282 
L 382.855257 353.223856 
L 393.164131 353.221515 
L 403.473006 353.223878 
L 413.78188 353.223812 
L 434.399629 353.222332 
L 444.708504 353.222575 
L 455.017378 353.223215 
L 496.252876 353.21977 
L 547.797248 353.223745 
L 558.106123 353.223856 
L 578.723872 353.223856 
L 671.503742 353.223878 
L 702.430365 353.223282 
L 846.754608 353.213917 
L 857.063482 353.147856 
" clip-path="url(#p92046608be)" style="fill: none; stroke: #f7a35c; stroke-linecap: square"/>
   </g>
   <g id="line2d_23">
    <path d="M 83.897898 353.2239 
L 94.206772 101.03103 
L 104.515647 161.314827 
L 114.824521 241.426271 
L 125.133396 264.891472 
L 135.44227 312.301792 
L 145.751144 326.703013 
L 156.060019 333.89713 
L 166.368893 341.030443 
L 176.677768 344.042111 
L 186.986642 348.628875 
L 197.295517 348.021276 
L 207.604391 348.684666 
L 217.913266 351.909534 
L 228.22214 352.334897 
L 238.531015 352.615506 
L 248.839889 352.285446 
L 259.148764 352.714983 
L 269.457638 352.642275 
L 279.766512 353.092088 
L 290.075387 353.085307 
L 300.384261 352.151535 
L 310.693136 352.312855 
L 321.00201 353.139751 
L 331.310885 353.205436 
L 341.619759 352.501429 
L 351.928634 353.223834 
L 362.237508 353.223812 
L 372.546383 353.222663 
L 382.855257 353.223878 
L 393.164131 353.22178 
L 403.473006 353.223878 
L 413.78188 353.223856 
L 434.399629 353.222133 
L 444.708504 353.222442 
L 455.017378 353.222155 
L 496.252876 353.218489 
L 547.797248 353.223767 
L 558.106123 353.223834 
L 578.723872 353.223834 
L 609.650495 353.223878 
L 650.885993 353.22379 
L 671.503742 353.223723 
L 681.812616 353.223856 
L 702.430365 353.221934 
L 846.754608 353.21226 
L 857.063482 353.124931 
" clip-path="url(#p92046608be)" style="fill: none; stroke: #8085e9; stroke-linecap: square"/>
   </g>
   <g id="line2d_24">
    <path d="M 83.897898 353.2239 
L 94.206772 73.481244 
L 104.515647 164.025478 
L 114.824521 246.111519 
L 125.133396 270.810228 
L 135.44227 314.832526 
L 145.751144 329.519105 
L 156.060019 335.916033 
L 166.368893 341.978792 
L 176.677768 345.146876 
L 186.986642 349.207298 
L 197.295517 348.816522 
L 207.604391 349.143667 
L 217.913266 352.107915 
L 228.22214 352.491601 
L 238.531015 352.724635 
L 248.839889 352.436296 
L 259.148764 352.768389 
L 269.457638 352.719379 
L 279.766512 353.123517 
L 290.075387 353.118327 
L 300.384261 352.551742 
L 310.693136 352.388877 
L 321.00201 353.14938 
L 331.310885 353.20241 
L 341.619759 352.522566 
L 351.928634 353.223878 
L 372.546383 353.222553 
L 382.855257 353.223856 
L 393.164131 353.22178 
L 413.78188 353.223878 
L 434.399629 353.222906 
L 444.708504 353.22295 
L 455.017378 353.222199 
L 496.252876 353.219173 
L 547.797248 353.223812 
L 558.106123 353.223745 
L 650.885993 353.223834 
L 671.503742 353.223878 
L 692.121491 353.223878 
L 702.430365 353.222067 
L 846.754608 353.215043 
L 857.063482 353.160136 
" clip-path="url(#p92046608be)" style="fill: none; stroke: #f15c80; stroke-linecap: square"/>
   </g>
   <g id="line2d_25">
    <path d="M 83.897898 353.2239 
L 94.206772 90.298593 
L 104.515647 156.151163 
L 114.824521 240.00547 
L 125.133396 264.067757 
L 135.44227 311.481633 
L 145.751144 326.383223 
L 156.060019 335.075355 
L 166.368893 340.559383 
L 176.677768 344.12065 
L 186.986642 348.934662 
L 197.295517 348.313613 
L 207.604391 348.278562 
L 217.913266 352.118825 
L 228.22214 352.540986 
L 238.531015 352.74681 
L 248.839889 352.365995 
L 259.148764 352.739787 
L 269.457638 352.786919 
L 279.766512 353.118768 
L 290.075387 353.164907 
L 300.384261 352.806178 
L 310.693136 352.22886 
L 321.00201 353.158568 
L 331.310885 353.207954 
L 341.619759 352.288582 
L 362.237508 353.223856 
L 372.546383 353.222509 
L 382.855257 353.223878 
L 393.164131 353.22178 
L 413.78188 353.223701 
L 434.399629 353.222398 
L 444.708504 353.223083 
L 455.017378 353.223061 
L 496.252876 353.219527 
L 558.106123 353.223878 
L 578.723872 353.223812 
L 671.503742 353.223812 
L 692.121491 353.223878 
L 702.430365 353.223502 
L 846.754608 353.214535 
L 857.063482 353.150595 
" clip-path="url(#p92046608be)" style="fill: none; stroke: #e4d354; stroke-linecap: square"/>
   </g>
   <g id="line2d_26">
    <path d="M 83.897898 353.2239 
L 94.206772 92.306828 
L 104.515647 156.104119 
L 114.824521 237.327375 
L 125.133396 261.355582 
L 135.44227 310.159227 
L 145.751144 325.378553 
L 156.060019 334.223745 
L 166.368893 340.515055 
L 176.677768 343.839313 
L 186.986642 348.791498 
L 197.295517 348.117441 
L 207.604391 348.312133 
L 217.913266 352.059987 
L 228.22214 352.495554 
L 238.531015 352.697182 
L 248.839889 352.325776 
L 259.148764 352.731615 
L 269.457638 352.772916 
L 279.766512 353.111789 
L 290.075387 353.15647 
L 300.384261 352.669287 
L 310.693136 352.251256 
L 321.00201 353.142467 
L 331.310885 353.208351 
L 341.619759 352.290018 
L 351.928634 353.223812 
L 372.546383 353.223304 
L 382.855257 353.22379 
L 393.164131 353.221183 
L 403.473006 353.223856 
L 413.78188 353.223834 
L 424.090755 353.223878 
L 434.399629 353.221912 
L 444.708504 353.222111 
L 455.017378 353.222884 
L 496.252876 353.219284 
L 547.797248 353.223856 
L 578.723872 353.223878 
L 650.885993 353.223878 
L 671.503742 353.223856 
L 702.430365 353.223414 
L 826.136859 353.223834 
L 846.754608 353.212901 
L 857.063482 353.148033 
" clip-path="url(#p92046608be)" style="fill: none; stroke: #2b908f; stroke-linecap: square"/>
   </g>
   <g id="line2d_27">
    <path d="M 83.897898 353.2239 
L 94.206772 79.49252 
L 104.515647 165.743518 
L 114.824521 246.227208 
L 125.133396 269.765648 
L 135.44227 314.779077 
L 145.751144 328.612609 
L 156.060019 335.345384 
L 166.368893 341.654938 
L 176.677768 344.828257 
L 186.986642 348.872666 
L 197.295517 348.377973 
L 207.604391 349.190976 
L 217.913266 351.86567 
L 228.22214 352.342363 
L 238.531015 352.63894 
L 248.839889 352.351727 
L 259.148764 352.73824 
L 269.457638 352.667917 
L 279.766512 353.094208 
L 290.075387 353.062139 
L 300.384261 352.073835 
L 310.693136 352.431548 
L 321.00201 353.134803 
L 331.310885 353.203492 
L 341.619759 352.667188 
L 362.237508 353.223657 
L 372.546383 353.22242 
L 382.855257 353.223856 
L 393.164131 353.222133 
L 413.78188 353.223812 
L 434.399629 353.222111 
L 444.708504 353.221515 
L 455.017378 353.222464 
L 475.635127 353.223856 
L 496.252876 353.217252 
L 547.797248 353.22379 
L 558.106123 353.223834 
L 578.723872 353.223812 
L 609.650495 353.223878 
L 650.885993 353.223834 
L 671.503742 353.223723 
L 692.121491 353.223856 
L 702.430365 353.22231 
L 846.754608 353.211973 
L 857.063482 353.114395 
" clip-path="url(#p92046608be)" style="fill: none; stroke: #f45b5b; stroke-linecap: square"/>
   </g>
   <g id="line2d_28">
    <path d="M 83.897898 353.2239 
L 94.206772 95.30679 
L 104.515647 164.580688 
L 114.824521 244.343696 
L 125.133396 268.325632 
L 135.44227 313.782955 
L 145.751144 327.777387 
L 156.060019 335.331161 
L 166.368893 341.821338 
L 176.677768 344.778032 
L 186.986642 349.005692 
L 197.295517 348.548613 
L 207.604391 349.012893 
L 217.913266 352.06986 
L 228.22214 352.459553 
L 238.531015 352.680727 
L 248.839889 352.376309 
L 259.148764 352.761056 
L 269.457638 352.743497 
L 279.766512 353.098515 
L 290.075387 353.115588 
L 300.384261 352.397027 
L 310.693136 352.408622 
L 321.00201 353.138227 
L 331.310885 353.201791 
L 341.619759 352.550704 
L 351.928634 353.223856 
L 362.237508 353.223745 
L 372.546383 353.222442 
L 382.855257 353.223878 
L 393.164131 353.221603 
L 413.78188 353.223767 
L 434.399629 353.222023 
L 444.708504 353.222332 
L 455.017378 353.222023 
L 475.635127 353.223878 
L 496.252876 353.219107 
L 547.797248 353.223878 
L 578.723872 353.223878 
L 609.650495 353.223878 
L 671.503742 353.223856 
L 681.812616 353.223834 
L 702.430365 353.223348 
L 826.136859 353.223878 
L 846.754608 353.212415 
L 857.063482 353.137034 
" clip-path="url(#p92046608be)" style="fill: none; stroke: #91e8e1; stroke-linecap: square"/>
   </g>
   <g id="line2d_29">
    <path d="M 40.600625 353.2239 
L 993.140625 353.2239 
" clip-path="url(#p92046608be)" style="fill: none; stroke: #dedede; stroke-width: 2; stroke-linecap: square"/>
   </g>
   <g id="text_17">
    <!-- RSEM: Multimapping Rates -->
    <g transform="translate(409.210625 19.3575) scale(0.16 -0.16)">
     <defs>
      <path id="DejaVuSans-52" d="M 2841 2188 
Q 3044 2119 3236 1894 
Q 3428 1669 3622 1275 
L 4263 0 
L 3584 0 
L 2988 1197 
Q 2756 1666 2539 1819 
Q 2322 1972 1947 1972 
L 1259 1972 
L 1259 0 
L 628 0 
L 628 4666 
L 2053 4666 
Q 2853 4666 3247 4331 
Q 3641 3997 3641 3322 
Q 3641 2881 3436 2590 
Q 3231 2300 2841 2188 
z
M 1259 4147 
L 1259 2491 
L 2053 2491 
Q 2509 2491 2742 2702 
Q 2975 2913 2975 3322 
Q 2975 3731 2742 3939 
Q 2509 4147 2053 4147 
L 1259 4147 
z
" transform="scale(0.015625)"/>
      <path id="DejaVuSans-53" d="M 3425 4513 
L 3425 3897 
Q 3066 4069 2747 4153 
Q 2428 4238 2131 4238 
Q 1616 4238 1336 4038 
Q 1056 3838 1056 3469 
Q 1056 3159 1242 3001 
Q 1428 2844 1947 2747 
L 2328 2669 
Q 3034 2534 3370 2195 
Q 3706 1856 3706 1288 
Q 3706 609 3251 259 
Q 2797 -91 1919 -91 
Q 1588 -91 1214 -16 
Q 841 59 441 206 
L 441 856 
Q 825 641 1194 531 
Q 1563 422 1919 422 
Q 2459 422 2753 634 
Q 3047 847 3047 1241 
Q 3047 1584 2836 1778 
Q 2625 1972 2144 2069 
L 1759 2144 
Q 1053 2284 737 2584 
Q 422 2884 422 3419 
Q 422 4038 858 4394 
Q 1294 4750 2059 4750 
Q 2388 4750 2728 4690 
Q 3069 4631 3425 4513 
z
" transform="scale(0.015625)"/>
      <path id="DejaVuSans-45" d="M 628 4666 
L 3578 4666 
L 3578 4134 
L 1259 4134 
L 1259 2753 
L 3481 2753 
L 3481 2222 
L 1259 2222 
L 1259 531 
L 3634 531 
L 3634 0 
L 628 0 
L 628 4666 
z
" transform="scale(0.015625)"/>
      <path id="DejaVuSans-4d" d="M 628 4666 
L 1569 4666 
L 2759 1491 
L 3956 4666 
L 4897 4666 
L 4897 0 
L 4281 0 
L 4281 4097 
L 3078 897 
L 2444 897 
L 1241 4097 
L 1241 0 
L 628 0 
L 628 4666 
z
" transform="scale(0.015625)"/>
      <path id="DejaVuSans-3a" d="M 750 794 
L 1409 794 
L 1409 0 
L 750 0 
L 750 794 
z
M 750 3309 
L 1409 3309 
L 1409 2516 
L 750 2516 
L 750 3309 
z
" transform="scale(0.015625)"/>
      <path id="DejaVuSans-70" d="M 1159 525 
L 1159 -1331 
L 581 -1331 
L 581 3500 
L 1159 3500 
L 1159 2969 
Q 1341 3281 1617 3432 
Q 1894 3584 2278 3584 
Q 2916 3584 3314 3078 
Q 3713 2572 3713 1747 
Q 3713 922 3314 415 
Q 2916 -91 2278 -91 
Q 1894 -91 1617 61 
Q 1341 213 1159 525 
z
M 3116 1747 
Q 3116 2381 2855 2742 
Q 2594 3103 2138 3103 
Q 1681 3103 1420 2742 
Q 1159 2381 1159 1747 
Q 1159 1113 1420 752 
Q 1681 391 2138 391 
Q 2594 391 2855 752 
Q 3116 1113 3116 1747 
z
" transform="scale(0.015625)"/>
     </defs>
     <use xlink:href="#DejaVuSans-52"/>
     <use xlink:href="#DejaVuSans-53" x="69.482422"/>
     <use xlink:href="#DejaVuSans-45" x="132.958984"/>
     <use xlink:href="#DejaVuSans-4d" x="196.142578"/>
     <use xlink:href="#DejaVuSans-3a" x="282.421875"/>
     <use xlink:href="#DejaVuSans-20" x="316.113281"/>
     <use xlink:href="#DejaVuSans-4d" x="347.900391"/>
     <use xlink:href="#DejaVuSans-75" x="434.179688"/>
     <use xlink:href="#DejaVuSans-6c" x="497.558594"/>
     <use xlink:href="#DejaVuSans-74" x="525.341797"/>
     <use xlink:href="#DejaVuSans-69" x="564.550781"/>
     <use xlink:href="#DejaVuSans-6d" x="592.333984"/>
     <use xlink:href="#DejaVuSans-61" x="689.746094"/>
     <use xlink:href="#DejaVuSans-70" x="751.025391"/>
     <use xlink:href="#DejaVuSans-70" x="814.501953"/>
     <use xlink:href="#DejaVuSans-69" x="877.978516"/>
     <use xlink:href="#DejaVuSans-6e" x="905.761719"/>
     <use xlink:href="#DejaVuSans-67" x="969.140625"/>
     <use xlink:href="#DejaVuSans-20" x="1032.617188"/>
     <use xlink:href="#DejaVuSans-52" x="1064.404297"/>
     <use xlink:href="#DejaVuSans-61" x="1131.636719"/>
     <use xlink:href="#DejaVuSans-74" x="1192.916016"/>
     <use xlink:href="#DejaVuSans-65" x="1232.125"/>
     <use xlink:href="#DejaVuSans-73" x="1293.648438"/>
    </g>
   </g>
  </g>
 </g>
 <defs>
  <clipPath id="p92046608be">
   <rect x="40.600625" y="35.2559" width="952.54" height="317.968"/>
  </clipPath>
 </defs>
</svg>
