<?xml version="1.0" encoding="utf-8" standalone="no"?>
<!DOCTYPE svg PUBLIC "-//W3C//DTD SVG 1.1//EN"
  "http://www.w3.org/Graphics/SVG/1.1/DTD/svg11.dtd">
<svg xmlns:xlink="http://www.w3.org/1999/xlink" width="1000.278125pt" height="388.844525pt" viewBox="0 0 1000.278125 388.844525" xmlns="http://www.w3.org/2000/svg" version="1.1">
 <metadata>
  <rdf:RDF xmlns:dc="http://purl.org/dc/elements/1.1/" xmlns:cc="http://creativecommons.org/ns#" xmlns:rdf="http://www.w3.org/1999/02/22-rdf-syntax-ns#">
   <cc:Work>
    <dc:type rdf:resource="http://purl.org/dc/dcmitype/StillImage"/>
    <dc:date>2023-10-05T12:27:33.851758</dc:date>
    <dc:format>image/svg+xml</dc:format>
    <dc:creator>
     <cc:Agent>
      <dc:title>Matplotlib v3.7.0, https://matplotlib.org/</dc:title>
     </cc:Agent>
    </dc:creator>
   </cc:Work>
  </rdf:RDF>
 </metadata>
 <defs>
  <style type="text/css">*{stroke-linejoin: round; stroke-linecap: butt}</style>
 </defs>
 <g id="figure_1">
  <g id="axes_1">
   <g id="patch_1">
    <path d="M 43.148125 353.2239 
L 993.078125 353.2239 
L 993.078125 35.2559 
L 43.148125 35.2559 
z
" style="fill: #ffffff"/>
   </g>
   <g id="matplotlib.axis_1">
    <g id="xtick_1">
     <g id="text_1">
      <!-- 1.0 -->
      <g transform="translate(79.965511 366.30265) scale(0.08 -0.08)">
       <defs>
        <path id="DejaVuSans-31" d="M 794 531 
L 1825 531 
L 1825 4091 
L 703 3866 
L 703 4441 
L 1819 4666 
L 2450 4666 
L 2450 531 
L 3481 531 
L 3481 0 
L 794 0 
L 794 531 
z
" transform="scale(0.015625)"/>
        <path id="DejaVuSans-2e" d="M 684 794 
L 1344 794 
L 1344 0 
L 684 0 
L 684 794 
z
" transform="scale(0.015625)"/>
        <path id="DejaVuSans-30" d="M 2034 4250 
Q 1547 4250 1301 3770 
Q 1056 3291 1056 2328 
Q 1056 1369 1301 889 
Q 1547 409 2034 409 
Q 2525 409 2770 889 
Q 3016 1369 3016 2328 
Q 3016 3291 2770 3770 
Q 2525 4250 2034 4250 
z
M 2034 4750 
Q 2819 4750 3233 4129 
Q 3647 3509 3647 2328 
Q 3647 1150 3233 529 
Q 2819 -91 2034 -91 
Q 1250 -91 836 529 
Q 422 1150 422 2328 
Q 422 3509 836 4129 
Q 1250 4750 2034 4750 
z
" transform="scale(0.015625)"/>
       </defs>
       <use xlink:href="#DejaVuSans-31"/>
       <use xlink:href="#DejaVuSans-2e" x="63.623047"/>
       <use xlink:href="#DejaVuSans-30" x="95.410156"/>
      </g>
     </g>
    </g>
    <g id="xtick_2">
     <g id="text_2">
      <!-- 2.0 -->
      <g transform="translate(137.537027 366.30265) scale(0.08 -0.08)">
       <defs>
        <path id="DejaVuSans-32" d="M 1228 531 
L 3431 531 
L 3431 0 
L 469 0 
L 469 531 
Q 828 903 1448 1529 
Q 2069 2156 2228 2338 
Q 2531 2678 2651 2914 
Q 2772 3150 2772 3378 
Q 2772 3750 2511 3984 
Q 2250 4219 1831 4219 
Q 1534 4219 1204 4116 
Q 875 4013 500 3803 
L 500 4441 
Q 881 4594 1212 4672 
Q 1544 4750 1819 4750 
Q 2544 4750 2975 4387 
Q 3406 4025 3406 3419 
Q 3406 3131 3298 2873 
Q 3191 2616 2906 2266 
Q 2828 2175 2409 1742 
Q 1991 1309 1228 531 
z
" transform="scale(0.015625)"/>
       </defs>
       <use xlink:href="#DejaVuSans-32"/>
       <use xlink:href="#DejaVuSans-2e" x="63.623047"/>
       <use xlink:href="#DejaVuSans-30" x="95.410156"/>
      </g>
     </g>
    </g>
    <g id="xtick_3">
     <g id="text_3">
      <!-- 3.0 -->
      <g transform="translate(195.108542 366.30265) scale(0.08 -0.08)">
       <defs>
        <path id="DejaVuSans-33" d="M 2597 2516 
Q 3050 2419 3304 2112 
Q 3559 1806 3559 1356 
Q 3559 666 3084 287 
Q 2609 -91 1734 -91 
Q 1441 -91 1130 -33 
Q 819 25 488 141 
L 488 750 
Q 750 597 1062 519 
Q 1375 441 1716 441 
Q 2309 441 2620 675 
Q 2931 909 2931 1356 
Q 2931 1769 2642 2001 
Q 2353 2234 1838 2234 
L 1294 2234 
L 1294 2753 
L 1863 2753 
Q 2328 2753 2575 2939 
Q 2822 3125 2822 3475 
Q 2822 3834 2567 4026 
Q 2313 4219 1838 4219 
Q 1578 4219 1281 4162 
Q 984 4106 628 3988 
L 628 4550 
Q 988 4650 1302 4700 
Q 1616 4750 1894 4750 
Q 2613 4750 3031 4423 
Q 3450 4097 3450 3541 
Q 3450 3153 3228 2886 
Q 3006 2619 2597 2516 
z
" transform="scale(0.015625)"/>
       </defs>
       <use xlink:href="#DejaVuSans-33"/>
       <use xlink:href="#DejaVuSans-2e" x="63.623047"/>
       <use xlink:href="#DejaVuSans-30" x="95.410156"/>
      </g>
     </g>
    </g>
    <g id="xtick_4">
     <g id="text_4">
      <!-- 4.0 -->
      <g transform="translate(252.680057 366.30265) scale(0.08 -0.08)">
       <defs>
        <path id="DejaVuSans-34" d="M 2419 4116 
L 825 1625 
L 2419 1625 
L 2419 4116 
z
M 2253 4666 
L 3047 4666 
L 3047 1625 
L 3713 1625 
L 3713 1100 
L 3047 1100 
L 3047 0 
L 2419 0 
L 2419 1100 
L 313 1100 
L 313 1709 
L 2253 4666 
z
" transform="scale(0.015625)"/>
       </defs>
       <use xlink:href="#DejaVuSans-34"/>
       <use xlink:href="#DejaVuSans-2e" x="63.623047"/>
       <use xlink:href="#DejaVuSans-30" x="95.410156"/>
      </g>
     </g>
    </g>
    <g id="xtick_5">
     <g id="text_5">
      <!-- 5.0 -->
      <g transform="translate(310.251572 366.30265) scale(0.08 -0.08)">
       <defs>
        <path id="DejaVuSans-35" d="M 691 4666 
L 3169 4666 
L 3169 4134 
L 1269 4134 
L 1269 2991 
Q 1406 3038 1543 3061 
Q 1681 3084 1819 3084 
Q 2600 3084 3056 2656 
Q 3513 2228 3513 1497 
Q 3513 744 3044 326 
Q 2575 -91 1722 -91 
Q 1428 -91 1123 -41 
Q 819 9 494 109 
L 494 744 
Q 775 591 1075 516 
Q 1375 441 1709 441 
Q 2250 441 2565 725 
Q 2881 1009 2881 1497 
Q 2881 1984 2565 2268 
Q 2250 2553 1709 2553 
Q 1456 2553 1204 2497 
Q 953 2441 691 2322 
L 691 4666 
z
" transform="scale(0.015625)"/>
       </defs>
       <use xlink:href="#DejaVuSans-35"/>
       <use xlink:href="#DejaVuSans-2e" x="63.623047"/>
       <use xlink:href="#DejaVuSans-30" x="95.410156"/>
      </g>
     </g>
    </g>
    <g id="xtick_6">
     <g id="text_6">
      <!-- 6.0 -->
      <g transform="translate(367.823087 366.30265) scale(0.08 -0.08)">
       <defs>
        <path id="DejaVuSans-36" d="M 2113 2584 
Q 1688 2584 1439 2293 
Q 1191 2003 1191 1497 
Q 1191 994 1439 701 
Q 1688 409 2113 409 
Q 2538 409 2786 701 
Q 3034 994 3034 1497 
Q 3034 2003 2786 2293 
Q 2538 2584 2113 2584 
z
M 3366 4563 
L 3366 3988 
Q 3128 4100 2886 4159 
Q 2644 4219 2406 4219 
Q 1781 4219 1451 3797 
Q 1122 3375 1075 2522 
Q 1259 2794 1537 2939 
Q 1816 3084 2150 3084 
Q 2853 3084 3261 2657 
Q 3669 2231 3669 1497 
Q 3669 778 3244 343 
Q 2819 -91 2113 -91 
Q 1303 -91 875 529 
Q 447 1150 447 2328 
Q 447 3434 972 4092 
Q 1497 4750 2381 4750 
Q 2619 4750 2861 4703 
Q 3103 4656 3366 4563 
z
" transform="scale(0.015625)"/>
       </defs>
       <use xlink:href="#DejaVuSans-36"/>
       <use xlink:href="#DejaVuSans-2e" x="63.623047"/>
       <use xlink:href="#DejaVuSans-30" x="95.410156"/>
      </g>
     </g>
    </g>
    <g id="xtick_7">
     <g id="text_7">
      <!-- 7.0 -->
      <g transform="translate(425.394602 366.30265) scale(0.08 -0.08)">
       <defs>
        <path id="DejaVuSans-37" d="M 525 4666 
L 3525 4666 
L 3525 4397 
L 1831 0 
L 1172 0 
L 2766 4134 
L 525 4134 
L 525 4666 
z
" transform="scale(0.015625)"/>
       </defs>
       <use xlink:href="#DejaVuSans-37"/>
       <use xlink:href="#DejaVuSans-2e" x="63.623047"/>
       <use xlink:href="#DejaVuSans-30" x="95.410156"/>
      </g>
     </g>
    </g>
    <g id="xtick_8">
     <g id="text_8">
      <!-- 8.0 -->
      <g transform="translate(482.966117 366.30265) scale(0.08 -0.08)">
       <defs>
        <path id="DejaVuSans-38" d="M 2034 2216 
Q 1584 2216 1326 1975 
Q 1069 1734 1069 1313 
Q 1069 891 1326 650 
Q 1584 409 2034 409 
Q 2484 409 2743 651 
Q 3003 894 3003 1313 
Q 3003 1734 2745 1975 
Q 2488 2216 2034 2216 
z
M 1403 2484 
Q 997 2584 770 2862 
Q 544 3141 544 3541 
Q 544 4100 942 4425 
Q 1341 4750 2034 4750 
Q 2731 4750 3128 4425 
Q 3525 4100 3525 3541 
Q 3525 3141 3298 2862 
Q 3072 2584 2669 2484 
Q 3125 2378 3379 2068 
Q 3634 1759 3634 1313 
Q 3634 634 3220 271 
Q 2806 -91 2034 -91 
Q 1263 -91 848 271 
Q 434 634 434 1313 
Q 434 1759 690 2068 
Q 947 2378 1403 2484 
z
M 1172 3481 
Q 1172 3119 1398 2916 
Q 1625 2713 2034 2713 
Q 2441 2713 2670 2916 
Q 2900 3119 2900 3481 
Q 2900 3844 2670 4047 
Q 2441 4250 2034 4250 
Q 1625 4250 1398 4047 
Q 1172 3844 1172 3481 
z
" transform="scale(0.015625)"/>
       </defs>
       <use xlink:href="#DejaVuSans-38"/>
       <use xlink:href="#DejaVuSans-2e" x="63.623047"/>
       <use xlink:href="#DejaVuSans-30" x="95.410156"/>
      </g>
     </g>
    </g>
    <g id="xtick_9">
     <g id="text_9">
      <!-- 9.0 -->
      <g transform="translate(540.537633 366.30265) scale(0.08 -0.08)">
       <defs>
        <path id="DejaVuSans-39" d="M 703 97 
L 703 672 
Q 941 559 1184 500 
Q 1428 441 1663 441 
Q 2288 441 2617 861 
Q 2947 1281 2994 2138 
Q 2813 1869 2534 1725 
Q 2256 1581 1919 1581 
Q 1219 1581 811 2004 
Q 403 2428 403 3163 
Q 403 3881 828 4315 
Q 1253 4750 1959 4750 
Q 2769 4750 3195 4129 
Q 3622 3509 3622 2328 
Q 3622 1225 3098 567 
Q 2575 -91 1691 -91 
Q 1453 -91 1209 -44 
Q 966 3 703 97 
z
M 1959 2075 
Q 2384 2075 2632 2365 
Q 2881 2656 2881 3163 
Q 2881 3666 2632 3958 
Q 2384 4250 1959 4250 
Q 1534 4250 1286 3958 
Q 1038 3666 1038 3163 
Q 1038 2656 1286 2365 
Q 1534 2075 1959 2075 
z
" transform="scale(0.015625)"/>
       </defs>
       <use xlink:href="#DejaVuSans-39"/>
       <use xlink:href="#DejaVuSans-2e" x="63.623047"/>
       <use xlink:href="#DejaVuSans-30" x="95.410156"/>
      </g>
     </g>
    </g>
    <g id="xtick_10">
     <g id="text_10">
      <!-- &gt;10 -->
      <g transform="translate(596.028523 366.30265) scale(0.08 -0.08)">
       <defs>
        <path id="DejaVuSans-3e" d="M 678 3150 
L 678 3719 
L 4684 2266 
L 4684 1747 
L 678 294 
L 678 863 
L 3897 2003 
L 678 3150 
z
" transform="scale(0.015625)"/>
       </defs>
       <use xlink:href="#DejaVuSans-3e"/>
       <use xlink:href="#DejaVuSans-31" x="83.789062"/>
       <use xlink:href="#DejaVuSans-30" x="147.412109"/>
      </g>
     </g>
    </g>
    <g id="xtick_11">
     <g id="text_11">
      <!-- &gt;50 -->
      <g transform="translate(653.600038 366.30265) scale(0.08 -0.08)">
       <use xlink:href="#DejaVuSans-3e"/>
       <use xlink:href="#DejaVuSans-35" x="83.789062"/>
       <use xlink:href="#DejaVuSans-30" x="147.412109"/>
      </g>
     </g>
    </g>
    <g id="xtick_12">
     <g id="text_12">
      <!-- &gt;100 -->
      <g transform="translate(708.626553 366.30265) scale(0.08 -0.08)">
       <use xlink:href="#DejaVuSans-3e"/>
       <use xlink:href="#DejaVuSans-31" x="83.789062"/>
       <use xlink:href="#DejaVuSans-30" x="147.412109"/>
       <use xlink:href="#DejaVuSans-30" x="211.035156"/>
      </g>
     </g>
    </g>
    <g id="xtick_13">
     <g id="text_13">
      <!-- &gt;500 -->
      <g transform="translate(766.198068 366.30265) scale(0.08 -0.08)">
       <use xlink:href="#DejaVuSans-3e"/>
       <use xlink:href="#DejaVuSans-35" x="83.789062"/>
       <use xlink:href="#DejaVuSans-30" x="147.412109"/>
       <use xlink:href="#DejaVuSans-30" x="211.035156"/>
      </g>
     </g>
    </g>
    <g id="xtick_14">
     <g id="text_14">
      <!-- &gt;1k -->
      <g transform="translate(826.543333 366.30265) scale(0.08 -0.08)">
       <defs>
        <path id="DejaVuSans-6b" d="M 581 4863 
L 1159 4863 
L 1159 1991 
L 2875 3500 
L 3609 3500 
L 1753 1863 
L 3688 0 
L 2938 0 
L 1159 1709 
L 1159 0 
L 581 0 
L 581 4863 
z
" transform="scale(0.015625)"/>
       </defs>
       <use xlink:href="#DejaVuSans-3e"/>
       <use xlink:href="#DejaVuSans-31" x="83.789062"/>
       <use xlink:href="#DejaVuSans-6b" x="147.412109"/>
      </g>
     </g>
    </g>
    <g id="xtick_15">
     <g id="text_15">
      <!-- &gt;5k -->
      <g transform="translate(884.114848 366.30265) scale(0.08 -0.08)">
       <use xlink:href="#DejaVuSans-3e"/>
       <use xlink:href="#DejaVuSans-35" x="83.789062"/>
       <use xlink:href="#DejaVuSans-6b" x="147.412109"/>
      </g>
     </g>
    </g>
    <g id="xtick_16">
     <g id="text_16">
      <!-- &gt;10k+ -->
      <g transform="translate(935.789489 366.30265) scale(0.08 -0.08)">
       <defs>
        <path id="DejaVuSans-2b" d="M 2944 4013 
L 2944 2272 
L 4684 2272 
L 4684 1741 
L 2944 1741 
L 2944 0 
L 2419 0 
L 2419 1741 
L 678 1741 
L 678 2272 
L 2419 2272 
L 2419 4013 
L 2944 4013 
z
" transform="scale(0.015625)"/>
       </defs>
       <use xlink:href="#DejaVuSans-3e"/>
       <use xlink:href="#DejaVuSans-31" x="83.789062"/>
       <use xlink:href="#DejaVuSans-30" x="147.412109"/>
       <use xlink:href="#DejaVuSans-6b" x="211.035156"/>
       <use xlink:href="#DejaVuSans-2b" x="268.945312"/>
      </g>
     </g>
    </g>
    <g id="text_17">
     <!-- Sequence Duplication Level -->
     <g transform="translate(448.708437 379.564837) scale(0.1 -0.1)">
      <defs>
       <path id="DejaVuSans-53" d="M 3425 4513 
L 3425 3897 
Q 3066 4069 2747 4153 
Q 2428 4238 2131 4238 
Q 1616 4238 1336 4038 
Q 1056 3838 1056 3469 
Q 1056 3159 1242 3001 
Q 1428 2844 1947 2747 
L 2328 2669 
Q 3034 2534 3370 2195 
Q 3706 1856 3706 1288 
Q 3706 609 3251 259 
Q 2797 -91 1919 -91 
Q 1588 -91 1214 -16 
Q 841 59 441 206 
L 441 856 
Q 825 641 1194 531 
Q 1563 422 1919 422 
Q 2459 422 2753 634 
Q 3047 847 3047 1241 
Q 3047 1584 2836 1778 
Q 2625 1972 2144 2069 
L 1759 2144 
Q 1053 2284 737 2584 
Q 422 2884 422 3419 
Q 422 4038 858 4394 
Q 1294 4750 2059 4750 
Q 2388 4750 2728 4690 
Q 3069 4631 3425 4513 
z
" transform="scale(0.015625)"/>
       <path id="DejaVuSans-65" d="M 3597 1894 
L 3597 1613 
L 953 1613 
Q 991 1019 1311 708 
Q 1631 397 2203 397 
Q 2534 397 2845 478 
Q 3156 559 3463 722 
L 3463 178 
Q 3153 47 2828 -22 
Q 2503 -91 2169 -91 
Q 1331 -91 842 396 
Q 353 884 353 1716 
Q 353 2575 817 3079 
Q 1281 3584 2069 3584 
Q 2775 3584 3186 3129 
Q 3597 2675 3597 1894 
z
M 3022 2063 
Q 3016 2534 2758 2815 
Q 2500 3097 2075 3097 
Q 1594 3097 1305 2825 
Q 1016 2553 972 2059 
L 3022 2063 
z
" transform="scale(0.015625)"/>
       <path id="DejaVuSans-71" d="M 947 1747 
Q 947 1113 1208 752 
Q 1469 391 1925 391 
Q 2381 391 2643 752 
Q 2906 1113 2906 1747 
Q 2906 2381 2643 2742 
Q 2381 3103 1925 3103 
Q 1469 3103 1208 2742 
Q 947 2381 947 1747 
z
M 2906 525 
Q 2725 213 2448 61 
Q 2172 -91 1784 -91 
Q 1150 -91 751 415 
Q 353 922 353 1747 
Q 353 2572 751 3078 
Q 1150 3584 1784 3584 
Q 2172 3584 2448 3432 
Q 2725 3281 2906 2969 
L 2906 3500 
L 3481 3500 
L 3481 -1331 
L 2906 -1331 
L 2906 525 
z
" transform="scale(0.015625)"/>
       <path id="DejaVuSans-75" d="M 544 1381 
L 544 3500 
L 1119 3500 
L 1119 1403 
Q 1119 906 1312 657 
Q 1506 409 1894 409 
Q 2359 409 2629 706 
Q 2900 1003 2900 1516 
L 2900 3500 
L 3475 3500 
L 3475 0 
L 2900 0 
L 2900 538 
Q 2691 219 2414 64 
Q 2138 -91 1772 -91 
Q 1169 -91 856 284 
Q 544 659 544 1381 
z
M 1991 3584 
L 1991 3584 
z
" transform="scale(0.015625)"/>
       <path id="DejaVuSans-6e" d="M 3513 2113 
L 3513 0 
L 2938 0 
L 2938 2094 
Q 2938 2591 2744 2837 
Q 2550 3084 2163 3084 
Q 1697 3084 1428 2787 
Q 1159 2491 1159 1978 
L 1159 0 
L 581 0 
L 581 3500 
L 1159 3500 
L 1159 2956 
Q 1366 3272 1645 3428 
Q 1925 3584 2291 3584 
Q 2894 3584 3203 3211 
Q 3513 2838 3513 2113 
z
" transform="scale(0.015625)"/>
       <path id="DejaVuSans-63" d="M 3122 3366 
L 3122 2828 
Q 2878 2963 2633 3030 
Q 2388 3097 2138 3097 
Q 1578 3097 1268 2742 
Q 959 2388 959 1747 
Q 959 1106 1268 751 
Q 1578 397 2138 397 
Q 2388 397 2633 464 
Q 2878 531 3122 666 
L 3122 134 
Q 2881 22 2623 -34 
Q 2366 -91 2075 -91 
Q 1284 -91 818 406 
Q 353 903 353 1747 
Q 353 2603 823 3093 
Q 1294 3584 2113 3584 
Q 2378 3584 2631 3529 
Q 2884 3475 3122 3366 
z
" transform="scale(0.015625)"/>
       <path id="DejaVuSans-20" transform="scale(0.015625)"/>
       <path id="DejaVuSans-44" d="M 1259 4147 
L 1259 519 
L 2022 519 
Q 2988 519 3436 956 
Q 3884 1394 3884 2338 
Q 3884 3275 3436 3711 
Q 2988 4147 2022 4147 
L 1259 4147 
z
M 628 4666 
L 1925 4666 
Q 3281 4666 3915 4102 
Q 4550 3538 4550 2338 
Q 4550 1131 3912 565 
Q 3275 0 1925 0 
L 628 0 
L 628 4666 
z
" transform="scale(0.015625)"/>
       <path id="DejaVuSans-70" d="M 1159 525 
L 1159 -1331 
L 581 -1331 
L 581 3500 
L 1159 3500 
L 1159 2969 
Q 1341 3281 1617 3432 
Q 1894 3584 2278 3584 
Q 2916 3584 3314 3078 
Q 3713 2572 3713 1747 
Q 3713 922 3314 415 
Q 2916 -91 2278 -91 
Q 1894 -91 1617 61 
Q 1341 213 1159 525 
z
M 3116 1747 
Q 3116 2381 2855 2742 
Q 2594 3103 2138 3103 
Q 1681 3103 1420 2742 
Q 1159 2381 1159 1747 
Q 1159 1113 1420 752 
Q 1681 391 2138 391 
Q 2594 391 2855 752 
Q 3116 1113 3116 1747 
z
" transform="scale(0.015625)"/>
       <path id="DejaVuSans-6c" d="M 603 4863 
L 1178 4863 
L 1178 0 
L 603 0 
L 603 4863 
z
" transform="scale(0.015625)"/>
       <path id="DejaVuSans-69" d="M 603 3500 
L 1178 3500 
L 1178 0 
L 603 0 
L 603 3500 
z
M 603 4863 
L 1178 4863 
L 1178 4134 
L 603 4134 
L 603 4863 
z
" transform="scale(0.015625)"/>
       <path id="DejaVuSans-61" d="M 2194 1759 
Q 1497 1759 1228 1600 
Q 959 1441 959 1056 
Q 959 750 1161 570 
Q 1363 391 1709 391 
Q 2188 391 2477 730 
Q 2766 1069 2766 1631 
L 2766 1759 
L 2194 1759 
z
M 3341 1997 
L 3341 0 
L 2766 0 
L 2766 531 
Q 2569 213 2275 61 
Q 1981 -91 1556 -91 
Q 1019 -91 701 211 
Q 384 513 384 1019 
Q 384 1609 779 1909 
Q 1175 2209 1959 2209 
L 2766 2209 
L 2766 2266 
Q 2766 2663 2505 2880 
Q 2244 3097 1772 3097 
Q 1472 3097 1187 3025 
Q 903 2953 641 2809 
L 641 3341 
Q 956 3463 1253 3523 
Q 1550 3584 1831 3584 
Q 2591 3584 2966 3190 
Q 3341 2797 3341 1997 
z
" transform="scale(0.015625)"/>
       <path id="DejaVuSans-74" d="M 1172 4494 
L 1172 3500 
L 2356 3500 
L 2356 3053 
L 1172 3053 
L 1172 1153 
Q 1172 725 1289 603 
Q 1406 481 1766 481 
L 2356 481 
L 2356 0 
L 1766 0 
Q 1100 0 847 248 
Q 594 497 594 1153 
L 594 3053 
L 172 3053 
L 172 3500 
L 594 3500 
L 594 4494 
L 1172 4494 
z
" transform="scale(0.015625)"/>
       <path id="DejaVuSans-6f" d="M 1959 3097 
Q 1497 3097 1228 2736 
Q 959 2375 959 1747 
Q 959 1119 1226 758 
Q 1494 397 1959 397 
Q 2419 397 2687 759 
Q 2956 1122 2956 1747 
Q 2956 2369 2687 2733 
Q 2419 3097 1959 3097 
z
M 1959 3584 
Q 2709 3584 3137 3096 
Q 3566 2609 3566 1747 
Q 3566 888 3137 398 
Q 2709 -91 1959 -91 
Q 1206 -91 779 398 
Q 353 888 353 1747 
Q 353 2609 779 3096 
Q 1206 3584 1959 3584 
z
" transform="scale(0.015625)"/>
       <path id="DejaVuSans-4c" d="M 628 4666 
L 1259 4666 
L 1259 531 
L 3531 531 
L 3531 0 
L 628 0 
L 628 4666 
z
" transform="scale(0.015625)"/>
       <path id="DejaVuSans-76" d="M 191 3500 
L 800 3500 
L 1894 563 
L 2988 3500 
L 3597 3500 
L 2284 0 
L 1503 0 
L 191 3500 
z
" transform="scale(0.015625)"/>
      </defs>
      <use xlink:href="#DejaVuSans-53"/>
      <use xlink:href="#DejaVuSans-65" x="63.476562"/>
      <use xlink:href="#DejaVuSans-71" x="125"/>
      <use xlink:href="#DejaVuSans-75" x="188.476562"/>
      <use xlink:href="#DejaVuSans-65" x="251.855469"/>
      <use xlink:href="#DejaVuSans-6e" x="313.378906"/>
      <use xlink:href="#DejaVuSans-63" x="376.757812"/>
      <use xlink:href="#DejaVuSans-65" x="431.738281"/>
      <use xlink:href="#DejaVuSans-20" x="493.261719"/>
      <use xlink:href="#DejaVuSans-44" x="525.048828"/>
      <use xlink:href="#DejaVuSans-75" x="602.050781"/>
      <use xlink:href="#DejaVuSans-70" x="665.429688"/>
      <use xlink:href="#DejaVuSans-6c" x="728.90625"/>
      <use xlink:href="#DejaVuSans-69" x="756.689453"/>
      <use xlink:href="#DejaVuSans-63" x="784.472656"/>
      <use xlink:href="#DejaVuSans-61" x="839.453125"/>
      <use xlink:href="#DejaVuSans-74" x="900.732422"/>
      <use xlink:href="#DejaVuSans-69" x="939.941406"/>
      <use xlink:href="#DejaVuSans-6f" x="967.724609"/>
      <use xlink:href="#DejaVuSans-6e" x="1028.90625"/>
      <use xlink:href="#DejaVuSans-20" x="1092.285156"/>
      <use xlink:href="#DejaVuSans-4c" x="1124.072266"/>
      <use xlink:href="#DejaVuSans-65" x="1178.035156"/>
      <use xlink:href="#DejaVuSans-76" x="1239.558594"/>
      <use xlink:href="#DejaVuSans-65" x="1298.738281"/>
      <use xlink:href="#DejaVuSans-6c" x="1360.261719"/>
     </g>
    </g>
   </g>
   <g id="matplotlib.axis_2">
    <g id="ytick_1">
     <g id="line2d_1">
      <path d="M 43.148125 353.2239 
L 993.078125 353.2239 
" clip-path="url(#p74b9acee21)" style="fill: none; stroke: #dedede; stroke-linecap: square"/>
     </g>
     <g id="text_18">
      <!-- 0 -->
      <g transform="translate(31.058125 356.263275) scale(0.08 -0.08)">
       <use xlink:href="#DejaVuSans-30"/>
      </g>
     </g>
    </g>
    <g id="ytick_2">
     <g id="line2d_2">
      <path d="M 43.148125 289.6303 
L 993.078125 289.6303 
" clip-path="url(#p74b9acee21)" style="fill: none; stroke: #dedede; stroke-linecap: square"/>
     </g>
     <g id="text_19">
      <!-- 20 -->
      <g transform="translate(25.968125 292.669675) scale(0.08 -0.08)">
       <use xlink:href="#DejaVuSans-32"/>
       <use xlink:href="#DejaVuSans-30" x="63.623047"/>
      </g>
     </g>
    </g>
    <g id="ytick_3">
     <g id="line2d_3">
      <path d="M 43.148125 226.0367 
L 993.078125 226.0367 
" clip-path="url(#p74b9acee21)" style="fill: none; stroke: #dedede; stroke-linecap: square"/>
     </g>
     <g id="text_20">
      <!-- 40 -->
      <g transform="translate(25.968125 229.076075) scale(0.08 -0.08)">
       <use xlink:href="#DejaVuSans-34"/>
       <use xlink:href="#DejaVuSans-30" x="63.623047"/>
      </g>
     </g>
    </g>
    <g id="ytick_4">
     <g id="line2d_4">
      <path d="M 43.148125 162.4431 
L 993.078125 162.4431 
" clip-path="url(#p74b9acee21)" style="fill: none; stroke: #dedede; stroke-linecap: square"/>
     </g>
     <g id="text_21">
      <!-- 60 -->
      <g transform="translate(25.968125 165.482475) scale(0.08 -0.08)">
       <use xlink:href="#DejaVuSans-36"/>
       <use xlink:href="#DejaVuSans-30" x="63.623047"/>
      </g>
     </g>
    </g>
    <g id="ytick_5">
     <g id="line2d_5">
      <path d="M 43.148125 98.8495 
L 993.078125 98.8495 
" clip-path="url(#p74b9acee21)" style="fill: none; stroke: #dedede; stroke-linecap: square"/>
     </g>
     <g id="text_22">
      <!-- 80 -->
      <g transform="translate(25.968125 101.888875) scale(0.08 -0.08)">
       <use xlink:href="#DejaVuSans-38"/>
       <use xlink:href="#DejaVuSans-30" x="63.623047"/>
      </g>
     </g>
    </g>
    <g id="ytick_6">
     <g id="line2d_6">
      <path d="M 43.148125 35.2559 
L 993.078125 35.2559 
" clip-path="url(#p74b9acee21)" style="fill: none; stroke: #dedede; stroke-linecap: square"/>
     </g>
     <g id="text_23">
      <!-- 100 -->
      <g transform="translate(20.878125 38.295275) scale(0.08 -0.08)">
       <use xlink:href="#DejaVuSans-31"/>
       <use xlink:href="#DejaVuSans-30" x="63.623047"/>
       <use xlink:href="#DejaVuSans-30" x="127.246094"/>
      </g>
     </g>
    </g>
    <g id="text_24">
     <!-- % of Library -->
     <g transform="translate(14.798437 224.471931) rotate(-90) scale(0.1 -0.1)">
      <defs>
       <path id="DejaVuSans-25" d="M 4653 2053 
Q 4381 2053 4226 1822 
Q 4072 1591 4072 1178 
Q 4072 772 4226 539 
Q 4381 306 4653 306 
Q 4919 306 5073 539 
Q 5228 772 5228 1178 
Q 5228 1588 5073 1820 
Q 4919 2053 4653 2053 
z
M 4653 2450 
Q 5147 2450 5437 2106 
Q 5728 1763 5728 1178 
Q 5728 594 5436 251 
Q 5144 -91 4653 -91 
Q 4153 -91 3862 251 
Q 3572 594 3572 1178 
Q 3572 1766 3864 2108 
Q 4156 2450 4653 2450 
z
M 1428 4353 
Q 1159 4353 1004 4120 
Q 850 3888 850 3481 
Q 850 3069 1003 2837 
Q 1156 2606 1428 2606 
Q 1700 2606 1854 2837 
Q 2009 3069 2009 3481 
Q 2009 3884 1853 4118 
Q 1697 4353 1428 4353 
z
M 4250 4750 
L 4750 4750 
L 1831 -91 
L 1331 -91 
L 4250 4750 
z
M 1428 4750 
Q 1922 4750 2215 4408 
Q 2509 4066 2509 3481 
Q 2509 2891 2217 2550 
Q 1925 2209 1428 2209 
Q 931 2209 642 2551 
Q 353 2894 353 3481 
Q 353 4063 643 4406 
Q 934 4750 1428 4750 
z
" transform="scale(0.015625)"/>
       <path id="DejaVuSans-66" d="M 2375 4863 
L 2375 4384 
L 1825 4384 
Q 1516 4384 1395 4259 
Q 1275 4134 1275 3809 
L 1275 3500 
L 2222 3500 
L 2222 3053 
L 1275 3053 
L 1275 0 
L 697 0 
L 697 3053 
L 147 3053 
L 147 3500 
L 697 3500 
L 697 3744 
Q 697 4328 969 4595 
Q 1241 4863 1831 4863 
L 2375 4863 
z
" transform="scale(0.015625)"/>
       <path id="DejaVuSans-62" d="M 3116 1747 
Q 3116 2381 2855 2742 
Q 2594 3103 2138 3103 
Q 1681 3103 1420 2742 
Q 1159 2381 1159 1747 
Q 1159 1113 1420 752 
Q 1681 391 2138 391 
Q 2594 391 2855 752 
Q 3116 1113 3116 1747 
z
M 1159 2969 
Q 1341 3281 1617 3432 
Q 1894 3584 2278 3584 
Q 2916 3584 3314 3078 
Q 3713 2572 3713 1747 
Q 3713 922 3314 415 
Q 2916 -91 2278 -91 
Q 1894 -91 1617 61 
Q 1341 213 1159 525 
L 1159 0 
L 581 0 
L 581 4863 
L 1159 4863 
L 1159 2969 
z
" transform="scale(0.015625)"/>
       <path id="DejaVuSans-72" d="M 2631 2963 
Q 2534 3019 2420 3045 
Q 2306 3072 2169 3072 
Q 1681 3072 1420 2755 
Q 1159 2438 1159 1844 
L 1159 0 
L 581 0 
L 581 3500 
L 1159 3500 
L 1159 2956 
Q 1341 3275 1631 3429 
Q 1922 3584 2338 3584 
Q 2397 3584 2469 3576 
Q 2541 3569 2628 3553 
L 2631 2963 
z
" transform="scale(0.015625)"/>
       <path id="DejaVuSans-79" d="M 2059 -325 
Q 1816 -950 1584 -1140 
Q 1353 -1331 966 -1331 
L 506 -1331 
L 506 -850 
L 844 -850 
Q 1081 -850 1212 -737 
Q 1344 -625 1503 -206 
L 1606 56 
L 191 3500 
L 800 3500 
L 1894 763 
L 2988 3500 
L 3597 3500 
L 2059 -325 
z
" transform="scale(0.015625)"/>
      </defs>
      <use xlink:href="#DejaVuSans-25"/>
      <use xlink:href="#DejaVuSans-20" x="95.019531"/>
      <use xlink:href="#DejaVuSans-6f" x="126.806641"/>
      <use xlink:href="#DejaVuSans-66" x="187.988281"/>
      <use xlink:href="#DejaVuSans-20" x="223.193359"/>
      <use xlink:href="#DejaVuSans-4c" x="254.980469"/>
      <use xlink:href="#DejaVuSans-69" x="310.693359"/>
      <use xlink:href="#DejaVuSans-62" x="338.476562"/>
      <use xlink:href="#DejaVuSans-72" x="401.953125"/>
      <use xlink:href="#DejaVuSans-61" x="443.066406"/>
      <use xlink:href="#DejaVuSans-72" x="504.345703"/>
      <use xlink:href="#DejaVuSans-79" x="545.458984"/>
     </g>
    </g>
   </g>
   <g id="line2d_7">
    <path d="M 86.326761 286.230724 
L 143.898277 321.124365 
L 201.469792 331.73763 
L 259.041307 337.744054 
L 316.612822 341.738049 
L 374.184337 344.096674 
L 431.755852 345.584115 
L 489.327367 346.767026 
L 546.898883 347.593222 
L 604.470398 292.274138 
L 662.041913 336.324696 
L 719.613428 321.772925 
L 777.184943 343.732883 
L 834.756458 342.593602 
L 892.327973 350.915521 
L 949.899489 343.384776 
" clip-path="url(#p74b9acee21)" style="fill: none; stroke: #d9534f; stroke-linecap: square"/>
   </g>
   <g id="line2d_8">
    <path d="M 86.326761 280.0201 
L 143.898277 323.913353 
L 201.469792 332.267464 
L 259.041307 338.199426 
L 316.612822 341.594096 
L 374.184337 343.754516 
L 431.755852 345.435918 
L 489.327367 346.661332 
L 546.898883 347.752581 
L 604.470398 294.517793 
L 662.041913 336.865994 
L 719.613428 322.946027 
L 777.184943 344.086373 
L 834.756458 339.900933 
L 892.327973 349.197965 
L 949.899489 346.500529 
" clip-path="url(#p74b9acee21)" style="fill: none; stroke: #d9534f; stroke-linecap: square"/>
   </g>
   <g id="line2d_9">
    <path d="M 86.326761 291.745918 
L 143.898277 323.526915 
L 201.469792 333.61472 
L 259.041307 338.65353 
L 316.612822 341.402095 
L 374.184337 343.47296 
L 431.755852 345.265195 
L 489.327367 346.332862 
L 546.898883 347.33371 
L 604.470398 285.311808 
L 662.041913 336.33634 
L 719.613428 322.370383 
L 777.184943 343.832312 
L 834.756458 343.172528 
L 892.327973 351.119293 
L 949.899489 340.123832 
" clip-path="url(#p74b9acee21)" style="fill: none; stroke: #d9534f; stroke-linecap: square"/>
   </g>
   <g id="line2d_10">
    <path d="M 86.326761 262.942311 
L 143.898277 326.289561 
L 201.469792 334.109274 
L 259.041307 339.105981 
L 316.612822 342.094301 
L 374.184337 344.342944 
L 431.755852 345.4471 
L 489.327367 346.73696 
L 546.898883 347.810508 
L 604.470398 297.191615 
L 662.041913 339.267068 
L 719.613428 326.096639 
L 777.184943 345.794033 
L 834.756458 341.567889 
L 892.327973 348.966122 
L 949.899489 345.852094 
" clip-path="url(#p74b9acee21)" style="fill: none; stroke: #d9534f; stroke-linecap: square"/>
   </g>
   <g id="line2d_11">
    <path d="M 86.326761 294.091634 
L 143.898277 323.554992 
L 201.469792 333.234456 
L 259.041307 338.601839 
L 316.612822 341.868319 
L 374.184337 343.838627 
L 431.755852 345.752861 
L 489.327367 346.811957 
L 546.898883 347.604227 
L 604.470398 287.908109 
L 662.041913 336.150413 
L 719.613428 321.988747 
L 777.184943 343.581305 
L 834.756458 341.493507 
L 892.327973 350.442772 
L 949.899489 336.690637 
" clip-path="url(#p74b9acee21)" style="fill: none; stroke: #d9534f; stroke-linecap: square"/>
   </g>
   <g id="line2d_12">
    <path d="M 86.326761 276.89293 
L 143.898277 325.43247 
L 201.469792 333.591737 
L 259.041307 338.578625 
L 316.612822 341.985198 
L 374.184337 343.751409 
L 431.755852 346.02458 
L 489.327367 346.928825 
L 546.898883 347.546943 
L 604.470398 294.465896 
L 662.041913 338.067326 
L 719.613428 325.047068 
L 777.184943 344.812595 
L 834.756458 339.535891 
L 892.327973 347.797276 
L 949.899489 343.155631 
" clip-path="url(#p74b9acee21)" style="fill: none; stroke: #d9534f; stroke-linecap: square"/>
   </g>
   <g id="line2d_13">
    <path d="M 86.326761 296.897382 
L 143.898277 324.177029 
L 201.469792 333.210758 
L 259.041307 338.409549 
L 316.612822 341.895483 
L 374.184337 343.971865 
L 431.755852 345.361152 
L 489.327367 346.554932 
L 546.898883 347.525009 
L 604.470398 287.730765 
L 662.041913 335.747031 
L 719.613428 321.883426 
L 777.184943 342.966003 
L 834.756458 339.954636 
L 892.327973 350.56853 
L 949.899489 336.760849 
" clip-path="url(#p74b9acee21)" style="fill: none; stroke: #d9534f; stroke-linecap: square"/>
   </g>
   <g id="line2d_14">
    <path d="M 86.326761 282.697448 
L 143.898277 327.543414 
L 201.469792 334.402807 
L 259.041307 338.664352 
L 316.612822 341.880723 
L 374.184337 343.968112 
L 431.755852 345.660388 
L 489.327367 346.450086 
L 546.898883 347.828309 
L 604.470398 292.568321 
L 662.041913 337.538834 
L 719.613428 323.799478 
L 777.184943 343.47805 
L 834.756458 338.050924 
L 892.327973 347.750972 
L 949.899489 341.33218 
" clip-path="url(#p74b9acee21)" style="fill: none; stroke: #d9534f; stroke-linecap: square"/>
   </g>
   <g id="line2d_15">
    <path d="M 86.326761 297.236713 
L 143.898277 324.329246 
L 201.469792 333.90425 
L 259.041307 338.97545 
L 316.612822 342.169184 
L 374.184337 344.245335 
L 431.755852 345.628194 
L 489.327367 346.525535 
L 546.898883 347.447522 
L 604.470398 286.668419 
L 662.041913 335.069289 
L 719.613428 320.877505 
L 777.184943 343.523346 
L 834.756458 340.582077 
L 892.327973 350.638419 
L 949.899489 335.793915 
" clip-path="url(#p74b9acee21)" style="fill: none; stroke: #d9534f; stroke-linecap: square"/>
   </g>
   <g id="line2d_16">
    <path d="M 86.326761 286.340408 
L 143.898277 327.37726 
L 201.469792 334.379005 
L 259.041307 339.11595 
L 316.612822 342.302783 
L 374.184337 343.902144 
L 431.755852 345.482077 
L 489.327367 346.477299 
L 546.898883 347.429209 
L 604.470398 290.328829 
L 662.041913 337.096739 
L 719.613428 321.71155 
L 777.184943 343.586154 
L 834.756458 338.935455 
L 892.327973 347.909311 
L 949.899489 341.240226 
" clip-path="url(#p74b9acee21)" style="fill: none; stroke: #d9534f; stroke-linecap: square"/>
   </g>
   <g id="line2d_17">
    <path d="M 86.326761 299.783292 
L 143.898277 326.321557 
L 201.469792 334.793376 
L 259.041307 339.887231 
L 316.612822 343.06391 
L 374.184337 344.771436 
L 431.755852 346.094921 
L 489.327367 347.17222 
L 546.898883 347.862239 
L 604.470398 287.430036 
L 662.041913 334.529848 
L 719.613428 319.19212 
L 777.184943 342.282118 
L 834.756458 338.063794 
L 892.327973 349.502481 
L 949.899489 332.863821 
" clip-path="url(#p74b9acee21)" style="fill: none; stroke: #d9534f; stroke-linecap: square"/>
   </g>
   <g id="line2d_18">
    <path d="M 86.326761 283.053158 
L 143.898277 329.543732 
L 201.469792 336.313526 
L 259.041307 340.443697 
L 316.612822 343.260938 
L 374.184337 344.830904 
L 431.755852 346.312606 
L 489.327367 347.367396 
L 546.898883 347.881283 
L 604.470398 292.030443 
L 662.041913 336.707179 
L 719.613428 322.557974 
L 777.184943 342.64893 
L 834.756458 336.346389 
L 892.327973 346.449927 
L 949.899489 337.866317 
" clip-path="url(#p74b9acee21)" style="fill: none; stroke: #d9534f; stroke-linecap: square"/>
   </g>
   <g id="line2d_19">
    <path d="M 86.326761 293.450584 
L 143.898277 323.541303 
L 201.469792 333.4415 
L 259.041307 338.698666 
L 316.612822 342.092183 
L 374.184337 344.006713 
L 431.755852 345.641905 
L 489.327367 346.882118 
L 546.898883 347.638258 
L 604.470398 289.314221 
L 662.041913 335.927141 
L 719.613428 322.026601 
L 777.184943 343.500627 
L 834.756458 340.63538 
L 892.327973 350.738304 
L 949.899489 336.078896 
" clip-path="url(#p74b9acee21)" style="fill: none; stroke: #d9534f; stroke-linecap: square"/>
   </g>
   <g id="line2d_20">
    <path d="M 86.326761 274.671019 
L 143.898277 327.546486 
L 201.469792 334.678274 
L 259.041307 339.266472 
L 316.612822 342.115712 
L 374.184337 344.312514 
L 431.755852 345.658892 
L 489.327367 347.058846 
L 546.898883 347.97535 
L 604.470398 295.590804 
L 662.041913 338.086897 
L 719.613428 324.657667 
L 777.184943 344.19874 
L 834.756458 338.733812 
L 892.327973 348.063404 
L 949.899489 340.999512 
" clip-path="url(#p74b9acee21)" style="fill: none; stroke: #d9534f; stroke-linecap: square"/>
   </g>
   <g id="line2d_21">
    <path d="M 86.326761 295.966564 
L 143.898277 324.358076 
L 201.469792 333.314309 
L 259.041307 339.262417 
L 316.612822 342.124656 
L 374.184337 344.237851 
L 431.755852 345.631116 
L 489.327367 346.863549 
L 546.898883 347.763901 
L 604.470398 289.816396 
L 662.041913 335.741263 
L 719.613428 320.805734 
L 777.184943 342.679345 
L 834.756458 338.987007 
L 892.327973 350.344798 
L 949.899489 335.717419 
" clip-path="url(#p74b9acee21)" style="fill: none; stroke: #d9534f; stroke-linecap: square"/>
   </g>
   <g id="line2d_22">
    <path d="M 86.326761 283.720344 
L 143.898277 327.490961 
L 201.469792 334.67114 
L 259.041307 339.295127 
L 316.612822 342.172397 
L 374.184337 344.049245 
L 431.755852 345.877105 
L 489.327367 346.840108 
L 546.898883 347.710547 
L 604.470398 293.767924 
L 662.041913 337.21869 
L 719.613428 322.807133 
L 777.184943 342.966611 
L 834.756458 338.065575 
L 892.327973 347.180346 
L 949.899489 339.781145 
" clip-path="url(#p74b9acee21)" style="fill: none; stroke: #d9534f; stroke-linecap: square"/>
   </g>
   <g id="line2d_23">
    <path d="M 86.326761 290.651636 
L 143.898277 323.16798 
L 201.469792 333.152694 
L 259.041307 338.695642 
L 316.612822 341.791018 
L 374.184337 344.264024 
L 431.755852 345.843972 
L 489.327367 346.869616 
L 546.898883 347.587296 
L 604.470398 291.404587 
L 662.041913 336.80128 
L 719.613428 322.828975 
L 777.184943 343.494993 
L 834.756458 340.905686 
L 892.327973 350.115665 
L 949.899489 336.039335 
" clip-path="url(#p74b9acee21)" style="fill: none; stroke: #d9534f; stroke-linecap: square"/>
   </g>
   <g id="line2d_24">
    <path d="M 86.326761 278.685968 
L 143.898277 325.628979 
L 201.469792 333.725495 
L 259.041307 338.791375 
L 316.612822 341.715902 
L 374.184337 343.705778 
L 431.755852 345.617717 
L 489.327367 346.525269 
L 546.898883 347.614335 
L 604.470398 296.291279 
L 662.041913 338.132949 
L 719.613428 324.374404 
L 777.184943 344.684572 
L 834.756458 338.336644 
L 892.327973 347.844212 
L 949.899489 341.939522 
" clip-path="url(#p74b9acee21)" style="fill: none; stroke: #d9534f; stroke-linecap: square"/>
   </g>
   <g id="line2d_25">
    <path d="M 86.326761 293.574756 
L 143.898277 323.574853 
L 201.469792 333.685702 
L 259.041307 338.815112 
L 316.612822 341.798653 
L 374.184337 343.997967 
L 431.755852 345.597817 
L 489.327367 346.762249 
L 546.898883 347.524829 
L 604.470398 286.960708 
L 662.041913 336.467331 
L 719.613428 322.581887 
L 777.184943 343.645859 
L 834.756458 341.537702 
L 892.327973 350.730449 
L 949.899489 336.358526 
" clip-path="url(#p74b9acee21)" style="fill: none; stroke: #d9534f; stroke-linecap: square"/>
   </g>
   <g id="line2d_26">
    <path d="M 86.326761 277.571635 
L 143.898277 325.085329 
L 201.469792 333.639337 
L 259.041307 338.467106 
L 316.612822 341.405698 
L 374.184337 344.092669 
L 431.755852 345.572121 
L 489.327367 346.602973 
L 546.898883 347.609103 
L 604.470398 294.641443 
L 662.041913 338.530555 
L 719.613428 325.21101 
L 777.184943 344.828476 
L 834.756458 340.254385 
L 892.327973 348.014681 
L 949.899489 342.087878 
" clip-path="url(#p74b9acee21)" style="fill: none; stroke: #d9534f; stroke-linecap: square"/>
   </g>
   <g id="line2d_27">
    <path d="M 86.326761 290.03775 
L 143.898277 323.550224 
L 201.469792 332.974595 
L 259.041307 338.27466 
L 316.612822 341.436415 
L 374.184337 344.139032 
L 431.755852 345.781188 
L 489.327367 346.548242 
L 546.898883 347.755046 
L 604.470398 289.995792 
L 662.041913 337.240884 
L 719.613428 323.42328 
L 777.184943 343.726409 
L 834.756458 341.965103 
L 892.327973 350.797295 
L 949.899489 335.968484 
" clip-path="url(#p74b9acee21)" style="fill: none; stroke: #d9534f; stroke-linecap: square"/>
   </g>
   <g id="line2d_28">
    <path d="M 86.326761 281.164069 
L 143.898277 325.357677 
L 201.469792 333.04336 
L 259.041307 337.823705 
L 316.612822 341.147968 
L 374.184337 343.969896 
L 431.755852 345.351738 
L 489.327367 346.820882 
L 546.898883 347.439428 
L 604.470398 294.725881 
L 662.041913 338.080499 
L 719.613428 324.415142 
L 777.184943 344.889127 
L 834.756458 339.709463 
L 892.327973 347.769707 
L 949.899489 341.905858 
" clip-path="url(#p74b9acee21)" style="fill: none; stroke: #d9534f; stroke-linecap: square"/>
   </g>
   <g id="line2d_29">
    <path d="M 86.326761 291.575045 
L 143.898277 321.666436 
L 201.469792 331.923539 
L 259.041307 337.641799 
L 316.612822 341.144951 
L 374.184337 343.399112 
L 431.755852 345.317471 
L 489.327367 346.084871 
L 546.898883 346.911088 
L 604.470398 286.955941 
L 662.041913 336.635288 
L 719.613428 323.333508 
L 777.184943 344.992223 
L 834.756458 344.10879 
L 892.327973 351.642291 
L 949.899489 340.282047 
" clip-path="url(#p74b9acee21)" style="fill: none; stroke: #d9534f; stroke-linecap: square"/>
   </g>
   <g id="line2d_30">
    <path d="M 86.326761 278.349325 
L 143.898277 324.824748 
L 201.469792 332.991868 
L 259.041307 337.840143 
L 316.612822 340.934277 
L 374.184337 343.28061 
L 431.755852 344.881364 
L 489.327367 346.027873 
L 546.898883 347.192084 
L 604.470398 292.640092 
L 662.041913 337.732281 
L 719.613428 325.199348 
L 777.184943 345.799929 
L 834.756458 341.488985 
L 892.327973 348.791399 
L 949.899489 345.640076 
" clip-path="url(#p74b9acee21)" style="fill: none; stroke: #d9534f; stroke-linecap: square"/>
   </g>
   <g id="line2d_31">
    <path d="M 86.326761 296.415877 
L 143.898277 325.101122 
L 201.469792 334.32969 
L 259.041307 339.003423 
L 316.612822 342.071179 
L 374.184337 343.832874 
L 431.755852 345.047219 
L 489.327367 346.340134 
L 546.898883 347.354143 
L 604.470398 281.282011 
L 662.041913 334.201085 
L 719.613428 322.257029 
L 777.184943 344.142209 
L 834.756458 342.1614 
L 892.327973 351.219117 
L 949.899489 338.855888 
" clip-path="url(#p74b9acee21)" style="fill: none; stroke: #d9534f; stroke-linecap: square"/>
   </g>
   <g id="line2d_32">
    <path d="M 86.326761 284.220498 
L 143.898277 328.239065 
L 201.469792 335.086125 
L 259.041307 339.255879 
L 316.612822 342.067621 
L 374.184337 343.655966 
L 431.755852 345.309996 
L 489.327367 346.460746 
L 546.898883 347.159626 
L 604.470398 285.178497 
L 662.041913 336.451182 
L 719.613428 324.195254 
L 777.184943 344.661598 
L 834.756458 340.145324 
L 892.327973 348.717926 
L 949.899489 342.809098 
" clip-path="url(#p74b9acee21)" style="fill: none; stroke: #d9534f; stroke-linecap: square"/>
   </g>
   <g id="line2d_33">
    <path d="M 86.326761 296.832608 
L 143.898277 325.460757 
L 201.469792 334.203659 
L 259.041307 338.952494 
L 316.612822 341.812832 
L 374.184337 343.883483 
L 431.755852 345.528715 
L 489.327367 346.387104 
L 546.898883 347.281075 
L 604.470398 283.225017 
L 662.041913 334.652821 
L 719.613428 321.5571 
L 777.184943 343.226019 
L 834.756458 340.792397 
L 892.327973 351.084614 
L 949.899489 338.733705 
" clip-path="url(#p74b9acee21)" style="fill: none; stroke: #d9534f; stroke-linecap: square"/>
   </g>
   <g id="line2d_34">
    <path d="M 86.326761 279.64136 
L 143.898277 328.296757 
L 201.469792 335.485103 
L 259.041307 339.184388 
L 316.612822 341.936421 
L 374.184337 343.983309 
L 431.755852 345.30271 
L 489.327367 346.35949 
L 546.898883 347.449875 
L 604.470398 288.450381 
L 662.041913 337.427768 
L 719.613428 324.284733 
L 777.184943 344.170966 
L 834.756458 339.622211 
L 892.327973 348.896211 
L 949.899489 343.122717 
" clip-path="url(#p74b9acee21)" style="fill: none; stroke: #d9534f; stroke-linecap: square"/>
   </g>
   <g id="line2d_35">
    <path d="M 86.326761 289.633715 
L 143.898277 322.368504 
L 201.469792 332.267391 
L 259.041307 337.683957 
L 316.612822 341.752179 
L 374.184337 344.013508 
L 431.755852 345.504443 
L 489.327367 346.762742 
L 546.898883 347.687567 
L 604.470398 290.789797 
L 662.041913 336.635137 
L 719.613428 322.395481 
L 777.184943 343.596053 
L 834.756458 342.315189 
L 892.327973 350.894213 
L 949.899489 339.314523 
" clip-path="url(#p74b9acee21)" style="fill: none; stroke: #d9534f; stroke-linecap: square"/>
   </g>
   <g id="line2d_36">
    <path d="M 86.326761 281.340997 
L 143.898277 325.299096 
L 201.469792 332.902296 
L 259.041307 338.124879 
L 316.612822 341.367285 
L 374.184337 343.315249 
L 431.755852 345.39173 
L 489.327367 346.652162 
L 546.898883 347.629932 
L 604.470398 293.731768 
L 662.041913 337.544312 
L 719.613428 323.539861 
L 777.184943 344.630601 
L 834.756458 339.274525 
L 892.327973 348.644541 
L 949.899489 344.225168 
" clip-path="url(#p74b9acee21)" style="fill: none; stroke: #d9534f; stroke-linecap: square"/>
   </g>
   <g id="line2d_37">
    <path d="M 86.326761 294.73857 
L 143.898277 324.156773 
L 201.469792 333.883867 
L 259.041307 339.291783 
L 316.612822 342.069408 
L 374.184337 344.22202 
L 431.755852 345.98373 
L 489.327367 346.956601 
L 546.898883 348.027873 
L 604.470398 292.247504 
L 662.041913 336.950424 
L 719.613428 322.36167 
L 777.184943 343.263327 
L 834.756458 338.423085 
L 892.327973 350.163086 
L 949.899489 330.87468 
" clip-path="url(#p74b9acee21)" style="fill: none; stroke: #d9534f; stroke-linecap: square"/>
   </g>
   <g id="line2d_38">
    <path d="M 86.326761 276.800325 
L 143.898277 326.549297 
L 201.469792 334.982248 
L 259.041307 339.694395 
L 316.612822 342.522098 
L 374.184337 344.631995 
L 431.755852 345.790581 
L 489.327367 347.204725 
L 546.898883 348.199208 
L 604.470398 299.200607 
L 662.041913 338.518479 
L 719.613428 324.693915 
L 777.184943 343.742674 
L 834.756458 337.199212 
L 892.327973 346.748896 
L 949.899489 337.135745 
" clip-path="url(#p74b9acee21)" style="fill: none; stroke: #d9534f; stroke-linecap: square"/>
   </g>
   <g id="line2d_39">
    <path d="M 86.326761 294.320857 
L 143.898277 324.826743 
L 201.469792 334.085335 
L 259.041307 339.052393 
L 316.612822 342.283875 
L 374.184337 344.031611 
L 431.755852 345.719004 
L 489.327367 346.629515 
L 546.898883 347.581329 
L 604.470398 285.031893 
L 662.041913 335.068201 
L 719.613428 321.577335 
L 777.184943 343.612163 
L 834.756458 341.117363 
L 892.327973 350.954923 
L 949.899489 337.72186 
" clip-path="url(#p74b9acee21)" style="fill: none; stroke: #d9534f; stroke-linecap: square"/>
   </g>
   <g id="line2d_40">
    <path d="M 86.326761 281.956481 
L 143.898277 327.802832 
L 201.469792 335.265843 
L 259.041307 338.922278 
L 316.612822 341.865702 
L 374.184337 344.148026 
L 431.755852 345.664103 
L 489.327367 346.584687 
L 546.898883 347.444346 
L 604.470398 289.532121 
L 662.041913 337.260369 
L 719.613428 323.057882 
L 777.184943 344.168834 
L 834.756458 338.698979 
L 892.327973 348.767619 
L 949.899489 342.474299 
" clip-path="url(#p74b9acee21)" style="fill: none; stroke: #d9534f; stroke-linecap: square"/>
   </g>
   <g id="line2d_41">
    <path d="M 86.326761 292.823544 
L 143.898277 323.628508 
L 201.469792 333.25448 
L 259.041307 338.673022 
L 316.612822 341.751958 
L 374.184337 344.000308 
L 431.755852 345.190086 
L 489.327367 346.231076 
L 546.898883 347.46124 
L 604.470398 285.579395 
L 662.041913 336.233484 
L 719.613428 322.90543 
L 777.184943 343.921638 
L 834.756458 342.721878 
L 892.327973 351.027975 
L 949.899489 338.210376 
" clip-path="url(#p74b9acee21)" style="fill: none; stroke: #d9534f; stroke-linecap: square"/>
   </g>
   <g id="line2d_42">
    <path d="M 86.326761 277.562765 
L 143.898277 326.657793 
L 201.469792 334.383902 
L 259.041307 338.696311 
L 316.612822 341.626459 
L 374.184337 344.05776 
L 431.755852 345.340075 
L 489.327367 346.433212 
L 546.898883 347.339126 
L 604.470398 291.493018 
L 662.041913 338.063609 
L 719.613428 324.794196 
L 777.184943 345.114101 
L 834.756458 340.453348 
L 892.327973 348.74469 
L 949.899489 342.854036 
" clip-path="url(#p74b9acee21)" style="fill: none; stroke: #d9534f; stroke-linecap: square"/>
   </g>
   <g id="line2d_43">
    <path d="M 86.326761 295.970149 
L 143.898277 324.508008 
L 201.469792 333.989914 
L 259.041307 339.381962 
L 316.612822 342.731824 
L 374.184337 344.854241 
L 431.755852 345.938561 
L 489.327367 347.029013 
L 546.898883 347.88473 
L 604.470398 291.847697 
L 662.041913 336.033705 
L 719.613428 320.561322 
L 777.184943 342.40255 
L 834.756458 338.16315 
L 892.327973 350.388371 
L 949.899489 331.929202 
" clip-path="url(#p74b9acee21)" style="fill: none; stroke: #d9534f; stroke-linecap: square"/>
   </g>
   <g id="line2d_44">
    <path d="M 86.326761 284.749563 
L 143.898277 325.88115 
L 201.469792 334.147578 
L 259.041307 339.267746 
L 316.612822 342.107966 
L 374.184337 344.435623 
L 431.755852 346.031423 
L 489.327367 347.07165 
L 546.898883 348.066753 
L 604.470398 297.189108 
L 662.041913 337.268457 
L 719.613428 321.733313 
L 777.184943 343.138407 
L 834.756458 336.999746 
L 892.327973 347.496595 
L 949.899489 338.02932 
" clip-path="url(#p74b9acee21)" style="fill: none; stroke: #d9534f; stroke-linecap: square"/>
   </g>
   <g id="line2d_45">
    <path d="M 86.326761 293.48877 
L 143.898277 322.904476 
L 201.469792 333.103483 
L 259.041307 338.513288 
L 316.612822 341.803589 
L 374.184337 343.686613 
L 431.755852 345.409793 
L 489.327367 346.579907 
L 546.898883 347.595509 
L 604.470398 289.759063 
L 662.041913 337.102923 
L 719.613428 322.007845 
L 777.184943 343.309931 
L 834.756458 341.938404 
L 892.327973 350.634181 
L 949.899489 335.776624 
" clip-path="url(#p74b9acee21)" style="fill: none; stroke: #d9534f; stroke-linecap: square"/>
   </g>
   <g id="line2d_46">
    <path d="M 86.326761 278.736886 
L 143.898277 325.590183 
L 201.469792 333.592316 
L 259.041307 338.347047 
L 316.612822 341.488869 
L 374.184337 344.052181 
L 431.755852 345.227445 
L 489.327367 346.715283 
L 546.898883 347.859743 
L 604.470398 296.156635 
L 662.041913 338.212877 
L 719.613428 323.622017 
L 777.184943 344.995927 
L 834.756458 339.919357 
L 892.327973 347.962768 
L 949.899489 341.134868 
" clip-path="url(#p74b9acee21)" style="fill: none; stroke: #d9534f; stroke-linecap: square"/>
   </g>
   <g id="line2d_47">
    <path d="M 43.148125 353.2239 
L 993.078125 353.2239 
" clip-path="url(#p74b9acee21)" style="fill: none; stroke: #dedede; stroke-width: 2; stroke-linecap: square"/>
   </g>
   <g id="text_25">
    <!-- FastQC: Sequence Duplication Levels -->
    <g transform="translate(369.699375 19.3575) scale(0.16 -0.16)">
     <defs>
      <path id="DejaVuSans-46" d="M 628 4666 
L 3309 4666 
L 3309 4134 
L 1259 4134 
L 1259 2759 
L 3109 2759 
L 3109 2228 
L 1259 2228 
L 1259 0 
L 628 0 
L 628 4666 
z
" transform="scale(0.015625)"/>
      <path id="DejaVuSans-73" d="M 2834 3397 
L 2834 2853 
Q 2591 2978 2328 3040 
Q 2066 3103 1784 3103 
Q 1356 3103 1142 2972 
Q 928 2841 928 2578 
Q 928 2378 1081 2264 
Q 1234 2150 1697 2047 
L 1894 2003 
Q 2506 1872 2764 1633 
Q 3022 1394 3022 966 
Q 3022 478 2636 193 
Q 2250 -91 1575 -91 
Q 1294 -91 989 -36 
Q 684 19 347 128 
L 347 722 
Q 666 556 975 473 
Q 1284 391 1588 391 
Q 1994 391 2212 530 
Q 2431 669 2431 922 
Q 2431 1156 2273 1281 
Q 2116 1406 1581 1522 
L 1381 1569 
Q 847 1681 609 1914 
Q 372 2147 372 2553 
Q 372 3047 722 3315 
Q 1072 3584 1716 3584 
Q 2034 3584 2315 3537 
Q 2597 3491 2834 3397 
z
" transform="scale(0.015625)"/>
      <path id="DejaVuSans-51" d="M 2522 4238 
Q 1834 4238 1429 3725 
Q 1025 3213 1025 2328 
Q 1025 1447 1429 934 
Q 1834 422 2522 422 
Q 3209 422 3611 934 
Q 4013 1447 4013 2328 
Q 4013 3213 3611 3725 
Q 3209 4238 2522 4238 
z
M 3406 84 
L 4238 -825 
L 3475 -825 
L 2784 -78 
Q 2681 -84 2626 -87 
Q 2572 -91 2522 -91 
Q 1538 -91 948 567 
Q 359 1225 359 2328 
Q 359 3434 948 4092 
Q 1538 4750 2522 4750 
Q 3503 4750 4090 4092 
Q 4678 3434 4678 2328 
Q 4678 1516 4351 937 
Q 4025 359 3406 84 
z
" transform="scale(0.015625)"/>
      <path id="DejaVuSans-43" d="M 4122 4306 
L 4122 3641 
Q 3803 3938 3442 4084 
Q 3081 4231 2675 4231 
Q 1875 4231 1450 3742 
Q 1025 3253 1025 2328 
Q 1025 1406 1450 917 
Q 1875 428 2675 428 
Q 3081 428 3442 575 
Q 3803 722 4122 1019 
L 4122 359 
Q 3791 134 3420 21 
Q 3050 -91 2638 -91 
Q 1578 -91 968 557 
Q 359 1206 359 2328 
Q 359 3453 968 4101 
Q 1578 4750 2638 4750 
Q 3056 4750 3426 4639 
Q 3797 4528 4122 4306 
z
" transform="scale(0.015625)"/>
      <path id="DejaVuSans-3a" d="M 750 794 
L 1409 794 
L 1409 0 
L 750 0 
L 750 794 
z
M 750 3309 
L 1409 3309 
L 1409 2516 
L 750 2516 
L 750 3309 
z
" transform="scale(0.015625)"/>
     </defs>
     <use xlink:href="#DejaVuSans-46"/>
     <use xlink:href="#DejaVuSans-61" x="48.394531"/>
     <use xlink:href="#DejaVuSans-73" x="109.673828"/>
     <use xlink:href="#DejaVuSans-74" x="161.773438"/>
     <use xlink:href="#DejaVuSans-51" x="200.982422"/>
     <use xlink:href="#DejaVuSans-43" x="279.693359"/>
     <use xlink:href="#DejaVuSans-3a" x="349.517578"/>
     <use xlink:href="#DejaVuSans-20" x="383.208984"/>
     <use xlink:href="#DejaVuSans-53" x="414.996094"/>
     <use xlink:href="#DejaVuSans-65" x="478.472656"/>
     <use xlink:href="#DejaVuSans-71" x="539.996094"/>
     <use xlink:href="#DejaVuSans-75" x="603.472656"/>
     <use xlink:href="#DejaVuSans-65" x="666.851562"/>
     <use xlink:href="#DejaVuSans-6e" x="728.375"/>
     <use xlink:href="#DejaVuSans-63" x="791.753906"/>
     <use xlink:href="#DejaVuSans-65" x="846.734375"/>
     <use xlink:href="#DejaVuSans-20" x="908.257812"/>
     <use xlink:href="#DejaVuSans-44" x="940.044922"/>
     <use xlink:href="#DejaVuSans-75" x="1017.046875"/>
     <use xlink:href="#DejaVuSans-70" x="1080.425781"/>
     <use xlink:href="#DejaVuSans-6c" x="1143.902344"/>
     <use xlink:href="#DejaVuSans-69" x="1171.685547"/>
     <use xlink:href="#DejaVuSans-63" x="1199.46875"/>
     <use xlink:href="#DejaVuSans-61" x="1254.449219"/>
     <use xlink:href="#DejaVuSans-74" x="1315.728516"/>
     <use xlink:href="#DejaVuSans-69" x="1354.9375"/>
     <use xlink:href="#DejaVuSans-6f" x="1382.720703"/>
     <use xlink:href="#DejaVuSans-6e" x="1443.902344"/>
     <use xlink:href="#DejaVuSans-20" x="1507.28125"/>
     <use xlink:href="#DejaVuSans-4c" x="1539.068359"/>
     <use xlink:href="#DejaVuSans-65" x="1593.03125"/>
     <use xlink:href="#DejaVuSans-76" x="1654.554688"/>
     <use xlink:href="#DejaVuSans-65" x="1713.734375"/>
     <use xlink:href="#DejaVuSans-6c" x="1775.257812"/>
     <use xlink:href="#DejaVuSans-73" x="1803.041016"/>
    </g>
   </g>
  </g>
 </g>
 <defs>
  <clipPath id="p74b9acee21">
   <rect x="43.148125" y="35.2559" width="949.93" height="317.968"/>
  </clipPath>
 </defs>
</svg>
