<?xml version="1.0" encoding="utf-8" standalone="no"?>
<!DOCTYPE svg PUBLIC "-//W3C//DTD SVG 1.1//EN"
  "http://www.w3.org/Graphics/SVG/1.1/DTD/svg11.dtd">
<svg xmlns:xlink="http://www.w3.org/1999/xlink" width="1000.318125pt" height="388.844525pt" viewBox="0 0 1000.318125 388.844525" xmlns="http://www.w3.org/2000/svg" version="1.1">
 <metadata>
  <rdf:RDF xmlns:dc="http://purl.org/dc/elements/1.1/" xmlns:cc="http://creativecommons.org/ns#" xmlns:rdf="http://www.w3.org/1999/02/22-rdf-syntax-ns#">
   <cc:Work>
    <dc:type rdf:resource="http://purl.org/dc/dcmitype/StillImage"/>
    <dc:date>2023-10-05T12:27:32.417832</dc:date>
    <dc:format>image/svg+xml</dc:format>
    <dc:creator>
     <cc:Agent>
      <dc:title>Matplotlib v3.7.0, https://matplotlib.org/</dc:title>
     </cc:Agent>
    </dc:creator>
   </cc:Work>
  </rdf:RDF>
 </metadata>
 <defs>
  <style type="text/css">*{stroke-linejoin: round; stroke-linecap: butt}</style>
 </defs>
 <g id="figure_1">
  <g id="axes_1">
   <g id="patch_1">
    <path d="M 38.058125 353.2239 
L 993.118125 353.2239 
L 993.118125 35.2559 
L 38.058125 35.2559 
z
" style="fill: #ffffff"/>
   </g>
   <g id="patch_2">
    <path d="M 38.058125 109.107284 
L 955.533397 109.107284 
L 955.533397 -518.621159 
L 38.058125 -518.621159 
z
" clip-path="url(#p7354be1914)" style="fill: #c3e6c3"/>
   </g>
   <g id="patch_3">
    <path d="M 38.058125 178.854888 
L 955.533397 178.854888 
L 955.533397 109.107284 
L 38.058125 109.107284 
z
" clip-path="url(#p7354be1914)" style="fill: #e6dcc3"/>
   </g>
   <g id="patch_4">
    <path d="M 38.058125 353.2239 
L 955.533397 353.2239 
L 955.533397 178.854888 
L 38.058125 178.854888 
z
" clip-path="url(#p7354be1914)" style="fill: #e6c3c3"/>
   </g>
   <g id="matplotlib.axis_1">
    <g id="xtick_1">
     <g id="text_1">
      <!-- 0 -->
      <g transform="translate(73.097853 366.30265) scale(0.08 -0.08)">
       <defs>
        <path id="DejaVuSans-30" d="M 2034 4250 
Q 1547 4250 1301 3770 
Q 1056 3291 1056 2328 
Q 1056 1369 1301 889 
Q 1547 409 2034 409 
Q 2525 409 2770 889 
Q 3016 1369 3016 2328 
Q 3016 3291 2770 3770 
Q 2525 4250 2034 4250 
z
M 2034 4750 
Q 2819 4750 3233 4129 
Q 3647 3509 3647 2328 
Q 3647 1150 3233 529 
Q 2819 -91 2034 -91 
Q 1250 -91 836 529 
Q 422 1150 422 2328 
Q 422 3509 836 4129 
Q 1250 4750 2034 4750 
z
" transform="scale(0.015625)"/>
       </defs>
       <use xlink:href="#DejaVuSans-30"/>
      </g>
     </g>
    </g>
    <g id="xtick_2">
     <g id="text_2">
      <!-- 20 -->
      <g transform="translate(187.094647 366.30265) scale(0.08 -0.08)">
       <defs>
        <path id="DejaVuSans-32" d="M 1228 531 
L 3431 531 
L 3431 0 
L 469 0 
L 469 531 
Q 828 903 1448 1529 
Q 2069 2156 2228 2338 
Q 2531 2678 2651 2914 
Q 2772 3150 2772 3378 
Q 2772 3750 2511 3984 
Q 2250 4219 1831 4219 
Q 1534 4219 1204 4116 
Q 875 4013 500 3803 
L 500 4441 
Q 881 4594 1212 4672 
Q 1544 4750 1819 4750 
Q 2544 4750 2975 4387 
Q 3406 4025 3406 3419 
Q 3406 3131 3298 2873 
Q 3191 2616 2906 2266 
Q 2828 2175 2409 1742 
Q 1991 1309 1228 531 
z
" transform="scale(0.015625)"/>
       </defs>
       <use xlink:href="#DejaVuSans-32"/>
       <use xlink:href="#DejaVuSans-30" x="63.623047"/>
      </g>
     </g>
    </g>
    <g id="xtick_3">
     <g id="text_3">
      <!-- 40 -->
      <g transform="translate(303.636441 366.30265) scale(0.08 -0.08)">
       <defs>
        <path id="DejaVuSans-34" d="M 2419 4116 
L 825 1625 
L 2419 1625 
L 2419 4116 
z
M 2253 4666 
L 3047 4666 
L 3047 1625 
L 3713 1625 
L 3713 1100 
L 3047 1100 
L 3047 0 
L 2419 0 
L 2419 1100 
L 313 1100 
L 313 1709 
L 2253 4666 
z
" transform="scale(0.015625)"/>
       </defs>
       <use xlink:href="#DejaVuSans-34"/>
       <use xlink:href="#DejaVuSans-30" x="63.623047"/>
      </g>
     </g>
    </g>
    <g id="xtick_4">
     <g id="text_4">
      <!-- 60 -->
      <g transform="translate(420.178235 366.30265) scale(0.08 -0.08)">
       <defs>
        <path id="DejaVuSans-36" d="M 2113 2584 
Q 1688 2584 1439 2293 
Q 1191 2003 1191 1497 
Q 1191 994 1439 701 
Q 1688 409 2113 409 
Q 2538 409 2786 701 
Q 3034 994 3034 1497 
Q 3034 2003 2786 2293 
Q 2538 2584 2113 2584 
z
M 3366 4563 
L 3366 3988 
Q 3128 4100 2886 4159 
Q 2644 4219 2406 4219 
Q 1781 4219 1451 3797 
Q 1122 3375 1075 2522 
Q 1259 2794 1537 2939 
Q 1816 3084 2150 3084 
Q 2853 3084 3261 2657 
Q 3669 2231 3669 1497 
Q 3669 778 3244 343 
Q 2819 -91 2113 -91 
Q 1303 -91 875 529 
Q 447 1150 447 2328 
Q 447 3434 972 4092 
Q 1497 4750 2381 4750 
Q 2619 4750 2861 4703 
Q 3103 4656 3366 4563 
z
" transform="scale(0.015625)"/>
       </defs>
       <use xlink:href="#DejaVuSans-36"/>
       <use xlink:href="#DejaVuSans-30" x="63.623047"/>
      </g>
     </g>
    </g>
    <g id="xtick_5">
     <g id="text_5">
      <!-- 80 -->
      <g transform="translate(536.720029 366.30265) scale(0.08 -0.08)">
       <defs>
        <path id="DejaVuSans-38" d="M 2034 2216 
Q 1584 2216 1326 1975 
Q 1069 1734 1069 1313 
Q 1069 891 1326 650 
Q 1584 409 2034 409 
Q 2484 409 2743 651 
Q 3003 894 3003 1313 
Q 3003 1734 2745 1975 
Q 2488 2216 2034 2216 
z
M 1403 2484 
Q 997 2584 770 2862 
Q 544 3141 544 3541 
Q 544 4100 942 4425 
Q 1341 4750 2034 4750 
Q 2731 4750 3128 4425 
Q 3525 4100 3525 3541 
Q 3525 3141 3298 2862 
Q 3072 2584 2669 2484 
Q 3125 2378 3379 2068 
Q 3634 1759 3634 1313 
Q 3634 634 3220 271 
Q 2806 -91 2034 -91 
Q 1263 -91 848 271 
Q 434 634 434 1313 
Q 434 1759 690 2068 
Q 947 2378 1403 2484 
z
M 1172 3481 
Q 1172 3119 1398 2916 
Q 1625 2713 2034 2713 
Q 2441 2713 2670 2916 
Q 2900 3119 2900 3481 
Q 2900 3844 2670 4047 
Q 2441 4250 2034 4250 
Q 1625 4250 1398 4047 
Q 1172 3844 1172 3481 
z
" transform="scale(0.015625)"/>
       </defs>
       <use xlink:href="#DejaVuSans-38"/>
       <use xlink:href="#DejaVuSans-30" x="63.623047"/>
      </g>
     </g>
    </g>
    <g id="xtick_6">
     <g id="text_6">
      <!-- 100 -->
      <g transform="translate(650.716822 366.30265) scale(0.08 -0.08)">
       <defs>
        <path id="DejaVuSans-31" d="M 794 531 
L 1825 531 
L 1825 4091 
L 703 3866 
L 703 4441 
L 1819 4666 
L 2450 4666 
L 2450 531 
L 3481 531 
L 3481 0 
L 794 0 
L 794 531 
z
" transform="scale(0.015625)"/>
       </defs>
       <use xlink:href="#DejaVuSans-31"/>
       <use xlink:href="#DejaVuSans-30" x="63.623047"/>
       <use xlink:href="#DejaVuSans-30" x="127.246094"/>
      </g>
     </g>
    </g>
    <g id="xtick_7">
     <g id="text_7">
      <!-- 120 -->
      <g transform="translate(767.258616 366.30265) scale(0.08 -0.08)">
       <use xlink:href="#DejaVuSans-31"/>
       <use xlink:href="#DejaVuSans-32" x="63.623047"/>
       <use xlink:href="#DejaVuSans-30" x="127.246094"/>
      </g>
     </g>
    </g>
    <g id="xtick_8">
     <g id="text_8">
      <!-- 140 -->
      <g transform="translate(883.80041 366.30265) scale(0.08 -0.08)">
       <use xlink:href="#DejaVuSans-31"/>
       <use xlink:href="#DejaVuSans-34" x="63.623047"/>
       <use xlink:href="#DejaVuSans-30" x="127.246094"/>
      </g>
     </g>
    </g>
    <g id="text_9">
     <!-- Position (bp) -->
     <g transform="translate(484.285 379.564837) scale(0.1 -0.1)">
      <defs>
       <path id="DejaVuSans-50" d="M 1259 4147 
L 1259 2394 
L 2053 2394 
Q 2494 2394 2734 2622 
Q 2975 2850 2975 3272 
Q 2975 3691 2734 3919 
Q 2494 4147 2053 4147 
L 1259 4147 
z
M 628 4666 
L 2053 4666 
Q 2838 4666 3239 4311 
Q 3641 3956 3641 3272 
Q 3641 2581 3239 2228 
Q 2838 1875 2053 1875 
L 1259 1875 
L 1259 0 
L 628 0 
L 628 4666 
z
" transform="scale(0.015625)"/>
       <path id="DejaVuSans-6f" d="M 1959 3097 
Q 1497 3097 1228 2736 
Q 959 2375 959 1747 
Q 959 1119 1226 758 
Q 1494 397 1959 397 
Q 2419 397 2687 759 
Q 2956 1122 2956 1747 
Q 2956 2369 2687 2733 
Q 2419 3097 1959 3097 
z
M 1959 3584 
Q 2709 3584 3137 3096 
Q 3566 2609 3566 1747 
Q 3566 888 3137 398 
Q 2709 -91 1959 -91 
Q 1206 -91 779 398 
Q 353 888 353 1747 
Q 353 2609 779 3096 
Q 1206 3584 1959 3584 
z
" transform="scale(0.015625)"/>
       <path id="DejaVuSans-73" d="M 2834 3397 
L 2834 2853 
Q 2591 2978 2328 3040 
Q 2066 3103 1784 3103 
Q 1356 3103 1142 2972 
Q 928 2841 928 2578 
Q 928 2378 1081 2264 
Q 1234 2150 1697 2047 
L 1894 2003 
Q 2506 1872 2764 1633 
Q 3022 1394 3022 966 
Q 3022 478 2636 193 
Q 2250 -91 1575 -91 
Q 1294 -91 989 -36 
Q 684 19 347 128 
L 347 722 
Q 666 556 975 473 
Q 1284 391 1588 391 
Q 1994 391 2212 530 
Q 2431 669 2431 922 
Q 2431 1156 2273 1281 
Q 2116 1406 1581 1522 
L 1381 1569 
Q 847 1681 609 1914 
Q 372 2147 372 2553 
Q 372 3047 722 3315 
Q 1072 3584 1716 3584 
Q 2034 3584 2315 3537 
Q 2597 3491 2834 3397 
z
" transform="scale(0.015625)"/>
       <path id="DejaVuSans-69" d="M 603 3500 
L 1178 3500 
L 1178 0 
L 603 0 
L 603 3500 
z
M 603 4863 
L 1178 4863 
L 1178 4134 
L 603 4134 
L 603 4863 
z
" transform="scale(0.015625)"/>
       <path id="DejaVuSans-74" d="M 1172 4494 
L 1172 3500 
L 2356 3500 
L 2356 3053 
L 1172 3053 
L 1172 1153 
Q 1172 725 1289 603 
Q 1406 481 1766 481 
L 2356 481 
L 2356 0 
L 1766 0 
Q 1100 0 847 248 
Q 594 497 594 1153 
L 594 3053 
L 172 3053 
L 172 3500 
L 594 3500 
L 594 4494 
L 1172 4494 
z
" transform="scale(0.015625)"/>
       <path id="DejaVuSans-6e" d="M 3513 2113 
L 3513 0 
L 2938 0 
L 2938 2094 
Q 2938 2591 2744 2837 
Q 2550 3084 2163 3084 
Q 1697 3084 1428 2787 
Q 1159 2491 1159 1978 
L 1159 0 
L 581 0 
L 581 3500 
L 1159 3500 
L 1159 2956 
Q 1366 3272 1645 3428 
Q 1925 3584 2291 3584 
Q 2894 3584 3203 3211 
Q 3513 2838 3513 2113 
z
" transform="scale(0.015625)"/>
       <path id="DejaVuSans-20" transform="scale(0.015625)"/>
       <path id="DejaVuSans-28" d="M 1984 4856 
Q 1566 4138 1362 3434 
Q 1159 2731 1159 2009 
Q 1159 1288 1364 580 
Q 1569 -128 1984 -844 
L 1484 -844 
Q 1016 -109 783 600 
Q 550 1309 550 2009 
Q 550 2706 781 3412 
Q 1013 4119 1484 4856 
L 1984 4856 
z
" transform="scale(0.015625)"/>
       <path id="DejaVuSans-62" d="M 3116 1747 
Q 3116 2381 2855 2742 
Q 2594 3103 2138 3103 
Q 1681 3103 1420 2742 
Q 1159 2381 1159 1747 
Q 1159 1113 1420 752 
Q 1681 391 2138 391 
Q 2594 391 2855 752 
Q 3116 1113 3116 1747 
z
M 1159 2969 
Q 1341 3281 1617 3432 
Q 1894 3584 2278 3584 
Q 2916 3584 3314 3078 
Q 3713 2572 3713 1747 
Q 3713 922 3314 415 
Q 2916 -91 2278 -91 
Q 1894 -91 1617 61 
Q 1341 213 1159 525 
L 1159 0 
L 581 0 
L 581 4863 
L 1159 4863 
L 1159 2969 
z
" transform="scale(0.015625)"/>
       <path id="DejaVuSans-70" d="M 1159 525 
L 1159 -1331 
L 581 -1331 
L 581 3500 
L 1159 3500 
L 1159 2969 
Q 1341 3281 1617 3432 
Q 1894 3584 2278 3584 
Q 2916 3584 3314 3078 
Q 3713 2572 3713 1747 
Q 3713 922 3314 415 
Q 2916 -91 2278 -91 
Q 1894 -91 1617 61 
Q 1341 213 1159 525 
z
M 3116 1747 
Q 3116 2381 2855 2742 
Q 2594 3103 2138 3103 
Q 1681 3103 1420 2742 
Q 1159 2381 1159 1747 
Q 1159 1113 1420 752 
Q 1681 391 2138 391 
Q 2594 391 2855 752 
Q 3116 1113 3116 1747 
z
" transform="scale(0.015625)"/>
       <path id="DejaVuSans-29" d="M 513 4856 
L 1013 4856 
Q 1481 4119 1714 3412 
Q 1947 2706 1947 2009 
Q 1947 1309 1714 600 
Q 1481 -109 1013 -844 
L 513 -844 
Q 928 -128 1133 580 
Q 1338 1288 1338 2009 
Q 1338 2731 1133 3434 
Q 928 4138 513 4856 
z
" transform="scale(0.015625)"/>
      </defs>
      <use xlink:href="#DejaVuSans-50"/>
      <use xlink:href="#DejaVuSans-6f" x="56.677734"/>
      <use xlink:href="#DejaVuSans-73" x="117.859375"/>
      <use xlink:href="#DejaVuSans-69" x="169.958984"/>
      <use xlink:href="#DejaVuSans-74" x="197.742188"/>
      <use xlink:href="#DejaVuSans-69" x="236.951172"/>
      <use xlink:href="#DejaVuSans-6f" x="264.734375"/>
      <use xlink:href="#DejaVuSans-6e" x="325.916016"/>
      <use xlink:href="#DejaVuSans-20" x="389.294922"/>
      <use xlink:href="#DejaVuSans-28" x="421.082031"/>
      <use xlink:href="#DejaVuSans-62" x="460.095703"/>
      <use xlink:href="#DejaVuSans-70" x="523.572266"/>
      <use xlink:href="#DejaVuSans-29" x="587.048828"/>
     </g>
    </g>
   </g>
   <g id="matplotlib.axis_2">
    <g id="ytick_1">
     <g id="line2d_1">
      <path d="M 38.058125 353.2239 
L 993.118125 353.2239 
" clip-path="url(#p7354be1914)" style="fill: none; stroke: #dedede; stroke-linecap: square"/>
     </g>
     <g id="text_10">
      <!-- 0 -->
      <g transform="translate(25.968125 356.263275) scale(0.08 -0.08)">
       <use xlink:href="#DejaVuSans-30"/>
      </g>
     </g>
    </g>
    <g id="ytick_2">
     <g id="line2d_2">
      <path d="M 38.058125 309.631647 
L 993.118125 309.631647 
" clip-path="url(#p7354be1914)" style="fill: none; stroke: #dedede; stroke-linecap: square"/>
     </g>
     <g id="text_11">
      <!-- 5 -->
      <g transform="translate(25.968125 312.671022) scale(0.08 -0.08)">
       <defs>
        <path id="DejaVuSans-35" d="M 691 4666 
L 3169 4666 
L 3169 4134 
L 1269 4134 
L 1269 2991 
Q 1406 3038 1543 3061 
Q 1681 3084 1819 3084 
Q 2600 3084 3056 2656 
Q 3513 2228 3513 1497 
Q 3513 744 3044 326 
Q 2575 -91 1722 -91 
Q 1428 -91 1123 -41 
Q 819 9 494 109 
L 494 744 
Q 775 591 1075 516 
Q 1375 441 1709 441 
Q 2250 441 2565 725 
Q 2881 1009 2881 1497 
Q 2881 1984 2565 2268 
Q 2250 2553 1709 2553 
Q 1456 2553 1204 2497 
Q 953 2441 691 2322 
L 691 4666 
z
" transform="scale(0.015625)"/>
       </defs>
       <use xlink:href="#DejaVuSans-35"/>
      </g>
     </g>
    </g>
    <g id="ytick_3">
     <g id="line2d_3">
      <path d="M 38.058125 266.039394 
L 993.118125 266.039394 
" clip-path="url(#p7354be1914)" style="fill: none; stroke: #dedede; stroke-linecap: square"/>
     </g>
     <g id="text_12">
      <!-- 10 -->
      <g transform="translate(20.878125 269.078769) scale(0.08 -0.08)">
       <use xlink:href="#DejaVuSans-31"/>
       <use xlink:href="#DejaVuSans-30" x="63.623047"/>
      </g>
     </g>
    </g>
    <g id="ytick_4">
     <g id="line2d_4">
      <path d="M 38.058125 222.447141 
L 993.118125 222.447141 
" clip-path="url(#p7354be1914)" style="fill: none; stroke: #dedede; stroke-linecap: square"/>
     </g>
     <g id="text_13">
      <!-- 15 -->
      <g transform="translate(20.878125 225.486516) scale(0.08 -0.08)">
       <use xlink:href="#DejaVuSans-31"/>
       <use xlink:href="#DejaVuSans-35" x="63.623047"/>
      </g>
     </g>
    </g>
    <g id="ytick_5">
     <g id="line2d_5">
      <path d="M 38.058125 178.854888 
L 993.118125 178.854888 
" clip-path="url(#p7354be1914)" style="fill: none; stroke: #dedede; stroke-linecap: square"/>
     </g>
     <g id="text_14">
      <!-- 20 -->
      <g transform="translate(20.878125 181.894263) scale(0.08 -0.08)">
       <use xlink:href="#DejaVuSans-32"/>
       <use xlink:href="#DejaVuSans-30" x="63.623047"/>
      </g>
     </g>
    </g>
    <g id="ytick_6">
     <g id="line2d_6">
      <path d="M 38.058125 135.262635 
L 993.118125 135.262635 
" clip-path="url(#p7354be1914)" style="fill: none; stroke: #dedede; stroke-linecap: square"/>
     </g>
     <g id="text_15">
      <!-- 25 -->
      <g transform="translate(20.878125 138.30201) scale(0.08 -0.08)">
       <use xlink:href="#DejaVuSans-32"/>
       <use xlink:href="#DejaVuSans-35" x="63.623047"/>
      </g>
     </g>
    </g>
    <g id="ytick_7">
     <g id="line2d_7">
      <path d="M 38.058125 91.670382 
L 993.118125 91.670382 
" clip-path="url(#p7354be1914)" style="fill: none; stroke: #dedede; stroke-linecap: square"/>
     </g>
     <g id="text_16">
      <!-- 30 -->
      <g transform="translate(20.878125 94.709757) scale(0.08 -0.08)">
       <defs>
        <path id="DejaVuSans-33" d="M 2597 2516 
Q 3050 2419 3304 2112 
Q 3559 1806 3559 1356 
Q 3559 666 3084 287 
Q 2609 -91 1734 -91 
Q 1441 -91 1130 -33 
Q 819 25 488 141 
L 488 750 
Q 750 597 1062 519 
Q 1375 441 1716 441 
Q 2309 441 2620 675 
Q 2931 909 2931 1356 
Q 2931 1769 2642 2001 
Q 2353 2234 1838 2234 
L 1294 2234 
L 1294 2753 
L 1863 2753 
Q 2328 2753 2575 2939 
Q 2822 3125 2822 3475 
Q 2822 3834 2567 4026 
Q 2313 4219 1838 4219 
Q 1578 4219 1281 4162 
Q 984 4106 628 3988 
L 628 4550 
Q 988 4650 1302 4700 
Q 1616 4750 1894 4750 
Q 2613 4750 3031 4423 
Q 3450 4097 3450 3541 
Q 3450 3153 3228 2886 
Q 3006 2619 2597 2516 
z
" transform="scale(0.015625)"/>
       </defs>
       <use xlink:href="#DejaVuSans-33"/>
       <use xlink:href="#DejaVuSans-30" x="63.623047"/>
      </g>
     </g>
    </g>
    <g id="ytick_8">
     <g id="line2d_8">
      <path d="M 38.058125 48.078129 
L 993.118125 48.078129 
" clip-path="url(#p7354be1914)" style="fill: none; stroke: #dedede; stroke-linecap: square"/>
     </g>
     <g id="text_17">
      <!-- 35 -->
      <g transform="translate(20.878125 51.117504) scale(0.08 -0.08)">
       <use xlink:href="#DejaVuSans-33"/>
       <use xlink:href="#DejaVuSans-35" x="63.623047"/>
      </g>
     </g>
    </g>
    <g id="text_18">
     <!-- Phred Score -->
     <g transform="translate(14.798438 224.20865) rotate(-90) scale(0.1 -0.1)">
      <defs>
       <path id="DejaVuSans-68" d="M 3513 2113 
L 3513 0 
L 2938 0 
L 2938 2094 
Q 2938 2591 2744 2837 
Q 2550 3084 2163 3084 
Q 1697 3084 1428 2787 
Q 1159 2491 1159 1978 
L 1159 0 
L 581 0 
L 581 4863 
L 1159 4863 
L 1159 2956 
Q 1366 3272 1645 3428 
Q 1925 3584 2291 3584 
Q 2894 3584 3203 3211 
Q 3513 2838 3513 2113 
z
" transform="scale(0.015625)"/>
       <path id="DejaVuSans-72" d="M 2631 2963 
Q 2534 3019 2420 3045 
Q 2306 3072 2169 3072 
Q 1681 3072 1420 2755 
Q 1159 2438 1159 1844 
L 1159 0 
L 581 0 
L 581 3500 
L 1159 3500 
L 1159 2956 
Q 1341 3275 1631 3429 
Q 1922 3584 2338 3584 
Q 2397 3584 2469 3576 
Q 2541 3569 2628 3553 
L 2631 2963 
z
" transform="scale(0.015625)"/>
       <path id="DejaVuSans-65" d="M 3597 1894 
L 3597 1613 
L 953 1613 
Q 991 1019 1311 708 
Q 1631 397 2203 397 
Q 2534 397 2845 478 
Q 3156 559 3463 722 
L 3463 178 
Q 3153 47 2828 -22 
Q 2503 -91 2169 -91 
Q 1331 -91 842 396 
Q 353 884 353 1716 
Q 353 2575 817 3079 
Q 1281 3584 2069 3584 
Q 2775 3584 3186 3129 
Q 3597 2675 3597 1894 
z
M 3022 2063 
Q 3016 2534 2758 2815 
Q 2500 3097 2075 3097 
Q 1594 3097 1305 2825 
Q 1016 2553 972 2059 
L 3022 2063 
z
" transform="scale(0.015625)"/>
       <path id="DejaVuSans-64" d="M 2906 2969 
L 2906 4863 
L 3481 4863 
L 3481 0 
L 2906 0 
L 2906 525 
Q 2725 213 2448 61 
Q 2172 -91 1784 -91 
Q 1150 -91 751 415 
Q 353 922 353 1747 
Q 353 2572 751 3078 
Q 1150 3584 1784 3584 
Q 2172 3584 2448 3432 
Q 2725 3281 2906 2969 
z
M 947 1747 
Q 947 1113 1208 752 
Q 1469 391 1925 391 
Q 2381 391 2643 752 
Q 2906 1113 2906 1747 
Q 2906 2381 2643 2742 
Q 2381 3103 1925 3103 
Q 1469 3103 1208 2742 
Q 947 2381 947 1747 
z
" transform="scale(0.015625)"/>
       <path id="DejaVuSans-53" d="M 3425 4513 
L 3425 3897 
Q 3066 4069 2747 4153 
Q 2428 4238 2131 4238 
Q 1616 4238 1336 4038 
Q 1056 3838 1056 3469 
Q 1056 3159 1242 3001 
Q 1428 2844 1947 2747 
L 2328 2669 
Q 3034 2534 3370 2195 
Q 3706 1856 3706 1288 
Q 3706 609 3251 259 
Q 2797 -91 1919 -91 
Q 1588 -91 1214 -16 
Q 841 59 441 206 
L 441 856 
Q 825 641 1194 531 
Q 1563 422 1919 422 
Q 2459 422 2753 634 
Q 3047 847 3047 1241 
Q 3047 1584 2836 1778 
Q 2625 1972 2144 2069 
L 1759 2144 
Q 1053 2284 737 2584 
Q 422 2884 422 3419 
Q 422 4038 858 4394 
Q 1294 4750 2059 4750 
Q 2388 4750 2728 4690 
Q 3069 4631 3425 4513 
z
" transform="scale(0.015625)"/>
       <path id="DejaVuSans-63" d="M 3122 3366 
L 3122 2828 
Q 2878 2963 2633 3030 
Q 2388 3097 2138 3097 
Q 1578 3097 1268 2742 
Q 959 2388 959 1747 
Q 959 1106 1268 751 
Q 1578 397 2138 397 
Q 2388 397 2633 464 
Q 2878 531 3122 666 
L 3122 134 
Q 2881 22 2623 -34 
Q 2366 -91 2075 -91 
Q 1284 -91 818 406 
Q 353 903 353 1747 
Q 353 2603 823 3093 
Q 1294 3584 2113 3584 
Q 2378 3584 2631 3529 
Q 2884 3475 3122 3366 
z
" transform="scale(0.015625)"/>
      </defs>
      <use xlink:href="#DejaVuSans-50"/>
      <use xlink:href="#DejaVuSans-68" x="60.302734"/>
      <use xlink:href="#DejaVuSans-72" x="123.681641"/>
      <use xlink:href="#DejaVuSans-65" x="162.544922"/>
      <use xlink:href="#DejaVuSans-64" x="224.068359"/>
      <use xlink:href="#DejaVuSans-20" x="287.544922"/>
      <use xlink:href="#DejaVuSans-53" x="319.332031"/>
      <use xlink:href="#DejaVuSans-63" x="382.808594"/>
      <use xlink:href="#DejaVuSans-6f" x="437.789062"/>
      <use xlink:href="#DejaVuSans-72" x="498.970703"/>
      <use xlink:href="#DejaVuSans-65" x="537.833984"/>
     </g>
    </g>
   </g>
   <g id="line2d_9">
    <path d="M 81.469943 38.963102 
L 87.297033 40.83412 
L 93.124123 40.020662 
L 98.951212 38.441215 
L 104.778302 37.997208 
L 110.605392 37.74512 
L 116.432481 38.795247 
L 122.259571 38.307547 
L 128.086661 38.30927 
L 145.56793 37.526663 
L 174.703378 37.654996 
L 203.838827 37.920184 
L 232.974275 38.674535 
L 262.109724 39.12246 
L 291.245172 39.706718 
L 320.38062 39.96618 
L 349.516069 40.247409 
L 378.651517 40.544068 
L 407.786966 40.742308 
L 436.922414 40.984742 
L 466.057863 41.276683 
L 495.193311 41.447579 
L 524.32876 41.608208 
L 553.464208 41.918863 
L 582.599656 42.25989 
L 611.735105 42.537546 
L 640.870553 42.982236 
L 670.006002 43.108322 
L 699.14145 43.184594 
L 728.276899 43.736993 
L 757.412347 43.971686 
L 786.547796 44.326792 
L 815.683244 44.820585 
L 844.818692 45.738924 
L 873.954141 45.68416 
L 903.089589 45.821599 
L 932.225038 46.949173 
L 949.706307 47.879123 
" clip-path="url(#p7354be1914)" style="fill: none; stroke: #5cb85c; stroke-linecap: square"/>
   </g>
   <g id="line2d_10">
    <path d="M 81.469943 39.128459 
L 87.297033 40.249226 
L 93.124123 39.604936 
L 98.951212 39.633669 
L 104.778302 39.126923 
L 110.605392 39.545818 
L 116.432481 39.810074 
L 122.259571 38.936171 
L 128.086661 38.857702 
L 145.56793 38.579724 
L 174.703378 38.64033 
L 203.838827 38.845728 
L 232.974275 39.215457 
L 262.109724 39.597554 
L 291.245172 39.695916 
L 320.38062 40.051357 
L 349.516069 40.246184 
L 378.651517 40.632572 
L 407.786966 40.872665 
L 436.922414 41.172025 
L 466.057863 41.365206 
L 495.193311 41.887456 
L 524.32876 42.103063 
L 553.464208 42.335234 
L 582.599656 42.741772 
L 611.735105 43.083558 
L 640.870553 43.557214 
L 670.006002 44.209319 
L 699.14145 44.563697 
L 728.276899 44.926984 
L 757.412347 45.749024 
L 786.547796 46.527158 
L 815.683244 46.870158 
L 844.818692 47.082744 
L 873.954141 48.301132 
L 903.089589 49.279296 
L 932.225038 49.881216 
L 949.706307 50.607263 
" clip-path="url(#p7354be1914)" style="fill: none; stroke: #5cb85c; stroke-linecap: square"/>
   </g>
   <g id="line2d_11">
    <path d="M 81.469943 37.355929 
L 87.297033 38.484106 
L 93.124123 37.766457 
L 98.951212 36.739821 
L 104.778302 36.54541 
L 110.605392 36.499793 
L 116.432481 37.298493 
L 122.259571 36.927588 
L 128.086661 36.865836 
L 145.56793 36.427825 
L 174.703378 36.5659 
L 203.838827 36.835954 
L 232.974275 37.463776 
L 262.109724 37.865892 
L 291.245172 38.365182 
L 320.38062 38.639025 
L 349.516069 38.88108 
L 378.651517 39.147818 
L 407.786966 39.311195 
L 436.922414 39.512075 
L 466.057863 39.776248 
L 495.193311 40.011865 
L 524.32876 40.147649 
L 553.464208 40.401442 
L 582.599656 40.750261 
L 611.735105 40.857945 
L 640.870553 41.309282 
L 670.006002 41.4802 
L 699.14145 41.525718 
L 728.276899 42.121014 
L 757.412347 42.356194 
L 786.547796 42.779672 
L 815.683244 43.162072 
L 844.818692 43.664052 
L 873.954141 43.827643 
L 903.089589 44.034891 
L 932.225038 45.179209 
L 949.706307 45.372902 
" clip-path="url(#p7354be1914)" style="fill: none; stroke: #5cb85c; stroke-linecap: square"/>
   </g>
   <g id="line2d_12">
    <path d="M 81.469943 40.874401 
L 87.297033 42.688252 
L 93.124123 42.382236 
L 98.951212 42.264363 
L 104.778302 41.380581 
L 110.605392 42.022691 
L 116.432481 42.258243 
L 122.259571 41.391137 
L 128.086661 41.218688 
L 145.56793 40.823655 
L 174.703378 40.973078 
L 203.838827 41.139307 
L 232.974275 41.575243 
L 262.109724 41.910247 
L 291.245172 42.132943 
L 320.38062 42.417572 
L 349.516069 42.789937 
L 378.651517 43.211321 
L 407.786966 43.476911 
L 436.922414 43.790545 
L 466.057863 44.100483 
L 495.193311 44.545461 
L 524.32876 44.98266 
L 553.464208 45.141517 
L 582.599656 45.671133 
L 611.735105 46.130853 
L 640.870553 46.385701 
L 670.006002 47.441722 
L 699.14145 47.660203 
L 728.276899 48.095647 
L 757.412347 49.074866 
L 786.547796 49.955827 
L 815.683244 50.610027 
L 844.818692 50.811131 
L 873.954141 51.788954 
L 903.089589 53.118024 
L 932.225038 53.360114 
L 949.706307 54.309423 
" clip-path="url(#p7354be1914)" style="fill: none; stroke: #5cb85c; stroke-linecap: square"/>
   </g>
   <g id="line2d_13">
    <path d="M 81.469943 37.006181 
L 87.297033 38.206172 
L 93.124123 37.539353 
L 98.951212 36.526167 
L 104.778302 36.342329 
L 110.605392 36.26679 
L 116.432481 37.053319 
L 122.259571 36.714373 
L 128.086661 36.662998 
L 145.56793 36.215638 
L 174.703378 36.375422 
L 203.838827 36.619587 
L 232.974275 37.227448 
L 262.109724 37.633461 
L 291.245172 38.120688 
L 320.38062 38.425031 
L 349.516069 38.661699 
L 378.651517 38.955565 
L 407.786966 39.086309 
L 436.922414 39.324612 
L 466.057863 39.587528 
L 495.193311 39.875898 
L 524.32876 40.002007 
L 553.464208 40.221935 
L 582.599656 40.600189 
L 611.735105 40.703254 
L 640.870553 41.172594 
L 670.006002 41.333419 
L 699.14145 41.412697 
L 728.276899 41.99717 
L 757.412347 42.284506 
L 786.547796 42.665103 
L 815.683244 43.081133 
L 844.818692 43.593721 
L 873.954141 43.730942 
L 903.089589 43.88615 
L 932.225038 45.055671 
L 949.706307 45.345464 
" clip-path="url(#p7354be1914)" style="fill: none; stroke: #5cb85c; stroke-linecap: square"/>
   </g>
   <g id="line2d_14">
    <path d="M 81.469943 38.990559 
L 87.297033 39.844562 
L 93.124123 39.689938 
L 98.951212 39.647496 
L 104.778302 38.954544 
L 110.605392 39.438545 
L 116.432481 39.879216 
L 122.259571 38.893064 
L 128.086661 39.078961 
L 145.56793 38.646975 
L 174.703378 38.745156 
L 203.838827 38.928164 
L 232.974275 39.320726 
L 262.109724 39.629844 
L 291.245172 39.854074 
L 320.38062 40.060598 
L 349.516069 40.398963 
L 378.651517 40.7515 
L 407.786966 40.979654 
L 436.922414 41.265215 
L 466.057863 41.517356 
L 495.193311 41.913574 
L 524.32876 42.317271 
L 553.464208 42.454786 
L 582.599656 42.918957 
L 611.735105 43.327193 
L 640.870553 43.575602 
L 670.006002 44.534981 
L 699.14145 44.721337 
L 728.276899 45.094704 
L 757.412347 45.993435 
L 786.547796 46.800977 
L 815.683244 47.396618 
L 844.818692 47.6331 
L 873.954141 48.521266 
L 903.089589 49.775323 
L 932.225038 50.103915 
L 949.706307 50.98029 
" clip-path="url(#p7354be1914)" style="fill: none; stroke: #5cb85c; stroke-linecap: square"/>
   </g>
   <g id="line2d_15">
    <path d="M 81.469943 37.421478 
L 87.297033 38.621241 
L 93.124123 37.994837 
L 98.951212 36.950278 
L 104.778302 36.704609 
L 110.605392 36.638345 
L 116.432481 37.479943 
L 122.259571 37.121823 
L 128.086661 36.997271 
L 145.56793 36.574733 
L 174.703378 36.747833 
L 203.838827 37.002185 
L 232.974275 37.661307 
L 262.109724 38.093174 
L 291.245172 38.621866 
L 320.38062 38.918107 
L 349.516069 39.157955 
L 378.651517 39.451124 
L 407.786966 39.586669 
L 436.922414 39.822063 
L 466.057863 40.108194 
L 495.193311 40.398832 
L 524.32876 40.51741 
L 553.464208 40.70562 
L 582.599656 41.076469 
L 611.735105 41.20128 
L 640.870553 41.681332 
L 670.006002 41.836905 
L 699.14145 41.918891 
L 728.276899 42.460596 
L 757.412347 42.754009 
L 786.547796 43.125591 
L 815.683244 43.545618 
L 844.818692 44.056416 
L 873.954141 44.222521 
L 903.089589 44.357152 
L 932.225038 45.507108 
L 949.706307 45.780754 
" clip-path="url(#p7354be1914)" style="fill: none; stroke: #5cb85c; stroke-linecap: square"/>
   </g>
   <g id="line2d_16">
    <path d="M 81.469943 38.73337 
L 87.297033 39.554897 
L 93.124123 39.431207 
L 98.951212 39.443217 
L 104.778302 38.805942 
L 110.605392 39.338427 
L 116.432481 39.397165 
L 122.259571 38.848517 
L 128.086661 38.72445 
L 145.56793 38.583443 
L 174.703378 38.633022 
L 203.838827 38.805369 
L 232.974275 39.154177 
L 262.109724 39.444511 
L 291.245172 39.654839 
L 320.38062 39.864541 
L 349.516069 40.18936 
L 378.651517 40.527007 
L 407.786966 40.751073 
L 436.922414 41.005767 
L 466.057863 41.251305 
L 495.193311 41.637321 
L 524.32876 42.029727 
L 553.464208 42.166035 
L 582.599656 42.614217 
L 611.735105 42.988873 
L 640.870553 43.237862 
L 670.006002 44.148247 
L 699.14145 44.32498 
L 728.276899 44.699687 
L 757.412347 45.553943 
L 786.547796 46.305963 
L 815.683244 46.870819 
L 844.818692 47.074597 
L 873.954141 47.904767 
L 903.089589 49.065764 
L 932.225038 49.349378 
L 949.706307 50.133644 
" clip-path="url(#p7354be1914)" style="fill: none; stroke: #5cb85c; stroke-linecap: square"/>
   </g>
   <g id="line2d_17">
    <path d="M 81.469943 37.538654 
L 87.297033 38.519603 
L 93.124123 37.82004 
L 98.951212 36.788387 
L 104.778302 36.583971 
L 110.605392 36.539018 
L 116.432481 37.329198 
L 122.259571 36.931413 
L 128.086661 36.852588 
L 145.56793 36.444879 
L 174.703378 36.585495 
L 203.838827 36.810089 
L 232.974275 37.442273 
L 262.109724 37.818977 
L 291.245172 38.286114 
L 320.38062 38.584825 
L 349.516069 38.851823 
L 378.651517 39.152232 
L 407.786966 39.287803 
L 436.922414 39.551911 
L 466.057863 39.85396 
L 495.193311 40.095016 
L 524.32876 40.159753 
L 553.464208 40.414686 
L 582.599656 40.792169 
L 611.735105 40.921152 
L 640.870553 41.345486 
L 670.006002 41.501166 
L 699.14145 41.60639 
L 728.276899 42.220158 
L 757.412347 42.532855 
L 786.547796 42.913747 
L 815.683244 43.310105 
L 844.818692 43.813989 
L 873.954141 44.026794 
L 903.089589 44.229542 
L 932.225038 45.455662 
L 949.706307 45.711947 
" clip-path="url(#p7354be1914)" style="fill: none; stroke: #5cb85c; stroke-linecap: square"/>
   </g>
   <g id="line2d_18">
    <path d="M 81.469943 37.949299 
L 87.297033 38.788245 
L 93.124123 38.623952 
L 98.951212 38.635247 
L 104.778302 38.019243 
L 110.605392 38.745755 
L 116.432481 38.47759 
L 122.259571 37.887458 
L 128.086661 37.842128 
L 145.56793 37.742022 
L 174.703378 37.86826 
L 203.838827 38.004828 
L 232.974275 38.35254 
L 262.109724 38.606227 
L 291.245172 38.794645 
L 320.38062 39.011106 
L 349.516069 39.293766 
L 378.651517 39.618071 
L 407.786966 39.830301 
L 436.922414 40.078783 
L 466.057863 40.290452 
L 495.193311 40.63953 
L 524.32876 41.01728 
L 553.464208 41.123064 
L 582.599656 41.523816 
L 611.735105 41.882744 
L 640.870553 42.127772 
L 670.006002 42.956211 
L 699.14145 43.176846 
L 728.276899 43.43914 
L 757.412347 44.291084 
L 786.547796 45.003221 
L 815.683244 45.520567 
L 844.818692 45.748273 
L 873.954141 46.577825 
L 903.089589 47.66978 
L 932.225038 48.015115 
L 949.706307 48.833894 
" clip-path="url(#p7354be1914)" style="fill: none; stroke: #5cb85c; stroke-linecap: square"/>
   </g>
   <g id="line2d_19">
    <path d="M 81.469943 36.857248 
L 87.297033 38.118185 
L 93.124123 37.438811 
L 98.951212 36.454827 
L 104.778302 36.267574 
L 110.605392 36.229278 
L 116.432481 37.028479 
L 122.259571 36.68687 
L 128.086661 36.563153 
L 145.56793 36.163211 
L 174.703378 36.324592 
L 203.838827 36.573946 
L 232.974275 37.169399 
L 262.109724 37.559996 
L 291.245172 38.030036 
L 320.38062 38.326933 
L 349.516069 38.564425 
L 378.651517 38.874427 
L 407.786966 39.008648 
L 436.922414 39.233662 
L 466.057863 39.53357 
L 495.193311 39.809119 
L 524.32876 39.879881 
L 553.464208 40.064212 
L 582.599656 40.456658 
L 611.735105 40.579304 
L 640.870553 41.074503 
L 670.006002 41.201787 
L 699.14145 41.29254 
L 728.276899 41.864491 
L 757.412347 42.212336 
L 786.547796 42.561967 
L 815.683244 42.983215 
L 844.818692 43.496646 
L 873.954141 43.650481 
L 903.089589 43.773459 
L 932.225038 45.006177 
L 949.706307 45.330762 
" clip-path="url(#p7354be1914)" style="fill: none; stroke: #5cb85c; stroke-linecap: square"/>
   </g>
   <g id="line2d_20">
    <path d="M 81.469943 39.113305 
L 87.297033 39.810563 
L 93.124123 39.641918 
L 98.951212 39.639759 
L 104.778302 38.978627 
L 110.605392 39.703516 
L 116.432481 39.534967 
L 122.259571 39.105931 
L 128.086661 38.999435 
L 145.56793 38.765026 
L 174.703378 38.881058 
L 203.838827 39.047717 
L 232.974275 39.440788 
L 262.109724 39.721954 
L 291.245172 39.957804 
L 320.38062 40.210342 
L 349.516069 40.514794 
L 378.651517 40.889607 
L 407.786966 41.121936 
L 436.922414 41.405183 
L 466.057863 41.634207 
L 495.193311 42.046041 
L 524.32876 42.472774 
L 553.464208 42.624406 
L 582.599656 43.090482 
L 611.735105 43.495185 
L 640.870553 43.764588 
L 670.006002 44.730876 
L 699.14145 44.919701 
L 728.276899 45.284982 
L 757.412347 46.210872 
L 786.547796 47.000057 
L 815.683244 47.601299 
L 844.818692 47.79102 
L 873.954141 48.646163 
L 903.089589 49.841078 
L 932.225038 50.14116 
L 949.706307 50.941525 
" clip-path="url(#p7354be1914)" style="fill: none; stroke: #5cb85c; stroke-linecap: square"/>
   </g>
   <g id="line2d_21">
    <path d="M 81.469943 37.55078 
L 87.297033 38.704797 
L 93.124123 37.98968 
L 98.951212 37.005525 
L 104.778302 36.771997 
L 110.605392 36.68937 
L 116.432481 37.507655 
L 122.259571 37.134884 
L 128.086661 37.058556 
L 145.56793 36.636331 
L 174.703378 36.798268 
L 203.838827 37.022856 
L 232.974275 37.684368 
L 262.109724 38.107832 
L 291.245172 38.592462 
L 320.38062 38.918686 
L 349.516069 39.175279 
L 378.651517 39.512812 
L 407.786966 39.636195 
L 436.922414 39.914716 
L 466.057863 40.186188 
L 495.193311 40.428974 
L 524.32876 40.495873 
L 553.464208 40.742241 
L 582.599656 41.132235 
L 611.735105 41.25565 
L 640.870553 41.696392 
L 670.006002 41.823413 
L 699.14145 41.938242 
L 728.276899 42.534555 
L 757.412347 42.855342 
L 786.547796 43.219052 
L 815.683244 43.626155 
L 844.818692 44.088185 
L 873.954141 44.271211 
L 903.089589 44.43339 
L 932.225038 45.617624 
L 949.706307 45.839169 
" clip-path="url(#p7354be1914)" style="fill: none; stroke: #5cb85c; stroke-linecap: square"/>
   </g>
   <g id="line2d_22">
    <path d="M 81.469943 39.226455 
L 87.297033 40.464381 
L 93.124123 40.224603 
L 98.951212 40.26556 
L 104.778302 39.581884 
L 110.605392 40.052758 
L 116.432481 40.235453 
L 122.259571 39.638743 
L 128.086661 39.596174 
L 145.56793 39.23892 
L 174.703378 39.362269 
L 203.838827 39.536303 
L 232.974275 39.941726 
L 262.109724 40.242002 
L 291.245172 40.465757 
L 320.38062 40.709592 
L 349.516069 41.038692 
L 378.651517 41.424545 
L 407.786966 41.674615 
L 436.922414 41.979587 
L 466.057863 42.226997 
L 495.193311 42.64584 
L 524.32876 43.086422 
L 553.464208 43.217332 
L 582.599656 43.668566 
L 611.735105 44.11171 
L 640.870553 44.380426 
L 670.006002 45.319671 
L 699.14145 45.569531 
L 728.276899 45.915982 
L 757.412347 46.867042 
L 786.547796 47.641262 
L 815.683244 48.233226 
L 844.818692 48.454146 
L 873.954141 49.372424 
L 903.089589 50.507228 
L 932.225038 50.835502 
L 949.706307 51.676781 
" clip-path="url(#p7354be1914)" style="fill: none; stroke: #5cb85c; stroke-linecap: square"/>
   </g>
   <g id="line2d_23">
    <path d="M 81.469943 37.494665 
L 87.297033 38.790335 
L 93.124123 38.037064 
L 98.951212 37.035541 
L 104.778302 36.817087 
L 110.605392 36.739842 
L 116.432481 37.582554 
L 122.259571 37.193365 
L 128.086661 37.109954 
L 145.56793 36.697223 
L 174.703378 36.867258 
L 203.838827 37.106919 
L 232.974275 37.789071 
L 262.109724 38.21106 
L 291.245172 38.738381 
L 320.38062 39.038388 
L 349.516069 39.286309 
L 378.651517 39.586309 
L 407.786966 39.727406 
L 436.922414 39.968115 
L 466.057863 40.233172 
L 495.193311 40.534838 
L 524.32876 40.650767 
L 553.464208 40.87413 
L 582.599656 41.255114 
L 611.735105 41.375259 
L 640.870553 41.860917 
L 670.006002 41.996167 
L 699.14145 42.077908 
L 728.276899 42.646644 
L 757.412347 42.964994 
L 786.547796 43.320125 
L 815.683244 43.758585 
L 844.818692 44.282825 
L 873.954141 44.471114 
L 903.089589 44.59694 
L 932.225038 45.767834 
L 949.706307 46.032714 
" clip-path="url(#p7354be1914)" style="fill: none; stroke: #5cb85c; stroke-linecap: square"/>
   </g>
   <g id="line2d_24">
    <path d="M 81.469943 38.579109 
L 87.297033 39.440432 
L 93.124123 39.314146 
L 98.951212 39.306523 
L 104.778302 38.653556 
L 110.605392 39.173758 
L 116.432481 39.307811 
L 122.259571 38.684507 
L 128.086661 38.569014 
L 145.56793 38.420513 
L 174.703378 38.483474 
L 203.838827 38.655979 
L 232.974275 38.997068 
L 262.109724 39.28981 
L 291.245172 39.482934 
L 320.38062 39.714352 
L 349.516069 40.004548 
L 378.651517 40.357436 
L 407.786966 40.586092 
L 436.922414 40.851079 
L 466.057863 41.105793 
L 495.193311 41.497227 
L 524.32876 41.887422 
L 553.464208 42.020181 
L 582.599656 42.479922 
L 611.735105 42.850928 
L 640.870553 43.116921 
L 670.006002 44.017337 
L 699.14145 44.199167 
L 728.276899 44.568958 
L 757.412347 45.4121 
L 786.547796 46.204046 
L 815.683244 46.758246 
L 844.818692 46.953876 
L 873.954141 47.797746 
L 903.089589 48.955742 
L 932.225038 49.245851 
L 949.706307 50.011909 
" clip-path="url(#p7354be1914)" style="fill: none; stroke: #5cb85c; stroke-linecap: square"/>
   </g>
   <g id="line2d_25">
    <path d="M 81.469943 38.683823 
L 87.297033 40.470051 
L 93.124123 39.729078 
L 98.951212 38.160169 
L 104.778302 37.680083 
L 110.605392 37.413119 
L 116.432481 38.556632 
L 122.259571 37.930685 
L 128.086661 37.95694 
L 145.56793 37.21965 
L 174.703378 37.357904 
L 203.838827 37.63524 
L 232.974275 38.381578 
L 262.109724 38.841962 
L 291.245172 39.439535 
L 320.38062 39.701648 
L 349.516069 39.963357 
L 378.651517 40.281948 
L 407.786966 40.492529 
L 436.922414 40.709048 
L 466.057863 41.017872 
L 495.193311 41.283129 
L 524.32876 41.453508 
L 553.464208 41.748285 
L 582.599656 42.088537 
L 611.735105 42.387004 
L 640.870553 42.870011 
L 670.006002 42.972537 
L 699.14145 43.050375 
L 728.276899 43.635317 
L 757.412347 43.968172 
L 786.547796 44.322798 
L 815.683244 44.865912 
L 844.818692 45.803382 
L 873.954141 45.625892 
L 903.089589 45.71317 
L 932.225038 46.979146 
L 949.706307 48.107607 
" clip-path="url(#p7354be1914)" style="fill: none; stroke: #5cb85c; stroke-linecap: square"/>
   </g>
   <g id="line2d_26">
    <path d="M 81.469943 40.089141 
L 87.297033 40.999987 
L 93.124123 40.231145 
L 98.951212 40.291769 
L 104.778302 39.694315 
L 110.605392 40.142564 
L 116.432481 40.369984 
L 122.259571 39.646955 
L 128.086661 39.850693 
L 145.56793 39.206717 
L 174.703378 39.303507 
L 203.838827 39.53784 
L 232.974275 39.950201 
L 262.109724 40.400901 
L 291.245172 40.52794 
L 320.38062 40.874567 
L 349.516069 41.116892 
L 378.651517 41.509194 
L 407.786966 41.820255 
L 436.922414 42.122085 
L 466.057863 42.312361 
L 495.193311 42.908496 
L 524.32876 43.142242 
L 553.464208 43.392739 
L 582.599656 43.862009 
L 611.735105 44.231967 
L 640.870553 44.773812 
L 670.006002 45.541283 
L 699.14145 45.83844 
L 728.276899 46.265388 
L 757.412347 47.169492 
L 786.547796 48.051374 
L 815.683244 48.364192 
L 844.818692 48.589143 
L 873.954141 49.853182 
L 903.089589 50.990873 
L 932.225038 51.561858 
L 949.706307 52.249602 
" clip-path="url(#p7354be1914)" style="fill: none; stroke: #5cb85c; stroke-linecap: square"/>
   </g>
   <g id="line2d_27">
    <path d="M 81.469943 37.385206 
L 87.297033 38.63267 
L 93.124123 37.912956 
L 98.951212 36.943552 
L 104.778302 36.713895 
L 110.605392 36.661125 
L 116.432481 37.419106 
L 122.259571 37.084467 
L 128.086661 37.021789 
L 145.56793 36.601256 
L 174.703378 36.743153 
L 203.838827 36.980317 
L 232.974275 37.615038 
L 262.109724 38.007609 
L 291.245172 38.475519 
L 320.38062 38.763751 
L 349.516069 39.026592 
L 378.651517 39.304727 
L 407.786966 39.435494 
L 436.922414 39.733318 
L 466.057863 40.002617 
L 495.193311 40.218961 
L 524.32876 40.301145 
L 553.464208 40.534672 
L 582.599656 40.908285 
L 611.735105 41.038827 
L 640.870553 41.481169 
L 670.006002 41.638051 
L 699.14145 41.723957 
L 728.276899 42.325439 
L 757.412347 42.599807 
L 786.547796 42.972024 
L 815.683244 43.360165 
L 844.818692 43.864311 
L 873.954141 44.042222 
L 903.089589 44.229936 
L 932.225038 45.40063 
L 949.706307 45.649107 
" clip-path="url(#p7354be1914)" style="fill: none; stroke: #5cb85c; stroke-linecap: square"/>
   </g>
   <g id="line2d_28">
    <path d="M 81.469943 38.90395 
L 87.297033 39.861924 
L 93.124123 39.616479 
L 98.951212 39.586952 
L 104.778302 38.88359 
L 110.605392 39.355684 
L 116.432481 39.529699 
L 122.259571 38.803789 
L 128.086661 38.965797 
L 145.56793 38.603726 
L 174.703378 38.706885 
L 203.838827 38.861669 
L 232.974275 39.232363 
L 262.109724 39.521338 
L 291.245172 39.725811 
L 320.38062 39.940236 
L 349.516069 40.263681 
L 378.651517 40.614992 
L 407.786966 40.835086 
L 436.922414 41.128394 
L 466.057863 41.364398 
L 495.193311 41.75641 
L 524.32876 42.154048 
L 553.464208 42.291081 
L 582.599656 42.725025 
L 611.735105 43.128901 
L 640.870553 43.374994 
L 670.006002 44.267274 
L 699.14145 44.51085 
L 728.276899 44.82622 
L 757.412347 45.718413 
L 786.547796 46.459011 
L 815.683244 47.048251 
L 844.818692 47.271233 
L 873.954141 48.16928 
L 903.089589 49.274541 
L 932.225038 49.624533 
L 949.706307 50.454056 
" clip-path="url(#p7354be1914)" style="fill: none; stroke: #5cb85c; stroke-linecap: square"/>
   </g>
   <g id="line2d_29">
    <path d="M 81.469943 38.945812 
L 87.297033 40.790538 
L 93.124123 40.071517 
L 98.951212 38.4992 
L 104.778302 38.039836 
L 110.605392 37.717572 
L 116.432481 38.794968 
L 122.259571 38.32811 
L 128.086661 38.34724 
L 145.56793 37.543304 
L 174.703378 37.68032 
L 203.838827 37.949822 
L 232.974275 38.735668 
L 262.109724 39.190593 
L 291.245172 39.761311 
L 320.38062 40.017752 
L 349.516069 40.308753 
L 378.651517 40.614329 
L 407.786966 40.803815 
L 436.922414 41.085458 
L 466.057863 41.385275 
L 495.193311 41.61299 
L 524.32876 41.760858 
L 553.464208 42.068737 
L 582.599656 42.408487 
L 611.735105 42.720159 
L 640.870553 43.171002 
L 670.006002 43.29058 
L 699.14145 43.377949 
L 728.276899 43.99004 
L 757.412347 44.282586 
L 786.547796 44.644844 
L 815.683244 45.14934 
L 844.818692 46.098369 
L 873.954141 45.955158 
L 903.089589 46.047056 
L 932.225038 47.2723 
L 949.706307 48.285652 
" clip-path="url(#p7354be1914)" style="fill: none; stroke: #5cb85c; stroke-linecap: square"/>
   </g>
   <g id="line2d_30">
    <path d="M 81.469943 39.585971 
L 87.297033 40.920464 
L 93.124123 40.30003 
L 98.951212 40.297163 
L 104.778302 39.704044 
L 110.605392 40.0597 
L 116.432481 40.372351 
L 122.259571 39.572914 
L 128.086661 39.74867 
L 145.56793 39.141108 
L 174.703378 39.206742 
L 203.838827 39.407488 
L 232.974275 39.798583 
L 262.109724 40.224829 
L 291.245172 40.302694 
L 320.38062 40.651556 
L 349.516069 40.870923 
L 378.651517 41.269751 
L 407.786966 41.542768 
L 436.922414 41.864713 
L 466.057863 42.043993 
L 495.193311 42.599561 
L 524.32876 42.832952 
L 553.464208 43.065889 
L 582.599656 43.486973 
L 611.735105 43.870146 
L 640.870553 44.3585 
L 670.006002 45.072468 
L 699.14145 45.393311 
L 728.276899 45.767977 
L 757.412347 46.631583 
L 786.547796 47.452688 
L 815.683244 47.751965 
L 844.818692 47.996862 
L 873.954141 49.20682 
L 903.089589 50.23776 
L 932.225038 50.822447 
L 949.706307 51.521082 
" clip-path="url(#p7354be1914)" style="fill: none; stroke: #5cb85c; stroke-linecap: square"/>
   </g>
   <g id="line2d_31">
    <path d="M 81.469943 37.459829 
L 87.297033 38.379235 
L 93.124123 37.650386 
L 98.951212 36.706963 
L 104.778302 36.475565 
L 110.605392 36.431081 
L 116.432481 37.185901 
L 122.259571 36.8038 
L 128.086661 36.722361 
L 145.56793 36.334463 
L 174.703378 36.4944 
L 203.838827 36.707337 
L 232.974275 37.303772 
L 262.109724 37.685131 
L 291.245172 38.138386 
L 320.38062 38.443468 
L 349.516069 38.70031 
L 378.651517 38.99762 
L 407.786966 39.081256 
L 436.922414 39.430173 
L 466.057863 39.691236 
L 495.193311 39.901358 
L 524.32876 39.980025 
L 553.464208 40.219448 
L 582.599656 40.590972 
L 611.735105 40.707432 
L 640.870553 41.126517 
L 670.006002 41.264431 
L 699.14145 41.37968 
L 728.276899 41.957947 
L 757.412347 42.204759 
L 786.547796 42.548264 
L 815.683244 42.944658 
L 844.818692 43.429261 
L 873.954141 43.628297 
L 903.089589 43.806225 
L 932.225038 44.969499 
L 949.706307 45.11138 
" clip-path="url(#p7354be1914)" style="fill: none; stroke: #5cb85c; stroke-linecap: square"/>
   </g>
   <g id="line2d_32">
    <path d="M 81.469943 38.352791 
L 87.297033 38.965806 
L 93.124123 38.775678 
L 98.951212 38.920754 
L 104.778302 38.412244 
L 110.605392 39.17696 
L 116.432481 38.951445 
L 122.259571 38.327942 
L 128.086661 38.369784 
L 145.56793 38.185074 
L 174.703378 38.303202 
L 203.838827 38.463936 
L 232.974275 38.812859 
L 262.109724 39.09782 
L 291.245172 39.265716 
L 320.38062 39.482474 
L 349.516069 39.794111 
L 378.651517 40.110267 
L 407.786966 40.333376 
L 436.922414 40.601909 
L 466.057863 40.839734 
L 495.193311 41.192365 
L 524.32876 41.568417 
L 553.464208 41.6856 
L 582.599656 42.077227 
L 611.735105 42.473339 
L 640.870553 42.689672 
L 670.006002 43.507804 
L 699.14145 43.753551 
L 728.276899 44.036095 
L 757.412347 44.87617 
L 786.547796 45.587449 
L 815.683244 46.121243 
L 844.818692 46.328877 
L 873.954141 47.200464 
L 903.089589 48.211592 
L 932.225038 48.57209 
L 949.706307 49.385529 
" clip-path="url(#p7354be1914)" style="fill: none; stroke: #5cb85c; stroke-linecap: square"/>
   </g>
   <g id="line2d_33">
    <path d="M 81.469943 37.378457 
L 87.297033 38.582223 
L 93.124123 37.82128 
L 98.951212 36.840995 
L 104.778302 36.594724 
L 110.605392 36.52435 
L 116.432481 37.381566 
L 122.259571 37.026685 
L 128.086661 36.945888 
L 145.56793 36.488108 
L 174.703378 36.648856 
L 203.838827 36.907977 
L 232.974275 37.538954 
L 262.109724 37.954094 
L 291.245172 38.441574 
L 320.38062 38.702648 
L 349.516069 38.936573 
L 378.651517 39.209976 
L 407.786966 39.361787 
L 436.922414 39.578483 
L 466.057863 39.86176 
L 495.193311 40.122501 
L 524.32876 40.240635 
L 553.464208 40.471631 
L 582.599656 40.816396 
L 611.735105 40.914927 
L 640.870553 41.388274 
L 670.006002 41.531733 
L 699.14145 41.607395 
L 728.276899 42.186449 
L 757.412347 42.444494 
L 786.547796 42.842 
L 815.683244 43.232222 
L 844.818692 43.731931 
L 873.954141 43.912014 
L 903.089589 44.093804 
L 932.225038 45.272859 
L 949.706307 45.504041 
" clip-path="url(#p7354be1914)" style="fill: none; stroke: #5cb85c; stroke-linecap: square"/>
   </g>
   <g id="line2d_34">
    <path d="M 81.469943 38.051313 
L 87.297033 39.060222 
L 93.124123 38.891853 
L 98.951212 38.956084 
L 104.778302 38.371786 
L 110.605392 38.867345 
L 116.432481 39.129139 
L 122.259571 38.260653 
L 128.086661 38.154653 
L 145.56793 38.058325 
L 174.703378 38.172213 
L 203.838827 38.342863 
L 232.974275 38.699929 
L 262.109724 38.969447 
L 291.245172 39.18176 
L 320.38062 39.399149 
L 349.516069 39.688557 
L 378.651517 40.033689 
L 407.786966 40.255804 
L 436.922414 40.503597 
L 466.057863 40.739942 
L 495.193311 41.110868 
L 524.32876 41.489168 
L 553.464208 41.613571 
L 582.599656 42.05529 
L 611.735105 42.427505 
L 640.870553 42.664618 
L 670.006002 43.564397 
L 699.14145 43.729511 
L 728.276899 44.100754 
L 757.412347 44.949322 
L 786.547796 45.690033 
L 815.683244 46.252084 
L 844.818692 46.436047 
L 873.954141 47.282493 
L 903.089589 48.431906 
L 932.225038 48.696245 
L 949.706307 49.475634 
" clip-path="url(#p7354be1914)" style="fill: none; stroke: #5cb85c; stroke-linecap: square"/>
   </g>
   <g id="line2d_35">
    <path d="M 81.469943 37.220371 
L 87.297033 38.479987 
L 93.124123 37.807118 
L 98.951212 36.807595 
L 104.778302 36.561073 
L 110.605392 36.502516 
L 116.432481 37.397509 
L 122.259571 36.930753 
L 128.086661 36.874101 
L 145.56793 36.433438 
L 174.703378 36.591906 
L 203.838827 36.849897 
L 232.974275 37.483415 
L 262.109724 37.889293 
L 291.245172 38.390251 
L 320.38062 38.667472 
L 349.516069 38.91026 
L 378.651517 39.19598 
L 407.786966 39.338395 
L 436.922414 39.554203 
L 466.057863 39.836635 
L 495.193311 40.10097 
L 524.32876 40.224067 
L 553.464208 40.457711 
L 582.599656 40.799838 
L 611.735105 40.924602 
L 640.870553 41.395384 
L 670.006002 41.555748 
L 699.14145 41.622378 
L 728.276899 42.190146 
L 757.412347 42.462485 
L 786.547796 42.825313 
L 815.683244 43.246744 
L 844.818692 43.755363 
L 873.954141 43.927283 
L 903.089589 44.079276 
L 932.225038 45.250595 
L 949.706307 45.47695 
" clip-path="url(#p7354be1914)" style="fill: none; stroke: #5cb85c; stroke-linecap: square"/>
   </g>
   <g id="line2d_36">
    <path d="M 81.469943 39.073624 
L 87.297033 40.170637 
L 93.124123 39.974644 
L 98.951212 40.02487 
L 104.778302 39.328044 
L 110.605392 39.849762 
L 116.432481 40.288111 
L 122.259571 39.207367 
L 128.086661 39.234266 
L 145.56793 38.972063 
L 174.703378 39.101963 
L 203.838827 39.263303 
L 232.974275 39.642965 
L 262.109724 39.955547 
L 291.245172 40.185986 
L 320.38062 40.421872 
L 349.516069 40.731254 
L 378.651517 41.094767 
L 407.786966 41.341969 
L 436.922414 41.613172 
L 466.057863 41.871507 
L 495.193311 42.27207 
L 524.32876 42.667564 
L 553.464208 42.803617 
L 582.599656 43.284094 
L 611.735105 43.661702 
L 640.870553 43.90985 
L 670.006002 44.859128 
L 699.14145 45.04875 
L 728.276899 45.425633 
L 757.412347 46.329514 
L 786.547796 47.104602 
L 815.683244 47.717161 
L 844.818692 47.909128 
L 873.954141 48.780448 
L 903.089589 50.013069 
L 932.225038 50.266814 
L 949.706307 51.115677 
" clip-path="url(#p7354be1914)" style="fill: none; stroke: #5cb85c; stroke-linecap: square"/>
   </g>
   <g id="line2d_37">
    <path d="M 81.469943 38.702265 
L 87.297033 40.166297 
L 93.124123 39.514145 
L 98.951212 38.147238 
L 104.778302 37.690208 
L 110.605392 37.478645 
L 116.432481 38.405385 
L 122.259571 37.95899 
L 128.086661 37.934983 
L 145.56793 37.24566 
L 174.703378 37.357819 
L 203.838827 37.578762 
L 232.974275 38.305104 
L 262.109724 38.721782 
L 291.245172 39.258181 
L 320.38062 39.555622 
L 349.516069 39.869535 
L 378.651517 40.178946 
L 407.786966 40.326376 
L 436.922414 40.703638 
L 466.057863 41.019651 
L 495.193311 41.157651 
L 524.32876 41.22956 
L 553.464208 41.573097 
L 582.599656 41.957053 
L 611.735105 42.237959 
L 640.870553 42.62989 
L 670.006002 42.750216 
L 699.14145 42.889836 
L 728.276899 43.488343 
L 757.412347 43.782578 
L 786.547796 44.127198 
L 815.683244 44.587449 
L 844.818692 45.433649 
L 873.954141 45.437156 
L 903.089589 45.589124 
L 932.225038 46.765406 
L 949.706307 47.597276 
" clip-path="url(#p7354be1914)" style="fill: none; stroke: #5cb85c; stroke-linecap: square"/>
   </g>
   <g id="line2d_38">
    <path d="M 81.469943 38.994215 
L 87.297033 40.268687 
L 93.124123 39.602628 
L 98.951212 39.674943 
L 104.778302 39.167197 
L 110.605392 39.760001 
L 116.432481 39.706548 
L 122.259571 38.863546 
L 128.086661 38.880535 
L 145.56793 38.602339 
L 174.703378 38.686361 
L 203.838827 38.8821 
L 232.974275 39.254201 
L 262.109724 39.625305 
L 291.245172 39.706101 
L 320.38062 40.057365 
L 349.516069 40.280195 
L 378.651517 40.6719 
L 407.786966 40.914967 
L 436.922414 41.223435 
L 466.057863 41.416964 
L 495.193311 41.924088 
L 524.32876 42.173711 
L 553.464208 42.372854 
L 582.599656 42.75199 
L 611.735105 43.1292 
L 640.870553 43.588882 
L 670.006002 44.218202 
L 699.14145 44.627902 
L 728.276899 44.890892 
L 757.412347 45.767683 
L 786.547796 46.547084 
L 815.683244 46.864817 
L 844.818692 47.130784 
L 873.954141 48.34103 
L 903.089589 49.30638 
L 932.225038 49.946966 
L 949.706307 50.722982 
" clip-path="url(#p7354be1914)" style="fill: none; stroke: #5cb85c; stroke-linecap: square"/>
   </g>
   <g id="line2d_39">
    <path d="M 81.469943 37.134272 
L 87.297033 38.352533 
L 93.124123 37.603115 
L 98.951212 36.664683 
L 104.778302 36.42255 
L 110.605392 36.401796 
L 116.432481 37.187668 
L 122.259571 36.774183 
L 128.086661 36.711518 
L 145.56793 36.304421 
L 174.703378 36.468008 
L 203.838827 36.689388 
L 232.974275 37.316032 
L 262.109724 37.685714 
L 291.245172 38.184907 
L 320.38062 38.46134 
L 349.516069 38.736408 
L 378.651517 39.020257 
L 407.786966 39.137688 
L 436.922414 39.423455 
L 466.057863 39.706909 
L 495.193311 39.955549 
L 524.32876 40.037016 
L 553.464208 40.254131 
L 582.599656 40.625599 
L 611.735105 40.778904 
L 640.870553 41.21582 
L 670.006002 41.382568 
L 699.14145 41.466678 
L 728.276899 42.070986 
L 757.412347 42.382464 
L 786.547796 42.718844 
L 815.683244 43.139176 
L 844.818692 43.679276 
L 873.954141 43.847562 
L 903.089589 44.019378 
L 932.225038 45.255596 
L 949.706307 45.564148 
" clip-path="url(#p7354be1914)" style="fill: none; stroke: #5cb85c; stroke-linecap: square"/>
   </g>
   <g id="line2d_40">
    <path d="M 81.469943 39.676283 
L 87.297033 40.321811 
L 93.124123 40.03541 
L 98.951212 40.018527 
L 104.778302 39.307958 
L 110.605392 39.811552 
L 116.432481 40.227465 
L 122.259571 39.534316 
L 128.086661 39.285883 
L 145.56793 39.024032 
L 174.703378 39.151375 
L 203.838827 39.343945 
L 232.974275 39.738726 
L 262.109724 40.064001 
L 291.245172 40.28872 
L 320.38062 40.488937 
L 349.516069 40.866968 
L 378.651517 41.218584 
L 407.786966 41.485673 
L 436.922414 41.781182 
L 466.057863 42.045305 
L 495.193311 42.459674 
L 524.32876 42.916394 
L 553.464208 43.044931 
L 582.599656 43.521799 
L 611.735105 43.957355 
L 640.870553 44.226261 
L 670.006002 45.213881 
L 699.14145 45.41817 
L 728.276899 45.770742 
L 757.412347 46.716884 
L 786.547796 47.551638 
L 815.683244 48.151212 
L 844.818692 48.403541 
L 873.954141 49.299707 
L 903.089589 50.533125 
L 932.225038 50.880706 
L 949.706307 51.760496 
" clip-path="url(#p7354be1914)" style="fill: none; stroke: #5cb85c; stroke-linecap: square"/>
   </g>
   <g id="line2d_41">
    <path d="M 81.469943 37.373361 
L 87.297033 38.360347 
L 93.124123 37.669931 
L 98.951212 36.77489 
L 104.778302 36.546135 
L 110.605392 36.489552 
L 116.432481 37.250684 
L 122.259571 36.893336 
L 128.086661 36.81602 
L 145.56793 36.413519 
L 174.703378 36.539604 
L 203.838827 36.755109 
L 232.974275 37.361076 
L 262.109724 37.724433 
L 291.245172 38.193724 
L 320.38062 38.487203 
L 349.516069 38.794453 
L 378.651517 39.054897 
L 407.786966 39.172646 
L 436.922414 39.519492 
L 466.057863 39.827441 
L 495.193311 39.99124 
L 524.32876 40.033079 
L 553.464208 40.307089 
L 582.599656 40.668913 
L 611.735105 40.828071 
L 640.870553 41.214665 
L 670.006002 41.380691 
L 699.14145 41.468542 
L 728.276899 42.099049 
L 757.412347 42.341613 
L 786.547796 42.695721 
L 815.683244 43.077987 
L 844.818692 43.582142 
L 873.954141 43.797648 
L 903.089589 44.006376 
L 932.225038 45.209683 
L 949.706307 45.373924 
" clip-path="url(#p7354be1914)" style="fill: none; stroke: #5cb85c; stroke-linecap: square"/>
   </g>
   <g id="line2d_42">
    <path d="M 81.469943 38.280569 
L 87.297033 39.335977 
L 93.124123 39.108917 
L 98.951212 39.206553 
L 104.778302 38.623929 
L 110.605392 39.331559 
L 116.432481 39.452136 
L 122.259571 38.434041 
L 128.086661 38.485978 
L 145.56793 38.255574 
L 174.703378 38.388094 
L 203.838827 38.553451 
L 232.974275 38.912878 
L 262.109724 39.197825 
L 291.245172 39.404167 
L 320.38062 39.625497 
L 349.516069 39.946845 
L 378.651517 40.296552 
L 407.786966 40.533986 
L 436.922414 40.80859 
L 466.057863 41.051104 
L 495.193311 41.420926 
L 524.32876 41.821749 
L 553.464208 41.956866 
L 582.599656 42.335444 
L 611.735105 42.765512 
L 640.870553 43.00099 
L 670.006002 43.837421 
L 699.14145 44.112946 
L 728.276899 44.384856 
L 757.412347 45.276174 
L 786.547796 46.028797 
L 815.683244 46.586757 
L 844.818692 46.83493 
L 873.954141 47.768413 
L 903.089589 48.839998 
L 932.225038 49.294407 
L 949.706307 50.140645 
" clip-path="url(#p7354be1914)" style="fill: none; stroke: #5cb85c; stroke-linecap: square"/>
   </g>
   <g id="line2d_43">
    <path d="M 81.469943 37.328725 
L 87.297033 38.441818 
L 93.124123 37.683631 
L 98.951212 36.783298 
L 104.778302 36.579344 
L 110.605392 36.56293 
L 116.432481 37.340819 
L 122.259571 37.005868 
L 128.086661 36.867851 
L 145.56793 36.481052 
L 174.703378 36.632077 
L 203.838827 36.858981 
L 232.974275 37.471869 
L 262.109724 37.860318 
L 291.245172 38.331903 
L 320.38062 38.586026 
L 349.516069 38.839321 
L 378.651517 39.13052 
L 407.786966 39.266683 
L 436.922414 39.523211 
L 466.057863 39.809828 
L 495.193311 40.027444 
L 524.32876 40.117027 
L 553.464208 40.361561 
L 582.599656 40.734636 
L 611.735105 40.844542 
L 640.870553 41.26241 
L 670.006002 41.410101 
L 699.14145 41.519956 
L 728.276899 42.106756 
L 757.412347 42.404348 
L 786.547796 42.774415 
L 815.683244 43.14608 
L 844.818692 43.64256 
L 873.954141 43.864345 
L 903.089589 44.065363 
L 932.225038 45.228323 
L 949.706307 45.464838 
" clip-path="url(#p7354be1914)" style="fill: none; stroke: #5cb85c; stroke-linecap: square"/>
   </g>
   <g id="line2d_44">
    <path d="M 81.469943 38.748102 
L 87.297033 39.759251 
L 93.124123 39.502209 
L 98.951212 39.499578 
L 104.778302 38.862737 
L 110.605392 39.618113 
L 116.432481 39.572284 
L 122.259571 38.718849 
L 128.086661 38.751695 
L 145.56793 38.517922 
L 174.703378 38.670266 
L 203.838827 38.818487 
L 232.974275 39.199711 
L 262.109724 39.456753 
L 291.245172 39.665123 
L 320.38062 39.894973 
L 349.516069 40.210385 
L 378.651517 40.551915 
L 407.786966 40.760252 
L 436.922414 41.042065 
L 466.057863 41.27066 
L 495.193311 41.647697 
L 524.32876 42.031889 
L 553.464208 42.148155 
L 582.599656 42.569193 
L 611.735105 42.973138 
L 640.870553 43.202488 
L 670.006002 44.045131 
L 699.14145 44.300182 
L 728.276899 44.604475 
L 757.412347 45.470645 
L 786.547796 46.22206 
L 815.683244 46.785691 
L 844.818692 46.994212 
L 873.954141 47.906897 
L 903.089589 49.002879 
L 932.225038 49.364871 
L 949.706307 50.218006 
" clip-path="url(#p7354be1914)" style="fill: none; stroke: #5cb85c; stroke-linecap: square"/>
   </g>
   <g id="line2d_45">
    <path d="M 81.469943 37.610516 
L 87.297033 38.477369 
L 93.124123 37.80638 
L 98.951212 36.921361 
L 104.778302 36.689826 
L 110.605392 36.571155 
L 116.432481 37.248839 
L 122.259571 36.941366 
L 128.086661 36.862848 
L 145.56793 36.436639 
L 174.703378 36.548926 
L 203.838827 36.734382 
L 232.974275 37.353669 
L 262.109724 37.708723 
L 291.245172 38.135941 
L 320.38062 38.475913 
L 349.516069 38.791025 
L 378.651517 39.098524 
L 407.786966 39.185245 
L 436.922414 39.619306 
L 466.057863 39.917776 
L 495.193311 40.104145 
L 524.32876 40.105747 
L 553.464208 40.380153 
L 582.599656 40.773852 
L 611.735105 40.941553 
L 640.870553 41.313141 
L 670.006002 41.45435 
L 699.14145 41.603187 
L 728.276899 42.293043 
L 757.412347 42.563888 
L 786.547796 42.931367 
L 815.683244 43.317896 
L 844.818692 43.834179 
L 873.954141 44.037623 
L 903.089589 44.264475 
L 932.225038 45.549586 
L 949.706307 45.731341 
" clip-path="url(#p7354be1914)" style="fill: none; stroke: #5cb85c; stroke-linecap: square"/>
   </g>
   <g id="line2d_46">
    <path d="M 81.469943 37.645192 
L 87.297033 38.529574 
L 93.124123 38.329026 
L 98.951212 38.389046 
L 104.778302 37.847565 
L 110.605392 38.440474 
L 116.432481 38.558661 
L 122.259571 37.81212 
L 128.086661 37.878447 
L 145.56793 37.567449 
L 174.703378 37.67559 
L 203.838827 37.844921 
L 232.974275 38.183816 
L 262.109724 38.460058 
L 291.245172 38.657771 
L 320.38062 38.891539 
L 349.516069 39.170514 
L 378.651517 39.508939 
L 407.786966 39.743552 
L 436.922414 40.029025 
L 466.057863 40.261693 
L 495.193311 40.605124 
L 524.32876 41.041247 
L 553.464208 41.160749 
L 582.599656 41.5276 
L 611.735105 41.956541 
L 640.870553 42.20809 
L 670.006002 43.00054 
L 699.14145 43.318764 
L 728.276899 43.533304 
L 757.412347 44.435834 
L 786.547796 45.201343 
L 815.683244 45.757384 
L 844.818692 46.044058 
L 873.954141 47.014087 
L 903.089589 48.047972 
L 932.225038 48.626026 
L 949.706307 49.50726 
" clip-path="url(#p7354be1914)" style="fill: none; stroke: #5cb85c; stroke-linecap: square"/>
   </g>
   <g id="line2d_47">
    <path d="M 81.469943 37.205109 
L 87.297033 38.356494 
L 93.124123 37.623895 
L 98.951212 36.690571 
L 104.778302 36.466301 
L 110.605392 36.45454 
L 116.432481 37.228848 
L 122.259571 36.790564 
L 128.086661 36.734072 
L 145.56793 36.328891 
L 174.703378 36.484718 
L 203.838827 36.701996 
L 232.974275 37.322304 
L 262.109724 37.721657 
L 291.245172 38.196542 
L 320.38062 38.523184 
L 349.516069 38.764767 
L 378.651517 39.100557 
L 407.786966 39.188217 
L 436.922414 39.499905 
L 466.057863 39.776044 
L 495.193311 39.995813 
L 524.32876 40.032011 
L 553.464208 40.297961 
L 582.599656 40.697155 
L 611.735105 40.822803 
L 640.870553 41.261321 
L 670.006002 41.363415 
L 699.14145 41.47777 
L 728.276899 42.061857 
L 757.412347 42.394523 
L 786.547796 42.728282 
L 815.683244 43.148715 
L 844.818692 43.628297 
L 873.954141 43.826602 
L 903.089589 43.996434 
L 932.225038 45.222493 
L 949.706307 45.486759 
" clip-path="url(#p7354be1914)" style="fill: none; stroke: #5cb85c; stroke-linecap: square"/>
   </g>
   <g id="line2d_48">
    <path d="M 81.469943 38.64995 
L 87.297033 39.559036 
L 93.124123 39.330997 
L 98.951212 39.398989 
L 104.778302 38.765694 
L 110.605392 39.272359 
L 116.432481 39.558457 
L 122.259571 38.697264 
L 128.086661 38.600792 
L 145.56793 38.463206 
L 174.703378 38.549816 
L 203.838827 38.733406 
L 232.974275 39.099432 
L 262.109724 39.390454 
L 291.245172 39.591437 
L 320.38062 39.832434 
L 349.516069 40.144836 
L 378.651517 40.511353 
L 407.786966 40.724064 
L 436.922414 41.007242 
L 466.057863 41.26055 
L 495.193311 41.648841 
L 524.32876 42.04356 
L 553.464208 42.167476 
L 582.599656 42.617838 
L 611.735105 43.023783 
L 640.870553 43.270644 
L 670.006002 44.151923 
L 699.14145 44.399278 
L 728.276899 44.727101 
L 757.412347 45.615387 
L 786.547796 46.41121 
L 815.683244 46.964326 
L 844.818692 47.180287 
L 873.954141 48.072938 
L 903.089589 49.211654 
L 932.225038 49.550015 
L 949.706307 50.397807 
" clip-path="url(#p7354be1914)" style="fill: none; stroke: #5cb85c; stroke-linecap: square"/>
   </g>
   <g id="line2d_49">
    <path d="M 38.058125 353.2239 
L 993.118125 353.2239 
" clip-path="url(#p7354be1914)" style="fill: none; stroke: #dedede; stroke-width: 2; stroke-linecap: square"/>
   </g>
   <g id="text_19">
    <!-- FastQC: Mean Quality Scores -->
    <g transform="translate(400.349375 19.3575) scale(0.16 -0.16)">
     <defs>
      <path id="DejaVuSans-46" d="M 628 4666 
L 3309 4666 
L 3309 4134 
L 1259 4134 
L 1259 2759 
L 3109 2759 
L 3109 2228 
L 1259 2228 
L 1259 0 
L 628 0 
L 628 4666 
z
" transform="scale(0.015625)"/>
      <path id="DejaVuSans-61" d="M 2194 1759 
Q 1497 1759 1228 1600 
Q 959 1441 959 1056 
Q 959 750 1161 570 
Q 1363 391 1709 391 
Q 2188 391 2477 730 
Q 2766 1069 2766 1631 
L 2766 1759 
L 2194 1759 
z
M 3341 1997 
L 3341 0 
L 2766 0 
L 2766 531 
Q 2569 213 2275 61 
Q 1981 -91 1556 -91 
Q 1019 -91 701 211 
Q 384 513 384 1019 
Q 384 1609 779 1909 
Q 1175 2209 1959 2209 
L 2766 2209 
L 2766 2266 
Q 2766 2663 2505 2880 
Q 2244 3097 1772 3097 
Q 1472 3097 1187 3025 
Q 903 2953 641 2809 
L 641 3341 
Q 956 3463 1253 3523 
Q 1550 3584 1831 3584 
Q 2591 3584 2966 3190 
Q 3341 2797 3341 1997 
z
" transform="scale(0.015625)"/>
      <path id="DejaVuSans-51" d="M 2522 4238 
Q 1834 4238 1429 3725 
Q 1025 3213 1025 2328 
Q 1025 1447 1429 934 
Q 1834 422 2522 422 
Q 3209 422 3611 934 
Q 4013 1447 4013 2328 
Q 4013 3213 3611 3725 
Q 3209 4238 2522 4238 
z
M 3406 84 
L 4238 -825 
L 3475 -825 
L 2784 -78 
Q 2681 -84 2626 -87 
Q 2572 -91 2522 -91 
Q 1538 -91 948 567 
Q 359 1225 359 2328 
Q 359 3434 948 4092 
Q 1538 4750 2522 4750 
Q 3503 4750 4090 4092 
Q 4678 3434 4678 2328 
Q 4678 1516 4351 937 
Q 4025 359 3406 84 
z
" transform="scale(0.015625)"/>
      <path id="DejaVuSans-43" d="M 4122 4306 
L 4122 3641 
Q 3803 3938 3442 4084 
Q 3081 4231 2675 4231 
Q 1875 4231 1450 3742 
Q 1025 3253 1025 2328 
Q 1025 1406 1450 917 
Q 1875 428 2675 428 
Q 3081 428 3442 575 
Q 3803 722 4122 1019 
L 4122 359 
Q 3791 134 3420 21 
Q 3050 -91 2638 -91 
Q 1578 -91 968 557 
Q 359 1206 359 2328 
Q 359 3453 968 4101 
Q 1578 4750 2638 4750 
Q 3056 4750 3426 4639 
Q 3797 4528 4122 4306 
z
" transform="scale(0.015625)"/>
      <path id="DejaVuSans-3a" d="M 750 794 
L 1409 794 
L 1409 0 
L 750 0 
L 750 794 
z
M 750 3309 
L 1409 3309 
L 1409 2516 
L 750 2516 
L 750 3309 
z
" transform="scale(0.015625)"/>
      <path id="DejaVuSans-4d" d="M 628 4666 
L 1569 4666 
L 2759 1491 
L 3956 4666 
L 4897 4666 
L 4897 0 
L 4281 0 
L 4281 4097 
L 3078 897 
L 2444 897 
L 1241 4097 
L 1241 0 
L 628 0 
L 628 4666 
z
" transform="scale(0.015625)"/>
      <path id="DejaVuSans-75" d="M 544 1381 
L 544 3500 
L 1119 3500 
L 1119 1403 
Q 1119 906 1312 657 
Q 1506 409 1894 409 
Q 2359 409 2629 706 
Q 2900 1003 2900 1516 
L 2900 3500 
L 3475 3500 
L 3475 0 
L 2900 0 
L 2900 538 
Q 2691 219 2414 64 
Q 2138 -91 1772 -91 
Q 1169 -91 856 284 
Q 544 659 544 1381 
z
M 1991 3584 
L 1991 3584 
z
" transform="scale(0.015625)"/>
      <path id="DejaVuSans-6c" d="M 603 4863 
L 1178 4863 
L 1178 0 
L 603 0 
L 603 4863 
z
" transform="scale(0.015625)"/>
      <path id="DejaVuSans-79" d="M 2059 -325 
Q 1816 -950 1584 -1140 
Q 1353 -1331 966 -1331 
L 506 -1331 
L 506 -850 
L 844 -850 
Q 1081 -850 1212 -737 
Q 1344 -625 1503 -206 
L 1606 56 
L 191 3500 
L 800 3500 
L 1894 763 
L 2988 3500 
L 3597 3500 
L 2059 -325 
z
" transform="scale(0.015625)"/>
     </defs>
     <use xlink:href="#DejaVuSans-46"/>
     <use xlink:href="#DejaVuSans-61" x="48.394531"/>
     <use xlink:href="#DejaVuSans-73" x="109.673828"/>
     <use xlink:href="#DejaVuSans-74" x="161.773438"/>
     <use xlink:href="#DejaVuSans-51" x="200.982422"/>
     <use xlink:href="#DejaVuSans-43" x="279.693359"/>
     <use xlink:href="#DejaVuSans-3a" x="349.517578"/>
     <use xlink:href="#DejaVuSans-20" x="383.208984"/>
     <use xlink:href="#DejaVuSans-4d" x="414.996094"/>
     <use xlink:href="#DejaVuSans-65" x="501.275391"/>
     <use xlink:href="#DejaVuSans-61" x="562.798828"/>
     <use xlink:href="#DejaVuSans-6e" x="624.078125"/>
     <use xlink:href="#DejaVuSans-20" x="687.457031"/>
     <use xlink:href="#DejaVuSans-51" x="719.244141"/>
     <use xlink:href="#DejaVuSans-75" x="797.955078"/>
     <use xlink:href="#DejaVuSans-61" x="861.333984"/>
     <use xlink:href="#DejaVuSans-6c" x="922.613281"/>
     <use xlink:href="#DejaVuSans-69" x="950.396484"/>
     <use xlink:href="#DejaVuSans-74" x="978.179688"/>
     <use xlink:href="#DejaVuSans-79" x="1017.388672"/>
     <use xlink:href="#DejaVuSans-20" x="1076.568359"/>
     <use xlink:href="#DejaVuSans-53" x="1108.355469"/>
     <use xlink:href="#DejaVuSans-63" x="1171.832031"/>
     <use xlink:href="#DejaVuSans-6f" x="1226.8125"/>
     <use xlink:href="#DejaVuSans-72" x="1287.994141"/>
     <use xlink:href="#DejaVuSans-65" x="1326.857422"/>
     <use xlink:href="#DejaVuSans-73" x="1388.380859"/>
    </g>
   </g>
  </g>
 </g>
 <defs>
  <clipPath id="p7354be1914">
   <rect x="38.058125" y="35.2559" width="955.06" height="317.968"/>
  </clipPath>
 </defs>
</svg>
