<?xml version="1.0" encoding="utf-8" standalone="no"?>
<!DOCTYPE svg PUBLIC "-//W3C//DTD SVG 1.1//EN"
  "http://www.w3.org/Graphics/SVG/1.1/DTD/svg11.dtd">
<svg xmlns:xlink="http://www.w3.org/1999/xlink" width="1000.358125pt" height="388.844525pt" viewBox="0 0 1000.358125 388.844525" xmlns="http://www.w3.org/2000/svg" version="1.1">
 <metadata>
  <rdf:RDF xmlns:dc="http://purl.org/dc/elements/1.1/" xmlns:cc="http://creativecommons.org/ns#" xmlns:rdf="http://www.w3.org/1999/02/22-rdf-syntax-ns#">
   <cc:Work>
    <dc:type rdf:resource="http://purl.org/dc/dcmitype/StillImage"/>
    <dc:date>2023-10-05T12:27:33.558262</dc:date>
    <dc:format>image/svg+xml</dc:format>
    <dc:creator>
     <cc:Agent>
      <dc:title>Matplotlib v3.7.0, https://matplotlib.org/</dc:title>
     </cc:Agent>
    </dc:creator>
   </cc:Work>
  </rdf:RDF>
 </metadata>
 <defs>
  <style type="text/css">*{stroke-linejoin: round; stroke-linecap: butt}</style>
 </defs>
 <g id="figure_1">
  <g id="axes_1">
   <g id="patch_1">
    <path d="M 32.968125 353.2239 
L 993.158125 353.2239 
L 993.158125 35.2559 
L 32.968125 35.2559 
z
" style="fill: #ffffff"/>
   </g>
   <g id="patch_2">
    <path d="M 32.968125 -918.6481 
L 993.158125 -918.6481 
L 993.158125 -6006.1361 
L 32.968125 -6006.1361 
z
" clip-path="url(#pb42ca237fa)" style="fill: #e6c3c3"/>
   </g>
   <g id="patch_3">
    <path d="M 32.968125 35.2559 
L 993.158125 35.2559 
L 993.158125 -918.6481 
L 32.968125 -918.6481 
z
" clip-path="url(#pb42ca237fa)" style="fill: #e6dcc3"/>
   </g>
   <g id="patch_4">
    <path d="M 32.968125 353.2239 
L 993.158125 353.2239 
L 993.158125 35.2559 
L 32.968125 35.2559 
z
" clip-path="url(#pb42ca237fa)" style="fill: #c3e6c3"/>
   </g>
   <g id="matplotlib.axis_1">
    <g id="xtick_1">
     <g id="text_1">
      <!-- 0 -->
      <g transform="translate(30.423125 366.30265) scale(0.08 -0.08)">
       <defs>
        <path id="DejaVuSans-30" d="M 2034 4250 
Q 1547 4250 1301 3770 
Q 1056 3291 1056 2328 
Q 1056 1369 1301 889 
Q 1547 409 2034 409 
Q 2525 409 2770 889 
Q 3016 1369 3016 2328 
Q 3016 3291 2770 3770 
Q 2525 4250 2034 4250 
z
M 2034 4750 
Q 2819 4750 3233 4129 
Q 3647 3509 3647 2328 
Q 3647 1150 3233 529 
Q 2819 -91 2034 -91 
Q 1250 -91 836 529 
Q 422 1150 422 2328 
Q 422 3509 836 4129 
Q 1250 4750 2034 4750 
z
" transform="scale(0.015625)"/>
       </defs>
       <use xlink:href="#DejaVuSans-30"/>
      </g>
     </g>
    </g>
    <g id="xtick_2">
     <g id="text_2">
      <!-- 20 -->
      <g transform="translate(149.845734 366.30265) scale(0.08 -0.08)">
       <defs>
        <path id="DejaVuSans-32" d="M 1228 531 
L 3431 531 
L 3431 0 
L 469 0 
L 469 531 
Q 828 903 1448 1529 
Q 2069 2156 2228 2338 
Q 2531 2678 2651 2914 
Q 2772 3150 2772 3378 
Q 2772 3750 2511 3984 
Q 2250 4219 1831 4219 
Q 1534 4219 1204 4116 
Q 875 4013 500 3803 
L 500 4441 
Q 881 4594 1212 4672 
Q 1544 4750 1819 4750 
Q 2544 4750 2975 4387 
Q 3406 4025 3406 3419 
Q 3406 3131 3298 2873 
Q 3191 2616 2906 2266 
Q 2828 2175 2409 1742 
Q 1991 1309 1228 531 
z
" transform="scale(0.015625)"/>
       </defs>
       <use xlink:href="#DejaVuSans-32"/>
       <use xlink:href="#DejaVuSans-30" x="63.623047"/>
      </g>
     </g>
    </g>
    <g id="xtick_3">
     <g id="text_3">
      <!-- 40 -->
      <g transform="translate(271.813343 366.30265) scale(0.08 -0.08)">
       <defs>
        <path id="DejaVuSans-34" d="M 2419 4116 
L 825 1625 
L 2419 1625 
L 2419 4116 
z
M 2253 4666 
L 3047 4666 
L 3047 1625 
L 3713 1625 
L 3713 1100 
L 3047 1100 
L 3047 0 
L 2419 0 
L 2419 1100 
L 313 1100 
L 313 1709 
L 2253 4666 
z
" transform="scale(0.015625)"/>
       </defs>
       <use xlink:href="#DejaVuSans-34"/>
       <use xlink:href="#DejaVuSans-30" x="63.623047"/>
      </g>
     </g>
    </g>
    <g id="xtick_4">
     <g id="text_4">
      <!-- 60 -->
      <g transform="translate(393.780951 366.30265) scale(0.08 -0.08)">
       <defs>
        <path id="DejaVuSans-36" d="M 2113 2584 
Q 1688 2584 1439 2293 
Q 1191 2003 1191 1497 
Q 1191 994 1439 701 
Q 1688 409 2113 409 
Q 2538 409 2786 701 
Q 3034 994 3034 1497 
Q 3034 2003 2786 2293 
Q 2538 2584 2113 2584 
z
M 3366 4563 
L 3366 3988 
Q 3128 4100 2886 4159 
Q 2644 4219 2406 4219 
Q 1781 4219 1451 3797 
Q 1122 3375 1075 2522 
Q 1259 2794 1537 2939 
Q 1816 3084 2150 3084 
Q 2853 3084 3261 2657 
Q 3669 2231 3669 1497 
Q 3669 778 3244 343 
Q 2819 -91 2113 -91 
Q 1303 -91 875 529 
Q 447 1150 447 2328 
Q 447 3434 972 4092 
Q 1497 4750 2381 4750 
Q 2619 4750 2861 4703 
Q 3103 4656 3366 4563 
z
" transform="scale(0.015625)"/>
       </defs>
       <use xlink:href="#DejaVuSans-36"/>
       <use xlink:href="#DejaVuSans-30" x="63.623047"/>
      </g>
     </g>
    </g>
    <g id="xtick_5">
     <g id="text_5">
      <!-- 80 -->
      <g transform="translate(515.74856 366.30265) scale(0.08 -0.08)">
       <defs>
        <path id="DejaVuSans-38" d="M 2034 2216 
Q 1584 2216 1326 1975 
Q 1069 1734 1069 1313 
Q 1069 891 1326 650 
Q 1584 409 2034 409 
Q 2484 409 2743 651 
Q 3003 894 3003 1313 
Q 3003 1734 2745 1975 
Q 2488 2216 2034 2216 
z
M 1403 2484 
Q 997 2584 770 2862 
Q 544 3141 544 3541 
Q 544 4100 942 4425 
Q 1341 4750 2034 4750 
Q 2731 4750 3128 4425 
Q 3525 4100 3525 3541 
Q 3525 3141 3298 2862 
Q 3072 2584 2669 2484 
Q 3125 2378 3379 2068 
Q 3634 1759 3634 1313 
Q 3634 634 3220 271 
Q 2806 -91 2034 -91 
Q 1263 -91 848 271 
Q 434 634 434 1313 
Q 434 1759 690 2068 
Q 947 2378 1403 2484 
z
M 1172 3481 
Q 1172 3119 1398 2916 
Q 1625 2713 2034 2713 
Q 2441 2713 2670 2916 
Q 2900 3119 2900 3481 
Q 2900 3844 2670 4047 
Q 2441 4250 2034 4250 
Q 1625 4250 1398 4047 
Q 1172 3844 1172 3481 
z
" transform="scale(0.015625)"/>
       </defs>
       <use xlink:href="#DejaVuSans-38"/>
       <use xlink:href="#DejaVuSans-30" x="63.623047"/>
      </g>
     </g>
    </g>
    <g id="xtick_6">
     <g id="text_6">
      <!-- 100 -->
      <g transform="translate(635.171169 366.30265) scale(0.08 -0.08)">
       <defs>
        <path id="DejaVuSans-31" d="M 794 531 
L 1825 531 
L 1825 4091 
L 703 3866 
L 703 4441 
L 1819 4666 
L 2450 4666 
L 2450 531 
L 3481 531 
L 3481 0 
L 794 0 
L 794 531 
z
" transform="scale(0.015625)"/>
       </defs>
       <use xlink:href="#DejaVuSans-31"/>
       <use xlink:href="#DejaVuSans-30" x="63.623047"/>
       <use xlink:href="#DejaVuSans-30" x="127.246094"/>
      </g>
     </g>
    </g>
    <g id="xtick_7">
     <g id="text_7">
      <!-- 120 -->
      <g transform="translate(757.138778 366.30265) scale(0.08 -0.08)">
       <use xlink:href="#DejaVuSans-31"/>
       <use xlink:href="#DejaVuSans-32" x="63.623047"/>
       <use xlink:href="#DejaVuSans-30" x="127.246094"/>
      </g>
     </g>
    </g>
    <g id="xtick_8">
     <g id="text_8">
      <!-- 140 -->
      <g transform="translate(879.106386 366.30265) scale(0.08 -0.08)">
       <use xlink:href="#DejaVuSans-31"/>
       <use xlink:href="#DejaVuSans-34" x="63.623047"/>
       <use xlink:href="#DejaVuSans-30" x="127.246094"/>
      </g>
     </g>
    </g>
    <g id="text_9">
     <!-- Position in Read (bp) -->
     <g transform="translate(461.46 379.564837) scale(0.1 -0.1)">
      <defs>
       <path id="DejaVuSans-50" d="M 1259 4147 
L 1259 2394 
L 2053 2394 
Q 2494 2394 2734 2622 
Q 2975 2850 2975 3272 
Q 2975 3691 2734 3919 
Q 2494 4147 2053 4147 
L 1259 4147 
z
M 628 4666 
L 2053 4666 
Q 2838 4666 3239 4311 
Q 3641 3956 3641 3272 
Q 3641 2581 3239 2228 
Q 2838 1875 2053 1875 
L 1259 1875 
L 1259 0 
L 628 0 
L 628 4666 
z
" transform="scale(0.015625)"/>
       <path id="DejaVuSans-6f" d="M 1959 3097 
Q 1497 3097 1228 2736 
Q 959 2375 959 1747 
Q 959 1119 1226 758 
Q 1494 397 1959 397 
Q 2419 397 2687 759 
Q 2956 1122 2956 1747 
Q 2956 2369 2687 2733 
Q 2419 3097 1959 3097 
z
M 1959 3584 
Q 2709 3584 3137 3096 
Q 3566 2609 3566 1747 
Q 3566 888 3137 398 
Q 2709 -91 1959 -91 
Q 1206 -91 779 398 
Q 353 888 353 1747 
Q 353 2609 779 3096 
Q 1206 3584 1959 3584 
z
" transform="scale(0.015625)"/>
       <path id="DejaVuSans-73" d="M 2834 3397 
L 2834 2853 
Q 2591 2978 2328 3040 
Q 2066 3103 1784 3103 
Q 1356 3103 1142 2972 
Q 928 2841 928 2578 
Q 928 2378 1081 2264 
Q 1234 2150 1697 2047 
L 1894 2003 
Q 2506 1872 2764 1633 
Q 3022 1394 3022 966 
Q 3022 478 2636 193 
Q 2250 -91 1575 -91 
Q 1294 -91 989 -36 
Q 684 19 347 128 
L 347 722 
Q 666 556 975 473 
Q 1284 391 1588 391 
Q 1994 391 2212 530 
Q 2431 669 2431 922 
Q 2431 1156 2273 1281 
Q 2116 1406 1581 1522 
L 1381 1569 
Q 847 1681 609 1914 
Q 372 2147 372 2553 
Q 372 3047 722 3315 
Q 1072 3584 1716 3584 
Q 2034 3584 2315 3537 
Q 2597 3491 2834 3397 
z
" transform="scale(0.015625)"/>
       <path id="DejaVuSans-69" d="M 603 3500 
L 1178 3500 
L 1178 0 
L 603 0 
L 603 3500 
z
M 603 4863 
L 1178 4863 
L 1178 4134 
L 603 4134 
L 603 4863 
z
" transform="scale(0.015625)"/>
       <path id="DejaVuSans-74" d="M 1172 4494 
L 1172 3500 
L 2356 3500 
L 2356 3053 
L 1172 3053 
L 1172 1153 
Q 1172 725 1289 603 
Q 1406 481 1766 481 
L 2356 481 
L 2356 0 
L 1766 0 
Q 1100 0 847 248 
Q 594 497 594 1153 
L 594 3053 
L 172 3053 
L 172 3500 
L 594 3500 
L 594 4494 
L 1172 4494 
z
" transform="scale(0.015625)"/>
       <path id="DejaVuSans-6e" d="M 3513 2113 
L 3513 0 
L 2938 0 
L 2938 2094 
Q 2938 2591 2744 2837 
Q 2550 3084 2163 3084 
Q 1697 3084 1428 2787 
Q 1159 2491 1159 1978 
L 1159 0 
L 581 0 
L 581 3500 
L 1159 3500 
L 1159 2956 
Q 1366 3272 1645 3428 
Q 1925 3584 2291 3584 
Q 2894 3584 3203 3211 
Q 3513 2838 3513 2113 
z
" transform="scale(0.015625)"/>
       <path id="DejaVuSans-20" transform="scale(0.015625)"/>
       <path id="DejaVuSans-52" d="M 2841 2188 
Q 3044 2119 3236 1894 
Q 3428 1669 3622 1275 
L 4263 0 
L 3584 0 
L 2988 1197 
Q 2756 1666 2539 1819 
Q 2322 1972 1947 1972 
L 1259 1972 
L 1259 0 
L 628 0 
L 628 4666 
L 2053 4666 
Q 2853 4666 3247 4331 
Q 3641 3997 3641 3322 
Q 3641 2881 3436 2590 
Q 3231 2300 2841 2188 
z
M 1259 4147 
L 1259 2491 
L 2053 2491 
Q 2509 2491 2742 2702 
Q 2975 2913 2975 3322 
Q 2975 3731 2742 3939 
Q 2509 4147 2053 4147 
L 1259 4147 
z
" transform="scale(0.015625)"/>
       <path id="DejaVuSans-65" d="M 3597 1894 
L 3597 1613 
L 953 1613 
Q 991 1019 1311 708 
Q 1631 397 2203 397 
Q 2534 397 2845 478 
Q 3156 559 3463 722 
L 3463 178 
Q 3153 47 2828 -22 
Q 2503 -91 2169 -91 
Q 1331 -91 842 396 
Q 353 884 353 1716 
Q 353 2575 817 3079 
Q 1281 3584 2069 3584 
Q 2775 3584 3186 3129 
Q 3597 2675 3597 1894 
z
M 3022 2063 
Q 3016 2534 2758 2815 
Q 2500 3097 2075 3097 
Q 1594 3097 1305 2825 
Q 1016 2553 972 2059 
L 3022 2063 
z
" transform="scale(0.015625)"/>
       <path id="DejaVuSans-61" d="M 2194 1759 
Q 1497 1759 1228 1600 
Q 959 1441 959 1056 
Q 959 750 1161 570 
Q 1363 391 1709 391 
Q 2188 391 2477 730 
Q 2766 1069 2766 1631 
L 2766 1759 
L 2194 1759 
z
M 3341 1997 
L 3341 0 
L 2766 0 
L 2766 531 
Q 2569 213 2275 61 
Q 1981 -91 1556 -91 
Q 1019 -91 701 211 
Q 384 513 384 1019 
Q 384 1609 779 1909 
Q 1175 2209 1959 2209 
L 2766 2209 
L 2766 2266 
Q 2766 2663 2505 2880 
Q 2244 3097 1772 3097 
Q 1472 3097 1187 3025 
Q 903 2953 641 2809 
L 641 3341 
Q 956 3463 1253 3523 
Q 1550 3584 1831 3584 
Q 2591 3584 2966 3190 
Q 3341 2797 3341 1997 
z
" transform="scale(0.015625)"/>
       <path id="DejaVuSans-64" d="M 2906 2969 
L 2906 4863 
L 3481 4863 
L 3481 0 
L 2906 0 
L 2906 525 
Q 2725 213 2448 61 
Q 2172 -91 1784 -91 
Q 1150 -91 751 415 
Q 353 922 353 1747 
Q 353 2572 751 3078 
Q 1150 3584 1784 3584 
Q 2172 3584 2448 3432 
Q 2725 3281 2906 2969 
z
M 947 1747 
Q 947 1113 1208 752 
Q 1469 391 1925 391 
Q 2381 391 2643 752 
Q 2906 1113 2906 1747 
Q 2906 2381 2643 2742 
Q 2381 3103 1925 3103 
Q 1469 3103 1208 2742 
Q 947 2381 947 1747 
z
" transform="scale(0.015625)"/>
       <path id="DejaVuSans-28" d="M 1984 4856 
Q 1566 4138 1362 3434 
Q 1159 2731 1159 2009 
Q 1159 1288 1364 580 
Q 1569 -128 1984 -844 
L 1484 -844 
Q 1016 -109 783 600 
Q 550 1309 550 2009 
Q 550 2706 781 3412 
Q 1013 4119 1484 4856 
L 1984 4856 
z
" transform="scale(0.015625)"/>
       <path id="DejaVuSans-62" d="M 3116 1747 
Q 3116 2381 2855 2742 
Q 2594 3103 2138 3103 
Q 1681 3103 1420 2742 
Q 1159 2381 1159 1747 
Q 1159 1113 1420 752 
Q 1681 391 2138 391 
Q 2594 391 2855 752 
Q 3116 1113 3116 1747 
z
M 1159 2969 
Q 1341 3281 1617 3432 
Q 1894 3584 2278 3584 
Q 2916 3584 3314 3078 
Q 3713 2572 3713 1747 
Q 3713 922 3314 415 
Q 2916 -91 2278 -91 
Q 1894 -91 1617 61 
Q 1341 213 1159 525 
L 1159 0 
L 581 0 
L 581 4863 
L 1159 4863 
L 1159 2969 
z
" transform="scale(0.015625)"/>
       <path id="DejaVuSans-70" d="M 1159 525 
L 1159 -1331 
L 581 -1331 
L 581 3500 
L 1159 3500 
L 1159 2969 
Q 1341 3281 1617 3432 
Q 1894 3584 2278 3584 
Q 2916 3584 3314 3078 
Q 3713 2572 3713 1747 
Q 3713 922 3314 415 
Q 2916 -91 2278 -91 
Q 1894 -91 1617 61 
Q 1341 213 1159 525 
z
M 3116 1747 
Q 3116 2381 2855 2742 
Q 2594 3103 2138 3103 
Q 1681 3103 1420 2742 
Q 1159 2381 1159 1747 
Q 1159 1113 1420 752 
Q 1681 391 2138 391 
Q 2594 391 2855 752 
Q 3116 1113 3116 1747 
z
" transform="scale(0.015625)"/>
       <path id="DejaVuSans-29" d="M 513 4856 
L 1013 4856 
Q 1481 4119 1714 3412 
Q 1947 2706 1947 2009 
Q 1947 1309 1714 600 
Q 1481 -109 1013 -844 
L 513 -844 
Q 928 -128 1133 580 
Q 1338 1288 1338 2009 
Q 1338 2731 1133 3434 
Q 928 4138 513 4856 
z
" transform="scale(0.015625)"/>
      </defs>
      <use xlink:href="#DejaVuSans-50"/>
      <use xlink:href="#DejaVuSans-6f" x="56.677734"/>
      <use xlink:href="#DejaVuSans-73" x="117.859375"/>
      <use xlink:href="#DejaVuSans-69" x="169.958984"/>
      <use xlink:href="#DejaVuSans-74" x="197.742188"/>
      <use xlink:href="#DejaVuSans-69" x="236.951172"/>
      <use xlink:href="#DejaVuSans-6f" x="264.734375"/>
      <use xlink:href="#DejaVuSans-6e" x="325.916016"/>
      <use xlink:href="#DejaVuSans-20" x="389.294922"/>
      <use xlink:href="#DejaVuSans-69" x="421.082031"/>
      <use xlink:href="#DejaVuSans-6e" x="448.865234"/>
      <use xlink:href="#DejaVuSans-20" x="512.244141"/>
      <use xlink:href="#DejaVuSans-52" x="544.03125"/>
      <use xlink:href="#DejaVuSans-65" x="609.013672"/>
      <use xlink:href="#DejaVuSans-61" x="670.537109"/>
      <use xlink:href="#DejaVuSans-64" x="731.816406"/>
      <use xlink:href="#DejaVuSans-20" x="795.292969"/>
      <use xlink:href="#DejaVuSans-28" x="827.080078"/>
      <use xlink:href="#DejaVuSans-62" x="866.09375"/>
      <use xlink:href="#DejaVuSans-70" x="929.570312"/>
      <use xlink:href="#DejaVuSans-29" x="993.046875"/>
     </g>
    </g>
   </g>
   <g id="matplotlib.axis_2">
    <g id="ytick_1">
     <g id="line2d_1">
      <path d="M 32.968125 353.2239 
L 993.158125 353.2239 
" clip-path="url(#pb42ca237fa)" style="fill: none; stroke: #dedede; stroke-linecap: square"/>
     </g>
     <g id="text_10">
      <!-- 0 -->
      <g transform="translate(20.878125 356.263275) scale(0.08 -0.08)">
       <use xlink:href="#DejaVuSans-30"/>
      </g>
     </g>
    </g>
    <g id="ytick_2">
     <g id="line2d_2">
      <path d="M 32.968125 289.6303 
L 993.158125 289.6303 
" clip-path="url(#pb42ca237fa)" style="fill: none; stroke: #dedede; stroke-linecap: square"/>
     </g>
     <g id="text_11">
      <!-- 1 -->
      <g transform="translate(20.878125 292.669675) scale(0.08 -0.08)">
       <use xlink:href="#DejaVuSans-31"/>
      </g>
     </g>
    </g>
    <g id="ytick_3">
     <g id="line2d_3">
      <path d="M 32.968125 226.0367 
L 993.158125 226.0367 
" clip-path="url(#pb42ca237fa)" style="fill: none; stroke: #dedede; stroke-linecap: square"/>
     </g>
     <g id="text_12">
      <!-- 2 -->
      <g transform="translate(20.878125 229.076075) scale(0.08 -0.08)">
       <use xlink:href="#DejaVuSans-32"/>
      </g>
     </g>
    </g>
    <g id="ytick_4">
     <g id="line2d_4">
      <path d="M 32.968125 162.4431 
L 993.158125 162.4431 
" clip-path="url(#pb42ca237fa)" style="fill: none; stroke: #dedede; stroke-linecap: square"/>
     </g>
     <g id="text_13">
      <!-- 3 -->
      <g transform="translate(20.878125 165.482475) scale(0.08 -0.08)">
       <defs>
        <path id="DejaVuSans-33" d="M 2597 2516 
Q 3050 2419 3304 2112 
Q 3559 1806 3559 1356 
Q 3559 666 3084 287 
Q 2609 -91 1734 -91 
Q 1441 -91 1130 -33 
Q 819 25 488 141 
L 488 750 
Q 750 597 1062 519 
Q 1375 441 1716 441 
Q 2309 441 2620 675 
Q 2931 909 2931 1356 
Q 2931 1769 2642 2001 
Q 2353 2234 1838 2234 
L 1294 2234 
L 1294 2753 
L 1863 2753 
Q 2328 2753 2575 2939 
Q 2822 3125 2822 3475 
Q 2822 3834 2567 4026 
Q 2313 4219 1838 4219 
Q 1578 4219 1281 4162 
Q 984 4106 628 3988 
L 628 4550 
Q 988 4650 1302 4700 
Q 1616 4750 1894 4750 
Q 2613 4750 3031 4423 
Q 3450 4097 3450 3541 
Q 3450 3153 3228 2886 
Q 3006 2619 2597 2516 
z
" transform="scale(0.015625)"/>
       </defs>
       <use xlink:href="#DejaVuSans-33"/>
      </g>
     </g>
    </g>
    <g id="ytick_5">
     <g id="line2d_5">
      <path d="M 32.968125 98.8495 
L 993.158125 98.8495 
" clip-path="url(#pb42ca237fa)" style="fill: none; stroke: #dedede; stroke-linecap: square"/>
     </g>
     <g id="text_14">
      <!-- 4 -->
      <g transform="translate(20.878125 101.888875) scale(0.08 -0.08)">
       <use xlink:href="#DejaVuSans-34"/>
      </g>
     </g>
    </g>
    <g id="ytick_6">
     <g id="line2d_6">
      <path d="M 32.968125 35.2559 
L 993.158125 35.2559 
" clip-path="url(#pb42ca237fa)" style="fill: none; stroke: #dedede; stroke-linecap: square"/>
     </g>
     <g id="text_15">
      <!-- 5 -->
      <g transform="translate(20.878125 38.295275) scale(0.08 -0.08)">
       <defs>
        <path id="DejaVuSans-35" d="M 691 4666 
L 3169 4666 
L 3169 4134 
L 1269 4134 
L 1269 2991 
Q 1406 3038 1543 3061 
Q 1681 3084 1819 3084 
Q 2600 3084 3056 2656 
Q 3513 2228 3513 1497 
Q 3513 744 3044 326 
Q 2575 -91 1722 -91 
Q 1428 -91 1123 -41 
Q 819 9 494 109 
L 494 744 
Q 775 591 1075 516 
Q 1375 441 1709 441 
Q 2250 441 2565 725 
Q 2881 1009 2881 1497 
Q 2881 1984 2565 2268 
Q 2250 2553 1709 2553 
Q 1456 2553 1204 2497 
Q 953 2441 691 2322 
L 691 4666 
z
" transform="scale(0.015625)"/>
       </defs>
       <use xlink:href="#DejaVuSans-35"/>
      </g>
     </g>
    </g>
    <g id="text_16">
     <!-- Percentage N-Count -->
     <g transform="translate(14.798438 244.344588) rotate(-90) scale(0.1 -0.1)">
      <defs>
       <path id="DejaVuSans-72" d="M 2631 2963 
Q 2534 3019 2420 3045 
Q 2306 3072 2169 3072 
Q 1681 3072 1420 2755 
Q 1159 2438 1159 1844 
L 1159 0 
L 581 0 
L 581 3500 
L 1159 3500 
L 1159 2956 
Q 1341 3275 1631 3429 
Q 1922 3584 2338 3584 
Q 2397 3584 2469 3576 
Q 2541 3569 2628 3553 
L 2631 2963 
z
" transform="scale(0.015625)"/>
       <path id="DejaVuSans-63" d="M 3122 3366 
L 3122 2828 
Q 2878 2963 2633 3030 
Q 2388 3097 2138 3097 
Q 1578 3097 1268 2742 
Q 959 2388 959 1747 
Q 959 1106 1268 751 
Q 1578 397 2138 397 
Q 2388 397 2633 464 
Q 2878 531 3122 666 
L 3122 134 
Q 2881 22 2623 -34 
Q 2366 -91 2075 -91 
Q 1284 -91 818 406 
Q 353 903 353 1747 
Q 353 2603 823 3093 
Q 1294 3584 2113 3584 
Q 2378 3584 2631 3529 
Q 2884 3475 3122 3366 
z
" transform="scale(0.015625)"/>
       <path id="DejaVuSans-67" d="M 2906 1791 
Q 2906 2416 2648 2759 
Q 2391 3103 1925 3103 
Q 1463 3103 1205 2759 
Q 947 2416 947 1791 
Q 947 1169 1205 825 
Q 1463 481 1925 481 
Q 2391 481 2648 825 
Q 2906 1169 2906 1791 
z
M 3481 434 
Q 3481 -459 3084 -895 
Q 2688 -1331 1869 -1331 
Q 1566 -1331 1297 -1286 
Q 1028 -1241 775 -1147 
L 775 -588 
Q 1028 -725 1275 -790 
Q 1522 -856 1778 -856 
Q 2344 -856 2625 -561 
Q 2906 -266 2906 331 
L 2906 616 
Q 2728 306 2450 153 
Q 2172 0 1784 0 
Q 1141 0 747 490 
Q 353 981 353 1791 
Q 353 2603 747 3093 
Q 1141 3584 1784 3584 
Q 2172 3584 2450 3431 
Q 2728 3278 2906 2969 
L 2906 3500 
L 3481 3500 
L 3481 434 
z
" transform="scale(0.015625)"/>
       <path id="DejaVuSans-4e" d="M 628 4666 
L 1478 4666 
L 3547 763 
L 3547 4666 
L 4159 4666 
L 4159 0 
L 3309 0 
L 1241 3903 
L 1241 0 
L 628 0 
L 628 4666 
z
" transform="scale(0.015625)"/>
       <path id="DejaVuSans-2d" d="M 313 2009 
L 1997 2009 
L 1997 1497 
L 313 1497 
L 313 2009 
z
" transform="scale(0.015625)"/>
       <path id="DejaVuSans-43" d="M 4122 4306 
L 4122 3641 
Q 3803 3938 3442 4084 
Q 3081 4231 2675 4231 
Q 1875 4231 1450 3742 
Q 1025 3253 1025 2328 
Q 1025 1406 1450 917 
Q 1875 428 2675 428 
Q 3081 428 3442 575 
Q 3803 722 4122 1019 
L 4122 359 
Q 3791 134 3420 21 
Q 3050 -91 2638 -91 
Q 1578 -91 968 557 
Q 359 1206 359 2328 
Q 359 3453 968 4101 
Q 1578 4750 2638 4750 
Q 3056 4750 3426 4639 
Q 3797 4528 4122 4306 
z
" transform="scale(0.015625)"/>
       <path id="DejaVuSans-75" d="M 544 1381 
L 544 3500 
L 1119 3500 
L 1119 1403 
Q 1119 906 1312 657 
Q 1506 409 1894 409 
Q 2359 409 2629 706 
Q 2900 1003 2900 1516 
L 2900 3500 
L 3475 3500 
L 3475 0 
L 2900 0 
L 2900 538 
Q 2691 219 2414 64 
Q 2138 -91 1772 -91 
Q 1169 -91 856 284 
Q 544 659 544 1381 
z
M 1991 3584 
L 1991 3584 
z
" transform="scale(0.015625)"/>
      </defs>
      <use xlink:href="#DejaVuSans-50"/>
      <use xlink:href="#DejaVuSans-65" x="56.677734"/>
      <use xlink:href="#DejaVuSans-72" x="118.201172"/>
      <use xlink:href="#DejaVuSans-63" x="157.064453"/>
      <use xlink:href="#DejaVuSans-65" x="212.044922"/>
      <use xlink:href="#DejaVuSans-6e" x="273.568359"/>
      <use xlink:href="#DejaVuSans-74" x="336.947266"/>
      <use xlink:href="#DejaVuSans-61" x="376.15625"/>
      <use xlink:href="#DejaVuSans-67" x="437.435547"/>
      <use xlink:href="#DejaVuSans-65" x="500.912109"/>
      <use xlink:href="#DejaVuSans-20" x="562.435547"/>
      <use xlink:href="#DejaVuSans-4e" x="594.222656"/>
      <use xlink:href="#DejaVuSans-2d" x="669.027344"/>
      <use xlink:href="#DejaVuSans-43" x="705.111328"/>
      <use xlink:href="#DejaVuSans-6f" x="774.935547"/>
      <use xlink:href="#DejaVuSans-75" x="836.117188"/>
      <use xlink:href="#DejaVuSans-6e" x="899.496094"/>
      <use xlink:href="#DejaVuSans-74" x="962.875"/>
     </g>
    </g>
   </g>
   <g id="line2d_7">
    <path d="M 39.066505 352.582416 
L 45.164886 352.773895 
L 51.263266 353.205912 
L 57.361647 353.06483 
L 63.460027 353.163691 
L 69.558408 353.220332 
L 75.656788 353.222265 
L 81.755169 353.2239 
L 87.853549 353.223751 
L 106.14869 353.223513 
L 136.640592 353.2239 
L 167.132495 353.223692 
L 197.624397 353.189321 
L 228.116299 353.034264 
L 258.608201 352.036017 
L 289.100103 353.223811 
L 319.592006 353.223662 
L 350.083908 353.221075 
L 380.57581 353.2239 
L 411.067712 353.2239 
L 441.559614 353.2239 
L 472.051517 353.2239 
L 502.543419 353.2239 
L 533.035321 353.223781 
L 563.527223 353.2239 
L 594.019125 353.2239 
L 624.511028 353.2239 
L 655.00293 353.223008 
L 685.494832 353.2239 
L 715.986734 353.2239 
L 746.478636 353.2239 
L 776.970538 353.2239 
L 807.462441 353.2239 
L 837.954343 353.2239 
L 868.446245 353.223573 
L 898.938147 353.2239 
L 929.430049 353.2239 
L 947.725191 353.2239 
" clip-path="url(#pb42ca237fa)" style="fill: none; stroke: #5cb85c; stroke-linecap: square"/>
   </g>
   <g id="line2d_8">
    <path d="M 39.066505 353.060964 
L 45.164886 353.190599 
L 51.263266 353.223454 
L 57.361647 353.221373 
L 63.460027 353.2239 
L 69.558408 353.223751 
L 75.656788 353.2239 
L 81.755169 353.2239 
L 87.853549 353.2239 
L 106.14869 353.22387 
L 136.640592 353.222413 
L 167.132495 353.220748 
L 197.624397 353.20166 
L 228.116299 353.201541 
L 258.608201 353.209242 
L 289.100103 353.207666 
L 319.592006 353.210193 
L 350.083908 353.175525 
L 380.57581 353.198895 
L 411.067712 353.207131 
L 441.559614 353.194108 
L 472.051517 353.179598 
L 502.543419 353.11261 
L 533.035321 353.141362 
L 563.527223 353.154593 
L 594.019125 353.129023 
L 624.511028 353.139102 
L 655.00293 353.064086 
L 685.494832 353.165832 
L 715.986734 353.187715 
L 746.478636 353.187507 
L 776.970538 353.184445 
L 807.462441 353.176387 
L 837.954343 353.189291 
L 868.446245 353.190897 
L 898.938147 353.187329 
L 929.430049 353.181115 
L 947.725191 353.169192 
" clip-path="url(#pb42ca237fa)" style="fill: none; stroke: #5cb85c; stroke-linecap: square"/>
   </g>
   <g id="line2d_9">
    <path d="M 39.066505 352.744122 
L 45.164886 352.887553 
L 51.263266 353.198788 
L 57.361647 353.223014 
L 63.460027 353.2239 
L 69.558408 353.201447 
L 75.656788 353.2239 
L 81.755169 353.2239 
L 87.853549 353.2239 
L 106.14869 353.22325 
L 136.640592 353.2239 
L 167.132495 353.223693 
L 197.624397 353.175656 
L 228.116299 352.970333 
L 258.608201 351.724092 
L 289.100103 353.2239 
L 319.592006 353.2239 
L 350.083908 353.2239 
L 380.57581 353.2239 
L 411.067712 353.2239 
L 441.559614 353.2239 
L 472.051517 353.2239 
L 502.543419 353.2239 
L 533.035321 353.2239 
L 563.527223 353.2239 
L 594.019125 353.2239 
L 624.511028 353.2239 
L 655.00293 353.2239 
L 685.494832 353.2239 
L 715.986734 353.2239 
L 746.478636 353.2239 
L 776.970538 353.2239 
L 807.462441 353.2239 
L 837.954343 353.2239 
L 868.446245 353.2239 
L 898.938147 353.2239 
L 929.430049 353.2239 
L 947.725191 353.2239 
" clip-path="url(#pb42ca237fa)" style="fill: none; stroke: #5cb85c; stroke-linecap: square"/>
   </g>
   <g id="line2d_10">
    <path d="M 39.066505 353.152701 
L 45.164886 353.2239 
L 51.263266 353.2239 
L 57.361647 353.2239 
L 63.460027 353.2239 
L 69.558408 353.223457 
L 75.656788 353.2239 
L 81.755169 353.2239 
L 87.853549 353.2239 
L 106.14869 353.223811 
L 136.640592 353.223191 
L 167.132495 353.222098 
L 197.624397 353.206145 
L 228.116299 353.208272 
L 258.608201 353.211669 
L 289.100103 353.213028 
L 319.592006 353.210576 
L 350.083908 353.17474 
L 380.57581 353.201181 
L 411.067712 353.208242 
L 441.559614 353.202688 
L 472.051517 353.186764 
L 502.543419 353.109894 
L 533.035321 353.139555 
L 563.527223 353.162835 
L 594.019125 353.134208 
L 624.511028 353.15734 
L 655.00293 353.074708 
L 685.494832 353.183781 
L 715.986734 353.216426 
L 746.478636 353.215835 
L 776.970538 353.221034 
L 807.462441 353.218966 
L 837.954343 353.222187 
L 868.446245 353.222127 
L 898.938147 353.222305 
L 929.430049 353.222866 
L 947.725191 353.218287 
" clip-path="url(#pb42ca237fa)" style="fill: none; stroke: #5cb85c; stroke-linecap: square"/>
   </g>
   <g id="line2d_11">
    <path d="M 39.066505 352.729887 
L 45.164886 352.878703 
L 51.263266 353.1969 
L 57.361647 353.223115 
L 63.460027 353.2239 
L 69.558408 353.20365 
L 75.656788 353.2239 
L 81.755169 353.2239 
L 87.853549 353.2239 
L 106.14869 353.223398 
L 136.640592 353.2239 
L 167.132495 353.223523 
L 197.624397 353.178753 
L 228.116299 352.986045 
L 258.608201 351.854854 
L 289.100103 353.2239 
L 319.592006 353.2239 
L 350.083908 353.2239 
L 380.57581 353.2239 
L 411.067712 353.2239 
L 441.559614 353.2239 
L 472.051517 353.2239 
L 502.543419 353.2239 
L 533.035321 353.2239 
L 563.527223 353.2239 
L 594.019125 353.2239 
L 624.511028 353.2239 
L 655.00293 353.2239 
L 685.494832 353.2239 
L 715.986734 353.2239 
L 746.478636 353.2239 
L 776.970538 353.2239 
L 807.462441 353.2239 
L 837.954343 353.2239 
L 868.446245 353.2239 
L 898.938147 353.2239 
L 929.430049 353.2239 
L 947.725191 353.2239 
" clip-path="url(#pb42ca237fa)" style="fill: none; stroke: #5cb85c; stroke-linecap: square"/>
   </g>
   <g id="line2d_12">
    <path d="M 39.066505 353.141015 
L 45.164886 353.2239 
L 51.263266 353.2239 
L 57.361647 353.2239 
L 63.460027 353.2239 
L 69.558408 353.223586 
L 75.656788 353.2239 
L 81.755169 353.2239 
L 87.853549 353.2239 
L 106.14869 353.223869 
L 136.640592 353.222927 
L 167.132495 353.22142 
L 197.624397 353.205031 
L 228.116299 353.20591 
L 258.608201 353.210871 
L 289.100103 353.211028 
L 319.592006 353.209929 
L 350.083908 353.17577 
L 380.57581 353.199254 
L 411.067712 353.206664 
L 441.559614 353.20051 
L 472.051517 353.186759 
L 502.543419 353.116558 
L 533.035321 353.144343 
L 563.527223 353.164405 
L 594.019125 353.139602 
L 624.511028 353.160229 
L 655.00293 353.08174 
L 685.494832 353.18544 
L 715.986734 353.214513 
L 746.478636 353.213571 
L 776.970538 353.219536 
L 807.462441 353.216585 
L 837.954343 353.221608 
L 868.446245 353.221263 
L 898.938147 353.221765 
L 929.430049 353.223052 
L 947.725191 353.214481 
" clip-path="url(#pb42ca237fa)" style="fill: none; stroke: #5cb85c; stroke-linecap: square"/>
   </g>
   <g id="line2d_13">
    <path d="M 39.066505 352.719676 
L 45.164886 352.888824 
L 51.263266 353.200694 
L 57.361647 353.223363 
L 63.460027 353.2239 
L 69.558408 353.20284 
L 75.656788 353.2239 
L 81.755169 353.2239 
L 87.853549 353.2239 
L 106.14869 353.223363 
L 136.640592 353.2239 
L 167.132495 353.223471 
L 197.624397 353.174779 
L 228.116299 352.967911 
L 258.608201 351.695533 
L 289.100103 353.2239 
L 319.592006 353.2239 
L 350.083908 353.2239 
L 380.57581 353.2239 
L 411.067712 353.2239 
L 441.559614 353.2239 
L 472.051517 353.2239 
L 502.543419 353.2239 
L 533.035321 353.2239 
L 563.527223 353.2239 
L 594.019125 353.2239 
L 624.511028 353.2239 
L 655.00293 353.2239 
L 685.494832 353.2239 
L 715.986734 353.2239 
L 746.478636 353.2239 
L 776.970538 353.2239 
L 807.462441 353.2239 
L 837.954343 353.2239 
L 868.446245 353.2239 
L 898.938147 353.2239 
L 929.430049 353.2239 
L 947.725191 353.2239 
" clip-path="url(#pb42ca237fa)" style="fill: none; stroke: #5cb85c; stroke-linecap: square"/>
   </g>
   <g id="line2d_14">
    <path d="M 39.066505 353.144893 
L 45.164886 353.2239 
L 51.263266 353.2239 
L 57.361647 353.2239 
L 63.460027 353.2239 
L 69.558408 353.223766 
L 75.656788 353.2239 
L 81.755169 353.2239 
L 87.853549 353.2239 
L 106.14869 353.2239 
L 136.640592 353.222988 
L 167.132495 353.2217 
L 197.624397 353.205818 
L 228.116299 353.207562 
L 258.608201 353.211774 
L 289.100103 353.211801 
L 319.592006 353.210191 
L 350.083908 353.174269 
L 380.57581 353.200855 
L 411.067712 353.207455 
L 441.559614 353.201418 
L 472.051517 353.186395 
L 502.543419 353.112083 
L 533.035321 353.141754 
L 563.527223 353.163189 
L 594.019125 353.135154 
L 624.511028 353.157448 
L 655.00293 353.078065 
L 685.494832 353.18441 
L 715.986734 353.214188 
L 746.478636 353.214081 
L 776.970538 353.220037 
L 807.462441 353.216737 
L 837.954343 353.2217 
L 868.446245 353.221512 
L 898.938147 353.221888 
L 929.430049 353.223095 
L 947.725191 353.215047 
" clip-path="url(#pb42ca237fa)" style="fill: none; stroke: #5cb85c; stroke-linecap: square"/>
   </g>
   <g id="line2d_15">
    <path d="M 39.066505 352.438218 
L 45.164886 352.861818 
L 51.263266 353.204851 
L 57.361647 353.02061 
L 63.460027 353.137868 
L 69.558408 353.203758 
L 75.656788 353.2239 
L 81.755169 353.2239 
L 87.853549 353.223744 
L 106.14869 353.223088 
L 136.640592 353.2239 
L 167.132495 353.223275 
L 197.624397 353.179744 
L 228.116299 352.995877 
L 258.608201 351.913941 
L 289.100103 353.223838 
L 319.592006 353.22365 
L 350.083908 353.220371 
L 380.57581 353.2239 
L 411.067712 353.2239 
L 441.559614 353.2239 
L 472.051517 353.2239 
L 502.543419 353.2239 
L 533.035321 353.223869 
L 563.527223 353.2239 
L 594.019125 353.2239 
L 624.511028 353.2239 
L 655.00293 353.222682 
L 685.494832 353.2239 
L 715.986734 353.2239 
L 746.478636 353.2239 
L 776.970538 353.2239 
L 807.462441 353.2239 
L 837.954343 353.2239 
L 868.446245 353.223588 
L 898.938147 353.2239 
L 929.430049 353.2239 
L 947.725191 353.2239 
" clip-path="url(#pb42ca237fa)" style="fill: none; stroke: #5cb85c; stroke-linecap: square"/>
   </g>
   <g id="line2d_16">
    <path d="M 39.066505 353.040907 
L 45.164886 353.183304 
L 51.263266 353.222651 
L 57.361647 353.220153 
L 63.460027 353.2239 
L 69.558408 353.223119 
L 75.656788 353.2239 
L 81.755169 353.2239 
L 87.853549 353.2239 
L 106.14869 353.223806 
L 136.640592 353.223182 
L 167.132495 353.220715 
L 197.624397 353.206444 
L 228.116299 353.209754 
L 258.608201 353.213095 
L 289.100103 353.213907 
L 319.592006 353.212502 
L 350.083908 353.179807 
L 380.57581 353.203571 
L 411.067712 353.209973 
L 441.559614 353.200105 
L 472.051517 353.182961 
L 502.543419 353.103269 
L 533.035321 353.140679 
L 563.527223 353.158104 
L 594.019125 353.128407 
L 624.511028 353.140148 
L 655.00293 353.042937 
L 685.494832 353.162444 
L 715.986734 353.186052 
L 746.478636 353.184054 
L 776.970538 353.176278 
L 807.462441 353.161601 
L 837.954343 353.181681 
L 868.446245 353.183866 
L 898.938147 353.177496 
L 929.430049 353.168596 
L 947.725191 353.160196 
" clip-path="url(#pb42ca237fa)" style="fill: none; stroke: #5cb85c; stroke-linecap: square"/>
   </g>
   <g id="line2d_17">
    <path d="M 39.066505 352.734007 
L 45.164886 352.892371 
L 51.263266 353.200811 
L 57.361647 353.22316 
L 63.460027 353.2239 
L 69.558408 353.204956 
L 75.656788 353.2239 
L 81.755169 353.2239 
L 87.853549 353.2239 
L 106.14869 353.223515 
L 136.640592 353.2239 
L 167.132495 353.223634 
L 197.624397 353.185981 
L 228.116299 353.015777 
L 258.608201 351.930613 
L 289.100103 353.2239 
L 319.592006 353.2239 
L 350.083908 353.2239 
L 380.57581 353.2239 
L 411.067712 353.2239 
L 441.559614 353.2239 
L 472.051517 353.2239 
L 502.543419 353.2239 
L 533.035321 353.2239 
L 563.527223 353.2239 
L 594.019125 353.2239 
L 624.511028 353.2239 
L 655.00293 353.2239 
L 685.494832 353.2239 
L 715.986734 353.2239 
L 746.478636 353.2239 
L 776.970538 353.2239 
L 807.462441 353.2239 
L 837.954343 353.2239 
L 868.446245 353.2239 
L 898.938147 353.2239 
L 929.430049 353.2239 
L 947.725191 353.2239 
" clip-path="url(#pb42ca237fa)" style="fill: none; stroke: #5cb85c; stroke-linecap: square"/>
   </g>
   <g id="line2d_18">
    <path d="M 39.066505 353.152266 
L 45.164886 353.2239 
L 51.263266 353.2239 
L 57.361647 353.2239 
L 63.460027 353.2239 
L 69.558408 353.223456 
L 75.656788 353.2239 
L 81.755169 353.2239 
L 87.853549 353.2239 
L 106.14869 353.22387 
L 136.640592 353.222953 
L 167.132495 353.221147 
L 197.624397 353.206051 
L 228.116299 353.20688 
L 258.608201 353.211349 
L 289.100103 353.211112 
L 319.592006 353.210876 
L 350.083908 353.174348 
L 380.57581 353.20016 
L 411.067712 353.207057 
L 441.559614 353.200663 
L 472.051517 353.187373 
L 502.543419 353.113578 
L 533.035321 353.143356 
L 563.527223 353.165231 
L 594.019125 353.137969 
L 624.511028 353.159962 
L 655.00293 353.079182 
L 685.494832 353.185508 
L 715.986734 353.214161 
L 746.478636 353.213954 
L 776.970538 353.219845 
L 807.462441 353.216441 
L 837.954343 353.221325 
L 868.446245 353.221206 
L 898.938147 353.221443 
L 929.430049 353.222716 
L 947.725191 353.21502 
" clip-path="url(#pb42ca237fa)" style="fill: none; stroke: #5cb85c; stroke-linecap: square"/>
   </g>
   <g id="line2d_19">
    <path d="M 39.066505 352.438288 
L 45.164886 352.869971 
L 51.263266 353.20177 
L 57.361647 353.03146 
L 63.460027 353.144501 
L 69.558408 353.204013 
L 75.656788 353.2239 
L 81.755169 353.2239 
L 87.853549 353.22375 
L 106.14869 353.223362 
L 136.640592 353.22384 
L 167.132495 353.223661 
L 197.624397 353.186399 
L 228.116299 353.020305 
L 258.608201 351.983967 
L 289.100103 353.22387 
L 319.592006 353.22381 
L 350.083908 353.221537 
L 380.57581 353.2239 
L 411.067712 353.2239 
L 441.559614 353.2239 
L 472.051517 353.2239 
L 502.543419 353.2239 
L 533.035321 353.22384 
L 563.527223 353.2239 
L 594.019125 353.2239 
L 624.511028 353.2239 
L 655.00293 353.223302 
L 685.494832 353.2239 
L 715.986734 353.22384 
L 746.478636 353.2239 
L 776.970538 353.2239 
L 807.462441 353.2239 
L 837.954343 353.2239 
L 868.446245 353.223631 
L 898.938147 353.2239 
L 929.430049 353.2239 
L 947.725191 353.2239 
" clip-path="url(#pb42ca237fa)" style="fill: none; stroke: #5cb85c; stroke-linecap: square"/>
   </g>
   <g id="line2d_20">
    <path d="M 39.066505 353.046113 
L 45.164886 353.182033 
L 51.263266 353.222704 
L 57.361647 353.219115 
L 63.460027 353.2239 
L 69.558408 353.223152 
L 75.656788 353.2239 
L 81.755169 353.2239 
L 87.853549 353.2239 
L 106.14869 353.223691 
L 136.640592 353.222943 
L 167.132495 353.219564 
L 197.624397 353.202518 
L 228.116299 353.206376 
L 258.608201 353.21125 
L 289.100103 353.210831 
L 319.592006 353.210054 
L 350.083908 353.175782 
L 380.57581 353.199079 
L 411.067712 353.206166 
L 441.559614 353.19558 
L 472.051517 353.176052 
L 502.543419 353.091898 
L 533.035321 353.129489 
L 563.527223 353.147253 
L 594.019125 353.116779 
L 624.511028 353.128353 
L 655.00293 353.036962 
L 685.494832 353.154729 
L 715.986734 353.180866 
L 746.478636 353.17958 
L 776.970538 353.174496 
L 807.462441 353.162475 
L 837.954343 353.179341 
L 868.446245 353.182122 
L 898.938147 353.175812 
L 929.430049 353.168695 
L 947.725191 353.159604 
" clip-path="url(#pb42ca237fa)" style="fill: none; stroke: #5cb85c; stroke-linecap: square"/>
   </g>
   <g id="line2d_21">
    <path d="M 39.066505 352.734836 
L 45.164886 352.882891 
L 51.263266 353.195804 
L 57.361647 353.223625 
L 63.460027 353.2239 
L 69.558408 353.204205 
L 75.656788 353.2239 
L 81.755169 353.2239 
L 87.853549 353.2239 
L 106.14869 353.223377 
L 136.640592 353.2239 
L 167.132495 353.223817 
L 197.624397 353.182252 
L 228.116299 352.995881 
L 258.608201 351.857359 
L 289.100103 353.2239 
L 319.592006 353.2239 
L 350.083908 353.2239 
L 380.57581 353.2239 
L 411.067712 353.2239 
L 441.559614 353.2239 
L 472.051517 353.2239 
L 502.543419 353.2239 
L 533.035321 353.2239 
L 563.527223 353.2239 
L 594.019125 353.2239 
L 624.511028 353.2239 
L 655.00293 353.2239 
L 685.494832 353.2239 
L 715.986734 353.2239 
L 746.478636 353.2239 
L 776.970538 353.2239 
L 807.462441 353.2239 
L 837.954343 353.2239 
L 868.446245 353.2239 
L 898.938147 353.2239 
L 929.430049 353.2239 
L 947.725191 353.2239 
" clip-path="url(#pb42ca237fa)" style="fill: none; stroke: #5cb85c; stroke-linecap: square"/>
   </g>
   <g id="line2d_22">
    <path d="M 39.066505 353.143744 
L 45.164886 353.2239 
L 51.263266 353.2239 
L 57.361647 353.2239 
L 63.460027 353.2239 
L 69.558408 353.223762 
L 75.656788 353.2239 
L 81.755169 353.2239 
L 87.853549 353.2239 
L 106.14869 353.223872 
L 136.640592 353.223046 
L 167.132495 353.221393 
L 197.624397 353.20404 
L 228.116299 353.206271 
L 258.608201 353.210127 
L 289.100103 353.211367 
L 319.592006 353.209081 
L 350.083908 353.171564 
L 380.57581 353.19944 
L 411.067712 353.206491 
L 441.559614 353.20079 
L 472.051517 353.183546 
L 502.543419 353.106723 
L 533.035321 353.136637 
L 563.527223 353.158618 
L 594.019125 353.128814 
L 624.511028 353.151098 
L 655.00293 353.070639 
L 685.494832 353.180627 
L 715.986734 353.214452 
L 746.478636 353.213929 
L 776.970538 353.220154 
L 807.462441 353.216848 
L 837.954343 353.221201 
L 868.446245 353.221421 
L 898.938147 353.221476 
L 929.430049 353.22266 
L 947.725191 353.215086 
" clip-path="url(#pb42ca237fa)" style="fill: none; stroke: #5cb85c; stroke-linecap: square"/>
   </g>
   <g id="line2d_23">
    <path d="M 39.066505 352.814048 
L 45.164886 352.786525 
L 51.263266 353.211633 
L 57.361647 353.2239 
L 63.460027 353.223114 
L 69.558408 353.220912 
L 75.656788 353.222956 
L 81.755169 353.2239 
L 87.853549 353.2239 
L 106.14869 353.223397 
L 136.640592 353.2239 
L 167.132495 353.2239 
L 197.624397 353.186186 
L 228.116299 353.015766 
L 258.608201 351.913662 
L 289.100103 353.2239 
L 319.592006 353.2239 
L 350.083908 353.2239 
L 380.57581 353.2239 
L 411.067712 353.2239 
L 441.559614 353.2239 
L 472.051517 353.2239 
L 502.543419 353.2239 
L 533.035321 353.2239 
L 563.527223 353.2239 
L 594.019125 353.2239 
L 624.511028 353.2239 
L 655.00293 353.2239 
L 685.494832 353.2239 
L 715.986734 353.2239 
L 746.478636 353.2239 
L 776.970538 353.2239 
L 807.462441 353.2239 
L 837.954343 353.2239 
L 868.446245 353.2239 
L 898.938147 353.2239 
L 929.430049 353.2239 
L 947.725191 353.2239 
" clip-path="url(#pb42ca237fa)" style="fill: none; stroke: #5cb85c; stroke-linecap: square"/>
   </g>
   <g id="line2d_24">
    <path d="M 39.066505 353.138501 
L 45.164886 353.2239 
L 51.263266 353.2239 
L 57.361647 353.2239 
L 63.460027 353.2239 
L 69.558408 353.223743 
L 75.656788 353.2239 
L 81.755169 353.2239 
L 87.853549 353.2239 
L 106.14869 353.2239 
L 136.640592 353.222264 
L 167.132495 353.220817 
L 197.624397 353.200246 
L 228.116299 353.198611 
L 258.608201 353.207544 
L 289.100103 353.205877 
L 319.592006 353.208393 
L 350.083908 353.169987 
L 380.57581 353.195748 
L 411.067712 353.204398 
L 441.559614 353.19427 
L 472.051517 353.181877 
L 502.543419 353.119345 
L 533.035321 353.142213 
L 563.527223 353.158758 
L 594.019125 353.135513 
L 624.511028 353.155612 
L 655.00293 353.088488 
L 685.494832 353.183198 
L 715.986734 353.211853 
L 746.478636 353.212262 
L 776.970538 353.21915 
L 807.462441 353.21742 
L 837.954343 353.221415 
L 868.446245 353.220817 
L 898.938147 353.22066 
L 929.430049 353.222673 
L 947.725191 353.211633 
" clip-path="url(#pb42ca237fa)" style="fill: none; stroke: #5cb85c; stroke-linecap: square"/>
   </g>
   <g id="line2d_25">
    <path d="M 39.066505 352.44898 
L 45.164886 352.862962 
L 51.263266 353.20106 
L 57.361647 353.018186 
L 63.460027 353.142306 
L 69.558408 353.204215 
L 75.656788 353.2239 
L 81.755169 353.2239 
L 87.853549 353.223599 
L 106.14869 353.223239 
L 136.640592 353.2239 
L 167.132495 353.223569 
L 197.624397 353.186844 
L 228.116299 353.020921 
L 258.608201 352.010504 
L 289.100103 353.22387 
L 319.592006 353.22375 
L 350.083908 353.221285 
L 380.57581 353.2239 
L 411.067712 353.2239 
L 441.559614 353.2239 
L 472.051517 353.2239 
L 502.543419 353.2239 
L 533.035321 353.2239 
L 563.527223 353.2239 
L 594.019125 353.2239 
L 624.511028 353.2239 
L 655.00293 353.223209 
L 685.494832 353.2239 
L 715.986734 353.2239 
L 746.478636 353.2239 
L 776.970538 353.2239 
L 807.462441 353.2239 
L 837.954343 353.2239 
L 868.446245 353.22366 
L 898.938147 353.2239 
L 929.430049 353.2239 
L 947.725191 353.2239 
" clip-path="url(#pb42ca237fa)" style="fill: none; stroke: #5cb85c; stroke-linecap: square"/>
   </g>
   <g id="line2d_26">
    <path d="M 39.066505 353.055302 
L 45.164886 353.181074 
L 51.263266 353.221947 
L 57.361647 353.219091 
L 63.460027 353.2239 
L 69.558408 353.223299 
L 75.656788 353.2239 
L 81.755169 353.2239 
L 87.853549 353.2239 
L 106.14869 353.22378 
L 136.640592 353.222848 
L 167.132495 353.219632 
L 197.624397 353.204095 
L 228.116299 353.207371 
L 258.608201 353.211428 
L 289.100103 353.211037 
L 319.592006 353.210857 
L 350.083908 353.177348 
L 380.57581 353.20148 
L 411.067712 353.208032 
L 441.559614 353.197063 
L 472.051517 353.179602 
L 502.543419 353.097887 
L 533.035321 353.134732 
L 563.527223 353.153035 
L 594.019125 353.124424 
L 624.511028 353.136265 
L 655.00293 353.040426 
L 685.494832 353.159316 
L 715.986734 353.184019 
L 746.478636 353.181796 
L 776.970538 353.174823 
L 807.462441 353.161299 
L 837.954343 353.179301 
L 868.446245 353.183238 
L 898.938147 353.176025 
L 929.430049 353.16713 
L 947.725191 353.159737 
" clip-path="url(#pb42ca237fa)" style="fill: none; stroke: #5cb85c; stroke-linecap: square"/>
   </g>
   <g id="line2d_27">
    <path d="M 39.066505 352.60871 
L 45.164886 352.795929 
L 51.263266 353.211429 
L 57.361647 353.073791 
L 63.460027 353.16048 
L 69.558408 353.220098 
L 75.656788 353.222531 
L 81.755169 353.2239 
L 87.853549 353.2239 
L 106.14869 353.223079 
L 136.640592 353.2239 
L 167.132495 353.223809 
L 197.624397 353.180647 
L 228.116299 352.984577 
L 258.608201 351.737833 
L 289.100103 353.223839 
L 319.592006 353.223778 
L 350.083908 353.221771 
L 380.57581 353.2239 
L 411.067712 353.2239 
L 441.559614 353.2239 
L 472.051517 353.2239 
L 502.543419 353.2239 
L 533.035321 353.22387 
L 563.527223 353.2239 
L 594.019125 353.2239 
L 624.511028 353.2239 
L 655.00293 353.223413 
L 685.494832 353.2239 
L 715.986734 353.2239 
L 746.478636 353.2239 
L 776.970538 353.2239 
L 807.462441 353.2239 
L 837.954343 353.2239 
L 868.446245 353.223565 
L 898.938147 353.2239 
L 929.430049 353.2239 
L 947.725191 353.2239 
" clip-path="url(#pb42ca237fa)" style="fill: none; stroke: #5cb85c; stroke-linecap: square"/>
   </g>
   <g id="line2d_28">
    <path d="M 39.066505 353.071509 
L 45.164886 353.191049 
L 51.263266 353.222683 
L 57.361647 353.221315 
L 63.460027 353.2239 
L 69.558408 353.223748 
L 75.656788 353.2239 
L 81.755169 353.2239 
L 87.853549 353.2239 
L 106.14869 353.2239 
L 136.640592 353.222045 
L 167.132495 353.219216 
L 197.624397 353.199597 
L 228.116299 353.197893 
L 258.608201 353.206958 
L 289.100103 353.204768 
L 319.592006 353.208509 
L 350.083908 353.171248 
L 380.57581 353.195399 
L 411.067712 353.203429 
L 441.559614 353.190471 
L 472.051517 353.175567 
L 502.543419 353.104086 
L 533.035321 353.13645 
L 563.527223 353.149347 
L 594.019125 353.123006 
L 624.511028 353.134534 
L 655.00293 353.056635 
L 685.494832 353.161757 
L 715.986734 353.18457 
L 746.478636 353.184996 
L 776.970538 353.18238 
L 807.462441 353.173955 
L 837.954343 353.187795 
L 868.446245 353.189407 
L 898.938147 353.185757 
L 929.430049 353.18013 
L 947.725191 353.166563 
" clip-path="url(#pb42ca237fa)" style="fill: none; stroke: #5cb85c; stroke-linecap: square"/>
   </g>
   <g id="line2d_29">
    <path d="M 39.066505 352.316629 
L 45.164886 352.857784 
L 51.263266 353.207237 
L 57.361647 352.927394 
L 63.460027 353.108506 
L 69.558408 353.207081 
L 75.656788 353.2239 
L 81.755169 353.2239 
L 87.853549 353.2239 
L 106.14869 353.223339 
L 136.640592 353.2239 
L 167.132495 353.223526 
L 197.624397 353.188861 
L 228.116299 353.040857 
L 258.608201 352.120816 
L 289.100103 353.223869 
L 319.592006 353.223744 
L 350.083908 353.218979 
L 380.57581 353.2239 
L 411.067712 353.2239 
L 441.559614 353.2239 
L 472.051517 353.2239 
L 502.543419 353.2239 
L 533.035321 353.223807 
L 563.527223 353.2239 
L 594.019125 353.2239 
L 624.511028 353.2239 
L 655.00293 353.222685 
L 685.494832 353.2239 
L 715.986734 353.2239 
L 746.478636 353.2239 
L 776.970538 353.2239 
L 807.462441 353.2239 
L 837.954343 353.2239 
L 868.446245 353.223526 
L 898.938147 353.2239 
L 929.430049 353.2239 
L 947.725191 353.2239 
" clip-path="url(#pb42ca237fa)" style="fill: none; stroke: #5cb85c; stroke-linecap: square"/>
   </g>
   <g id="line2d_30">
    <path d="M 39.066505 352.99389 
L 45.164886 353.159584 
L 51.263266 353.221564 
L 57.361647 353.219072 
L 63.460027 353.2239 
L 69.558408 353.223744 
L 75.656788 353.2239 
L 81.755169 353.2239 
L 87.853549 353.2239 
L 106.14869 353.223838 
L 136.640592 353.223215 
L 167.132495 353.219976 
L 197.624397 353.207113 
L 228.116299 353.211286 
L 258.608201 353.213996 
L 289.100103 353.213653 
L 319.592006 353.213497 
L 350.083908 353.184345 
L 380.57581 353.206272 
L 411.067712 353.211504 
L 441.559614 353.199388 
L 472.051517 353.182009 
L 502.543419 353.10075 
L 533.035321 353.141489 
L 563.527223 353.155878 
L 594.019125 353.126913 
L 624.511028 353.130619 
L 655.00293 353.03195 
L 685.494832 353.150583 
L 715.986734 353.167433 
L 746.478636 353.164505 
L 776.970538 353.149524 
L 807.462441 353.133796 
L 837.954343 353.15837 
L 868.446245 353.161142 
L 898.938147 353.150988 
L 929.430049 353.139464 
L 947.725191 353.129685 
" clip-path="url(#pb42ca237fa)" style="fill: none; stroke: #5cb85c; stroke-linecap: square"/>
   </g>
   <g id="line2d_31">
    <path d="M 39.066505 352.737162 
L 45.164886 352.888904 
L 51.263266 353.201429 
L 57.361647 353.223642 
L 63.460027 353.2239 
L 69.558408 353.203366 
L 75.656788 353.2239 
L 81.755169 353.2239 
L 87.853549 353.2239 
L 106.14869 353.223513 
L 136.640592 353.2239 
L 167.132495 353.223745 
L 197.624397 353.182187 
L 228.116299 352.995731 
L 258.608201 351.851244 
L 289.100103 353.2239 
L 319.592006 353.2239 
L 350.083908 353.2239 
L 380.57581 353.2239 
L 411.067712 353.2239 
L 441.559614 353.2239 
L 472.051517 353.2239 
L 502.543419 353.2239 
L 533.035321 353.2239 
L 563.527223 353.2239 
L 594.019125 353.2239 
L 624.511028 353.2239 
L 655.00293 353.2239 
L 685.494832 353.2239 
L 715.986734 353.2239 
L 746.478636 353.2239 
L 776.970538 353.2239 
L 807.462441 353.2239 
L 837.954343 353.2239 
L 868.446245 353.2239 
L 898.938147 353.2239 
L 929.430049 353.2239 
L 947.725191 353.2239 
" clip-path="url(#pb42ca237fa)" style="fill: none; stroke: #5cb85c; stroke-linecap: square"/>
   </g>
   <g id="line2d_32">
    <path d="M 39.066505 353.156746 
L 45.164886 353.2239 
L 51.263266 353.2239 
L 57.361647 353.2239 
L 63.460027 353.2239 
L 69.558408 353.223254 
L 75.656788 353.2239 
L 81.755169 353.2239 
L 87.853549 353.2239 
L 106.14869 353.223848 
L 136.640592 353.223073 
L 167.132495 353.221085 
L 197.624397 353.20644 
L 228.116299 353.206982 
L 258.608201 353.211012 
L 289.100103 353.211502 
L 319.592006 353.210882 
L 350.083908 353.175291 
L 380.57581 353.20068 
L 411.067712 353.208145 
L 441.559614 353.201403 
L 472.051517 353.187895 
L 502.543419 353.116815 
L 533.035321 353.144891 
L 563.527223 353.167129 
L 594.019125 353.13957 
L 624.511028 353.161008 
L 655.00293 353.082411 
L 685.494832 353.186397 
L 715.986734 353.214628 
L 746.478636 353.214808 
L 776.970538 353.219716 
L 807.462441 353.21734 
L 837.954343 353.221446 
L 868.446245 353.22155 
L 898.938147 353.221395 
L 929.430049 353.222583 
L 947.725191 353.216797 
" clip-path="url(#pb42ca237fa)" style="fill: none; stroke: #5cb85c; stroke-linecap: square"/>
   </g>
   <g id="line2d_33">
    <path d="M 39.066505 352.72134 
L 45.164886 352.895865 
L 51.263266 353.202101 
L 57.361647 353.223378 
L 63.460027 353.2239 
L 69.558408 353.201187 
L 75.656788 353.2239 
L 81.755169 353.2239 
L 87.853549 353.2239 
L 106.14869 353.223247 
L 136.640592 353.2239 
L 167.132495 353.223404 
L 197.624397 353.174036 
L 228.116299 352.955572 
L 258.608201 351.694212 
L 289.100103 353.2239 
L 319.592006 353.2239 
L 350.083908 353.2239 
L 380.57581 353.2239 
L 411.067712 353.2239 
L 441.559614 353.2239 
L 472.051517 353.2239 
L 502.543419 353.2239 
L 533.035321 353.2239 
L 563.527223 353.2239 
L 594.019125 353.2239 
L 624.511028 353.2239 
L 655.00293 353.2239 
L 685.494832 353.2239 
L 715.986734 353.2239 
L 746.478636 353.2239 
L 776.970538 353.2239 
L 807.462441 353.2239 
L 837.954343 353.2239 
L 868.446245 353.2239 
L 898.938147 353.2239 
L 929.430049 353.2239 
L 947.725191 353.2239 
" clip-path="url(#pb42ca237fa)" style="fill: none; stroke: #5cb85c; stroke-linecap: square"/>
   </g>
   <g id="line2d_34">
    <path d="M 39.066505 353.156413 
L 45.164886 353.2239 
L 51.263266 353.2239 
L 57.361647 353.2239 
L 63.460027 353.2239 
L 69.558408 353.223639 
L 75.656788 353.2239 
L 81.755169 353.2239 
L 87.853549 353.2239 
L 106.14869 353.223874 
L 136.640592 353.223117 
L 167.132495 353.221603 
L 197.624397 353.2068 
L 228.116299 353.208184 
L 258.608201 353.212074 
L 289.100103 353.21223 
L 319.592006 353.211212 
L 350.083908 353.177325 
L 380.57581 353.201552 
L 411.067712 353.208105 
L 441.559614 353.202832 
L 472.051517 353.189204 
L 502.543419 353.119263 
L 533.035321 353.147406 
L 563.527223 353.166961 
L 594.019125 353.142263 
L 624.511028 353.162392 
L 655.00293 353.085455 
L 685.494832 353.186671 
L 715.986734 353.215963 
L 746.478636 353.215415 
L 776.970538 353.220454 
L 807.462441 353.217974 
L 837.954343 353.221916 
L 868.446245 353.221785 
L 898.938147 353.22189 
L 929.430049 353.22296 
L 947.725191 353.21659 
" clip-path="url(#pb42ca237fa)" style="fill: none; stroke: #5cb85c; stroke-linecap: square"/>
   </g>
   <g id="line2d_35">
    <path d="M 39.066505 352.168335 
L 45.164886 352.753046 
L 51.263266 353.212862 
L 57.361647 352.797198 
L 63.460027 353.038522 
L 69.558408 353.221178 
L 75.656788 353.223446 
L 81.755169 353.2239 
L 87.853549 353.223295 
L 106.14869 353.223507 
L 136.640592 353.2239 
L 167.132495 353.223688 
L 197.624397 353.192147 
L 228.116299 353.053643 
L 258.608201 352.174111 
L 289.100103 353.2239 
L 319.592006 353.223688 
L 350.083908 353.217368 
L 380.57581 353.2239 
L 411.067712 353.2239 
L 441.559614 353.2239 
L 472.051517 353.2239 
L 502.543419 353.2239 
L 533.035321 353.2239 
L 563.527223 353.2239 
L 594.019125 353.2239 
L 624.511028 353.2239 
L 655.00293 353.221965 
L 685.494832 353.2239 
L 715.986734 353.2239 
L 746.478636 353.2239 
L 776.970538 353.2239 
L 807.462441 353.2239 
L 837.954343 353.2239 
L 868.446245 353.223144 
L 898.938147 353.2239 
L 929.430049 353.2239 
L 947.725191 353.2239 
" clip-path="url(#pb42ca237fa)" style="fill: none; stroke: #5cb85c; stroke-linecap: square"/>
   </g>
   <g id="line2d_36">
    <path d="M 39.066505 352.923001 
L 45.164886 353.132874 
L 51.263266 353.221027 
L 57.361647 353.214072 
L 63.460027 353.2239 
L 69.558408 353.2239 
L 75.656788 353.2239 
L 81.755169 353.2239 
L 87.853549 353.2239 
L 106.14869 353.223779 
L 136.640592 353.2226 
L 167.132495 353.218063 
L 197.624397 353.20255 
L 228.116299 353.2063 
L 258.608201 353.211955 
L 289.100103 353.210261 
L 319.592006 353.213013 
L 350.083908 353.184556 
L 380.57581 353.204515 
L 411.067712 353.209959 
L 441.559614 353.193356 
L 472.051517 353.174849 
L 502.543419 353.09843 
L 533.035321 353.138378 
L 563.527223 353.146271 
L 594.019125 353.120475 
L 624.511028 353.117028 
L 655.00293 353.014632 
L 685.494832 353.135777 
L 715.986734 353.14491 
L 746.478636 353.140949 
L 776.970538 353.118147 
L 807.462441 353.095285 
L 837.954343 353.128943 
L 868.446245 353.134598 
L 898.938147 353.122411 
L 929.430049 353.098974 
L 947.725191 353.089478 
" clip-path="url(#pb42ca237fa)" style="fill: none; stroke: #5cb85c; stroke-linecap: square"/>
   </g>
   <g id="line2d_37">
    <path d="M 39.066505 352.544092 
L 45.164886 352.87395 
L 51.263266 353.203959 
L 57.361647 353.092535 
L 63.460027 353.166057 
L 69.558408 353.204112 
L 75.656788 353.2239 
L 81.755169 353.2239 
L 87.853549 353.223748 
L 106.14869 353.223261 
L 136.640592 353.2239 
L 167.132495 353.223443 
L 197.624397 353.175464 
L 228.116299 352.97417 
L 258.608201 351.797826 
L 289.100103 353.2239 
L 319.592006 353.223839 
L 350.083908 353.22186 
L 380.57581 353.2239 
L 411.067712 353.2239 
L 441.559614 353.2239 
L 472.051517 353.2239 
L 502.543419 353.2239 
L 533.035321 353.22387 
L 563.527223 353.2239 
L 594.019125 353.2239 
L 624.511028 353.2239 
L 655.00293 353.222956 
L 685.494832 353.2239 
L 715.986734 353.2239 
L 746.478636 353.2239 
L 776.970538 353.2239 
L 807.462441 353.2239 
L 837.954343 353.2239 
L 868.446245 353.223717 
L 898.938147 353.2239 
L 929.430049 353.2239 
L 947.725191 353.2239 
" clip-path="url(#pb42ca237fa)" style="fill: none; stroke: #5cb85c; stroke-linecap: square"/>
   </g>
   <g id="line2d_38">
    <path d="M 39.066505 353.077618 
L 45.164886 353.193913 
L 51.263266 353.222987 
L 57.361647 353.220856 
L 63.460027 353.2239 
L 69.558408 353.222834 
L 75.656788 353.2239 
L 81.755169 353.2239 
L 87.853549 353.2239 
L 106.14869 353.223809 
L 136.640592 353.222956 
L 167.132495 353.219729 
L 197.624397 353.20472 
L 228.116299 353.207582 
L 258.608201 353.211783 
L 289.100103 353.211875 
L 319.592006 353.210353 
L 350.083908 353.175251 
L 380.57581 353.200885 
L 411.067712 353.207247 
L 441.559614 353.198875 
L 472.051517 353.179726 
L 502.543419 353.098046 
L 533.035321 353.133026 
L 563.527223 353.153392 
L 594.019125 353.122675 
L 624.511028 353.138688 
L 655.00293 353.046748 
L 685.494832 353.163865 
L 715.986734 353.190381 
L 746.478636 353.188677 
L 776.970538 353.186241 
L 807.462441 353.176438 
L 837.954343 353.189529 
L 868.446245 353.192421 
L 898.938147 353.187307 
L 929.430049 353.181888 
L 947.725191 353.175342 
" clip-path="url(#pb42ca237fa)" style="fill: none; stroke: #5cb85c; stroke-linecap: square"/>
   </g>
   <g id="line2d_39">
    <path d="M 39.066505 352.172191 
L 45.164886 352.836326 
L 51.263266 353.205423 
L 57.361647 352.842034 
L 63.460027 353.058054 
L 69.558408 353.207676 
L 75.656788 353.2239 
L 81.755169 353.2239 
L 87.853549 353.2236 
L 106.14869 353.223209 
L 136.640592 353.2239 
L 167.132495 353.223299 
L 197.624397 353.187456 
L 228.116299 353.03504 
L 258.608201 352.077701 
L 289.100103 353.22387 
L 319.592006 353.22381 
L 350.083908 353.217891 
L 380.57581 353.2239 
L 411.067712 353.2239 
L 441.559614 353.2239 
L 472.051517 353.2239 
L 502.543419 353.2239 
L 533.035321 353.22387 
L 563.527223 353.2239 
L 594.019125 353.2239 
L 624.511028 353.2239 
L 655.00293 353.221887 
L 685.494832 353.2239 
L 715.986734 353.2239 
L 746.478636 353.2239 
L 776.970538 353.2239 
L 807.462441 353.2239 
L 837.954343 353.2239 
L 868.446245 353.223419 
L 898.938147 353.2239 
L 929.430049 353.2239 
L 947.725191 353.2239 
" clip-path="url(#pb42ca237fa)" style="fill: none; stroke: #5cb85c; stroke-linecap: square"/>
   </g>
   <g id="line2d_40">
    <path d="M 39.066505 352.948692 
L 45.164886 353.140226 
L 51.263266 353.221196 
L 57.361647 353.216539 
L 63.460027 353.2239 
L 69.558408 353.223449 
L 75.656788 353.2239 
L 81.755169 353.2239 
L 87.853549 353.2239 
L 106.14869 353.22375 
L 136.640592 353.222969 
L 167.132495 353.219183 
L 197.624397 353.206324 
L 228.116299 353.210801 
L 258.608201 353.213715 
L 289.100103 353.213475 
L 319.592006 353.213414 
L 350.083908 353.186164 
L 380.57581 353.205753 
L 411.067712 353.210981 
L 441.559614 353.198753 
L 472.051517 353.179464 
L 502.543419 353.09558 
L 533.035321 353.140526 
L 563.527223 353.151132 
L 594.019125 353.122019 
L 624.511028 353.120487 
L 655.00293 353.013618 
L 685.494832 353.137011 
L 715.986734 353.151222 
L 746.478636 353.146986 
L 776.970538 353.128208 
L 807.462441 353.107598 
L 837.954343 353.136771 
L 868.446245 353.143561 
L 898.938147 353.133015 
L 929.430049 353.113546 
L 947.725191 353.100417 
" clip-path="url(#pb42ca237fa)" style="fill: none; stroke: #5cb85c; stroke-linecap: square"/>
   </g>
   <g id="line2d_41">
    <path d="M 39.066505 352.424788 
L 45.164886 352.871561 
L 51.263266 353.202981 
L 57.361647 353.023524 
L 63.460027 353.139626 
L 69.558408 353.202831 
L 75.656788 353.2239 
L 81.755169 353.2239 
L 87.853549 353.223751 
L 106.14869 353.223063 
L 136.640592 353.2239 
L 167.132495 353.223422 
L 197.624397 353.17979 
L 228.116299 352.992683 
L 258.608201 351.862271 
L 289.100103 353.22387 
L 319.592006 353.223661 
L 350.083908 353.221001 
L 380.57581 353.2239 
L 411.067712 353.2239 
L 441.559614 353.2239 
L 472.051517 353.2239 
L 502.543419 353.2239 
L 533.035321 353.22384 
L 563.527223 353.2239 
L 594.019125 353.2239 
L 624.511028 353.2239 
L 655.00293 353.222824 
L 685.494832 353.2239 
L 715.986734 353.2239 
L 746.478636 353.2239 
L 776.970538 353.2239 
L 807.462441 353.2239 
L 837.954343 353.2239 
L 868.446245 353.223601 
L 898.938147 353.2239 
L 929.430049 353.2239 
L 947.725191 353.2239 
" clip-path="url(#pb42ca237fa)" style="fill: none; stroke: #5cb85c; stroke-linecap: square"/>
   </g>
   <g id="line2d_42">
    <path d="M 39.066505 353.043995 
L 45.164886 353.179671 
L 51.263266 353.223003 
L 57.361647 353.220463 
L 63.460027 353.2239 
L 69.558408 353.223302 
L 75.656788 353.2239 
L 81.755169 353.2239 
L 87.853549 353.2239 
L 106.14869 353.22378 
L 136.640592 353.223243 
L 167.132495 353.220643 
L 197.624397 353.207732 
L 228.116299 353.210661 
L 258.608201 353.21356 
L 289.100103 353.213889 
L 319.592006 353.212484 
L 350.083908 353.181852 
L 380.57581 353.205431 
L 411.067712 353.210213 
L 441.559614 353.201188 
L 472.051517 353.183556 
L 502.543419 353.105856 
L 533.035321 353.140283 
L 563.527223 353.158692 
L 594.019125 353.129136 
L 624.511028 353.139028 
L 655.00293 353.044742 
L 685.494832 353.161322 
L 715.986734 353.181374 
L 746.478636 353.180896 
L 776.970538 353.172588 
L 807.462441 353.161411 
L 837.954343 353.177728 
L 868.446245 353.180687 
L 898.938147 353.173634 
L 929.430049 353.165655 
L 947.725191 353.158303 
" clip-path="url(#pb42ca237fa)" style="fill: none; stroke: #5cb85c; stroke-linecap: square"/>
   </g>
   <g id="line2d_43">
    <path d="M 39.066505 351.939892 
L 45.164886 352.838939 
L 51.263266 353.208381 
L 57.361647 352.680283 
L 63.460027 352.992622 
L 69.558408 353.210942 
L 75.656788 353.2239 
L 81.755169 353.2239 
L 87.853549 353.223297 
L 106.14869 353.222966 
L 136.640592 353.22387 
L 167.132495 353.223177 
L 197.624397 353.187197 
L 228.116299 353.030651 
L 258.608201 352.141096 
L 289.100103 353.223749 
L 319.592006 353.223358 
L 350.083908 353.215462 
L 380.57581 353.22387 
L 411.067712 353.2239 
L 441.559614 353.2239 
L 472.051517 353.2239 
L 502.543419 353.22387 
L 533.035321 353.223689 
L 563.527223 353.2239 
L 594.019125 353.2239 
L 624.511028 353.2239 
L 655.00293 353.221821 
L 685.494832 353.2239 
L 715.986734 353.2239 
L 746.478636 353.2239 
L 776.970538 353.2239 
L 807.462441 353.2239 
L 837.954343 353.2239 
L 868.446245 353.222966 
L 898.938147 353.2239 
L 929.430049 353.2239 
L 947.725191 353.2239 
" clip-path="url(#pb42ca237fa)" style="fill: none; stroke: #5cb85c; stroke-linecap: square"/>
   </g>
   <g id="line2d_44">
    <path d="M 39.066505 352.857923 
L 45.164886 353.101857 
L 51.263266 353.22164 
L 57.361647 353.213202 
L 63.460027 353.2239 
L 69.558408 353.223599 
L 75.656788 353.2239 
L 81.755169 353.2239 
L 87.853549 353.2239 
L 106.14869 353.223719 
L 136.640592 353.223056 
L 167.132495 353.218385 
L 197.624397 353.203529 
L 228.116299 353.210852 
L 258.608201 353.213654 
L 289.100103 353.213353 
L 319.592006 353.213413 
L 350.083908 353.187257 
L 380.57581 353.205398 
L 411.067712 353.211093 
L 441.559614 353.193947 
L 472.051517 353.170081 
L 502.543419 353.079046 
L 533.035321 353.129882 
L 563.527223 353.134794 
L 594.019125 353.10472 
L 624.511028 353.095981 
L 655.00293 352.97861 
L 685.494832 353.112163 
L 715.986734 353.121143 
L 746.478636 353.116081 
L 776.970538 353.0867 
L 807.462441 353.055813 
L 837.954343 353.100682 
L 868.446245 353.107613 
L 898.938147 353.089985 
L 929.430049 353.063768 
L 947.725191 353.052136 
" clip-path="url(#pb42ca237fa)" style="fill: none; stroke: #5cb85c; stroke-linecap: square"/>
   </g>
   <g id="line2d_45">
    <path d="M 39.066505 352.467277 
L 45.164886 352.860447 
L 51.263266 353.202429 
L 57.361647 353.028638 
L 63.460027 353.140349 
L 69.558408 353.208497 
L 75.656788 353.2239 
L 81.755169 353.2239 
L 87.853549 353.223744 
L 106.14869 353.223278 
L 136.640592 353.2239 
L 167.132495 353.223682 
L 197.624397 353.188862 
L 228.116299 353.034456 
L 258.608201 352.026404 
L 289.100103 353.2239 
L 319.592006 353.223838 
L 350.083908 353.221224 
L 380.57581 353.2239 
L 411.067712 353.2239 
L 441.559614 353.2239 
L 472.051517 353.2239 
L 502.543419 353.2239 
L 533.035321 353.2239 
L 563.527223 353.2239 
L 594.019125 353.2239 
L 624.511028 353.2239 
L 655.00293 353.223091 
L 685.494832 353.2239 
L 715.986734 353.2239 
L 746.478636 353.2239 
L 776.970538 353.2239 
L 807.462441 353.2239 
L 837.954343 353.2239 
L 868.446245 353.223589 
L 898.938147 353.2239 
L 929.430049 353.2239 
L 947.725191 353.2239 
" clip-path="url(#pb42ca237fa)" style="fill: none; stroke: #5cb85c; stroke-linecap: square"/>
   </g>
   <g id="line2d_46">
    <path d="M 39.066505 353.046063 
L 45.164886 353.183136 
L 51.263266 353.222189 
L 57.361647 353.220321 
L 63.460027 353.2239 
L 69.558408 353.223122 
L 75.656788 353.2239 
L 81.755169 353.2239 
L 87.853549 353.2239 
L 106.14869 353.223713 
L 136.640592 353.222904 
L 167.132495 353.220166 
L 197.624397 353.203362 
L 228.116299 353.205541 
L 258.608201 353.210986 
L 289.100103 353.210271 
L 319.592006 353.210333 
L 350.083908 353.174734 
L 380.57581 353.199099 
L 411.067712 353.206474 
L 441.559614 353.194898 
L 472.051517 353.177286 
L 502.543419 353.094482 
L 533.035321 353.132788 
L 563.527223 353.149654 
L 594.019125 353.120154 
L 624.511028 353.133037 
L 655.00293 353.037537 
L 685.494832 353.157246 
L 715.986734 353.183541 
L 746.478636 353.180833 
L 776.970538 353.17657 
L 807.462441 353.164154 
L 837.954343 353.181176 
L 868.446245 353.183758 
L 898.938147 353.178531 
L 929.430049 353.170316 
L 947.725191 353.163999 
" clip-path="url(#pb42ca237fa)" style="fill: none; stroke: #5cb85c; stroke-linecap: square"/>
   </g>
   <g id="line2d_47">
    <path d="M 32.968125 353.2239 
L 993.158125 353.2239 
" clip-path="url(#pb42ca237fa)" style="fill: none; stroke: #dedede; stroke-width: 2; stroke-linecap: square"/>
   </g>
   <g id="text_17">
    <!-- FastQC: Per Base N Content -->
    <g transform="translate(402.209375 19.3575) scale(0.16 -0.16)">
     <defs>
      <path id="DejaVuSans-46" d="M 628 4666 
L 3309 4666 
L 3309 4134 
L 1259 4134 
L 1259 2759 
L 3109 2759 
L 3109 2228 
L 1259 2228 
L 1259 0 
L 628 0 
L 628 4666 
z
" transform="scale(0.015625)"/>
      <path id="DejaVuSans-51" d="M 2522 4238 
Q 1834 4238 1429 3725 
Q 1025 3213 1025 2328 
Q 1025 1447 1429 934 
Q 1834 422 2522 422 
Q 3209 422 3611 934 
Q 4013 1447 4013 2328 
Q 4013 3213 3611 3725 
Q 3209 4238 2522 4238 
z
M 3406 84 
L 4238 -825 
L 3475 -825 
L 2784 -78 
Q 2681 -84 2626 -87 
Q 2572 -91 2522 -91 
Q 1538 -91 948 567 
Q 359 1225 359 2328 
Q 359 3434 948 4092 
Q 1538 4750 2522 4750 
Q 3503 4750 4090 4092 
Q 4678 3434 4678 2328 
Q 4678 1516 4351 937 
Q 4025 359 3406 84 
z
" transform="scale(0.015625)"/>
      <path id="DejaVuSans-3a" d="M 750 794 
L 1409 794 
L 1409 0 
L 750 0 
L 750 794 
z
M 750 3309 
L 1409 3309 
L 1409 2516 
L 750 2516 
L 750 3309 
z
" transform="scale(0.015625)"/>
      <path id="DejaVuSans-42" d="M 1259 2228 
L 1259 519 
L 2272 519 
Q 2781 519 3026 730 
Q 3272 941 3272 1375 
Q 3272 1813 3026 2020 
Q 2781 2228 2272 2228 
L 1259 2228 
z
M 1259 4147 
L 1259 2741 
L 2194 2741 
Q 2656 2741 2882 2914 
Q 3109 3088 3109 3444 
Q 3109 3797 2882 3972 
Q 2656 4147 2194 4147 
L 1259 4147 
z
M 628 4666 
L 2241 4666 
Q 2963 4666 3353 4366 
Q 3744 4066 3744 3513 
Q 3744 3084 3544 2831 
Q 3344 2578 2956 2516 
Q 3422 2416 3680 2098 
Q 3938 1781 3938 1306 
Q 3938 681 3513 340 
Q 3088 0 2303 0 
L 628 0 
L 628 4666 
z
" transform="scale(0.015625)"/>
     </defs>
     <use xlink:href="#DejaVuSans-46"/>
     <use xlink:href="#DejaVuSans-61" x="48.394531"/>
     <use xlink:href="#DejaVuSans-73" x="109.673828"/>
     <use xlink:href="#DejaVuSans-74" x="161.773438"/>
     <use xlink:href="#DejaVuSans-51" x="200.982422"/>
     <use xlink:href="#DejaVuSans-43" x="279.693359"/>
     <use xlink:href="#DejaVuSans-3a" x="349.517578"/>
     <use xlink:href="#DejaVuSans-20" x="383.208984"/>
     <use xlink:href="#DejaVuSans-50" x="414.996094"/>
     <use xlink:href="#DejaVuSans-65" x="471.673828"/>
     <use xlink:href="#DejaVuSans-72" x="533.197266"/>
     <use xlink:href="#DejaVuSans-20" x="574.310547"/>
     <use xlink:href="#DejaVuSans-42" x="606.097656"/>
     <use xlink:href="#DejaVuSans-61" x="674.701172"/>
     <use xlink:href="#DejaVuSans-73" x="735.980469"/>
     <use xlink:href="#DejaVuSans-65" x="788.080078"/>
     <use xlink:href="#DejaVuSans-20" x="849.603516"/>
     <use xlink:href="#DejaVuSans-4e" x="881.390625"/>
     <use xlink:href="#DejaVuSans-20" x="956.195312"/>
     <use xlink:href="#DejaVuSans-43" x="987.982422"/>
     <use xlink:href="#DejaVuSans-6f" x="1057.806641"/>
     <use xlink:href="#DejaVuSans-6e" x="1118.988281"/>
     <use xlink:href="#DejaVuSans-74" x="1182.367188"/>
     <use xlink:href="#DejaVuSans-65" x="1221.576172"/>
     <use xlink:href="#DejaVuSans-6e" x="1283.099609"/>
     <use xlink:href="#DejaVuSans-74" x="1346.478516"/>
    </g>
   </g>
  </g>
 </g>
 <defs>
  <clipPath id="pb42ca237fa">
   <rect x="32.968125" y="35.2559" width="960.19" height="317.968"/>
  </clipPath>
 </defs>
</svg>
